<?xml version="1.0" standalone="no"?>
<!DOCTYPE svg PUBLIC "-//W3C//DTD SVG 1.1//EN" "http://www.w3.org/Graphics/SVG/1.1/DTD/svg11.dtd" >
<svg xmlns="http://www.w3.org/2000/svg">
<metadata>
Created by FontPrep 20130207 at Mon Feb  8 10:00:48 2016
 By Cristian Borquez
Copyright (c) 2014 by Fontfabric. All rights reserved.
</metadata>
<defs>
<font id="cc7af63c3fa8be74cd1d6b40bf6fe167" horiz-adv-x='1024' >
  <font-face 
    font-family="NexaRustSans-Book"
    font-weight="400"
    font-stretch="normal"
    units-per-em="2048"
    panose-1="0 0 5 0 0 0 0 0 0 0"
    ascent="1536"
    descent="-512"
    x-height="1434"
    cap-height="1434"
    bbox="-78 -512 2224 1880"
    underline-thickness="102"
    underline-position="-102"
    unicode-range="U+0020-25CA"
  />
<missing-glyph horiz-adv-x="1024" 
d="M342 -207h143l-143 -96v-68h340v68h-209l143 96h66v68h-340v-68zM410 -25v97h204v-97h-204zM342 -92h340v231h-340v-231zM477 379h70v47h67v-96h-204v164h-68v-232h340v232h-205v-115zM614 608h-272v-69h340v204h-68v-135zM342 799h135v-76h-135v-68h205v144h135v67h-340
v-67zM410 991v74h67v-74h-67zM342 922h340v69h-135v144h-205v-213zM344 1331h133v-76h-135v-67h340v67h-135v76h135v68h-338v-68zM190 -512v2048h650v-2048h-650z" />
    <glyph glyph-name=".notdef" horiz-adv-x="1024" 
d="M342 -207h143l-143 -96v-68h340v68h-209l143 96h66v68h-340v-68zM410 -25v97h204v-97h-204zM342 -92h340v231h-340v-231zM477 379h70v47h67v-96h-204v164h-68v-232h340v232h-205v-115zM614 608h-272v-69h340v204h-68v-135zM342 799h135v-76h-135v-68h205v144h135v67h-340
v-67zM410 991v74h67v-74h-67zM342 922h340v69h-135v144h-205v-213zM344 1331h133v-76h-135v-67h340v67h-135v76h135v68h-338v-68zM190 -512v2048h650v-2048h-650z" />
    <glyph glyph-name=".null" horiz-adv-x="0" 
 />
    <glyph glyph-name="nonmarkingreturn" horiz-adv-x="681" 
 />
    <glyph glyph-name="space" unicode=" " horiz-adv-x="534" 
 />
    <glyph glyph-name="exclam" unicode="!" horiz-adv-x="518" 
d="M219 180l27 6l28 2l27 -8l25 -14l18 -21l10 -26l4 -31l-2 -29l-10 -24l-20 -21l-23 -12l-27 -8h-30l-27 6l-24 12l-21 21l-10 28l-2 31l6 27l12 22l17 23zM336 1233l-4 -31l-2 -26v-144l2 -28v-175l-4 -59v-143l2 -29l4 -27l-6 -90v-57l2 -29l2 -26l-4 -23l-13 -16
l-18 -11l-27 -4l-26 -2l-29 4l-22 19l-7 31l-2 32v29l-2 27l2 26l2 29l-4 57l2 33l4 31v82l-2 24l4 62l-4 26v31l2 33l-4 53l-2 29v30l4 56v28l-4 29v57l2 33l2 27v84l-4 57l6 25l13 16l16 12l27 9l28 -2l27 -7l20 -18l13 -31l4 -61v-82z" />
    <glyph glyph-name="quotedbl" unicode="&#x22;" horiz-adv-x="739" 
d="M586 1296l2 -30v-29l-4 -25l-2 -24l4 -60v-26l-4 -25v-28l2 -29l-2 -31v-31l-2 -26l-9 -17l-18 -8h-31l-28 6l-19 9l-10 16l-6 29v82l2 28v25l-2 31l2 26l2 23v26l-2 33l2 29v24l-2 27l-2 31l-2 28l8 29l24 23l33 6l35 -8l25 -19l6 -29v-59zM279 1321v-49l2 -29v-29
l-2 -28v-80l-3 -29l-2 -26l2 -31l5 -29l2 -30l-4 -27l-13 -16l-22 -7l-31 -4h-29l-18 8l-12 17l-7 29l3 32v113l-3 16v35l3 31l2 29l4 26v27l-4 28l-2 25v29l2 30l8 29l20 21l21 8l20 2l25 -6l18 -13l10 -18l5 -27l-3 -26z" />
    <glyph glyph-name="numbersign" unicode="#" horiz-adv-x="1388" 
d="M539 868l-17 -53l-12 -59l-21 -54l-6 -30l-4 -29l-18 -82l-17 -55l-2 -29l15 -22l28 -6h82l33 -3h31l82 -2l26 2l27 7l20 8l13 14l14 25l10 30l19 84l8 31l10 29l10 24l9 27l12 63l8 31l4 29l19 80l2 26l-15 23l-28 8l-31 -2h-27l-53 4l-57 -4l-33 4h-29l-24 -2l-29 -8
l-23 -8l-16 -15l-10 -24l-4 -31zM655 1321l-6 -31l-18 -51l-6 -29l-4 -28l-7 -27l-4 -31l17 -22l24 -8l29 2l29 4l28 2l60 -4h49l28 -2h33l29 4l18 10l11 16l14 41l10 41l8 27l13 61l4 27l8 27l10 28l15 21l14 14l16 10l25 9l28 4l29 -11l17 -24l-2 -29l-7 -26l-10 -27
l-16 -55l-6 -27l-5 -29l-6 -30l-8 -29l-2 -25l16 -20l29 -6l31 2l31 -2l30 -4l27 -7l16 -10l11 -16l4 -25l-6 -24l-21 -21l-31 -8l-26 -4l-29 2h-31l-30 2l-31 -6l-21 -12l-16 -17l-10 -26l-4 -29l-6 -27l-11 -24l-8 -29l-4 -29l-4 -24l-21 -60l-8 -26l-6 -27l-4 -29l-6 -26
l-10 -27l-9 -28l-6 -31v-31l19 -18l24 -4h25l55 -4h51l15 -9l10 -20l6 -29l-2 -26l-10 -19l-17 -12l-28 -6h-54l-28 2l-27 4h-24l-29 -12l-23 -21l-14 -25l-6 -28l-8 -27l-8 -24l-15 -60l-18 -86l-10 -26l-15 -13l-20 -6l-60 -8l-22 4l-12 25v28l4 25l6 26l8 27l6 31l4 31
l6 28l9 29l10 29l2 24l-19 17l-30 8l-29 2l-23 2h-90l-53 -4h-57l-27 -2l-18 -11l-15 -16l-12 -25l-6 -26l-6 -33l-29 -137l-8 -27l-12 -22l-17 -15l-16 -10l-25 -6l-24 2l-27 6l-18 21l2 28l6 29l4 27l8 28l10 25l7 24l12 54l4 28l-2 29l-12 23l-23 6h-31l-32 4l-25 2
l-25 6l-20 18l-6 31l4 31l20 24l33 7l27 -2h73l31 4l19 10l12 16l20 56l11 26l6 25l8 28l6 31l4 27l17 55l6 29l8 33l6 16l8 33l6 28l9 29l10 29v28l-21 21l-28 6h-84l-31 8l-23 21l-6 24l6 27l11 18l16 13l25 6h28l58 -2l30 2l25 6l20 8l17 14l10 25l4 29l12 55l9 27l8 32
l6 33l16 47l15 31l20 20l29 7l29 2l28 -9l17 -24v-27l-4 -24z" />
    <glyph glyph-name="dollar" unicode="$" horiz-adv-x="1341" 
d="M1012 1219l-23 18l-24 14l-88 35l-27 12l-53 13l-29 6l-33 6l-33 2l-51 -4l-63 -4l-86 -12l-29 -7l-27 -8l-26 -10l-70 -43l-63 -63l-13 -25l-10 -31l-4 -35l2 -26l4 -23l4 -28l25 -50l39 -38l20 -17l23 -12l26 -10l27 -13l31 -12l31 -4l28 -8l25 -11l24 -6l56 -4l34 -4
l25 -6l25 -8l30 -8l29 -7l80 -12l26 -6l62 -12l27 -10l24 -13l53 -18l27 -17l16 -8l27 -16l49 -41l15 -10l22 -25l27 -49l12 -27l10 -28l6 -27l4 -29l2 -30l3 -25l-7 -53l-8 -29l-12 -59l-14 -25l-35 -45l-21 -20l-20 -23l-39 -35l-76 -45l-27 -10l-30 -6l-58 -19l-22 -8
l-31 -10l-31 -2l-26 -6l-23 -8l-16 -9l-12 -14l-2 -29v-32l-5 -31v-27l-6 -24l-18 -21l-29 -10h-24l-27 10l-20 21l-9 24l4 58l-2 28l-6 27l-10 18l-16 9l-25 6l-25 4l-26 6l-29 8l-51 10l-51 17l-31 12l-29 8l-28 17l-17 8l-51 39l-45 30l-22 21l-19 22l-29 43l-8 25l2 20
l8 17l15 14l22 15l27 8l20 -2l19 -9l20 -20l19 -25l20 -22l72 -55l25 -13l55 -18l53 -21l62 -12l83 -12l60 2h88l35 2l18 2l35 8l16 6l31 9l57 20l27 14l25 17l43 35l20 22l17 23l12 24l8 31l4 31v28l-2 27l-4 22l-6 17l-8 18l-15 23l-16 22l-62 51l-24 15l-27 12l-57 19
l-55 12l-62 18l-57 11l-23 6l-26 8l-33 6l-62 4l-16 2l-31 8l-28 9l-33 8l-27 8l-24 6l-27 8l-31 6l-28 11l-25 16l-47 25l-25 20l-20 18l-33 37l-16 27l-37 80l-4 24l-6 86l2 29l18 51l8 25l13 29l30 49l35 37l47 36l23 15l26 12l27 10l27 13l22 14l25 10l26 6l31 4l53 9
l31 6l27 10l16 12l8 17l2 26v29l2 29v30l5 27l20 20l27 5h26l29 -7l22 -22l5 -31l-2 -24v-56l8 -30l22 -23l27 -10l57 -12l31 -9l27 -10l53 -12l26 -13l74 -45l43 -32l23 -23l16 -24l19 -23l12 -22v-19l-10 -18l-19 -15l-24 -12l-21 -8h-18l-21 10z" />
    <glyph glyph-name="percent" unicode="%" horiz-adv-x="1542" 
d="M1038 446l-41 -43l-16 -22l-8 -27l-6 -32l-4 -29v-25l6 -30l12 -25l37 -45l24 -23l25 -16l25 -12l30 -6l27 -2l27 4l61 20l25 10l18 17l37 49l10 24l8 66l2 29l-6 26l-12 27l-35 49l-20 16l-25 15l-29 12l-36 6l-25 2l-25 -4l-30 -4l-31 -10zM1294 573l27 -14l47 -37
l23 -20l18 -23l27 -47l12 -24l8 -27l8 -59v-33l-4 -58l-4 -24l-8 -27l-27 -51l-14 -29l-18 -20l-74 -51l-25 -15l-26 -8l-29 -6l-29 -8l-26 -4l-29 -4l-29 2l-57 12l-31 6l-30 10l-25 11l-23 14l-22 18l-21 23l-16 24l-16 21l-15 25l-14 26l-12 29l-9 61l5 53v33l6 29l8 27
l29 53l14 22l18 23l23 22l22 19l23 12l25 10l26 15l29 10l28 8l27 4l62 -8l28 -2l33 -6zM281 1268l-21 -19l-16 -20l-15 -21l-12 -24l-8 -27l-2 -29l4 -30l8 -33l10 -27l13 -22l18 -19l23 -20l26 -16l29 -11l27 -4h59l27 2l24 8l45 33l21 21l24 53l8 29v28l-4 31l-4 27
l-6 26l-16 27l-19 20l-24 17l-25 14l-26 12l-33 6h-27l-24 -2l-29 -6l-31 -10zM508 1411l31 -12l26 -15l21 -14l43 -41l22 -18l17 -23l10 -24l10 -29l17 -61l6 -29l-2 -25v-24l-4 -33l-15 -59l-10 -29l-16 -25l-52 -59l-22 -21l-27 -16l-26 -12l-27 -11l-59 -12l-27 -6
l-29 -4l-33 2l-32 4l-27 6l-27 10l-28 13l-25 10l-26 12l-25 19l-22 22l-19 21l-14 22l-13 31l-8 29l-8 26l-6 27l-4 33l-4 26v25l4 29l6 28l10 31l23 55l16 21l68 61l22 17l27 16l29 12l28 6l55 2l29 5l29 2l29 -5l30 -6zM1268 1382l-62 -94l-55 -96l-18 -25l-21 -24
l-33 -45l-14 -23l-12 -26l-13 -25l-47 -70l-18 -24l-14 -21l-17 -22l-12 -25l-14 -24l-66 -95l-29 -51l-16 -20l-47 -78l-82 -121l-45 -70l-15 -20l-12 -25l-14 -26l-19 -23l-26 -47l-17 -24l-14 -23l-37 -47l-30 -51l-15 -23l-16 -20l-15 -25l-14 -20l-22 -17l-25 -8
l-27 -2l-32 -2l-29 8l-10 19l10 20l12 21l13 14l10 14l55 97l33 47l18 20l17 23l14 22l10 27l15 26l16 25l18 20l17 23l16 27l33 47l14 24l15 21l12 24l33 52l16 22l14 23l19 22l16 29l12 24l84 117l15 25l14 26l12 25l13 22l37 50l16 20l29 47l14 29l18 20l17 23l28 49
l31 45l12 25l45 75l15 23l16 22l23 23l18 14l21 9l28 4l31 -2l29 -9l10 -16z" />
    <glyph glyph-name="ampersand" unicode="&#x26;" horiz-adv-x="1423" 
d="M543 668l-29 -6l-53 -17l-49 -22l-54 -31l-22 -19l-21 -22l-16 -23l-10 -26l-8 -29l-11 -24l-6 -25v-29l4 -30l19 -82l12 -29l16 -27l19 -18l76 -49l14 -13l31 -14l30 -10l117 -14l31 -5l24 2l27 5l33 2l26 2l111 30l27 13l51 35l20 16l17 16l12 15l14 14l13 20l18 52
l6 30l2 33l-2 29l2 26v54l4 28l2 29v29l-2 30l-8 33l-22 23l-29 8l-33 2l-28 -2l-31 -4l-31 -2h-49l-31 2h-57l-55 4h-27l-37 -4l-29 -2zM1171 268l9 -26l12 -31l16 -27l21 -20l20 -17l25 -12l22 -12l17 -17l12 -18l6 -29l-8 -30l-16 -25l-19 -10h-20l-27 4l-31 12l-47 25
l-39 41l-16 20l-12 23l-13 20l-20 4l-21 -14l-71 -57l-27 -17l-80 -39l-28 -8l-29 -6l-29 -8l-28 -4l-27 -2l-35 -4l-26 -4h-25l-59 8l-29 2h-29l-31 2l-30 6l-25 8l-22 10l-27 9l-29 8l-30 10l-50 31l-20 14l-41 41l-18 21l-17 24l-14 29l-14 26l-9 27l-6 27l-6 24l-6 29
l-2 33l2 28l4 25l2 33l2 26l39 76l16 27l21 22l18 21l21 20l20 17l49 30l27 13l16 14l-2 18l-20 15l-23 12l-24 18l-39 39l-21 19l-34 43l-17 28l-10 27l-8 27l-6 26l-11 60l2 24l7 31l4 31l6 28l20 52l54 73l16 19l68 51l53 29l57 16l27 10l26 8l58 9l28 6l31 4l31 2l57 -4
l53 -2h31l29 -4l26 -6l62 -9l27 -12l22 -12l25 -8l24 -13l25 -16l47 -39l16 -18l19 -25l16 -29l10 -26l11 -25l6 -29v-26l-6 -29l-19 -20l-27 -11h-20l-20 9l-23 20l-10 29l-8 33l-15 28l-16 23l-17 20l-24 19l-74 39l-29 8l-32 6l-29 8l-29 4h-26l-58 -4h-30l-27 2l-27 -4
l-28 -6l-29 -4l-31 -6l-26 -11l-29 -14l-47 -31l-21 -18l-36 -47l-15 -25l-20 -53l-4 -29v-28l2 -29l4 -27l8 -26l14 -25l39 -47l21 -20l18 -15l25 -14l53 -23l55 -20l54 -12l28 -2l33 -5h27l24 2h62l59 5h29l53 -5l31 -2l84 5h32l17 -3h88l29 3h28l29 -5l29 -8l24 -18
l6 -29l-8 -29l-20 -20l-27 -4l-27 -2l-22 -6l-17 -8l-8 -19l-2 -27v-86l2 -28l-6 -94v-25l2 -23v-32z" />
    <glyph glyph-name="quotesingle" unicode="'" horiz-adv-x="432" 
d="M283 1188l-4 -60v-108l-3 -25l-2 -30l-8 -29l-20 -21l-29 -8l-31 2l-18 9l-12 16l-6 29l4 30v29l-2 25v112l2 29l2 26v84l-2 25l-4 61l6 27l12 16l20 9l27 2l29 -6l24 -19l13 -29v-165z" />
    <glyph glyph-name="parenleft" unicode="(" horiz-adv-x="702" 
d="M563 1485l-41 -39l-39 -45l-30 -45l-52 -64l-45 -75l-34 -80l-17 -54l-6 -28l-23 -86l-8 -27l-4 -27l-6 -28l-2 -29v-29l-4 -28l-4 -56v-59l2 -29l12 -88v-26l4 -27l8 -27l7 -28l16 -49l12 -33l8 -29l9 -24l8 -27l12 -25l62 -100l14 -20l12 -23l17 -25l53 -63l45 -41
l20 -20l23 -17l18 -20l6 -19l-2 -20l-8 -23l-12 -18l-21 -19l-30 -2l-29 13l-65 57l-23 18l-41 39l-18 25l-56 65l-16 23l-14 25l-35 51l-15 26l-12 25l-14 25l-10 26l-9 27l-12 28l-10 31l-4 31l-8 27l-11 24l-12 57l-8 56l-2 26l-8 64v53l-9 64v53l4 28l7 29l2 33v31l6 26
l10 27l6 29l25 86l6 26l8 25l10 28l13 29l10 25l29 47l12 28l14 27l12 29l17 22l37 41l55 74l21 20l22 17l23 20l20 23l45 35l25 12h18l19 -10l24 -23l12 -31l-6 -30l-22 -25z" />
    <glyph glyph-name="parenright" unicode=")" horiz-adv-x="700" 
d="M209 1597l65 -61l41 -43l21 -18l37 -48l16 -24l12 -25l19 -20l16 -25l10 -26l15 -23l14 -27l10 -28l25 -51l12 -29l10 -29l7 -26l12 -29l8 -29l4 -30l6 -29l4 -27l2 -26l5 -29l4 -57l4 -31l2 -25l4 -59l-2 -31v-59l-8 -58l-6 -28l-5 -27l-4 -28l-8 -31l-6 -31l-4 -27
l-31 -77l-18 -58l-10 -26l-23 -49l-14 -27l-17 -29l-53 -69l-14 -21l-58 -72l-37 -38l-20 -19l-25 -20l-24 -23l-27 -20l-24 -11h-19l-16 11l-15 22l-12 27l-6 24l4 21l17 18l49 39l41 41l34 41l15 23l14 24l70 94l49 103l6 22l4 27l8 31l11 28l12 54l8 32l4 19l6 33l2 28
l4 27l3 26v27l2 33l-5 53l-2 31v28l-4 60l-2 27l-35 141l-49 129l-26 55l-33 45l-29 53l-14 23l-19 25l-22 22l-57 57l-45 41l-13 21l-6 18v21l8 22l21 21l18 10l21 2l26 -10z" />
    <glyph glyph-name="asterisk" unicode="*" horiz-adv-x="747" 
d="M418 1055l-41 41h-21l-18 -19l-14 -22l-19 -23l-16 -22l-19 -19l-28 -4l-27 12l-18 21l-7 24l13 29l14 25l19 24l12 11l16 24l-6 25l-25 12l-28 6l-25 8l-26 15l-17 26v29l15 22l26 9l31 -4l57 -21l29 -2l20 16l7 31l-3 31v29l7 30l20 21l29 4l26 -8l19 -19l4 -31l2 -28
l-2 -33l4 -31l18 -14l25 4l25 10l51 13l26 2l25 -13l18 -22v-27l-14 -22l-22 -13l-29 -6l-55 -18l-19 -12l-6 -17l10 -20l21 -23l30 -43l11 -20l2 -19l-4 -18l-17 -19l-26 -12l-27 4l-20 21z" />
    <glyph glyph-name="plus" unicode="+" horiz-adv-x="1024" 
d="M444 913v54l-2 26v29l2 29l5 24l8 19l16 10l29 4h16l29 -6l14 -12l12 -17l7 -24l-2 -27l-3 -31l3 -30l2 -27v-86l-2 -27l8 -26l22 -19l27 -10l31 -2l26 4l29 2l29 -2h28l27 2l29 -2l32 2l29 -6l20 -21l7 -28l2 -29l-11 -27l-26 -18l-25 -4h-26l-29 -2h-27l-30 4h-115
l-29 -12l-18 -25l-6 -24l-2 -27v-57l-2 -33v-117l-7 -29l-18 -18l-27 -6h-28l-29 4l-23 18l-6 31l2 33l7 86l-5 29l-2 30v53l-6 27l-8 19l-16 12l-27 4l-27 2h-28l-27 -4l-29 -2l-30 2h-31l-57 2l-27 4l-14 8l-9 17l-8 24v27l8 26l21 17l29 6l26 2h90l29 -4h29l26 4l31 2
l29 6l20 23l6 26v58z" />
    <glyph glyph-name="comma" unicode="," horiz-adv-x="477" 
d="M303 -29l-16 -55l-17 -47l-12 -27l-14 -16l-21 -8l-24 -6l-25 6l-16 20v29l8 29l8 20l8 23l4 30l-12 31l-20 25l-11 24l-4 21l4 24l13 27l20 22l23 13l24 6l29 2l29 -8l24 -13l17 -18l8 -31l2 -24l-2 -21l-4 -26l-9 -25z" />
    <glyph glyph-name="hyphen" unicode="-" horiz-adv-x="1034" 
d="M295 745l59 -4l27 2l31 2h30l62 -4l28 2l27 5h27l61 -5h29l29 2l30 -2h31l27 5h28l25 -7l16 -12l12 -14l9 -21v-24l-9 -25l-22 -20l-31 -7l-28 -4h-27l-31 2h-30l-27 -2h-57l-29 4h-146l-59 -4h-31l-30 2l-58 -4l-57 4l-29 5l-20 18l-8 29l-2 28l10 25l22 14l27 6l55 4
h29z" />
    <glyph glyph-name="period" unicode="." horiz-adv-x="473" 
d="M197 164l28 8h27l22 -6l25 -14l20 -21l9 -25l2 -30l-4 -27l-13 -22l-20 -21l-23 -14l-22 -6l-27 2l-26 6l-23 12l-18 19l-11 22l-2 27l2 26l13 27l18 20z" />
    <glyph glyph-name="slash" unicode="/" horiz-adv-x="991" 
d="M879 1427l-19 -53l-37 -74l-12 -26l-10 -29l-10 -26l-11 -25l-14 -27l-23 -55l-10 -29l-10 -24l-12 -25l-9 -26l-12 -27l-14 -27l-10 -26l-13 -23l-12 -24l-16 -56l-11 -26l-14 -27l-12 -29l-8 -26l-11 -23l-14 -24l-39 -86l-8 -19l-14 -28l-21 -54l-47 -100l-35 -80
l-10 -27l-8 -24l-8 -27l-13 -26l-10 -29l-12 -29l-13 -24l-14 -23l-33 -78l-8 -26l-24 -53l-15 -27l-10 -29l-12 -26l-13 -17l-20 -8l-29 -2l-30 2l-31 4l-15 19l9 26l16 27l41 110l10 23l13 24l20 58l29 49l12 27l16 51l23 51l10 31l12 26l15 25l20 51l10 29l15 22l24 52
l11 28l8 27l20 53l11 25l12 24l12 29l27 51l22 53l11 23l22 55l10 27l8 24l27 50l43 108l8 27l27 53l10 29l23 49l10 24l10 27l12 27l15 26l24 56l11 20l8 25l10 28l14 25l17 16l22 10l27 7l29 -5l26 -8l15 -18l-7 -25z" />
    <glyph glyph-name="zero" unicode="0" horiz-adv-x="1398" 
d="M272 473l19 -59l8 -29l8 -25l12 -26l70 -92l21 -23l20 -18l72 -49l47 -23l33 -8l30 -4l82 -6h29l27 2l57 14l33 6l26 10l25 13l24 10l25 14l23 19l20 20l23 19l20 20l35 51l26 47l11 27l6 29l4 30l6 29l8 29l2 26v29l-4 59l2 29l2 57v29l-4 29v28l4 31l2 33l-2 24v25
l-2 33l-6 31l-8 28l-4 29l-8 27l-13 24l-10 29l-14 26l-17 23l-55 63l-24 19l-29 18l-21 15l-20 10l-29 12l-88 27l-24 4l-25 2l-33 2h-30l-31 -4l-25 -4l-84 -27l-26 -10l-25 -12l-45 -33l-25 -17l-18 -20l-16 -27l-17 -24l-18 -21l-17 -22l-10 -25l-8 -26l-8 -33l-10 -29
l-5 -26l-4 -29l-2 -33l-2 -27v-24l2 -29v-59l2 -29v-55l-2 -33v-18l-2 -33v-29l-2 -31l2 -30zM139 987l13 53l8 29l10 31l10 26l8 27l15 25l16 22l19 23l14 22l16 21l21 22l20 25l41 30l23 19l22 16l27 11l80 30l22 11l27 6l90 16l31 2l24 -2h25l33 2l28 -4l25 -6l55 -10
l27 -7l26 -10l29 -10l25 -12l22 -15l25 -14l47 -37l41 -41l20 -22l19 -19l18 -20l17 -25l14 -26l8 -27l21 -49l10 -31l8 -29l8 -24l8 -29l7 -29v-59l2 -27l2 -24l2 -33l-2 -31l-4 -53v-29l2 -28l4 -33v-25l-2 -28l-4 -27v-24l2 -31l-2 -29l-9 -31l-4 -30l-4 -27l-8 -27
l-59 -133l-15 -22l-39 -41l-16 -23l-45 -37l-23 -16l-20 -16l-76 -43l-26 -11l-58 -20l-26 -8l-27 -6l-25 -4l-26 -5l-29 -4l-59 4h-29l-27 3l-84 20l-53 18l-78 41l-20 13l-25 14l-24 18l-78 78l-19 25l-43 74l-14 26l-8 31l-8 27l-17 49l-8 59l-2 29v86l-4 28l2 25l4 27
l-2 30v31l2 31v28l-2 29l2 31v26l2 23v61z" />
    <glyph glyph-name="one" unicode="1" horiz-adv-x="831" 
d="M266 115l29 2h27l22 4l16 10l11 19l4 26l2 27v59l2 31v26l-2 29v88l-2 27v29l4 30v29l-4 27l-2 26l2 31l-2 29v28l2 31l2 27v51l-2 33v30l2 31v29l-4 26l-2 33l2 29l4 28l2 29l-2 29l-4 28l2 29v51l-4 29l-21 18l-33 2l-28 -8l-56 -20l-61 -13l-31 3l-18 16l-6 29l2 30
l10 23l18 12l27 8l57 13l27 8l27 10l28 12l56 15l26 10l29 8l31 6l28 2l21 -18l6 -33v-18l4 -64v-22l-2 -25l-6 -31v-28l2 -29v-61l2 -29v-29l-2 -31v-28l2 -33l2 -25v-26l2 -35v-18l-2 -35l-4 -31v-27l2 -22l-2 -29l2 -33v-32l-2 -27v-25l4 -26v-60l-2 -28v-27l-2 -26
l6 -91v-30l-2 -31l-4 -31v-51l6 -24l10 -17l19 -10l26 -6l62 2h88l26 -6l17 -11l8 -18l6 -25v-26l-10 -19l-18 -10l-27 -2l-27 2l-24 -4l-29 -4l-57 4h-31l-27 -4l-26 -2h-33l-29 2l-26 4h-27l-53 -4h-31l-31 4h-108l-29 8l-22 19l-9 28l2 31l13 18l16 9l25 4l26 -2h82z" />
    <glyph glyph-name="two" unicode="2" horiz-adv-x="1376" 
d="M154 1163l10 27l14 24l31 43l16 25l21 25l22 18l25 16l22 17l23 14l27 10l55 25l24 8l25 10l29 9l57 8l33 6l26 2h25l29 -2h26l29 2h29l30 -2l35 -6l55 -4l27 -6l31 -13l55 -18l80 -37l20 -12l23 -17l25 -22l36 -37l21 -25l14 -26l10 -29l13 -29l14 -28l8 -27v-53l2 -33
v-31l-4 -28l-6 -27l-4 -29l-6 -24l-12 -25l-29 -49l-19 -27l-61 -65l-25 -14l-20 -13l-23 -10l-20 -10l-18 -8l-78 -25l-27 -4l-31 -6l-57 -13l-29 -4l-26 2l-27 -2l-29 -4l-90 -4l-57 -4l-57 -16l-25 -4l-76 -35l-26 -15l-25 -18l-20 -20l-29 -43l-14 -27l-9 -29l-6 -30
l-2 -31v-55l4 -56v-28l4 -31l11 -19l16 -10l23 -6l55 4h117l55 2l31 -2l32 2h31l29 -2h28l56 4l24 -2l62 -8h26l31 2l59 2l31 -2l51 4l29 -2l59 -2l27 -2l31 2l31 -2l18 -18l8 -29l4 -29l-6 -28l-22 -19l-31 -4h-58l-26 2h-31l-31 -4l-26 2h-27l-28 -2h-29l-55 -2l-27 2h-88
l-60 4h-84l-28 -2l-29 2h-29l-28 -2h-58l-28 -2h-29l-29 4h-30l-58 -2l-26 -2l-25 2h-28l-31 6l-23 23l-8 30l-2 27v25l4 59v25l-4 57l2 27v26l2 31v33l2 28l6 27l9 27l6 26l20 53l17 25l20 23l43 40l25 21l24 16l127 56l29 6l31 8l32 4h29l29 4l55 4l33 2h26l80 6l90 13
l56 18l75 39l25 16l43 37l16 21l13 24l12 27l8 27l6 26l2 27l-4 31l-6 28l-16 56l-11 26l-18 27l-20 24l-19 19l-74 45l-26 12l-56 17l-59 16l-33 4h-53l-49 4l-35 -6l-31 -4l-28 -2l-27 -4l-31 -2l-26 -6l-25 -13l-26 -12l-52 -20l-22 -17l-25 -22l-20 -23l-27 -43l-10 -25
l-6 -30l-13 -27l-22 -20l-29 -9h-30l-29 7l-17 18v31l5 30z" />
    <glyph glyph-name="three" unicode="3" horiz-adv-x="1357" 
d="M461 776l18 10l27 7h139l60 4h55l86 22l18 4l29 8l25 13l26 16l25 14l22 17l53 61l17 25l6 29l4 30l4 47l-4 31l-10 27l-12 24l-13 23l-16 22l-16 19l-23 18l-25 17l-24 12l-27 12l-55 19l-25 8l-28 8l-33 4l-29 4h-53l-29 2h-32l-31 -4l-27 -6l-24 -4l-29 -6l-27 -8
l-24 -11l-53 -20l-25 -14l-25 -17l-22 -18l-19 -21l-14 -22l-12 -29l-6 -29l-11 -26l-22 -19l-33 -6l-27 -4l-22 4l-14 10l-11 17v28l7 29l2 25l22 55l16 25l19 26l20 23l41 37l25 16l100 43l58 12l53 17l31 6l28 4l27 2l57 2l25 2h26l62 -10h29l30 -2l113 -27l24 -10
l23 -14l25 -13l49 -33l45 -34l55 -60l16 -26l13 -29l8 -29l6 -26l4 -25l4 -31l2 -24v-25l-2 -33l-6 -30l-12 -27l-10 -26l-13 -25l-57 -66l-59 -51l-56 -20l-20 -13v-12l20 -8l25 -12l26 -17l54 -26l80 -80l16 -27l12 -29l11 -24l8 -25l4 -26l2 -33l-2 -27l2 -24l2 -31
l-2 -27l-8 -26l-11 -27l-10 -31l-10 -26l-16 -25l-17 -20l-20 -21l-23 -20l-22 -17l-25 -14l-49 -35l-51 -26l-27 -9l-29 -6l-30 -10l-29 -6l-27 -2l-86 -14l-32 -3l-25 3h-27l-36 2h-27l-25 4l-34 4l-29 2l-25 6l-26 10l-58 12l-28 9l-27 12l-27 14l-69 45l-27 19l-51 61
l-29 56l-10 30l-8 27l-4 26l6 27l10 19l14 10l25 2h25l24 -6l17 -13l12 -16l10 -27l6 -24l13 -23l30 -45l19 -20l20 -17l27 -16l28 -10l29 -15l27 -10l24 -6l29 -6l29 -4h26l60 -4h32l23 -2h27l110 12l58 12l28 10l45 25l27 12l27 19l53 61l12 25l10 24l8 29l7 31l2 24
l-2 25l-9 31l-8 24l-10 23l-12 22l-17 27l-22 20l-21 17l-22 16l-58 25l-24 14l-27 8l-28 6l-31 9l-33 6l-31 4l-53 -4l-26 2l-33 4h-31l-90 -6l-29 6l-18 10l-10 23l-7 26l7 23z" />
    <glyph glyph-name="four" unicode="4" horiz-adv-x="1323" 
d="M922 641v29l4 30l2 27l-8 61l2 27l4 29v135l2 29l-2 32l-4 29v55l4 54l-4 32l-4 25l-11 2l-20 -14l-39 -45l-19 -17l-53 -61l-24 -25l-17 -24l-14 -23l-21 -20l-36 -43l-15 -23l-57 -65l-37 -46l-20 -22l-23 -18l-55 -68l-41 -43l-107 -127l-53 -70l-14 -20l4 -17l24 -4
l31 2l29 -2h26l27 2h27l30 -2h60l26 2l31 -2l55 2l25 -2h29l63 4l29 -2l26 -4h25l27 -2l30 2l29 9l23 22l10 31l2 24zM1061 1262l-4 -29l-2 -27l2 -28l-2 -29v-49l2 -33l4 -31l-4 -57v-27l4 -28l2 -29v-57l-2 -27v-29l2 -30v-31l-4 -49v-33l-2 -29l2 -24v-29l2 -29v-30
l4 -29l20 -18l31 -7l27 -2l24 2l31 -4l21 -24l6 -31l-4 -29l-19 -22l-31 -10h-57l-29 -11l-22 -20l-8 -29v-28l2 -33v-35l-2 -21l2 -34l4 -29l2 -29l-6 -24l-13 -15l-18 -8l-25 -6h-26l-27 6l-18 19l-4 28l2 31v59l-4 27v29l4 30l-2 31l-8 31l-21 20l-29 9l-28 -3h-86l-29 3
h-57l-56 4l-26 -2h-88l-29 2h-29l-30 -2l-54 -2l-59 4h-57l-90 -7l-50 9l-22 8l-10 16l-7 27l-4 24v23l9 23l16 24l80 92l33 41l16 23l59 65l21 21l16 22l15 23l36 47l60 61l14 23l57 61l17 23l41 47l16 22l39 41l16 23l41 43l39 49l13 12l55 64l10 16l33 35l53 66l21 18
l18 12l23 7l28 6h54l24 -6l19 -25l8 -33l4 -29v-81z" />
    <glyph glyph-name="five" unicode="5" horiz-adv-x="1349" 
d="M1024 1300h-143l-62 3h-28l-33 -3h-53l-33 -2h-31l-29 5l-26 4l-27 -2l-31 -5h-28l-58 5h-28l-29 -2h-29l-28 -5l-21 -22l-10 -33l-4 -53v-55l4 -29v-31l-2 -28l2 -29l-4 -27v-26l6 -27l8 -27l21 -20l26 -10h224l26 2l27 -2h31l30 2l60 -4l26 4l27 -2l59 -9l29 -6l29 -8
l26 -6l25 -8l84 -39l24 -17l25 -20l20 -18l19 -23l20 -20l17 -23l12 -22l14 -23l21 -53l10 -29l6 -31l-2 -24l2 -29v-31l2 -30l-2 -29l-10 -53l-8 -29l-10 -29l-41 -73l-58 -66l-41 -39l-22 -16l-25 -15l-26 -14l-27 -10l-31 -6l-53 -19l-25 -6l-28 -4l-29 -8l-29 -4l-28 -2
l-29 -4l-31 -2h-28l-58 8l-30 2l-35 4h-19l-32 6l-27 10l-27 6l-53 15l-25 10l-96 59l-22 17l-21 20l-33 45l-16 27l-10 27l-8 24l-13 25l-8 24l-4 31l6 33l23 20l26 2h29l25 -2l18 -10l10 -16l13 -56l10 -30l18 -25l33 -37l16 -20l27 -19l29 -14l49 -20l31 -11l30 -6l25 -8
l26 -4l89 -6h24l90 6l29 6l33 8l18 4l31 8l22 11l25 14l31 12l22 15l19 22l38 37l17 23l24 51l11 26l8 25l2 31l-2 24v25l-2 31l-4 30l-8 27l-35 70l-45 47l-23 16l-65 33l-60 22l-26 6l-29 3h-29l-33 -3l-51 5h-30l-60 4h-53l-29 2l-24 -2l-27 -4h-29l-28 4h-60l-53 -6h-27
l-84 6l-18 6l-8 18l-6 90l-2 27l2 25l4 30l2 31v25l-2 26l-2 31v29l4 26v176l-2 25l-4 29v28l10 31l22 23l27 4h27l30 2l64 -2h51l55 2l31 -2h27l28 2l95 -6l53 4h31l28 -2h27l29 4l30 2h29l57 -2l62 2l26 -2l62 -4h49l29 -7l22 -16l8 -27v-28l-4 -27l-22 -18l-31 -6h-59z
" />
    <glyph glyph-name="six" unicode="6" horiz-adv-x="1411" 
d="M817 117l82 18l27 8l24 11l56 20l47 35l39 41l14 18l14 25l13 29l8 26l6 27l4 28l4 25v25l-8 63l-10 27l-13 22l-12 25l-16 24l-19 25l-22 18l-49 31l-23 12l-29 13l-24 14l-56 12l-26 9l-31 6l-55 4l-27 -2l-28 -4l-62 -4l-29 -5l-22 -6l-29 -10l-30 -6l-25 -10l-74 -39
l-49 -39l-20 -21l-17 -24l-28 -47l-11 -23l-6 -26l-6 -31l-2 -25l10 -63l6 -29l9 -25l43 -69l65 -60l25 -14l26 -10l29 -10l47 -21l29 -4l28 -6l31 -8l29 -2h28l60 -4l29 2zM379 776l22 15l25 14l25 16l26 13l29 10l112 30l31 7l29 4h31l28 -2l25 -4l31 -2h53l31 -5l28 -6
l31 -6l29 -12l51 -17l24 -12l27 -10l29 -12l69 -52l21 -20l41 -49l14 -21l10 -22l15 -25l14 -28l8 -31l2 -29l4 -28l4 -33l2 -31v-29l-6 -28l-6 -25l-2 -29l-16 -61l-13 -25l-16 -20l-16 -25l-21 -26l-63 -62l-21 -16l-24 -14l-29 -15l-29 -12l-28 -10l-23 -6l-53 -21
l-31 -8l-29 -6l-86 -6h-26l-27 -2l-30 -2l-31 2l-60 8l-26 2l-49 12l-27 6l-31 6l-55 25l-27 10l-69 43l-25 19l-63 59l-15 23l-12 22l-10 23l-15 26l-10 27l-16 59l-4 60v55l-4 55v29l-2 29l4 59l2 27l-4 57v59l-2 27v29l4 57l-2 29v28l2 27v29l6 88l2 26l29 86l14 23
l37 45l41 43l41 33l24 16l21 8l57 29l29 10l28 6l27 9l29 8l26 6l29 6l29 2h26l33 2h27l26 -2h58l30 -2l19 -2l92 -18l55 -17l29 -8l25 -8l51 -29l65 -45l39 -47l19 -25l14 -22l6 -25l21 -57l-5 -27l-26 -20l-27 -6l-26 -2l-31 4l-23 22l-30 60l-15 22l-37 41l-20 19l-25 14
l-57 22l-27 7l-57 12h-27l-30 4l-29 6l-27 4l-28 2l-60 -8l-53 -6l-27 -6l-24 -8l-27 -7l-28 -6l-29 -12l-27 -14l-20 -19l-45 -31l-19 -20l-32 -51l-11 -25l-8 -22l-6 -33l-2 -27v-57l2 -29v-30l-4 -29l2 -29l4 -28v-29l-2 -27v-28l4 -21l10 -6l19 12l22 21z" />
    <glyph glyph-name="seven" unicode="7" horiz-adv-x="1150" 
d="M279 100l10 15l16 28l12 29l27 51l16 27l17 24l14 23l39 78l14 26l33 45l25 43l28 56l11 26l28 50l15 22l28 55l15 23l12 24l31 52l12 24l14 25l17 24l12 27l29 49l16 23l14 26l11 29l14 25l14 22l17 21l14 24l12 29l43 78l17 24l10 21l-14 16l-31 10l-29 2l-24 2l-90 -6
h-33l-15 2h-32l-66 -4l-18 -2l-33 2l-29 6h-28l-31 -4l-29 -2l-28 2l-27 4l-55 -2l-31 2h-86l-29 -4l-26 -2l-27 4l-27 6l-18 9l-12 14l-5 23l3 30l8 31l20 20l27 3l59 4l25 -2h28l29 2l60 -4l55 4l24 -4l29 -3l31 3l28 4l33 2h19l30 -2h27l31 2l30 -2l25 -2l27 2l30 -2h31
l27 4h28l33 -2l55 4l58 -4l28 2h25l27 -4l30 -9l25 -20l14 -27v-28l-2 -21l-6 -22l-14 -27l-17 -25l-12 -22l-12 -25l-17 -24l-14 -29l-16 -25l-17 -22l-12 -25l-10 -26l-12 -25l-17 -24l-14 -31l-33 -47l-39 -76l-12 -27l-33 -51l-41 -74l-10 -24l-14 -25l-17 -22l-16 -25
l-10 -26l-15 -27l-33 -49l-12 -27l-27 -49l-10 -25l-12 -26l-35 -51l-12 -25l-10 -25l-47 -71l-13 -27l-12 -29l-14 -26l-31 -47l-12 -27l-19 -24l-18 -13l-19 -6l-24 -2l-27 -4l-29 -2l-26 8l-10 21l8 26l14 23z" />
    <glyph glyph-name="eight" unicode="8" horiz-adv-x="1439" 
d="M580 664l-56 -13l-30 -8l-29 -12l-72 -35l-24 -16l-43 -39l-17 -21l-28 -49l-13 -27l-6 -28l2 -31l4 -27l2 -28l4 -29l13 -27l16 -20l25 -25l12 -14l22 -20l23 -15l27 -14l28 -12l29 -15l51 -20l29 -8l26 -2l56 -9l31 -4l26 -4l29 -2l33 2h28l29 4l57 13l27 4l24 6
l109 43l23 10l53 39l37 43l12 27l20 53l5 31v26l-3 25l-6 28l-4 29l-12 27l-41 43l-12 14l-23 23l-22 16l-25 16l-27 13l-81 28l-31 6l-27 7l-24 4l-60 8l-28 2h-27l-62 -8l-49 -4zM324 952l16 -22l22 -19l48 -34l26 -15l29 -12l80 -27l33 -12l28 -4l84 -6l29 2h29l61 2
l27 4l28 8l31 8l29 4l82 31l49 35l41 33l18 22l16 27l11 29l4 24l2 29l-2 33v32l-6 29l-13 25l-32 43l-23 18l-22 21l-23 16l-51 24l-29 11l-31 6l-28 8l-29 6l-27 4l-30 2h-27l-24 2h-33l-51 -2h-33l-31 -2l-31 -8l-22 -4l-27 -6l-88 -25l-24 -16l-19 -16l-20 -19l-23 -16
l-18 -23l-13 -24l-10 -27l-10 -31l-8 -33l2 -26l4 -27l6 -30l10 -25zM139 508l13 27l16 26l12 25l15 20l45 39l24 17l72 43l29 10l20 12l-2 16l-68 48l-20 12l-23 16l-43 37l-18 21l-14 24l-15 23l-14 24l-10 31l-4 29v28l2 25l-2 24l-4 31l6 29l10 29l8 30l12 27l17 24
l14 23l64 61l24 17l25 14l102 47l27 10l30 9l31 6l29 4l53 12l27 2l28 -2l31 2l53 4l35 -2l58 -8l30 -2l29 -4l29 -6l55 -17l29 -8l84 -33l49 -28l22 -15l62 -65l16 -21l12 -26l15 -29l10 -24l6 -27l8 -57v-31l-4 -31l-4 -24l-2 -27l-6 -31l-14 -26l-17 -23l-14 -25l-19 -24
l-96 -64l-45 -26l-20 -15l-5 -14l17 -10l37 -16l22 -11l43 -30l25 -21l24 -18l23 -21l20 -22l15 -23l12 -27l21 -57l4 -26l6 -33l4 -49l-4 -31l-4 -27l-6 -28l-9 -31l-12 -29l-12 -24l-13 -23l-59 -65l-20 -19l-23 -18l-22 -15l-54 -22l-22 -15l-25 -10l-28 -8l-31 -10
l-29 -6l-26 -2l-87 -13h-28l-27 -2h-31l-32 2h-19l-30 2l-31 -2h-29l-31 4l-28 9l-25 4l-26 2l-58 16l-26 4l-31 13l-98 55l-25 16l-23 17l-20 20l-18 21l-17 22l-24 47l-11 29l-8 29l-12 53l-4 28l2 31l12 86z" />
    <glyph glyph-name="nine" unicode="9" horiz-adv-x="1415" 
d="M571 1315l-28 -8l-29 -4l-27 -9l-77 -34l-23 -15l-43 -39l-20 -20l-17 -23l-28 -47l-13 -26l-6 -27l-4 -57v-29l4 -29l10 -30l11 -29l22 -49l57 -64l21 -16l22 -15l50 -24l45 -12l16 -9l23 -8l28 -6l90 -6l25 2l53 6l29 4l59 4l29 6l78 33l71 47l21 21l18 20l23 21l18 20
l13 25l14 55l6 35l2 27l-2 24l-6 29l-6 26l-8 27l-15 29l-16 24l-37 45l-18 17l-72 43l-25 10l-55 16l-31 11l-28 6l-31 6l-29 4l-26 -2h-29l-29 -2l-24 -2l-27 2zM991 627l-53 -27l-25 -8l-28 -8l-29 -6l-27 -7l-59 -8l-61 -10l-31 -2l-29 2l-24 4l-62 2l-28 4l-29 6l-29 9
l-26 10l-27 8l-29 4l-28 12l-52 33l-24 12l-25 15l-22 20l-21 17l-18 22l-19 29l-39 71l-22 58l-8 29l-2 30v60l2 28l4 29l12 55l6 31l8 27l13 26l16 27l33 41l16 22l21 21l24 20l49 35l48 23l57 24l84 19l57 10l62 8l28 2l52 -2l34 2l29 -2l25 -6l26 -4l56 -12l55 -17
l31 -6l24 -12l23 -13l24 -12l78 -49l21 -18l45 -52l10 -18l10 -21l27 -45l10 -26l16 -62l9 -57v-49l-3 -31v-147l-2 -29l-2 -33l2 -18l2 -33v-29l-2 -28v-56l-2 -30v-62l4 -55v-29l-2 -26l-2 -29l-8 -31l-6 -28l-8 -27l-12 -25l-17 -24l-14 -27l-17 -22l-20 -19l-74 -53
l-22 -14l-105 -52l-26 -10l-54 -10l-28 -8l-29 -6l-31 -4l-32 -3l-54 5h-24l-31 -2l-29 4l-59 4l-29 6l-26 8l-29 4l-33 4l-131 56l-26 14l-23 16l-35 41l-18 25l-19 22l-16 25l-12 22l-9 23l-8 31l2 30l11 19l16 8l29 6l26 -2l27 -10l18 -12l15 -15l14 -20l10 -27l12 -26
l17 -21l22 -18l52 -31l22 -12l27 -11l57 -16l31 -6l31 -4h28l31 -4h18l33 -4l31 -3l33 3l28 4l29 6l25 2l57 18l29 8l49 23l26 14l23 15l20 20l17 23l20 22l17 25l20 55l4 31l2 26l2 23v260l-4 23l-14 8l-19 -17l-20 -22z" />
    <glyph glyph-name="colon" unicode=":" horiz-adv-x="485" 
d="M205 162l28 8h27l23 -6l20 -12l19 -21l8 -31l6 -26l-2 -27l-8 -24l-19 -19l-26 -14l-27 -6l-25 2l-26 4l-25 14l-18 23l-13 24l-4 27l4 28l15 23l18 18zM203 774l28 6h27l25 -10l20 -16l16 -19l15 -24l4 -25l-4 -24l-12 -31l-17 -21l-22 -12l-31 -4l-29 2l-24 8l-23 10
l-18 19l-11 29l-2 24l5 25l10 28l18 21z" />
    <glyph glyph-name="semicolon" unicode=";" horiz-adv-x="485" 
d="M299 -59l-8 -25l-10 -25l-13 -24l-18 -29l-27 -18l-24 -6l-23 4l-12 18l2 27l12 49l8 27v28l-10 29l-12 22l-10 27l-2 31l4 22l6 19l12 20l21 17l30 8l29 2l25 -4l22 -15l16 -20l11 -27l4 -24l-2 -25l-4 -29l-7 -26zM203 772l26 4h27l25 -2l24 -12l19 -21l12 -26l2 -31
l-4 -27l-10 -24l-19 -19l-26 -12l-27 -4l-27 -2l-24 6l-21 12l-20 23l-10 27v24l2 25l8 26l18 21z" />
    <glyph glyph-name="less" unicode="&#x3c;" horiz-adv-x="749" 
d="M557 233l-29 3l-28 14l-25 20l-57 56l-47 36l-43 44l-19 16l-22 16l-127 121l-25 16l-18 19l-15 27l-4 28l6 27l15 24l63 60l21 16l18 21l21 18l49 33l20 20l19 23l41 41l45 39l20 20l17 21l39 30l30 17l31 4l25 -14l16 -21l10 -22v-17l-8 -18l-16 -21l-62 -55l-20 -21
l-23 -20l-16 -16l-15 -17l-47 -39l-63 -61l-39 -33l-14 -18l-9 -21l7 -18l16 -19l43 -39l39 -41l43 -36l24 -23l21 -18l18 -19l23 -18l18 -21l41 -37l23 -16l18 -22l2 -29l-14 -23l-16 -22z" />
    <glyph glyph-name="equal" unicode="=" horiz-adv-x="1140" 
d="M293 500h29l32 -2h29l29 2h28l60 -4l55 4l31 -2h63l17 -2h32l35 2l19 2l32 2h31l31 -2l31 -6h55l24 -7l21 -20l12 -23l2 -22l-8 -23l-12 -14l-23 -10l-24 -4l-23 -2h-90l-31 -2h-26l-58 4l-28 -4h-29l-55 4l-31 -2l-27 -2h-116l-29 2l-31 -2l-28 2h-25l-25 -4h-30l-64 12
l-22 16l-6 27l2 26l6 21l10 16l16 11l29 4l29 -2zM268 924l31 -4l55 2h31l27 2h26l27 -2h117l30 2l29 -2h55l29 2l33 -2h30l56 -4l24 2l58 2l32 -9l23 -20l4 -25v-22l-8 -25l-21 -20l-28 -8l-29 -2h-84l-29 2h-30l-31 -2h-88l-16 2l-62 -5l-59 5h-29l-33 2l-28 -2l-25 -5
h-29l-30 5h-31l-55 -5l-31 3l-29 8l-16 10l-10 14l-4 21l2 24l10 27l22 18l29 9l25 4z" />
    <glyph glyph-name="greater" unicode="&#x3e;" horiz-adv-x="749" 
d="M453 688l-125 111l-39 39l-21 18l-24 18l-62 58l-20 16l-10 23l-5 18l7 23l14 26l27 21l28 2l25 -17l22 -18l25 -18l20 -23l43 -37l80 -78l23 -20l24 -16l101 -95l24 -18l19 -23l12 -24l2 -25l-4 -26l-12 -21l-121 -125l-25 -14l-43 -43l-41 -33l-24 -22l-19 -21l-82 -76
l-22 -18l-23 -12l-18 -5l-21 5l-20 14l-21 18l-12 19v16l8 17l15 18l41 37l63 65l47 35l23 19l57 59l43 39l23 16l16 19l4 18l-6 21z" />
    <glyph glyph-name="question" unicode="?" horiz-adv-x="1228" 
d="M520 182l29 11l26 2l25 -9l23 -18l20 -21l10 -26l2 -31l-2 -29l-8 -28l-18 -21l-29 -12l-29 -8l-22 -2l-19 4l-16 8l-18 14l-21 23l-10 29l-2 24l6 25l8 26l19 23zM84 1145l33 80l69 90l39 37l47 24l25 15l27 14l112 33l29 2l76 12h32l29 -2l62 4l55 -12l57 -6l27 -6
l28 -7l29 -10l27 -8l24 -8l56 -27l51 -33l57 -61l19 -25l14 -24l10 -29l6 -27l9 -26l8 -31l4 -31l2 -30v-49l-2 -31l-8 -60l-33 -82l-14 -22l-17 -23l-43 -43l-20 -18l-78 -45l-27 -10l-26 -8l-52 -19l-127 -61l-20 -19l-18 -22l-13 -21l-10 -26l-6 -31l-15 -55v-29l-2 -29
l-12 -20l-18 -11l-25 -4l-29 2l-28 9l-19 20l-6 29v31l4 32l6 31l9 29l6 28l8 25l12 27l17 26l18 23l19 20l22 19l49 32l13 11l30 18l29 14l47 17l63 18l29 12l29 17l24 16l23 21l33 47l14 24l10 29l8 57l3 31v29l-11 57l-8 29l-10 24l-14 21l-23 22l-68 50l-24 14l-23 12
l-53 17l-27 6l-59 4l-29 4l-30 2l-47 -4h-60l-29 -4l-28 -6l-27 -9l-28 -12l-58 -20l-24 -17l-39 -37l-19 -22l-28 -49l-11 -25l-8 -29l-12 -28l-21 -21l-28 -10l-31 -2l-25 4l-14 12l-10 19l-2 26l2 29z" />
    <glyph glyph-name="at" unicode="@" horiz-adv-x="1835" 
d="M774 944l-26 -8l-25 -12l-49 -35l-66 -64l-16 -22l-10 -23l-13 -24l-12 -29l-8 -29l-12 -55l-2 -29l-5 -28v-31l13 -55l10 -27l6 -27l8 -26l29 -53l18 -23l21 -16l41 -43l20 -17l49 -28l84 -27l27 -4l31 -6l31 -2l28 2l27 6l28 4l25 6l27 8l55 27l25 16l84 70l26 49
l14 29l19 55l6 27l4 26v29l2 31v30l-2 31l-2 27l-6 26l-8 29l-10 29l-13 24l-30 45l-39 47l-23 21l-22 16l-54 21l-49 24l-31 5l-88 6l-59 -4l-25 -7zM809 1272l-53 -12l-29 -11l-27 -6l-26 -8l-80 -35l-29 -14l-22 -15l-51 -28l-39 -39l-45 -37l-19 -20l-31 -46l-28 -51
l-13 -26l-14 -23l-24 -57l-9 -27l-8 -29l-6 -28l-4 -27l-6 -28l-8 -52l-2 -26v-27l2 -33l12 -90l8 -53l16 -59l7 -29l10 -25l51 -100l14 -25l37 -45l68 -63l24 -19l103 -61l22 -8l27 -8l55 -21l27 -8l29 -6l57 -8l29 -7l28 -4l33 -2l27 -2l26 2l33 2l31 4l30 7l27 8l27 10
l28 8l27 10l25 11l26 4h23l20 -8l19 -21l6 -33l-8 -28l-17 -17l-22 -10l-27 -14l-27 -9l-28 -4l-29 -8l-27 -10l-84 -12l-24 -4h-33l-24 2l-27 -2h-33l-29 6h-24l-29 2l-33 6l-59 8l-27 8l-26 11l-27 8l-26 10l-31 8l-76 37l-24 16l-21 19l-49 35l-23 18l-73 80l-21 20
l-20 23l-17 25l-14 28l-29 47l-12 27l-10 31l-10 28l-23 80l-4 29l-6 31l-4 26v27l-4 65v80l2 27l4 33l2 28l4 25l8 27l8 32l4 27l9 27l12 24l10 27l66 125l36 49l56 65l18 19l70 55l123 74l75 35l25 6l29 6l28 8l56 12l26 9l29 4l27 2l63 2l53 -2h31l55 -8h31l29 -3l59 -12
l29 -4l26 -6l29 -6l53 -21l23 -8l29 -8l26 -14l23 -17l24 -14l29 -12l43 -39l78 -80l33 -45l32 -53l25 -52l14 -26l10 -25l7 -22l6 -25l20 -57l6 -29l2 -29l7 -28l2 -31l2 -35v-31l-4 -53l2 -31l4 -30l-8 -54l-5 -30l-6 -27l-16 -57l-6 -25l-8 -22l-25 -54l-43 -75l-16 -25
l-21 -20l-27 -19l-24 -14l-23 -6l-26 -6h-29l-29 4l-53 18l-24 16l-19 23l-12 25l-8 24l-11 21l-18 2l-39 -31l-41 -39l-90 -55l-31 -15l-30 -8l-29 -4l-49 -12l-31 -2h-27l-116 8l-29 6l-27 10l-51 27l-26 10l-29 15l-29 18l-14 10l-25 23l-18 20l-19 19l-20 18l-31 53
l-35 45l-10 27l-33 143v27l2 27l-4 63l2 29l7 24l8 31l12 31l8 26l13 29l24 43l70 94l20 17l23 16l24 19l29 14l25 16l20 17l27 12l28 8l29 6l29 8l30 7l62 4h26l25 -2h27l26 -2l62 -19l49 -20l51 -25l23 -16l24 -19l25 -16l35 -45l16 -14l12 2l6 20l2 27l-4 26l4 27l25 20
l35 7l28 -7l21 -22l6 -31v-31l2 -59v-31l-2 -28l4 -58v-28l-2 -27l-2 -31v-57l-4 -59l2 -31l2 -27l-2 -26v-29l4 -29v-28l-2 -31v-29l-2 -31l2 -30l6 -31l17 -20l22 -9l25 2l26 13l23 22l18 27l21 57l18 82l8 27l2 28l13 58l4 28l-4 58v28l2 31l-4 31l-6 26l-5 27l-2 27
l-6 26l-6 29l-8 33l-10 28l-11 25l-10 27l-12 24l-47 74l-17 22l-20 21l-25 16l-45 35l-24 17l-43 24l-27 12l-24 13l-29 10l-29 4l-53 14l-29 7l-26 4l-29 2l-31 4l-26 4l-27 2l-31 -2l-30 2h-27l-25 -2h-28z" />
    <glyph glyph-name="A" unicode="A" 
d="M516 461h84l27 2h28l29 -4l64 4l18 -2h33l114 -4l60 4l26 4h31l27 -2l24 6l11 23l-2 24l-7 23l-61 135l-14 24l-33 78l-12 25l-11 26l-10 29l-14 27l-27 78l-14 26l-17 25l-20 53l-14 25l-11 30l-8 29l-12 27l-12 24l-11 25l-16 20h-18l-17 -22l-10 -29l-23 -45l-10 -31
l-10 -26l-16 -25l-60 -129l-12 -29l-8 -28l-11 -27l-8 -27l-12 -24l-14 -25l-13 -28l-16 -54l-14 -24l-25 -54l-12 -28l-8 -25l-27 -53l-8 -27l14 -18l27 -4h30zM1059 330h-86l-29 2h-55l-62 -2l-30 2l-27 2h-27l-30 -4l-56 4h-32l-29 -2l-55 2l-25 -2h-27l-28 4h-29l-33 -2
l-30 -4l-21 -8l-14 -17l-27 -57l-6 -17l-14 -28l-27 -47l-10 -27l-6 -27l-25 -51l-20 -20l-17 -15l-20 -12l-29 -8h-31l-28 10l-17 21l6 26l17 25l20 49l27 55l12 29l8 25l39 75l9 25l22 51l10 27l15 26l10 29l10 25l29 53l12 26l10 25l23 47l24 57l9 27l37 80l14 25l22 53
l9 16l12 31l8 33l39 77l14 25l13 27l10 26l8 25l10 24l13 23l14 29l12 28l10 27l11 25l10 26l12 25l15 26l18 27l14 16l19 9l28 2l58 -4l22 -11l17 -16l16 -21l18 -53l27 -53l25 -59l24 -43l13 -27l8 -27l47 -106l20 -49l25 -52l22 -55l29 -49l10 -29l37 -75l31 -78l29 -54
l12 -26l26 -76l13 -25l16 -26l12 -29l13 -26l12 -29l35 -70l12 -30l16 -52l23 -53l41 -80l6 -24l-14 -21l-27 -6h-31l-28 2l-21 6l-20 15l-19 26l-8 25l-26 49l-33 82l-10 20l-9 25l-14 26l-16 25l-15 14l-22 9l-29 4h-27z" />
    <glyph glyph-name="B" unicode="B" horiz-adv-x="1441" 
d="M571 133h31l33 4h31l28 -4l58 2l55 -4l61 8l56 4l28 4l25 9l24 10l58 20l22 11l23 14l43 45l12 23l10 26l7 29l4 24l2 27l2 31l-2 28l-6 29l-13 25l-14 22l-37 47l-20 19l-23 18l-29 14l-55 21l-29 10l-28 4l-27 9l-27 6l-30 2h-49l-29 -4l-27 -2h-28l-29 2l-27 -2l-88 2
l-28 4h-29l-27 -4h-57l-29 2l-24 -4l-21 -23l-8 -31l-2 -30l-2 -25l2 -25v-114l-2 -31l2 -27l2 -24v-29l-2 -33l-4 -30v-27l2 -27l4 -26l12 -15l17 -6l24 -4h144zM477 793l62 2l26 2l29 4h27l28 -2l31 2h29l28 -2h29l55 2h31l29 -2l26 4l51 14l29 6l27 15l22 14l29 14l22 21
l15 22l28 52l11 26l2 29l2 24v25l-4 29l-11 28l-8 27l-12 25l-16 24l-64 49l-29 17l-57 20l-33 10l-75 11h-27l-25 -2l-32 -5l-31 -2l-64 4l-26 3h-119l-29 2l-26 -2l-31 -5l-29 -2l-26 -6l-25 -18l-6 -27l4 -55v-31l-4 -31l-4 -26l2 -25l4 -26l2 -27l-4 -27l-2 -30v-31
l2 -31l2 -26v-27l4 -29l19 -20l30 -6h27zM924 1427l82 -20l110 -45l25 -16l49 -39l18 -21l17 -24l24 -54l15 -28l10 -29l6 -29l4 -26l2 -27l2 -31v-30l-12 -56l-41 -78l-14 -22l-37 -43l-21 -21l-20 -18l-27 -14l-20 -13l2 -12l94 -67l45 -39l16 -21l47 -76l13 -30l6 -27
l6 -88v-53l-4 -31l-8 -29l-10 -24l-7 -23l-12 -24l-16 -25l-58 -65l-24 -17l-47 -24l-82 -35l-51 -15l-27 -4l-29 -2l-28 -6l-29 -4l-27 -2h-55l-27 -2l-71 2h-17l-32 -2h-33l-27 -2l-26 2h-33l-58 -4h-86l-55 8h-29l-28 -2h-31l-29 6l-20 10l-8 17l-2 24v60l2 24v27l-4 61
v86l2 31v27l-2 26l4 56l-2 28v29l-2 31l6 86v28l-2 33l-2 29v26l-2 27v31l4 28l-2 29l-4 27l2 26l2 31v60l-2 26v31l2 29v24l-4 62v86l4 59l-2 29v26l2 23l12 16l18 8l27 7l27 2h28l29 -2l57 4h62l28 2l29 -2h31l59 -4l25 2l26 4h29l62 -4l30 2l33 -2l31 -5h28l27 3z" />
    <glyph glyph-name="C" unicode="C" horiz-adv-x="1452" 
d="M1262 102l-50 -28l-26 -19l-47 -24l-29 -13l-27 -10l-57 -12l-31 -10l-28 -4l-58 -2l-32 -3l-50 5l-30 2l-62 2l-33 2h-16l-31 6l-28 10l-135 47l-31 12l-53 35l-15 11l-26 16l-48 39l-18 18l-18 21l-33 47l-19 24l-16 25l-12 27l-29 49l-12 24l-21 54l-8 26l-6 29l-4 27
l-6 28l-4 29l-2 31v30l-5 31v47l5 33l2 29v28l4 27l18 88l6 27l13 28l14 27l10 26l10 29l45 74l15 27l35 43l59 61l23 20l26 19l23 14l22 12l47 33l25 13l59 20l27 4l88 25l27 6l55 2l59 8l33 2l29 -2l51 -8l31 -2l30 -4l27 -6l25 -9l28 -8l131 -51l25 -14l43 -37l24 -17
l23 -22l14 -25l2 -18l-8 -21l-14 -20l-23 -16l-20 -5l-23 5l-26 14l-41 37l-23 14l-26 14l-25 15l-27 12l-28 6l-31 8l-57 21l-56 4l-30 -2l-50 4l-32 -2l-64 -8l-80 -19l-26 -8l-103 -45l-47 -31l-24 -20l-58 -64l-20 -24l-15 -25l-30 -41l-13 -26l-10 -29l-10 -25l-23 -47
l-6 -30l-4 -31l-4 -25l-2 -26l-4 -31l-2 -29l-4 -30v-29l8 -53l4 -31l6 -31l13 -55l10 -27l8 -28l10 -29l10 -23l48 -75l18 -23l21 -18l16 -21l22 -20l72 -54l25 -16l26 -12l60 -17l55 -20l29 -6l57 -8l59 -5h25l57 7l25 4l29 2l32 6l27 8l22 8l58 27l16 6l31 14l47 29
l23 16l22 19l23 14l20 4l21 -6l20 -14l16 -21l15 -22l-2 -29l-21 -26z" />
    <glyph glyph-name="D" unicode="D" horiz-adv-x="1531" 
d="M453 135l28 -2l25 2h29l30 -4l29 2h27l30 -4h56l84 8l28 2l33 6l49 13l25 10l24 14l58 27l69 45l21 20l55 64l31 47l12 23l14 22l27 51l10 29l8 29l9 26l8 53l8 60v31l-2 22l-4 25l-8 61l-2 31l-13 55l-10 29l-14 24l-8 29l-9 27l-14 26l-16 25l-17 22l-43 43l-18 21
l-23 16l-24 19l-19 18l-18 15l-29 16l-31 10l-28 12l-82 27l-29 8l-26 2l-31 4l-33 2l-24 2h-25l-57 -4l-29 2h-27l-28 2l-60 -2l-28 2h-29l-29 -2l-26 -10l-19 -24l-8 -27v-23l2 -26v-33l-4 -29l2 -26l2 -29l-2 -31l-2 -28l2 -29l2 -33v-18l-2 -33v-29l-2 -26l4 -56v-30
l-2 -31l-2 -25v-28l2 -31v-29l2 -24l2 -29v-59l-4 -27l-2 -33v-53l2 -29v-59l-2 -29v-82l4 -26l12 -17l19 -10l26 -4l25 2h29zM819 1425l29 -6l31 -4l28 -2l27 -8l27 -12l28 -11l27 -6l26 -12l29 -12l25 -13l49 -32l45 -39l22 -21l23 -18l51 -66l17 -24l14 -23l24 -53
l17 -27l41 -110l12 -52l4 -26l2 -29l4 -33v-88l2 -28l-4 -29l-6 -29l-2 -26l-12 -54l-4 -26l-6 -29l-9 -26l-26 -58l-43 -74l-13 -24l-53 -70l-14 -22l-68 -60l-18 -18l-23 -14l-28 -15l-45 -20l-27 -17l-31 -12l-28 -8l-56 -21l-61 -8l-27 -4l-26 -6h-29l-33 2l-31 -2
l-26 -2l-56 4h-34l-54 -2h-32l-15 2h-28l-27 -4h-92l-27 2l-51 -4l-27 6l-18 12l-10 17l-4 26v27l-4 31v30l-2 27v27l4 28l2 33v31l-2 24v27l2 31l-2 28l-2 33v53l2 29l4 29v26l2 29v29l-4 59v29l2 31l-2 28l-2 33v141l-2 29v27l4 28v27l-2 29v28l2 29v80l-2 33v32l2 27v57
l6 25l8 18l14 11l25 6l29 -2l28 2h86l27 -2h57l25 -2l88 -2l80 6h57l59 -9z" />
    <glyph glyph-name="E" unicode="E" horiz-adv-x="1341" 
d="M1112 0l-27 -2l-32 2h-29l-29 -4h-26l-29 -2l-59 2h-19l-88 2l-35 2h-55l-27 2l-61 -2l-31 -2h-28l-29 2h-29l-28 -4l-25 -2l-55 4h-35l-17 -2l-63 2l-27 2l-18 10l-8 17l-4 57v90l2 31v26l-2 27l-2 31l4 28v54l-4 28l-2 29l4 27l2 26l-4 31l-2 33l2 33l4 28l-2 27l-4 26
v27l4 27v28l2 31v31l-2 28v29l2 31l-2 29v55l-2 31l4 53v28l-2 29l-4 29v88l-2 31v26l2 25l2 33v30l6 29l20 20l29 7h90l57 -4h29l31 4l30 2h60l55 -4h31l18 2l33 2h33l29 -2l28 2l58 -4h88l24 2h172l29 -2l27 -9l16 -8l10 -14l8 -47l-2 -25l-10 -16l-16 -13l-29 -6l-29 4
l-30 -2h-35l-19 2h-32l-31 -4h-33l-51 2h-88l-31 2l-84 2l-31 3l-28 -3l-29 -4l-29 2l-24 2l-29 -2h-35l-63 5h-17l-28 -7l-19 -10l-10 -18l-6 -31l-2 -18v-35l4 -62v-170l2 -24v-62l2 -28l4 -29l19 -23l30 -6l60 4l26 -2h25l31 4h59l53 -2h29l57 -4l60 4l84 4h53l90 -6
l31 2h28l31 -2l27 -6l18 -20l10 -25v-29l-12 -28l-20 -19l-27 -4l-29 2h-30l-56 -4l-28 4h-31l-61 -2l-17 -2h-61l-31 4h-29l-59 -6h-51l-31 4l-31 2h-28l-25 -4l-29 2h-82l-26 -4l-19 -10l-12 -19l-6 -22v-86l-2 -29v-28l4 -31l2 -31v-29l-4 -59l2 -31l2 -24v-25l-2 -33
l4 -28l10 -17l19 -8l24 -4h27l57 4h29l84 -2l63 -4l56 4h57l25 2h26l29 -4h145l29 2l25 2l59 -4h61l23 -4l18 -10l11 -17l6 -26l2 -27l-10 -24l-25 -19l-29 -8l-28 2h-27z" />
    <glyph glyph-name="F" unicode="F" horiz-adv-x="1284" 
d="M201 143v29l-2 29l-4 24v29l6 29l2 34v52l-2 32l-2 29v31l2 28v31l-2 29v76l-2 30v33l2 31l-2 26l-2 29l4 29v28l2 29v60l-4 55v26l-2 33l4 60v47l-4 61l2 31l-2 31l2 28l4 31l-2 29l-4 28l6 27l22 20l68 5h16l31 2l33 -4l30 -3l29 3l27 4l30 2l29 -4h53l27 -2l66 4h63
l14 -2h64l31 2l26 2h29l29 -4l26 -2l60 4h30l33 -2h27l22 4l29 -4l16 -11l13 -16l6 -29l-2 -26l-9 -29l-18 -18l-29 -7l-35 -2l-18 -2l-35 2l-28 4l-29 2h-27l-26 -4l-31 -2l-92 6l-58 3l-55 -5h-86l-31 2l-30 -2h-142l-28 -6l-21 -18l-6 -33v-31l-4 -28v-31l4 -29v-110
l-2 -31l-4 -29v-28l2 -27l-2 -29v-57l6 -29l12 -16l17 -10l26 -4h31l29 2h57l27 2l59 -4h27l28 2h31l29 -2l31 2l28 4l25 -2h59l31 -2l29 -4h28l25 4l26 -4l29 -2l64 4l26 -2l21 -21l8 -27l2 -26l-10 -31l-23 -20l-29 -11h-28l-55 9h-29l-60 -9h-28l-113 9l-112 -9h-31
l-62 4l-32 -2l-17 -2h-33l-30 4h-31l-25 -2l-24 -8l-19 -10l-12 -14l-6 -23v-61l-2 -17l4 -63l-2 -31v-27l-2 -26v-53l2 -27l-2 -31v-26l2 -29v-31l2 -26v-60l-4 -22l-6 -17l-19 -12l-32 -6h-27l-23 6l-20 10l-10 17l-2 28v60z" />
    <glyph glyph-name="G" unicode="G" horiz-adv-x="1529" 
d="M1202 1223l-28 12l-25 14l-23 15l-22 10l-27 10l-26 6l-29 8l-27 11l-55 8l-31 2l-82 2l-30 -2l-62 -2l-28 -6l-27 -11l-53 -16l-47 -22l-27 -11l-29 -14l-28 -16l-37 -29l-23 -23l-39 -47l-35 -37l-16 -24l-14 -25l-13 -26l-14 -25l-18 -53l-6 -27l-9 -28l-6 -29l-2 -25
l-4 -26l-4 -29l-2 -29l-2 -24v-62l6 -28l2 -27l4 -31l8 -28l13 -54l12 -28l14 -29l15 -25l10 -24l12 -21l43 -51l19 -18l18 -23l18 -16l97 -60l51 -28l29 -10l86 -23l32 -4h17l33 -4h63l25 2h57l31 4l51 12l51 17l29 8l51 31l25 12l22 14l41 39l14 16l9 21l4 31l2 26l-4 58
v28l4 29v29l-2 28l-2 23l2 29l-11 28l-24 21l-29 8h-55l-55 4l-62 -6l-27 2l-59 2l-61 4l-29 -2l-23 6l-16 10l-12 13l-8 20l-2 25l8 24l10 19l16 12l27 4l31 -4l55 2l31 -2h30l52 2l30 2h60l59 -4h29l26 4h29l31 -4l31 -2l24 -2l16 -8l9 -19l4 -28l2 -31v-29l-4 -28v-29
l6 -29v-90l-2 -27v-86l-2 -28l2 -29v-31l-4 -30l-8 -23l-29 -43l-23 -20l-96 -70l-51 -31l-25 -12l-84 -33l-26 -8l-31 -8l-31 -6l-28 -4l-60 -4h-141l-29 2l-30 4l-29 8l-53 10l-80 27l-56 22l-102 60l-23 16l-38 43l-23 18l-35 35l-37 51l-14 27l-10 23l-12 24l-17 27
l-12 24l-25 80l-12 54l-4 28l-6 29l-4 26l-2 29v60l2 30v31l2 27v30l2 29l6 25l10 26l4 29l6 29l31 86l12 26l47 74l17 25l18 22l17 25l18 18l21 18l16 25l22 18l25 17l27 16l24 17l25 12l24 14l25 17l27 10l24 6l53 21l31 6l27 4l31 2l26 2l27 4l35 6l28 4h29l29 -2h26
l31 -2l31 -6l28 -4l60 -14l82 -29l24 -12l25 -15l82 -39l24 -14l23 -18l20 -19l19 -22l6 -19l-6 -20l-15 -25l-24 -18l-21 -6l-22 6l-27 12l-20 16z" />
    <glyph glyph-name="H" unicode="H" horiz-adv-x="1552" 
d="M1210 113v26l2 31v61l-4 58l4 59l-2 27v78l-4 67l2 29l4 26l-6 27l-12 19l-16 8l-25 2h-29l-63 4h-168l-59 4l-58 -4h-31l-30 -2h-113l-31 -4h-30l-52 2l-61 4h-31l-26 -8l-19 -13l-10 -14v-25l2 -26l2 -29l-2 -31l-4 -28l-2 -27l2 -31l-2 -30v-29l2 -29l4 -28l-2 -27
l-2 -31v-28l2 -31v-111l-10 -30l-21 -23l-28 -10l-29 2l-27 8l-16 10l-10 17l-6 26v27l2 29l4 26l-2 27l-4 29v32l4 31l2 27l-2 24v64l-4 26v27l2 31v112l-2 29l4 64l-2 26v55l2 31v29l-2 26v29l2 31v53l-2 31v29l2 28v58l2 26l-2 31v29l2 24l2 29l-2 31l-4 26v29l2 33
l-2 30l6 25l12 18l18 11l27 6l27 -4l22 -9l17 -10l10 -14l4 -25v-86l2 -30l-4 -60l4 -31l2 -18v-35l-4 -29l-2 -30l4 -29l2 -27v-26l-2 -33v-86l-4 -31l4 -28l10 -17l19 -8l26 -4h181l51 2l30 2h86l33 -2h84l60 -4h32l19 2h67l52 2h61l29 8l20 19l8 28l2 29l-2 29l-2 26
l-2 31v33l2 28v58l2 31v53l4 59l-4 27l-2 26l2 31l-2 33l2 29v30l7 27l10 16l14 11l25 4h28l25 -4l18 -11l11 -16l4 -25v-28l-2 -31l4 -59l-2 -31v-57l-2 -31v-111l2 -33l2 -28v-58l-2 -24v-27l2 -31l-2 -30v-27l2 -31v-139l2 -31l-2 -26l-2 -29l-2 -33l2 -26l-2 -27l2 -31
l4 -30l-4 -52l4 -59l-2 -29l2 -30v-62l-2 -26v-25l-2 -29l-4 -32l-21 -21l-31 -4h-32l-31 6l-19 19l-2 26l2 29z" />
    <glyph glyph-name="I" unicode="I" horiz-adv-x="540" 
d="M197 115l4 30l-2 31l-2 27l4 53v31l-2 26v29l-2 31l-2 28l2 29v57l6 58l-6 53l2 31v112l-2 29l4 31v30l-4 31v27l2 29v30l-2 31l2 27v26l-2 27v63l2 19l2 30l-4 58l2 31v114l4 27l8 18l16 11l27 4h29l28 -4l19 -11l8 -20l4 -27l2 -26l-4 -52v-88l-2 -26v-62l2 -26l4 -29
l-2 -31l-4 -28v-31l4 -29l-2 -29v-26l4 -60l-2 -26l-4 -29v-31l2 -30v-86l-2 -33v-14l2 -33l4 -33l2 -31l-2 -30l-4 -52v-55l-2 -31v-32l4 -31l2 -29v-51l-4 -27v-32l4 -58l-8 -30l-23 -23l-30 -6h-29l-25 4l-14 10l-12 17l-4 28l-2 31v29z" />
    <glyph glyph-name="J" unicode="J" horiz-adv-x="1400" 
d="M1214 1268l5 -58v-26l-2 -62l-3 -26l3 -29v-84l2 -29v-51l-2 -33v-28l4 -60l-4 -57v-55l2 -25v-61l2 -25v-27l-2 -34l-2 -27l-7 -27l-6 -30l-4 -25l-8 -18l-14 -41l-13 -27l-10 -27l-8 -24l-14 -25l-19 -26l-100 -101l-23 -18l-26 -14l-27 -13l-25 -14l-53 -21l-53 -16
l-82 -20l-31 -2h-57l-62 4h-28l-31 4l-27 6l-26 4l-27 6l-28 8l-52 25l-75 41l-23 18l-22 23l-25 20l-35 35l-20 23l-15 22l-28 55l-15 27l-8 23l-6 26l-25 86l-2 31v29l6 24l21 23l22 8h25l33 -8l26 -21l11 -30l2 -31l16 -55l6 -29l37 -76l14 -24l43 -43l19 -21l70 -45
l26 -12l29 -15l26 -10l54 -12l30 -4l31 2l60 -4l28 2l56 12l59 16l49 19l23 14l45 33l37 33l18 18l39 51l12 27l8 22l6 27l9 29l6 26l4 25l4 31l2 30v31l2 29l2 26v31l6 86v25l-2 24v31l-4 57l-2 25v27l2 32v31l-2 31v28l2 25l-4 59l2 29l4 29v31l-2 24l-4 25l-10 16l-19 8
l-26 6l-53 4h-29l-29 3h-31l-32 -3l-27 -2h-29l-34 2h-58l-26 -2l-56 2l-26 3l-17 8l-10 16l-8 25v26l2 29l12 16l19 7l26 4h144l30 2h33l51 -2h31l27 2l57 -4h29l30 4h31l31 -4l59 4l27 -6l18 -11l8 -18l3 -29l-3 -26v-78z" />
    <glyph glyph-name="K" unicode="K" horiz-adv-x="1241" 
d="M1094 1341l-17 -22l-20 -21l-27 -22l-14 -10l-25 -23l-37 -43l-24 -18l-21 -21l-18 -20l-84 -74l-105 -102l-18 -21l-41 -39l-18 -22l-82 -82l-23 -17l-16 -22v-29l14 -24l41 -45l19 -19l20 -16l86 -80l57 -68l43 -37l25 -18l18 -20l43 -35l41 -43l101 -101l22 -18
l43 -43l15 -12l47 -48l20 -14l19 -18l18 -23l23 -20l8 -23l-19 -10l-30 -2h-29l-31 -2l-28 4l-29 10l-25 15l-82 77l-36 39l-23 19l-37 39l-43 36l-43 43l-18 21l-66 61l-18 21l-19 18l-22 17l-66 63l-35 41l-18 19l-43 34l-41 43l-20 19l-41 33l-15 -7l-8 -24v-31l2 -31
l-2 -28l-4 -25l2 -28l4 -29l2 -29v-31l-2 -30l-6 -29v-29l2 -26l2 -29v-84l-2 -31v-28l-2 -31v-27l-4 -24l-8 -19l-17 -12l-24 -4l-29 4l-29 6l-20 21l-10 24l-2 27l-2 31l2 30l4 31v115l2 28v29l-2 27v28l-2 29v27l-2 26v31l2 31v141l-2 29l4 59l-2 31v84l-2 31v28l4 29
l2 24l-4 27l-2 33l2 31v57l-2 25l2 26v57l-2 33l2 31l4 53l4 27l8 16l14 13l27 4l27 -4l30 -7l23 -20l6 -29l-2 -26v-25l2 -29l4 -34l2 -27v-23l-2 -30v-27l2 -29l-2 -26v-31l-2 -29l-2 -26l4 -56l-2 -28l2 -27v-31l-2 -26l6 -21l14 -8l21 10l63 62l19 22l43 41l20 21l23 18
l59 60l23 18l63 61l62 62l22 18l39 43l148 144l24 16l19 14l22 7l29 2h29l55 -4l20 -7l-8 -18l-22 -23l-23 -20z" />
    <glyph glyph-name="L" unicode="L" horiz-adv-x="1173" 
d="M344 1317v-31l-2 -31l-2 -26l4 -25l2 -28l-4 -64v-80l2 -28v-33l-4 -29l2 -27l-4 -59v-31l2 -28v-84l2 -29v-31l-2 -26l-2 -31v-57l4 -60v-53l-2 -31v-33l2 -26v-25l2 -30v-33l-4 -60l4 -24l12 -14l19 -13l22 -6h27l29 2l30 4l31 2l29 -2h26l27 -2l27 -4h30l29 6h29
l30 -2h62l20 -2h88l60 -2h28l25 4h55l27 -4l18 -10l13 -17l4 -24v-25l-6 -28l-21 -23l-31 -6l-30 2h-29l-55 2l-29 -2h-61l-29 -2h-113l-53 -2h-27l-32 4h-31l-27 -4h-28l-33 2h-141l-56 4l-26 -4h-29l-29 8l-20 21l-6 28v31l-2 27l2 28v80l-2 37l-2 27l2 24v60l2 30l-2 29
l4 55v31l2 33v28l-4 58v55l-2 27l4 57l-2 31l-2 28l2 27l-2 29v57l-4 55l2 29l4 29v114l-2 29v31l2 29v26l-4 62l2 28l4 25l10 18l18 11l31 2h29l26 -7l21 -18l4 -29v-30z" />
    <glyph glyph-name="M" unicode="M" horiz-adv-x="1796" 
d="M1389 1124l-19 -22l-67 -94l-29 -50l-51 -69l-29 -51l-16 -23l-37 -45l-17 -25l-14 -24l-12 -23l-64 -100l-35 -47l-28 -45l-17 -23l-24 -22l-31 -12l-31 10l-20 24l-14 25l-19 20l-18 23l-15 29l-16 24l-18 23l-13 20l-12 25l-31 47l-14 24l-37 45l-78 113l-12 23
l-19 24l-32 49l-17 21l-82 121l-16 20l-14 21l-15 16l-10 -4l-4 -23l4 -55l-4 -53v-29l2 -31l-2 -28v-27l2 -28v-31l-2 -29v-29l-2 -28l2 -27v-29l-2 -30v-58l-2 -28v-29l4 -61v-19l-2 -33v-28l4 -29v-29l-4 -59l-2 -27l2 -26l4 -62l-2 -26v-60l4 -55l-4 -31l-10 -28
l-23 -21l-26 -8l-27 -2l-29 8l-22 21l-8 28l2 29l2 33v57l-4 29v26l2 31v57l2 29l-2 29l-4 26v27l4 61v31l-2 27v143l4 27v28l-4 31v31l-2 26v27l2 33v29l2 24l2 29l-4 31l-2 28v29l2 26l4 27l-2 29v57l-2 29l4 61l-4 58v26l6 25l10 18l16 13l27 4l29 -2l28 2l29 -4l23 -11
l57 -57l31 -51l32 -45l142 -217l16 -27l35 -47l14 -25l17 -24l14 -25l35 -43l12 -24l33 -50l28 -47l17 -20l20 -27l21 -22l22 2l68 90l29 47l14 27l18 26l17 21l14 22l12 29l15 24l37 43l57 103l37 45l26 49l31 45l17 21l14 22l24 33l17 20l14 25l12 27l19 22l20 14l25 5
l31 2h57l29 -7l18 -8l12 -16l7 -25l-5 -33v-28l-2 -25l2 -28l2 -33v-105l-4 -32l-2 -29l4 -62v-26l-4 -55v-60l2 -31l4 -30l3 -29l-7 -113l4 -55l-8 -63v-47l2 -33l4 -29l2 -29l-2 -28l-4 -29l-2 -33v-26l2 -25l6 -29v-28l-2 -29l-4 -29v-30l4 -58l-8 -30l-20 -23l-29 -8
l-29 4l-30 6l-23 21l-8 28l4 29l2 25l2 28v62l-4 30l-2 27l2 25l4 28l-2 33l-4 29l-2 24l2 31v59l-2 27l2 31l4 28v54l-4 55l-2 31l6 84v26l-2 27l2 29v30l-4 60l4 57v31l-4 55v25l2 26l-2 27l-12 4l-17 -18z" />
    <glyph glyph-name="N" unicode="N" horiz-adv-x="1550" 
d="M1214 412l-4 55v53l-4 29v29l4 51v114l-2 27l-2 33l2 28v89l2 24v27l-2 30v29l2 29v59l-6 58l4 59l4 53l-4 29l-4 61l8 29l23 18l33 5h30l27 -7l18 -20l9 -29l2 -28v-29l-6 -29v-26l4 -31v-201l2 -24l2 -27v-31l-4 -61l2 -27v-29l-4 -61l2 -29l-2 -26l-4 -25l2 -28l2 -33
l-2 -29l2 -25v-26l-2 -31v-112l4 -60v-92l-2 -29l-2 -26l2 -27l2 -31l-2 -30v-29l2 -29l-9 -26l-20 -19h-31l-22 6l-37 29l-19 25l-16 24l-78 84l-30 43l-39 47l-19 21l-16 22l-21 21l-16 20l-16 23l-21 26l-37 39l-35 45l-14 25l-41 45l-16 22l-49 68l-19 23l-20 20l-35 43
l-39 43l-16 25l-19 22l-47 66l-41 43l-16 22l-54 72l-16 20l-37 39l-18 25l-19 16l-12 -4l-2 -22v-29l-2 -27l2 -26l2 -29l-2 -31v-32l-2 -27v-25l2 -26l2 -29l-2 -31l2 -28v-29l2 -31v-26l-4 -56v-34l4 -31l2 -27v-28l-4 -56v-61l-2 -29l4 -61v-113l-2 -31v-86l-8 -30
l-23 -19l-28 -6l-29 -4l-29 8l-20 21l-4 26v29l-4 61v29l2 31l-4 53l2 29l4 30l2 29l-4 29l-2 30v29l2 31l2 26v25l-2 29v28l2 29l-2 27v59l-2 31l2 31l2 26l-2 25l-2 30l-2 35l-2 27l2 22l4 58l-2 33v30l2 27l4 26l-4 54l-4 30v64l4 57l-2 29v27l4 53l10 16l18 8l25 7
l27 -11l24 -16l23 -19l18 -22l29 -45l37 -41l32 -45l23 -21l37 -45l14 -22l17 -23l18 -22l16 -23l21 -22l18 -23l19 -20l16 -25l23 -22l65 -91l57 -65l54 -70l69 -92l21 -18l51 -72l72 -88l18 -20l35 -46l20 -20l31 -47l21 -23l18 -12l12 2l7 23v59z" />
    <glyph glyph-name="O" unicode="O" horiz-adv-x="1665" 
d="M260 600l4 -29l6 -28l9 -29l20 -53l10 -29l10 -26l15 -25l12 -23l14 -22l17 -23l41 -45l24 -22l13 -15l24 -20l49 -29l52 -24l26 -11l27 -8l29 -6l26 -8l27 -4l30 -4l29 -6h27l28 2h62l31 2l57 8l51 16l31 8l51 21l25 12l69 51l23 19l41 41l30 47l17 20l51 105l10 24
l8 29l17 53l2 29l6 31l4 26v33l2 27l-2 24l-4 31l-4 25l-4 59l-8 31l-11 26l-4 29l-8 25l-12 28l-10 27l-13 24l-18 21l-19 25l-30 47l-19 22l-24 23l-41 32l-99 60l-26 8l-53 21l-31 8l-31 4l-24 4h-117l-29 -2l-61 -2l-31 -6l-29 -11l-55 -16l-25 -8l-22 -12l-29 -13
l-26 -14l-23 -14l-45 -41l-18 -23l-19 -18l-55 -70l-14 -20l-13 -25l-20 -57l-17 -58l-12 -51l-6 -29l-4 -30v-64l-2 -22l-2 -25l4 -33l6 -28zM946 1448h29l29 -6l28 -8l29 -11l33 -8l73 -31l50 -24l98 -68l57 -53l68 -94l14 -25l10 -26l25 -52l8 -26l12 -29l13 -24l16 -56
l6 -24l4 -29l2 -33l4 -26l2 -27l3 -31v-49l-3 -31l-4 -28l-2 -33l-2 -27l-4 -22l-4 -29l-8 -31l-12 -30l-11 -25l-20 -53l-8 -25l-27 -47l-18 -26l-15 -25l-16 -20l-14 -23l-19 -25l-65 -57l-23 -16l-22 -21l-121 -59l-84 -31l-27 -6l-26 -8l-27 -6l-29 -4l-55 -3h-96
l-17 -2h-30l-60 9l-86 16l-78 31l-28 12l-47 25l-27 12l-25 14l-22 17l-23 20l-20 21l-21 18l-20 20l-19 23l-61 92l-51 107l-10 24l-9 27l-12 53l-6 31l-8 28l-6 25l-5 27l-4 63v27l2 24l5 29l4 27l4 55l6 29l27 108l20 58l12 26l29 53l35 50l14 22l16 19l21 18l18 22
l23 23l22 18l21 15l39 37l26 16l56 23l24 6l78 35l25 6l28 4l29 6h59l60 4l51 4h33l29 -4z" />
    <glyph glyph-name="P" unicode="P" horiz-adv-x="1390" 
d="M457 608l61 4l31 -2l31 2l55 2h57l29 2l92 -6h25l59 4l27 7l28 12l31 12l27 12l22 15l23 18l39 39l20 25l16 24l13 23l12 24l8 29l4 29l4 26l3 29l-3 31v30l-4 29l-10 27l-16 53l-11 27l-12 24l-18 21l-21 22l-20 25l-23 18l-26 15l-86 30l-27 4h-57l-29 4h-29l-26 -4
h-29l-29 4l-63 -4l-31 4h-29l-30 -2h-51l-33 -2l-60 4l-30 -8l-23 -22l-6 -27l-4 -55l2 -29l4 -31v-61l2 -29l-2 -30l-4 -17l-2 -31l2 -28v-33l-2 -31l2 -26l2 -29v-31l-4 -53v-29l2 -28l8 -27l23 -22l28 -11l29 -2h29zM338 365l2 -31l-2 -27v-53l2 -31l-2 -28v-80l4 -29
l2 -31l-4 -24l-12 -15l-17 -10l-26 -8h-29l-27 6l-16 12l-10 17l-2 24l2 25l-2 29l-4 30v31l2 29v55l2 31l-2 32l-2 19v31l2 30v84l2 31v27l-4 28l-2 29l2 31l4 30v29l-4 57v31l-2 33v16l2 33v62l4 30v27l-4 27l-2 26v31l2 29l2 26v86l2 31l-2 29v28l-2 29v27l4 28l8 29
l20 20l29 7h113l28 4l31 2h29l28 -4l31 -2l31 2l26 -2h31l27 4h57l31 -2h147l31 -2l29 -5l26 -4l29 -6l25 -10l26 -8l29 -13l51 -30l43 -33l41 -39l53 -76l13 -22l10 -27l14 -22l8 -27l7 -31l4 -26l2 -25l6 -29l2 -28v-29l-2 -29v-28l-4 -27l-8 -27l-11 -28l-8 -33l-10 -27
l-12 -24l-15 -25l-18 -26l-51 -60l-43 -37l-21 -16l-78 -41l-51 -20l-29 -7h-32l-29 -2l-27 -4h-26l-31 2l-31 -4l-28 -2h-174l-29 -2l-66 4l-28 -2l-27 2h-31l-30 -10l-23 -18l-8 -29l2 -27v-28z" />
    <glyph glyph-name="Q" unicode="Q" horiz-adv-x="1669" 
d="M723 1311l-29 -8l-28 -7l-31 -6l-27 -8l-55 -27l-18 -6l-31 -18l-45 -35l-21 -18l-18 -19l-21 -16l-18 -21l-16 -26l-13 -25l-14 -22l-19 -25l-14 -25l-10 -24l-10 -27l-4 -26l-9 -29l-10 -29l-4 -26l-4 -56l-2 -32v-27l2 -25v-32l2 -31v-27l6 -28l8 -29l6 -25l7 -26
l20 -54l12 -26l29 -53l31 -41l20 -23l86 -78l99 -61l28 -12l27 -9l53 -12l27 -2l28 -4l31 -6l90 -4l29 2l57 10l47 12l62 21l26 10l23 8l25 12l24 17l27 16l24 17l23 22l22 25l35 35l19 24l39 72l26 53l17 57l10 25l6 25v28l4 58v26l2 29l4 29v30l-4 31l-8 29l-6 26l-8 56
l-9 30l-47 103l-28 47l-35 45l-21 22l-61 54l-25 16l-24 12l-25 15l-27 12l-55 16l-26 4l-31 4l-27 7l-26 8l-29 4h-33l-26 -2l-25 2l-31 2l-28 -4zM948 1450l29 -4l59 -19l49 -10l27 -10l29 -12l51 -17l53 -26l23 -15l22 -16l21 -18l20 -23l43 -39l33 -45l37 -45l29 -49
l30 -78l25 -82l18 -84l4 -27l6 -28l5 -29l2 -29v-24l-2 -27l-5 -32l-4 -56l-4 -26l-10 -29l-8 -33l-6 -31l-6 -24l-23 -53l-8 -27l-41 -76l-14 -24l-11 -23l-2 -20l4 -21l58 -59l37 -41l18 -17l12 -22l2 -31l-10 -26l-18 -19l-23 -14l-20 -8l-21 4l-80 71l-18 23l-19 20
l-28 13h-29l-131 -68l-76 -29l-28 -8l-50 -12l-30 -6l-27 -2l-29 -6l-28 -5h-31l-25 -2l-26 2l-31 5l-53 4l-29 4l-33 8l-26 8l-56 12l-106 41l-72 43l-47 35l-41 41l-18 25l-21 20l-18 21l-45 69l-53 103l-11 30l-12 52l-8 26l-4 31l-2 31l-11 57l-2 27v53l2 31l3 28v31
l2 31l6 28l8 29l12 51l13 31l8 29l10 26l12 23l10 24l13 27l16 25l84 114l66 62l22 14l25 14l24 17l107 49l26 10l29 8l84 19l62 8l61 2h82l29 -4h28z" />
    <glyph glyph-name="R" unicode="R" horiz-adv-x="1449" 
d="M342 1182v-31l-2 -29v-28l2 -27v-141l2 -33v-90l-2 -29l-2 -26v-25l4 -27l10 -18l17 -12l28 -7l86 3h86l29 2l31 -2h31l26 2l31 2h26l62 -2l82 4l29 4l32 2l31 8l27 10l22 15l66 57l18 22l14 25l17 25l12 28l8 31l6 27l3 28l-3 25l-2 29l-2 34l-4 29l-8 25l-20 53l-35 45
l-39 41l-51 33l-82 24l-27 4l-33 4l-26 4h-25l-35 -2h-65l-51 -2h-33l-29 2h-26l-29 -4l-66 2h-30l-27 -2l-27 2l-28 -8l-23 -22l-4 -27v-27zM1245 -2l-28 6l-25 6l-23 8l-24 21l-55 67l-37 41l-19 25l-18 21l-21 16l-20 18l-37 47l-76 82l-18 25l-39 39l-53 65l-19 19
l-26 12l-29 8l-29 2l-31 -2h-51l-28 4l-25 2h-57l-29 -2h-31l-28 -6l-19 -22l-6 -33v-88l-4 -27l-2 -30l2 -31v-29l-2 -29l4 -61v-29l-2 -28v-27l-2 -27l-6 -28l-21 -25l-30 -6l-29 2l-27 6l-18 19l-4 30v19l-4 63v27l4 57v31l-2 31l-2 28l2 29v29l-4 26v27l2 29l-2 28v31
l2 31l2 28l-4 60l2 29v26l-2 27l4 57v31l-2 28v168l-2 33v31l2 29l-2 28v54l2 30l-2 27l2 26v31l-2 29l4 29v28l4 25l6 18l14 13l27 6h31l123 -4l28 2h29l29 -2h30l29 2l55 2l29 -2l31 -4l28 2h31l29 2h28l54 -2l63 -5l31 3l28 -5l27 -8l25 -6l28 -8l29 -10l25 -13l92 -71
l41 -39l16 -25l12 -22l35 -80l19 -78l6 -31l4 -26l2 -29v-29l-6 -28l-4 -31l-11 -51l-8 -29l-24 -51l-49 -74l-19 -24l-16 -17l-76 -53l-25 -14l-28 -9l-31 -6l-27 -6l-26 -8l-27 -4l-22 -6l-11 -21l13 -22l22 -23l19 -22l18 -25l20 -20l21 -19l20 -22l35 -46l43 -40l54 -64
l22 -20l82 -89l35 -45l18 -18l15 -18l-5 -17l-20 -6l-29 -4h-47z" />
    <glyph glyph-name="S" unicode="S" horiz-adv-x="1351" 
d="M1012 1221l-23 18l-24 16l-54 25l-28 10l-31 6l-29 9l-26 6l-29 4l-33 4h-20l-33 2h-29l-28 -4l-31 -2l-33 -4l-18 -4l-33 -4l-27 -7l-49 -18l-26 -12l-25 -15l-23 -18l-20 -23l-21 -20l-14 -23l-12 -24l-8 -25l-4 -57v-31l2 -31l10 -26l16 -25l21 -20l22 -19l23 -16
l24 -12l25 -11l59 -20l29 -6l59 -17l31 -6l25 -4l26 -6l29 -8l90 -12l29 -7l28 -4l60 -12l26 -8l82 -33l29 -10l45 -21l25 -14l51 -41l39 -41l14 -16l17 -25l12 -27l8 -28l8 -55l6 -31l4 -31l2 -31l-2 -26l-6 -25l-20 -57l-8 -25l-13 -26l-14 -25l-80 -84l-22 -14l-50 -27
l-26 -10l-25 -8l-26 -11l-29 -6l-29 -8l-59 -14l-25 -4l-55 -4l-29 -5h-28l-31 3l-55 -3l-56 7l-28 2l-29 4l-31 6l-26 8l-29 6l-29 10l-100 48l-27 14l-22 20l-47 31l-39 41l-21 25l-12 26l-14 21l-11 22l9 29l20 20l25 15l26 6l29 -6l23 -17l34 -45l21 -22l22 -19l25 -18
l20 -16l74 -37l25 -11l84 -18l84 -12h30l25 -4h27l34 2l52 8l28 2l31 4l27 8l53 23l26 10l27 8l23 15l43 38l18 25l12 25l13 22l10 27l4 28l-2 31l-4 31l-4 24l-8 25l-13 29l-14 22l-16 21l-21 20l-22 17l-82 34l-25 9l-29 6l-84 28l-24 7l-29 2l-29 6l-30 4l-31 2l-29 6
l-28 8l-60 12l-26 9l-29 6l-31 8l-28 8l-103 43l-26 15l-23 16l-41 37l-20 22l-19 27l-16 27l-19 47l-8 28l-4 66l2 29l4 26l4 29l6 33l35 75l64 70l41 33l22 14l86 33l47 16l31 13l29 8l30 6l62 8h24l29 -2h31l59 4l27 -4l24 -6l27 -6l29 -2l28 -6l27 -7l29 -4l30 -10
l46 -22l24 -15l25 -12l24 -14l23 -19l22 -16l58 -62l10 -22v-21l-6 -14l-19 -16l-24 -15l-29 -8l-31 8l-26 17z" />
    <glyph glyph-name="T" unicode="T" horiz-adv-x="1220" 
d="M393 1300h-49l-31 -2h-80l-63 -4h-29l-24 2l-29 2l-29 7l-18 18l-4 31v28l6 27l20 16l27 7h31l26 -2l27 2l31 2l31 -2l26 -2l27 2h63l54 4l57 -4h88l29 -2h28l60 4h233l55 -4l54 4l61 -2l33 2h29l24 -9l21 -18l10 -27v-28l-6 -25l-23 -20l-31 -9l-30 2h-29l-49 -4h-27
l-32 -2h-29l-31 -2l-27 2l-26 6h-29l-26 -2h-25l-29 -2l-28 -8l-21 -20l-10 -29l2 -29v-30l-2 -29l2 -31l-2 -57l2 -29l-2 -24v-60l4 -57l2 -31v-57l-2 -31l-4 -29l-2 -26l2 -31v-80l-2 -59v-57l6 -31l2 -29l-2 -26v-93l-4 -28l-2 -27l2 -25l2 -30v-31l-2 -29l-4 -28l4 -58
l-4 -30l-23 -21l-30 -4l-29 -2l-23 4l-14 12l-12 17l-6 22l-4 27v31l4 59v31l-4 55l4 57v31l2 27v59l-2 31v31l2 26l-4 53v91l2 26l-2 27l-2 31l2 32v60l-2 24l2 27v61l2 31v82l-4 55v64l4 26l2 29l-4 27l-9 16l-18 12l-27 6l-28 -2z" />
    <glyph glyph-name="U" unicode="U" horiz-adv-x="1503" 
d="M1321 1292l-2 -28v-33l2 -25v-28l-4 -29v-53l2 -29v-29l4 -28v-29l-2 -31v-26l2 -29l-4 -55v-29l2 -33l-4 -53l4 -31v-88l-2 -31l-2 -24v-57l-8 -54l-2 -28l-13 -62l-10 -26l-8 -27l-39 -74l-16 -22l-21 -21l-53 -65l-21 -21l-24 -18l-45 -25l-25 -12l-84 -33l-28 -8
l-27 -6l-53 -4l-27 -4h-31l-61 -7l-27 3l-26 6l-29 2l-29 4l-24 8l-25 4l-26 8l-29 13l-49 26l-27 10l-29 17l-20 14l-43 37l-21 25l-34 49l-19 22l-14 23l-43 102l-10 29l-7 29v28l-2 31l-2 27l-4 30v29l2 31l-4 51l2 27l2 32l-2 29v27l-2 28v29l2 27l2 32l-2 29l-2 25v55
l-2 31l4 59v55l2 33l-2 29l-4 24v25l6 26l2 29l-2 31l-4 31l-2 28l6 25l11 18l16 11l27 6h30l31 -9l16 -22l9 -31l4 -31v-28l-4 -51v-31l2 -31v-28l-2 -23l4 -29v-30l-4 -33l-2 -29l2 -26v-52l4 -30l2 -31l-6 -86v-27l-2 -26v-27l4 -29l-2 -32l-2 -29l4 -31v-53l-2 -25
l2 -32l6 -29l4 -27l6 -26l8 -29l10 -29l13 -26l14 -23l59 -72l21 -18l20 -14l19 -17l22 -16l56 -27l26 -10l29 -6l31 -4l28 -6l54 -4h28l33 4l27 6l26 2l31 6l27 8l20 13l25 14l28 14l27 17l23 20l18 18l18 27l13 16l18 29l25 51l10 25l8 29l6 28l8 60l3 28l2 23l2 26l-2 35
l-2 29l6 86v111l-4 59l2 31l2 28v25l-2 25l-2 30v29l-2 31v28l2 27l4 27l2 26l-2 31l-4 31l-2 26v49l2 35l8 33l20 20l29 5h31l30 -7l19 -20l4 -29v-30z" />
    <glyph glyph-name="V" unicode="V" horiz-adv-x="1478" 
d="M723 -6l-31 4l-20 10l-17 17l-16 22l-10 27l-15 28l-30 80l-35 80l-12 25l-15 26l-22 58l-8 16l-13 33l-10 29l-25 53l-10 26l-10 29l-35 74l-14 26l-13 27l-10 27l-8 28l-31 82l-22 53l-10 27l-84 182l-13 31l-10 29l-49 102l-39 107l-14 28l-6 27l14 20l24 7l29 2
l27 -2l22 -9l19 -10l16 -14l14 -25l11 -26l8 -27l10 -25l12 -26l11 -27l14 -24l14 -27l33 -82l27 -84l14 -22l12 -29l25 -51l12 -27l10 -27l9 -22l12 -25l12 -28l8 -29l35 -82l10 -29l13 -26l10 -25l8 -24l12 -31l11 -25l30 -84l27 -49l37 -84l35 -104l16 -21l19 4l14 21
l12 22l25 58l18 47l25 55l16 55l10 27l50 105l12 28l10 27l12 24l11 27l18 57l35 78l8 27l12 31l60 129l8 28l6 25l10 26l13 29l10 25l12 24l23 60l8 26l24 49l11 29l12 27l12 24l17 23l14 16l18 10l27 9l27 -2l24 2l25 -6l12 -23l-8 -29l-21 -51l-12 -27l-14 -24l-49 -139
l-33 -76l-10 -27l-15 -28l-24 -52l-15 -24l-10 -25l-10 -31l-23 -53l-10 -28l-10 -25l-12 -27l-15 -28l-16 -51l-10 -29l-29 -53l-10 -25l-9 -27l-24 -57l-6 -27l-10 -24l-15 -23l-10 -26l-8 -27l-10 -27l-27 -57l-14 -24l-15 -29l-18 -53l-21 -52l-12 -26l-10 -27l-15 -29
l-16 -16l-20 -8l-27 -4l-27 2h-16z" />
    <glyph glyph-name="W" unicode="W" horiz-adv-x="2211" 
d="M1501 10l-14 17l-21 47l-12 24l-10 31l-8 29l-37 106l-8 29l-9 24l-8 27l-12 27l-10 26l-11 25l-6 29l-8 28l-10 27l-12 26l-9 31l-18 49l-4 23l-8 31l-11 26l-8 31l-10 27l-12 26l-13 58l-8 26l-10 23l-18 53l-13 29l-10 28l-6 27l-8 29l-17 49l-10 24l-14 2l-19 -49
l-8 -28l-6 -25l-8 -29l-10 -30l-11 -29l-8 -25l-10 -24l-25 -84l-12 -49l-20 -60l-21 -57l-6 -23l-8 -22l-13 -31l-26 -78l-8 -30l-9 -29l-14 -27l-6 -24l-6 -27l-31 -84l-12 -24l-13 -31l-24 -78l-8 -23l-8 -26l-11 -27l-14 -24l-14 -17l-23 -10l-29 -4h-28l-33 6l-29 21
l-18 28l-8 29l-6 24l-23 56l-8 26l-21 54l-12 28l-8 27l-6 27l-23 55l-8 24l-8 27l-10 27l-13 26l-30 82l-17 55l-6 27l-8 25l-35 84l-18 57l-13 25l-6 26l-6 29l-8 27l-25 53l-37 112l-6 27l-18 49l-15 27l-10 26l-8 29l-10 31l-13 28l-8 29l-4 27l-10 26l-4 25l12 18l25 7
h53l25 -2l18 -11l14 -16l15 -27l12 -24l16 -52l11 -28l8 -29l6 -29l8 -26l10 -23l15 -24l8 -31l4 -29l27 -80l8 -26l24 -57l11 -29l8 -25l6 -26l10 -27l6 -27l9 -24l12 -27l8 -26l8 -29l6 -29l11 -26l8 -27l10 -27l8 -26l21 -56l12 -26l8 -25l8 -28l11 -27l6 -27l8 -24
l12 -27l17 -57l12 -23h12l19 47l10 29l12 27l25 84l20 53l8 26l19 52l10 30l8 29l8 25l11 24l8 31l18 51l11 25l16 53l10 29l23 55l4 29l8 28l12 25l11 26l6 27l8 29l10 28l16 52l13 22l8 27l20 57l5 29l8 26l12 25l18 57l11 21l14 16l20 13l27 2l21 -11l16 -16l14 -27
l21 -55l8 -25l6 -26l10 -27l9 -31l10 -28l24 -56l4 -24l11 -27l8 -16l12 -31l6 -28l21 -56l12 -28l8 -27l8 -31l9 -26l12 -54l29 -75l12 -27l10 -31l10 -26l15 -52l24 -55l19 -80l12 -28l27 -80l12 -29l8 -31l10 -26l9 -19h10l12 21l23 55l8 27l6 28l8 31l10 27l21 47l10 26
l10 29l9 31l18 53l8 27l10 24l23 80l22 57l13 27l6 23l6 26l8 29l10 31l33 77l13 54l8 26l14 29l18 57l11 21l24 88l17 47l8 27l10 26l14 25l15 18l18 13l27 6h29l26 -2l21 -11l10 -16l2 -25l-10 -30l-13 -31l-8 -29l-8 -24l-20 -51l-9 -27l-16 -60l-10 -26l-13 -25l-10 -26
l-12 -27l-33 -111l-10 -28l-12 -27l-9 -29l-22 -49l-8 -28l-31 -78l-6 -31l-10 -29l-11 -24l-8 -25l-8 -28l-23 -54l-22 -84l-12 -30l-9 -19l-12 -30l-16 -58l-10 -26l-13 -25l-22 -51l-8 -31l-11 -29l-16 -49l-14 -26l-17 -19l-20 -10l-27 -2l-59 4z" />
    <glyph glyph-name="X" unicode="X" horiz-adv-x="1273" 
d="M1204 1423l-2 -20l-14 -25l-51 -63l-31 -51l-21 -25l-63 -90l-33 -43l-12 -27l-70 -92l-12 -22l-18 -25l-19 -22l-63 -95l-35 -47l-12 -24v-23l4 -20l14 -31l27 -43l18 -25l18 -20l31 -47l74 -90l47 -72l14 -27l15 -22l39 -47l32 -52l19 -22l18 -25l17 -20l16 -27l8 -16
l19 -27l18 -20l37 -51l6 -19l-18 -6h-27l-61 -4l-25 6l-21 10l-40 35l-31 47l-19 23l-30 49l-39 45l-33 51l-14 25l-17 26l-12 23l-39 45l-33 49l-14 25l-33 49l-37 47l-14 24l-16 23l-23 16h-22l-17 -12l-29 -51l-20 -25l-18 -20l-17 -21l-12 -24l-12 -27l-50 -67l-47 -72
l-39 -45l-10 -23l-16 -22l-37 -43l-12 -25l-45 -69l-19 -25l-22 -20l-21 -15l-20 -8l-23 -2l-24 4l-31 -2h-29l-16 8l8 21l14 24l15 23l37 41l28 53l17 23l39 45l34 47l13 24l166 240l34 37l21 26l14 27l14 23l19 24l14 27l6 22l-4 21l-16 22l-16 25l-17 20l-35 54l-59 86
l-16 20l-15 25l-39 51l-28 45l-35 45l-78 121l-16 22l-19 23l-18 26l-8 15l-17 26l-20 23l-9 18l17 9l29 2l26 -2l27 2l31 -4l20 -9l18 -12l23 -23l31 -51l16 -24l35 -45l10 -27l21 -27l36 -38l46 -68l14 -25l16 -24l17 -29l32 -47l17 -20l59 -93l19 -16h24l19 16l53 70
l47 76l35 47l14 24l16 21l15 24l14 27l53 68l29 47l53 69l29 48l18 18l25 14l27 11l26 2h62z" />
    <glyph glyph-name="Y" unicode="Y" horiz-adv-x="1357" 
d="M705 764l53 74l14 24l12 25l13 22l18 19l19 24l30 49l15 21l30 53l33 47l12 25l45 74l31 45l14 24l17 23l16 24l13 25l16 24l20 23l19 12l20 6l31 5l31 -2l28 2h27l18 -9l-6 -18l-37 -51l-14 -23l-14 -20l-12 -25l-17 -24l-18 -23l-31 -47l-25 -45l-86 -119l-14 -24
l-12 -25l-13 -23l-86 -122l-28 -48l-17 -26l-59 -86l-45 -72l-12 -29l-6 -28l-3 -29l5 -57l2 -31l-2 -29v-28l-5 -31l-2 -27l5 -26l4 -29v-59l-2 -27v-57l-2 -27v-27l-3 -30l-8 -19l-16 -10l-29 -4l-33 2l-28 8l-17 21l-6 28l-4 29l-2 29v30l2 29v55l2 29l-2 31v30l4 56v31
l-2 28l-4 27v84l-4 24l-8 25l-45 80l-35 45l-31 53l-16 23l-29 51l-45 69l-37 50l-28 47l-19 24l-16 27l-17 22l-47 78l-12 23l-49 71l-29 52l-33 45l-30 51l-2 22l16 9l27 -2l28 2h27l27 -9l14 -6l24 -12l19 -23l16 -24l11 -27l34 -43l45 -75l64 -93l14 -24l15 -29l14 -24
l12 -23l94 -143l27 -50l49 -67l19 -19h22z" />
    <glyph glyph-name="Z" unicode="Z" horiz-adv-x="1220" 
d="M270 1430l27 2l29 4h63l82 -6h29l30 4l31 2l27 -4l28 -2h31l31 2h27l28 -2h29l24 2l60 2h86l63 -4l88 6l29 -9l18 -24l-2 -29l-12 -26l-12 -21l-17 -22l-30 -50l-19 -22l-63 -92l-39 -45l-16 -25l-17 -22l-29 -52l-20 -22l-49 -68l-53 -67l-47 -76l-35 -47l-68 -90
l-18 -21l-17 -22l-14 -29l-16 -25l-52 -65l-20 -23l-16 -24l-15 -27l-16 -24l-19 -25l-18 -20l-27 -41l-69 -97l-9 -24l9 -19l22 -4h58l30 2h115l59 2h31l47 -2h53l70 -2h25l22 2h125l27 -2h28l29 -2h57l25 -2l16 -8l13 -16l2 -23v-29l-4 -26l-9 -19l-18 -12l-29 -4l-26 4
l-29 2l-27 -2h-57l-33 -4h-26l-54 2l-67 -4h-27l-51 4h-59l-84 2l-29 -2h-31l-30 2l-31 -2h-60l-26 -2l-31 -2h-31l-26 2l-29 4l-53 -2l-31 4h-55l-17 10l-10 17l-2 24l6 23l8 20l48 64l14 26l18 27l19 25l14 22l16 21l19 20l14 25l17 26l34 41l80 117l17 27l18 22l14 23
l19 22l18 27l54 65l16 27l63 86l15 25l14 26l53 72l21 22l29 47l14 21l18 18l31 54l18 24l19 21l84 114l8 25l-12 14l-23 4l-24 2l-31 2l-29 -2l-57 5h-59l-27 -3l-29 3h-31l-30 -3h-56l-26 3h-27l-53 -5h-27l-30 5h-62l-51 -5h-29l-26 5l-19 8l-10 14l-6 27v28l6 27l21 18
l28 7l31 2z" />
    <glyph glyph-name="bracketleft" unicode="[" horiz-adv-x="681" 
d="M188 -57l2 34l3 27l-3 29l-2 30l5 27l2 29l-5 57v29l3 31l-3 30l-2 27l2 29v28l3 27l-3 29l-2 30v31l2 29v57l-2 27v28l2 27v63l3 29v84l-3 29v28l3 31l2 27v53l-5 57v203l3 33v28l-3 29l-2 31l5 29l2 26v86l-2 27l-3 28l9 27l24 23l27 8h29l28 -2h29l53 4h29l61 2l35 -2
h18l35 -8l23 -19l4 -26v-29l-4 -25l-21 -16l-30 -8l-66 4h-82l-31 -6l-18 -13l-8 -16l-2 -29v-53l2 -29l-2 -30l-2 -27v-117l4 -28v-86l-2 -27v-27l2 -28l-2 -31l2 -33l-2 -28l-2 -25v-29l2 -30l-4 -58l2 -32l4 -31l2 -27v-24l-2 -27l-2 -33v-28l2 -29l-2 -29v-28l2 -27v-25
l-4 -28v-29l4 -33v-176l-4 -57l2 -27l4 -31l2 -30l8 -27l19 -18l24 -9l27 5h119l24 -7l19 -10l10 -14l4 -25l-2 -26l-2 -21l-10 -14l-17 -10l-26 -9l-29 -2h-53l-60 4l-28 -2h-29l-29 4l-26 3h-29l-27 6l-16 10l-10 16l-9 25l-2 27v49z" />
    <glyph glyph-name="backslash" unicode="\" horiz-adv-x="993" 
d="M223 1505l31 -80l10 -24l27 -51l10 -25l27 -55l18 -53l12 -27l17 -51l10 -27l29 -53l10 -29l14 -22l11 -25l8 -29l10 -26l10 -23l27 -51l10 -29l8 -28l13 -23l14 -22l12 -27l21 -57l10 -25l14 -25l10 -26l9 -27l37 -80l10 -24l16 -53l12 -27l15 -27l12 -28l10 -27l11 -25
l12 -24l10 -25l8 -26l25 -58l49 -104l27 -53l20 -52l10 -24l13 -23l6 -24l-15 -23l-32 -8h-27l-25 4l-24 6l-17 17l-14 26l-10 27l-14 24l-21 54l-10 22l-10 29l-13 27l-20 55l-37 82l-12 22l-11 23l-8 26l-10 25l-16 27l-43 104l-9 27l-22 53l-14 29l-17 26l-12 25l-16 53
l-15 29l-31 73l-20 56l-39 73l-43 105l-41 104l-24 56l-15 28l-10 25l-25 51l-10 25l-14 24l-10 29l-7 29l-24 49l-21 57l-14 25l-12 24l-2 25l14 18l29 8l28 5l31 -5l21 -10l14 -16z" />
    <glyph glyph-name="bracketright" unicode="]" horiz-adv-x="681" 
d="M96 -92l19 20l30 4h19l94 7h29l24 2l17 8l12 16l6 29l-4 31v26l4 55v58l-4 59l4 60v84l4 55l-4 61l2 29v25l-4 61v53l-2 27v33l2 30v27l-2 31l2 30v52l-2 28v33l6 33l2 33v16l-6 92l4 60v28l-4 56l2 24v31l-2 31l2 26v58l-8 28l-23 23l-28 8l-31 2l-29 -2l-30 -4h-25
l-27 2l-28 8l-21 23l-4 30l4 33l8 23l15 10l28 4h52l61 2l31 -2l53 -4h29l26 2h31l31 -8l20 -23l4 -33v-28l7 -27l-3 -27l-2 -28l2 -29v-33l-2 -26l2 -23v-92l-2 -27v-28l2 -29v-88l3 -25v-28l-3 -31l-4 -31l4 -55l3 -29v-26l-3 -27v-59l-4 -33l2 -29l2 -26l3 -29l-3 -29
l-2 -30l5 -62l-5 -26v-27l2 -27v-30l-2 -31v-27l5 -28l2 -33v-25l-2 -24l-5 -31l-2 -31l2 -31l5 -26v-29l-5 -26v-29l2 -31l-2 -31v-84l2 -28l-6 -29l-18 -22l-29 -9l-30 2h-35l-31 -4l-23 -2l-90 2h-28l-29 2h-29l-24 4l-19 9l-8 16v49z" />
    <glyph glyph-name="asciicircum" unicode="^" horiz-adv-x="1214" 
d="M168 856l45 76l16 24l13 23l34 45l15 27l35 47l16 24l14 27l13 22l51 70l16 27l19 22l28 47l54 72l18 14l25 9l30 2l27 -4l20 -9l17 -16l20 -23l17 -22l16 -25l51 -67l15 -25l14 -26l31 -46l12 -26l16 -27l21 -24l18 -23l45 -70l70 -96l45 -71l16 -23l13 -25l2 -20
l-17 -10l-28 -4h-29l-31 6l-20 10l-21 14l-22 19l-17 22l-10 29l-14 25l-19 22l-16 23l-14 24l-19 23l-16 22l-41 72l-33 49l-47 70l-12 22l-33 45l-16 17l-25 2l-21 -19l-28 -47l-19 -20l-18 -23l-16 -24l-19 -25l-16 -25l-10 -24l-17 -23l-18 -20l-15 -23l-26 -51l-54 -72
l-63 -96l-18 -14l-23 -6l-29 -2h-24l-25 2l-20 10v22l12 25l18 21z" />
    <glyph glyph-name="underscore" unicode="_" horiz-adv-x="1247" 
d="M285 -45l26 -4h27l33 2h80l32 2h56l24 2h29l29 -2l32 -4h27l29 4l57 -4l29 2h26l25 -2h26l64 4h55l31 2l29 -2l24 -6l15 -12l10 -19l6 -29l-8 -28l-25 -21l-29 -8h-28l-58 -4h-26l-29 2l-29 4h-28l-27 -2l-53 -2l-31 2h-254l-59 -2h-53l-27 -2h-31l-55 4h-29l-26 -4
l-27 6l-18 10l-11 19l-2 26l9 29l20 25l25 8l57 6z" />
    <glyph glyph-name="grave" unicode="`" horiz-adv-x="479" 
d="M186 1434l21 -11l18 -16l39 -51l45 -74l25 -53l16 -23l6 -24l-18 -13h-51l-27 2l-18 11l-21 16l-20 21l-17 22l-16 27l-55 69l-47 68l-5 20l15 11h82z" />
    <glyph glyph-name="a" unicode="a" 
d="M516 461h84l27 2h28l29 -4l64 4l18 -2h33l114 -4l60 4l26 4h31l27 -2l24 6l11 23l-2 24l-7 23l-61 135l-14 24l-33 78l-12 25l-11 26l-10 29l-14 27l-27 78l-14 26l-17 25l-20 53l-14 25l-11 30l-8 29l-12 27l-12 24l-11 25l-16 20h-18l-17 -22l-10 -29l-23 -45l-10 -31
l-10 -26l-16 -25l-60 -129l-12 -29l-8 -28l-11 -27l-8 -27l-12 -24l-14 -25l-13 -28l-16 -54l-14 -24l-25 -54l-12 -28l-8 -25l-27 -53l-8 -27l14 -18l27 -4h30zM1059 330h-86l-29 2h-55l-62 -2l-30 2l-27 2h-27l-30 -4l-56 4h-32l-29 -2l-55 2l-25 -2h-27l-28 4h-29l-33 -2
l-30 -4l-21 -8l-14 -17l-27 -57l-6 -17l-14 -28l-27 -47l-10 -27l-6 -27l-25 -51l-20 -20l-17 -15l-20 -12l-29 -8h-31l-28 10l-17 21l6 26l17 25l20 49l27 55l12 29l8 25l39 75l9 25l22 51l10 27l15 26l10 29l10 25l29 53l12 26l10 25l23 47l24 57l9 27l37 80l14 25l22 53
l9 16l12 31l8 33l39 77l14 25l13 27l10 26l8 25l10 24l13 23l14 29l12 28l10 27l11 25l10 26l12 25l15 26l18 27l14 16l19 9l28 2l58 -4l22 -11l17 -16l16 -21l18 -53l27 -53l25 -59l24 -43l13 -27l8 -27l47 -106l20 -49l25 -52l22 -55l29 -49l10 -29l37 -75l31 -78l29 -54
l12 -26l26 -76l13 -25l16 -26l12 -29l13 -26l12 -29l35 -70l12 -30l16 -52l23 -53l41 -80l6 -24l-14 -21l-27 -6h-31l-28 2l-21 6l-20 15l-19 26l-8 25l-26 49l-33 82l-10 20l-9 25l-14 26l-16 25l-15 14l-22 9l-29 4h-27z" />
    <glyph glyph-name="b" unicode="b" horiz-adv-x="1441" 
d="M571 133h31l33 4h31l28 -4l58 2l55 -4l61 8l56 4l28 4l25 9l24 10l58 20l22 11l23 14l43 45l12 23l10 26l7 29l4 24l2 27l2 31l-2 28l-6 29l-13 25l-14 22l-37 47l-20 19l-23 18l-29 14l-55 21l-29 10l-28 4l-27 9l-27 6l-30 2h-49l-29 -4l-27 -2h-28l-29 2l-27 -2l-88 2
l-28 4h-29l-27 -4h-57l-29 2l-24 -4l-21 -23l-8 -31l-2 -30l-2 -25l2 -25v-114l-2 -31l2 -27l2 -24v-29l-2 -33l-4 -30v-27l2 -27l4 -26l12 -15l17 -6l24 -4h144zM477 793l62 2l26 2l29 4h27l28 -2l31 2h29l28 -2h29l55 2h31l29 -2l26 4l51 14l29 6l27 15l22 14l29 14l22 21
l15 22l28 52l11 26l2 29l2 24v25l-4 29l-11 28l-8 27l-12 25l-16 24l-64 49l-29 17l-57 20l-33 10l-75 11h-27l-25 -2l-32 -5l-31 -2l-64 4l-26 3h-119l-29 2l-26 -2l-31 -5l-29 -2l-26 -6l-25 -18l-6 -27l4 -55v-31l-4 -31l-4 -26l2 -25l4 -26l2 -27l-4 -27l-2 -30v-31
l2 -31l2 -26v-27l4 -29l19 -20l30 -6h27zM924 1427l82 -20l110 -45l25 -16l49 -39l18 -21l17 -24l24 -54l15 -28l10 -29l6 -29l4 -26l2 -27l2 -31v-30l-12 -56l-41 -78l-14 -22l-37 -43l-21 -21l-20 -18l-27 -14l-20 -13l2 -12l94 -67l45 -39l16 -21l47 -76l13 -30l6 -27
l6 -88v-53l-4 -31l-8 -29l-10 -24l-7 -23l-12 -24l-16 -25l-58 -65l-24 -17l-47 -24l-82 -35l-51 -15l-27 -4l-29 -2l-28 -6l-29 -4l-27 -2h-55l-27 -2l-71 2h-17l-32 -2h-33l-27 -2l-26 2h-33l-58 -4h-86l-55 8h-29l-28 -2h-31l-29 6l-20 10l-8 17l-2 24v60l2 24v27l-4 61
v86l2 31v27l-2 26l4 56l-2 28v29l-2 31l6 86v28l-2 33l-2 29v26l-2 27v31l4 28l-2 29l-4 27l2 26l2 31v60l-2 26v31l2 29v24l-4 62v86l4 59l-2 29v26l2 23l12 16l18 8l27 7l27 2h28l29 -2l57 4h62l28 2l29 -2h31l59 -4l25 2l26 4h29l62 -4l30 2l33 -2l31 -5h28l27 3z" />
    <glyph glyph-name="c" unicode="c" horiz-adv-x="1452" 
d="M1262 102l-50 -28l-26 -19l-47 -24l-29 -13l-27 -10l-57 -12l-31 -10l-28 -4l-58 -2l-32 -3l-50 5l-30 2l-62 2l-33 2h-16l-31 6l-28 10l-135 47l-31 12l-53 35l-15 11l-26 16l-48 39l-18 18l-18 21l-33 47l-19 24l-16 25l-12 27l-29 49l-12 24l-21 54l-8 26l-6 29l-4 27
l-6 28l-4 29l-2 31v30l-5 31v47l5 33l2 29v28l4 27l18 88l6 27l13 28l14 27l10 26l10 29l45 74l15 27l35 43l59 61l23 20l26 19l23 14l22 12l47 33l25 13l59 20l27 4l88 25l27 6l55 2l59 8l33 2l29 -2l51 -8l31 -2l30 -4l27 -6l25 -9l28 -8l131 -51l25 -14l43 -37l24 -17
l23 -22l14 -25l2 -18l-8 -21l-14 -20l-23 -16l-20 -5l-23 5l-26 14l-41 37l-23 14l-26 14l-25 15l-27 12l-28 6l-31 8l-57 21l-56 4l-30 -2l-50 4l-32 -2l-64 -8l-80 -19l-26 -8l-103 -45l-47 -31l-24 -20l-58 -64l-20 -24l-15 -25l-30 -41l-13 -26l-10 -29l-10 -25l-23 -47
l-6 -30l-4 -31l-4 -25l-2 -26l-4 -31l-2 -29l-4 -30v-29l8 -53l4 -31l6 -31l13 -55l10 -27l8 -28l10 -29l10 -23l48 -75l18 -23l21 -18l16 -21l22 -20l72 -54l25 -16l26 -12l60 -17l55 -20l29 -6l57 -8l59 -5h25l57 7l25 4l29 2l32 6l27 8l22 8l58 27l16 6l31 14l47 29
l23 16l22 19l23 14l20 4l21 -6l20 -14l16 -21l15 -22l-2 -29l-21 -26z" />
    <glyph glyph-name="d" unicode="d" horiz-adv-x="1531" 
d="M453 135l28 -2l25 2h29l30 -4l29 2h27l30 -4h56l84 8l28 2l33 6l49 13l25 10l24 14l58 27l69 45l21 20l55 64l31 47l12 23l14 22l27 51l10 29l8 29l9 26l8 53l8 60v31l-2 22l-4 25l-8 61l-2 31l-13 55l-10 29l-14 24l-8 29l-9 27l-14 26l-16 25l-17 22l-43 43l-18 21
l-23 16l-24 19l-19 18l-18 15l-29 16l-31 10l-28 12l-82 27l-29 8l-26 2l-31 4l-33 2l-24 2h-25l-57 -4l-29 2h-27l-28 2l-60 -2l-28 2h-29l-29 -2l-26 -10l-19 -24l-8 -27v-23l2 -26v-33l-4 -29l2 -26l2 -29l-2 -31l-2 -28l2 -29l2 -33v-18l-2 -33v-29l-2 -26l4 -56v-30
l-2 -31l-2 -25v-28l2 -31v-29l2 -24l2 -29v-59l-4 -27l-2 -33v-53l2 -29v-59l-2 -29v-82l4 -26l12 -17l19 -10l26 -4l25 2h29zM819 1425l29 -6l31 -4l28 -2l27 -8l27 -12l28 -11l27 -6l26 -12l29 -12l25 -13l49 -32l45 -39l22 -21l23 -18l51 -66l17 -24l14 -23l24 -53
l17 -27l41 -110l12 -52l4 -26l2 -29l4 -33v-88l2 -28l-4 -29l-6 -29l-2 -26l-12 -54l-4 -26l-6 -29l-9 -26l-26 -58l-43 -74l-13 -24l-53 -70l-14 -22l-68 -60l-18 -18l-23 -14l-28 -15l-45 -20l-27 -17l-31 -12l-28 -8l-56 -21l-61 -8l-27 -4l-26 -6h-29l-33 2l-31 -2
l-26 -2l-56 4h-34l-54 -2h-32l-15 2h-28l-27 -4h-92l-27 2l-51 -4l-27 6l-18 12l-10 17l-4 26v27l-4 31v30l-2 27v27l4 28l2 33v31l-2 24v27l2 31l-2 28l-2 33v53l2 29l4 29v26l2 29v29l-4 59v29l2 31l-2 28l-2 33v141l-2 29v27l4 28v27l-2 29v28l2 29v80l-2 33v32l2 27v57
l6 25l8 18l14 11l25 6l29 -2l28 2h86l27 -2h57l25 -2l88 -2l80 6h57l59 -9z" />
    <glyph glyph-name="e" unicode="e" horiz-adv-x="1341" 
d="M1112 0l-27 -2l-32 2h-29l-29 -4h-26l-29 -2l-59 2h-19l-88 2l-35 2h-55l-27 2l-61 -2l-31 -2h-28l-29 2h-29l-28 -4l-25 -2l-55 4h-35l-17 -2l-63 2l-27 2l-18 10l-8 17l-4 57v90l2 31v26l-2 27l-2 31l4 28v54l-4 28l-2 29l4 27l2 26l-4 31l-2 33l2 33l4 28l-2 27l-4 26
v27l4 27v28l2 31v31l-2 28v29l2 31l-2 29v55l-2 31l4 53v28l-2 29l-4 29v88l-2 31v26l2 25l2 33v30l6 29l20 20l29 7h90l57 -4h29l31 4l30 2h60l55 -4h31l18 2l33 2h33l29 -2l28 2l58 -4h88l24 2h172l29 -2l27 -9l16 -8l10 -14l8 -47l-2 -25l-10 -16l-16 -13l-29 -6l-29 4
l-30 -2h-35l-19 2h-32l-31 -4h-33l-51 2h-88l-31 2l-84 2l-31 3l-28 -3l-29 -4l-29 2l-24 2l-29 -2h-35l-63 5h-17l-28 -7l-19 -10l-10 -18l-6 -31l-2 -18v-35l4 -62v-170l2 -24v-62l2 -28l4 -29l19 -23l30 -6l60 4l26 -2h25l31 4h59l53 -2h29l57 -4l60 4l84 4h53l90 -6
l31 2h28l31 -2l27 -6l18 -20l10 -25v-29l-12 -28l-20 -19l-27 -4l-29 2h-30l-56 -4l-28 4h-31l-61 -2l-17 -2h-61l-31 4h-29l-59 -6h-51l-31 4l-31 2h-28l-25 -4l-29 2h-82l-26 -4l-19 -10l-12 -19l-6 -22v-86l-2 -29v-28l4 -31l2 -31v-29l-4 -59l2 -31l2 -24v-25l-2 -33
l4 -28l10 -17l19 -8l24 -4h27l57 4h29l84 -2l63 -4l56 4h57l25 2h26l29 -4h145l29 2l25 2l59 -4h61l23 -4l18 -10l11 -17l6 -26l2 -27l-10 -24l-25 -19l-29 -8l-28 2h-27z" />
    <glyph glyph-name="f" unicode="f" horiz-adv-x="1284" 
d="M201 143v29l-2 29l-4 24v29l6 29l2 34v52l-2 32l-2 29v31l2 28v31l-2 29v76l-2 30v33l2 31l-2 26l-2 29l4 29v28l2 29v60l-4 55v26l-2 33l4 60v47l-4 61l2 31l-2 31l2 28l4 31l-2 29l-4 28l6 27l22 20l68 5h16l31 2l33 -4l30 -3l29 3l27 4l30 2l29 -4h53l27 -2l66 4h63
l14 -2h64l31 2l26 2h29l29 -4l26 -2l60 4h30l33 -2h27l22 4l29 -4l16 -11l13 -16l6 -29l-2 -26l-9 -29l-18 -18l-29 -7l-35 -2l-18 -2l-35 2l-28 4l-29 2h-27l-26 -4l-31 -2l-92 6l-58 3l-55 -5h-86l-31 2l-30 -2h-142l-28 -6l-21 -18l-6 -33v-31l-4 -28v-31l4 -29v-110
l-2 -31l-4 -29v-28l2 -27l-2 -29v-57l6 -29l12 -16l17 -10l26 -4h31l29 2h57l27 2l59 -4h27l28 2h31l29 -2l31 2l28 4l25 -2h59l31 -2l29 -4h28l25 4l26 -4l29 -2l64 4l26 -2l21 -21l8 -27l2 -26l-10 -31l-23 -20l-29 -11h-28l-55 9h-29l-60 -9h-28l-113 9l-112 -9h-31
l-62 4l-32 -2l-17 -2h-33l-30 4h-31l-25 -2l-24 -8l-19 -10l-12 -14l-6 -23v-61l-2 -17l4 -63l-2 -31v-27l-2 -26v-53l2 -27l-2 -31v-26l2 -29v-31l2 -26v-60l-4 -22l-6 -17l-19 -12l-32 -6h-27l-23 6l-20 10l-10 17l-2 28v60z" />
    <glyph glyph-name="g" unicode="g" horiz-adv-x="1529" 
d="M1202 1223l-28 12l-25 14l-23 15l-22 10l-27 10l-26 6l-29 8l-27 11l-55 8l-31 2l-82 2l-30 -2l-62 -2l-28 -6l-27 -11l-53 -16l-47 -22l-27 -11l-29 -14l-28 -16l-37 -29l-23 -23l-39 -47l-35 -37l-16 -24l-14 -25l-13 -26l-14 -25l-18 -53l-6 -27l-9 -28l-6 -29l-2 -25
l-4 -26l-4 -29l-2 -29l-2 -24v-62l6 -28l2 -27l4 -31l8 -28l13 -54l12 -28l14 -29l15 -25l10 -24l12 -21l43 -51l19 -18l18 -23l18 -16l97 -60l51 -28l29 -10l86 -23l32 -4h17l33 -4h63l25 2h57l31 4l51 12l51 17l29 8l51 31l25 12l22 14l41 39l14 16l9 21l4 31l2 26l-4 58
v28l4 29v29l-2 28l-2 23l2 29l-11 28l-24 21l-29 8h-55l-55 4l-62 -6l-27 2l-59 2l-61 4l-29 -2l-23 6l-16 10l-12 13l-8 20l-2 25l8 24l10 19l16 12l27 4l31 -4l55 2l31 -2h30l52 2l30 2h60l59 -4h29l26 4h29l31 -4l31 -2l24 -2l16 -8l9 -19l4 -28l2 -31v-29l-4 -28v-29
l6 -29v-90l-2 -27v-86l-2 -28l2 -29v-31l-4 -30l-8 -23l-29 -43l-23 -20l-96 -70l-51 -31l-25 -12l-84 -33l-26 -8l-31 -8l-31 -6l-28 -4l-60 -4h-141l-29 2l-30 4l-29 8l-53 10l-80 27l-56 22l-102 60l-23 16l-38 43l-23 18l-35 35l-37 51l-14 27l-10 23l-12 24l-17 27
l-12 24l-25 80l-12 54l-4 28l-6 29l-4 26l-2 29v60l2 30v31l2 27v30l2 29l6 25l10 26l4 29l6 29l31 86l12 26l47 74l17 25l18 22l17 25l18 18l21 18l16 25l22 18l25 17l27 16l24 17l25 12l24 14l25 17l27 10l24 6l53 21l31 6l27 4l31 2l26 2l27 4l35 6l28 4h29l29 -2h26
l31 -2l31 -6l28 -4l60 -14l82 -29l24 -12l25 -15l82 -39l24 -14l23 -18l20 -19l19 -22l6 -19l-6 -20l-15 -25l-24 -18l-21 -6l-22 6l-27 12l-20 16z" />
    <glyph glyph-name="h" unicode="h" horiz-adv-x="1552" 
d="M1210 113v26l2 31v61l-4 58l4 59l-2 27v78l-4 67l2 29l4 26l-6 27l-12 19l-16 8l-25 2h-29l-63 4h-168l-59 4l-58 -4h-31l-30 -2h-113l-31 -4h-30l-52 2l-61 4h-31l-26 -8l-19 -13l-10 -14v-25l2 -26l2 -29l-2 -31l-4 -28l-2 -27l2 -31l-2 -30v-29l2 -29l4 -28l-2 -27
l-2 -31v-28l2 -31v-111l-10 -30l-21 -23l-28 -10l-29 2l-27 8l-16 10l-10 17l-6 26v27l2 29l4 26l-2 27l-4 29v32l4 31l2 27l-2 24v64l-4 26v27l2 31v112l-2 29l4 64l-2 26v55l2 31v29l-2 26v29l2 31v53l-2 31v29l2 28v58l2 26l-2 31v29l2 24l2 29l-2 31l-4 26v29l2 33
l-2 30l6 25l12 18l18 11l27 6l27 -4l22 -9l17 -10l10 -14l4 -25v-86l2 -30l-4 -60l4 -31l2 -18v-35l-4 -29l-2 -30l4 -29l2 -27v-26l-2 -33v-86l-4 -31l4 -28l10 -17l19 -8l26 -4h181l51 2l30 2h86l33 -2h84l60 -4h32l19 2h67l52 2h61l29 8l20 19l8 28l2 29l-2 29l-2 26
l-2 31v33l2 28v58l2 31v53l4 59l-4 27l-2 26l2 31l-2 33l2 29v30l7 27l10 16l14 11l25 4h28l25 -4l18 -11l11 -16l4 -25v-28l-2 -31l4 -59l-2 -31v-57l-2 -31v-111l2 -33l2 -28v-58l-2 -24v-27l2 -31l-2 -30v-27l2 -31v-139l2 -31l-2 -26l-2 -29l-2 -33l2 -26l-2 -27l2 -31
l4 -30l-4 -52l4 -59l-2 -29l2 -30v-62l-2 -26v-25l-2 -29l-4 -32l-21 -21l-31 -4h-32l-31 6l-19 19l-2 26l2 29z" />
    <glyph glyph-name="i" unicode="i" horiz-adv-x="540" 
d="M197 115l4 30l-2 31l-2 27l4 53v31l-2 26v29l-2 31l-2 28l2 29v57l6 58l-6 53l2 31v112l-2 29l4 31v30l-4 31v27l2 29v30l-2 31l2 27v26l-2 27v63l2 19l2 30l-4 58l2 31v114l4 27l8 18l16 11l27 4h29l28 -4l19 -11l8 -20l4 -27l2 -26l-4 -52v-88l-2 -26v-62l2 -26l4 -29
l-2 -31l-4 -28v-31l4 -29l-2 -29v-26l4 -60l-2 -26l-4 -29v-31l2 -30v-86l-2 -33v-14l2 -33l4 -33l2 -31l-2 -30l-4 -52v-55l-2 -31v-32l4 -31l2 -29v-51l-4 -27v-32l4 -58l-8 -30l-23 -23l-30 -6h-29l-25 4l-14 10l-12 17l-4 28l-2 31v29z" />
    <glyph glyph-name="j" unicode="j" horiz-adv-x="1400" 
d="M1214 1268l5 -58v-26l-2 -62l-3 -26l3 -29v-84l2 -29v-51l-2 -33v-28l4 -60l-4 -57v-55l2 -25v-61l2 -25v-27l-2 -34l-2 -27l-7 -27l-6 -30l-4 -25l-8 -18l-14 -41l-13 -27l-10 -27l-8 -24l-14 -25l-19 -26l-100 -101l-23 -18l-26 -14l-27 -13l-25 -14l-53 -21l-53 -16
l-82 -20l-31 -2h-57l-62 4h-28l-31 4l-27 6l-26 4l-27 6l-28 8l-52 25l-75 41l-23 18l-22 23l-25 20l-35 35l-20 23l-15 22l-28 55l-15 27l-8 23l-6 26l-25 86l-2 31v29l6 24l21 23l22 8h25l33 -8l26 -21l11 -30l2 -31l16 -55l6 -29l37 -76l14 -24l43 -43l19 -21l70 -45
l26 -12l29 -15l26 -10l54 -12l30 -4l31 2l60 -4l28 2l56 12l59 16l49 19l23 14l45 33l37 33l18 18l39 51l12 27l8 22l6 27l9 29l6 26l4 25l4 31l2 30v31l2 29l2 26v31l6 86v25l-2 24v31l-4 57l-2 25v27l2 32v31l-2 31v28l2 25l-4 59l2 29l4 29v31l-2 24l-4 25l-10 16l-19 8
l-26 6l-53 4h-29l-29 3h-31l-32 -3l-27 -2h-29l-34 2h-58l-26 -2l-56 2l-26 3l-17 8l-10 16l-8 25v26l2 29l12 16l19 7l26 4h144l30 2h33l51 -2h31l27 2l57 -4h29l30 4h31l31 -4l59 4l27 -6l18 -11l8 -18l3 -29l-3 -26v-78z" />
    <glyph glyph-name="k" unicode="k" horiz-adv-x="1241" 
d="M1094 1341l-17 -22l-20 -21l-27 -22l-14 -10l-25 -23l-37 -43l-24 -18l-21 -21l-18 -20l-84 -74l-105 -102l-18 -21l-41 -39l-18 -22l-82 -82l-23 -17l-16 -22v-29l14 -24l41 -45l19 -19l20 -16l86 -80l57 -68l43 -37l25 -18l18 -20l43 -35l41 -43l101 -101l22 -18
l43 -43l15 -12l47 -48l20 -14l19 -18l18 -23l23 -20l8 -23l-19 -10l-30 -2h-29l-31 -2l-28 4l-29 10l-25 15l-82 77l-36 39l-23 19l-37 39l-43 36l-43 43l-18 21l-66 61l-18 21l-19 18l-22 17l-66 63l-35 41l-18 19l-43 34l-41 43l-20 19l-41 33l-15 -7l-8 -24v-31l2 -31
l-2 -28l-4 -25l2 -28l4 -29l2 -29v-31l-2 -30l-6 -29v-29l2 -26l2 -29v-84l-2 -31v-28l-2 -31v-27l-4 -24l-8 -19l-17 -12l-24 -4l-29 4l-29 6l-20 21l-10 24l-2 27l-2 31l2 30l4 31v115l2 28v29l-2 27v28l-2 29v27l-2 26v31l2 31v141l-2 29l4 59l-2 31v84l-2 31v28l4 29
l2 24l-4 27l-2 33l2 31v57l-2 25l2 26v57l-2 33l2 31l4 53l4 27l8 16l14 13l27 4l27 -4l30 -7l23 -20l6 -29l-2 -26v-25l2 -29l4 -34l2 -27v-23l-2 -30v-27l2 -29l-2 -26v-31l-2 -29l-2 -26l4 -56l-2 -28l2 -27v-31l-2 -26l6 -21l14 -8l21 10l63 62l19 22l43 41l20 21l23 18
l59 60l23 18l63 61l62 62l22 18l39 43l148 144l24 16l19 14l22 7l29 2h29l55 -4l20 -7l-8 -18l-22 -23l-23 -20z" />
    <glyph glyph-name="l" unicode="l" horiz-adv-x="1173" 
d="M344 1317v-31l-2 -31l-2 -26l4 -25l2 -28l-4 -64v-80l2 -28v-33l-4 -29l2 -27l-4 -59v-31l2 -28v-84l2 -29v-31l-2 -26l-2 -31v-57l4 -60v-53l-2 -31v-33l2 -26v-25l2 -30v-33l-4 -60l4 -24l12 -14l19 -13l22 -6h27l29 2l30 4l31 2l29 -2h26l27 -2l27 -4h30l29 6h29
l30 -2h62l20 -2h88l60 -2h28l25 4h55l27 -4l18 -10l13 -17l4 -24v-25l-6 -28l-21 -23l-31 -6l-30 2h-29l-55 2l-29 -2h-61l-29 -2h-113l-53 -2h-27l-32 4h-31l-27 -4h-28l-33 2h-141l-56 4l-26 -4h-29l-29 8l-20 21l-6 28v31l-2 27l2 28v80l-2 37l-2 27l2 24v60l2 30l-2 29
l4 55v31l2 33v28l-4 58v55l-2 27l4 57l-2 31l-2 28l2 27l-2 29v57l-4 55l2 29l4 29v114l-2 29v31l2 29v26l-4 62l2 28l4 25l10 18l18 11l31 2h29l26 -7l21 -18l4 -29v-30z" />
    <glyph glyph-name="m" unicode="m" horiz-adv-x="1796" 
d="M1389 1124l-19 -22l-67 -94l-29 -50l-51 -69l-29 -51l-16 -23l-37 -45l-17 -25l-14 -24l-12 -23l-64 -100l-35 -47l-28 -45l-17 -23l-24 -22l-31 -12l-31 10l-20 24l-14 25l-19 20l-18 23l-15 29l-16 24l-18 23l-13 20l-12 25l-31 47l-14 24l-37 45l-78 113l-12 23
l-19 24l-32 49l-17 21l-82 121l-16 20l-14 21l-15 16l-10 -4l-4 -23l4 -55l-4 -53v-29l2 -31l-2 -28v-27l2 -28v-31l-2 -29v-29l-2 -28l2 -27v-29l-2 -30v-58l-2 -28v-29l4 -61v-19l-2 -33v-28l4 -29v-29l-4 -59l-2 -27l2 -26l4 -62l-2 -26v-60l4 -55l-4 -31l-10 -28
l-23 -21l-26 -8l-27 -2l-29 8l-22 21l-8 28l2 29l2 33v57l-4 29v26l2 31v57l2 29l-2 29l-4 26v27l4 61v31l-2 27v143l4 27v28l-4 31v31l-2 26v27l2 33v29l2 24l2 29l-4 31l-2 28v29l2 26l4 27l-2 29v57l-2 29l4 61l-4 58v26l6 25l10 18l16 13l27 4l29 -2l28 2l29 -4l23 -11
l57 -57l31 -51l32 -45l142 -217l16 -27l35 -47l14 -25l17 -24l14 -25l35 -43l12 -24l33 -50l28 -47l17 -20l20 -27l21 -22l22 2l68 90l29 47l14 27l18 26l17 21l14 22l12 29l15 24l37 43l57 103l37 45l26 49l31 45l17 21l14 22l24 33l17 20l14 25l12 27l19 22l20 14l25 5
l31 2h57l29 -7l18 -8l12 -16l7 -25l-5 -33v-28l-2 -25l2 -28l2 -33v-105l-4 -32l-2 -29l4 -62v-26l-4 -55v-60l2 -31l4 -30l3 -29l-7 -113l4 -55l-8 -63v-47l2 -33l4 -29l2 -29l-2 -28l-4 -29l-2 -33v-26l2 -25l6 -29v-28l-2 -29l-4 -29v-30l4 -58l-8 -30l-20 -23l-29 -8
l-29 4l-30 6l-23 21l-8 28l4 29l2 25l2 28v62l-4 30l-2 27l2 25l4 28l-2 33l-4 29l-2 24l2 31v59l-2 27l2 31l4 28v54l-4 55l-2 31l6 84v26l-2 27l2 29v30l-4 60l4 57v31l-4 55v25l2 26l-2 27l-12 4l-17 -18z" />
    <glyph glyph-name="n" unicode="n" horiz-adv-x="1550" 
d="M1214 412l-4 55v53l-4 29v29l4 51v114l-2 27l-2 33l2 28v89l2 24v27l-2 30v29l2 29v59l-6 58l4 59l4 53l-4 29l-4 61l8 29l23 18l33 5h30l27 -7l18 -20l9 -29l2 -28v-29l-6 -29v-26l4 -31v-201l2 -24l2 -27v-31l-4 -61l2 -27v-29l-4 -61l2 -29l-2 -26l-4 -25l2 -28l2 -33
l-2 -29l2 -25v-26l-2 -31v-112l4 -60v-92l-2 -29l-2 -26l2 -27l2 -31l-2 -30v-29l2 -29l-9 -26l-20 -19h-31l-22 6l-37 29l-19 25l-16 24l-78 84l-30 43l-39 47l-19 21l-16 22l-21 21l-16 20l-16 23l-21 26l-37 39l-35 45l-14 25l-41 45l-16 22l-49 68l-19 23l-20 20l-35 43
l-39 43l-16 25l-19 22l-47 66l-41 43l-16 22l-54 72l-16 20l-37 39l-18 25l-19 16l-12 -4l-2 -22v-29l-2 -27l2 -26l2 -29l-2 -31v-32l-2 -27v-25l2 -26l2 -29l-2 -31l2 -28v-29l2 -31v-26l-4 -56v-34l4 -31l2 -27v-28l-4 -56v-61l-2 -29l4 -61v-113l-2 -31v-86l-8 -30
l-23 -19l-28 -6l-29 -4l-29 8l-20 21l-4 26v29l-4 61v29l2 31l-4 53l2 29l4 30l2 29l-4 29l-2 30v29l2 31l2 26v25l-2 29v28l2 29l-2 27v59l-2 31l2 31l2 26l-2 25l-2 30l-2 35l-2 27l2 22l4 58l-2 33v30l2 27l4 26l-4 54l-4 30v64l4 57l-2 29v27l4 53l10 16l18 8l25 7
l27 -11l24 -16l23 -19l18 -22l29 -45l37 -41l32 -45l23 -21l37 -45l14 -22l17 -23l18 -22l16 -23l21 -22l18 -23l19 -20l16 -25l23 -22l65 -91l57 -65l54 -70l69 -92l21 -18l51 -72l72 -88l18 -20l35 -46l20 -20l31 -47l21 -23l18 -12l12 2l7 23v59z" />
    <glyph glyph-name="o" unicode="o" horiz-adv-x="1665" 
d="M260 600l4 -29l6 -28l9 -29l20 -53l10 -29l10 -26l15 -25l12 -23l14 -22l17 -23l41 -45l24 -22l13 -15l24 -20l49 -29l52 -24l26 -11l27 -8l29 -6l26 -8l27 -4l30 -4l29 -6h27l28 2h62l31 2l57 8l51 16l31 8l51 21l25 12l69 51l23 19l41 41l30 47l17 20l51 105l10 24
l8 29l17 53l2 29l6 31l4 26v33l2 27l-2 24l-4 31l-4 25l-4 59l-8 31l-11 26l-4 29l-8 25l-12 28l-10 27l-13 24l-18 21l-19 25l-30 47l-19 22l-24 23l-41 32l-99 60l-26 8l-53 21l-31 8l-31 4l-24 4h-117l-29 -2l-61 -2l-31 -6l-29 -11l-55 -16l-25 -8l-22 -12l-29 -13
l-26 -14l-23 -14l-45 -41l-18 -23l-19 -18l-55 -70l-14 -20l-13 -25l-20 -57l-17 -58l-12 -51l-6 -29l-4 -30v-64l-2 -22l-2 -25l4 -33l6 -28zM946 1448h29l29 -6l28 -8l29 -11l33 -8l73 -31l50 -24l98 -68l57 -53l19 -25l16 -24l18 -23l15 -22l14 -25l10 -26l25 -52l8 -26
l12 -29l13 -24l16 -56l6 -24l4 -29l2 -33l4 -26l2 -27l3 -31v-49l-3 -31l-4 -28l-2 -33l-2 -27l-4 -22l-4 -29l-8 -31l-12 -30l-11 -25l-20 -53l-8 -25l-27 -47l-18 -26l-15 -25l-16 -20l-14 -23l-19 -25l-65 -57l-23 -16l-22 -21l-121 -59l-84 -31l-27 -6l-26 -8l-27 -6
l-29 -4l-55 -3h-96l-17 -2h-30l-60 9l-86 16l-78 31l-28 12l-47 25l-27 12l-25 14l-22 17l-23 20l-20 21l-21 18l-20 20l-19 23l-61 92l-51 107l-10 24l-9 27l-12 53l-6 31l-8 28l-6 25l-5 27l-4 63v27l2 24l5 29l4 27l4 55l6 29l27 108l20 58l12 26l29 53l35 50l14 22
l16 19l21 18l18 22l23 23l22 18l21 15l39 37l26 16l56 23l24 6l78 35l25 6l28 4l29 6h59l60 4l51 4h33l29 -4z" />
    <glyph glyph-name="p" unicode="p" horiz-adv-x="1390" 
d="M457 608l61 4l31 -2l31 2l55 2h57l29 2l92 -6h25l59 4l27 7l28 12l31 12l27 12l22 15l23 18l39 39l20 25l16 24l13 23l12 24l8 29l4 29l4 26l3 29l-3 31v30l-4 29l-10 27l-16 53l-11 27l-12 24l-18 21l-21 22l-20 25l-23 18l-26 15l-86 30l-27 4h-57l-29 4h-29l-26 -4
h-29l-29 4l-63 -4l-31 4h-29l-30 -2h-51l-33 -2l-60 4l-30 -8l-23 -22l-6 -27l-4 -55l2 -29l4 -31v-61l2 -29l-2 -30l-4 -17l-2 -31l2 -28v-33l-2 -31l2 -26l2 -29v-31l-4 -53v-29l2 -28l8 -27l23 -22l28 -11l29 -2h29zM338 365l2 -31l-2 -27v-53l2 -31l-2 -28v-80l4 -29
l2 -31l-4 -24l-12 -15l-17 -10l-26 -8h-29l-27 6l-16 12l-10 17l-2 24l2 25l-2 29l-4 30v31l2 29v55l2 31l-2 32l-2 19v31l2 30v84l2 31v27l-4 28l-2 29l2 31l4 30v29l-4 57v31l-2 33v16l2 33v62l4 30v27l-4 27l-2 26v31l2 29l2 26v86l2 31l-2 29v28l-2 29v27l4 28l8 29
l20 20l29 7h113l28 4l31 2h29l28 -4l31 -2l31 2l26 -2h31l27 4h57l31 -2h147l31 -2l29 -5l26 -4l29 -6l25 -10l26 -8l29 -13l51 -30l43 -33l41 -39l53 -76l13 -22l10 -27l14 -22l8 -27l7 -31l4 -26l2 -25l6 -29l2 -28v-29l-2 -29v-28l-4 -27l-8 -27l-11 -28l-8 -33l-10 -27
l-12 -24l-15 -25l-18 -26l-51 -60l-43 -37l-21 -16l-78 -41l-51 -20l-29 -7h-32l-29 -2l-27 -4h-26l-31 2l-31 -4l-28 -2h-174l-29 -2l-66 4l-28 -2l-27 2h-31l-30 -10l-23 -18l-8 -29l2 -27v-28z" />
    <glyph glyph-name="q" unicode="q" horiz-adv-x="1669" 
d="M723 1311l-29 -8l-28 -7l-31 -6l-27 -8l-55 -27l-18 -6l-31 -18l-45 -35l-21 -18l-18 -19l-21 -16l-18 -21l-16 -26l-13 -25l-14 -22l-19 -25l-14 -25l-10 -24l-10 -27l-4 -26l-9 -29l-10 -29l-4 -26l-4 -56l-2 -32v-27l2 -25v-32l2 -31v-27l6 -28l8 -29l6 -25l7 -26
l20 -54l12 -26l29 -53l31 -41l20 -23l86 -78l99 -61l28 -12l27 -9l53 -12l27 -2l28 -4l31 -6l90 -4l29 2l57 10l47 12l62 21l26 10l23 8l25 12l24 17l27 16l24 17l23 22l22 25l35 35l19 24l39 72l26 53l17 57l10 25l6 25v28l4 58v26l2 29l4 29v30l-4 31l-8 29l-6 26l-8 56
l-9 30l-47 103l-28 47l-35 45l-21 22l-61 54l-25 16l-24 12l-25 15l-27 12l-55 16l-26 4l-31 4l-27 7l-26 8l-29 4h-33l-26 -2l-25 2l-31 2l-28 -4zM948 1450l29 -4l59 -19l49 -10l27 -10l29 -12l51 -17l53 -26l23 -15l22 -16l21 -18l20 -23l43 -39l33 -45l37 -45l29 -49
l30 -78l25 -82l18 -84l4 -27l6 -28l5 -29l2 -29v-24l-2 -27l-5 -32l-4 -56l-4 -26l-10 -29l-8 -33l-6 -31l-6 -24l-23 -53l-8 -27l-41 -76l-14 -24l-11 -23l-2 -20l4 -21l58 -59l37 -41l18 -17l12 -22l2 -31l-10 -26l-18 -19l-23 -14l-20 -8l-21 4l-80 71l-18 23l-19 20
l-28 13h-29l-131 -68l-76 -29l-28 -8l-50 -12l-30 -6l-27 -2l-29 -6l-28 -5h-31l-25 -2l-26 2l-31 5l-53 4l-29 4l-33 8l-26 8l-56 12l-106 41l-72 43l-47 35l-41 41l-18 25l-21 20l-18 21l-45 69l-53 103l-11 30l-12 52l-8 26l-4 31l-2 31l-11 57l-2 27v53l2 31l3 28v31
l2 31l6 28l8 29l12 51l13 31l8 29l10 26l12 23l10 24l13 27l16 25l84 114l66 62l22 14l25 14l24 17l107 49l26 10l29 8l84 19l62 8l61 2h82l29 -4h28z" />
    <glyph glyph-name="r" unicode="r" horiz-adv-x="1449" 
d="M342 1182v-31l-2 -29v-28l2 -27v-141l2 -33v-90l-2 -29l-2 -26v-25l4 -27l10 -18l17 -12l28 -7l86 3h86l29 2l31 -2h31l26 2l31 2h26l62 -2l82 4l29 4l32 2l31 8l27 10l22 15l66 57l18 22l14 25l17 25l12 28l8 31l6 27l3 28l-3 25l-2 29l-2 34l-4 29l-8 25l-20 53l-35 45
l-39 41l-51 33l-82 24l-27 4l-33 4l-26 4h-25l-35 -2h-65l-51 -2h-33l-29 2h-26l-29 -4l-66 2h-30l-27 -2l-27 2l-28 -8l-23 -22l-4 -27v-27zM1245 -2l-28 6l-25 6l-23 8l-24 21l-55 67l-37 41l-19 25l-18 21l-21 16l-20 18l-37 47l-76 82l-18 25l-39 39l-53 65l-19 19
l-26 12l-29 8l-29 2l-31 -2h-51l-28 4l-25 2h-57l-29 -2h-31l-28 -6l-19 -22l-6 -33v-88l-4 -27l-2 -30l2 -31v-29l-2 -29l4 -61v-29l-2 -28v-27l-2 -27l-6 -28l-21 -25l-30 -6l-29 2l-27 6l-18 19l-4 30v19l-4 63v27l4 57v31l-2 31l-2 28l2 29v29l-4 26v27l2 29l-2 28v31
l2 31l2 28l-4 60l2 29v26l-2 27l4 57v31l-2 28v168l-2 33v31l2 29l-2 28v54l2 30l-2 27l2 26v31l-2 29l4 29v28l4 25l6 18l14 13l27 6h31l123 -4l28 2h29l29 -2h30l29 2l55 2l29 -2l31 -4l28 2h31l29 2h28l54 -2l63 -5l31 3l28 -5l27 -8l25 -6l28 -8l29 -10l25 -13l92 -71
l41 -39l16 -25l12 -22l35 -80l19 -78l6 -31l4 -26l2 -29v-29l-6 -28l-4 -31l-11 -51l-8 -29l-24 -51l-49 -74l-19 -24l-16 -17l-76 -53l-25 -14l-28 -9l-31 -6l-27 -6l-26 -8l-27 -4l-22 -6l-11 -21l13 -22l22 -23l19 -22l18 -25l20 -20l21 -19l20 -22l35 -46l43 -40l54 -64
l22 -20l82 -89l35 -45l18 -18l15 -18l-5 -17l-20 -6l-29 -4h-47z" />
    <glyph glyph-name="s" unicode="s" horiz-adv-x="1351" 
d="M1012 1221l-23 18l-24 16l-54 25l-28 10l-31 6l-29 9l-26 6l-29 4l-33 4h-20l-33 2h-29l-28 -4l-31 -2l-33 -4l-18 -4l-33 -4l-27 -7l-49 -18l-26 -12l-25 -15l-23 -18l-20 -23l-21 -20l-14 -23l-12 -24l-8 -25l-4 -57v-31l2 -31l10 -26l16 -25l21 -20l22 -19l23 -16
l24 -12l25 -11l59 -20l29 -6l59 -17l31 -6l25 -4l26 -6l29 -8l90 -12l29 -7l28 -4l60 -12l26 -8l82 -33l29 -10l45 -21l25 -14l51 -41l39 -41l14 -16l17 -25l12 -27l8 -28l8 -55l6 -31l4 -31l2 -31l-2 -26l-6 -25l-20 -57l-8 -25l-13 -26l-14 -25l-80 -84l-22 -14l-50 -27
l-26 -10l-25 -8l-26 -11l-29 -6l-29 -8l-59 -14l-25 -4l-55 -4l-29 -5h-28l-31 3l-55 -3l-56 7l-28 2l-29 4l-31 6l-26 8l-29 6l-29 10l-100 48l-27 14l-22 20l-47 31l-39 41l-21 25l-12 26l-14 21l-11 22l9 29l20 20l25 15l26 6l29 -6l23 -17l34 -45l21 -22l22 -19l25 -18
l20 -16l74 -37l25 -11l84 -18l84 -12h30l25 -4h27l34 2l52 8l28 2l31 4l27 8l53 23l26 10l27 8l23 15l43 38l18 25l12 25l13 22l10 27l4 28l-2 31l-4 31l-4 24l-8 25l-13 29l-14 22l-16 21l-21 20l-22 17l-82 34l-25 9l-29 6l-84 28l-24 7l-29 2l-29 6l-30 4l-31 2l-29 6
l-28 8l-60 12l-26 9l-29 6l-31 8l-28 8l-103 43l-26 15l-23 16l-41 37l-20 22l-19 27l-16 27l-19 47l-8 28l-4 66l2 29l4 26l4 29l6 33l35 75l64 70l41 33l22 14l86 33l47 16l31 13l29 8l30 6l62 8h24l29 -2h31l59 4l27 -4l24 -6l27 -6l29 -2l28 -6l27 -7l29 -4l30 -10
l46 -22l24 -15l25 -12l24 -14l23 -19l22 -16l58 -62l10 -22v-21l-6 -14l-19 -16l-24 -15l-29 -8l-31 8l-26 17z" />
    <glyph glyph-name="t" unicode="t" horiz-adv-x="1220" 
d="M393 1300h-49l-31 -2h-80l-63 -4h-29l-24 2l-29 2l-29 7l-18 18l-4 31v28l6 27l20 16l27 7h31l26 -2l27 2l31 2l31 -2l26 -2l27 2h63l54 4l57 -4h88l29 -2h28l60 4h233l55 -4l54 4l61 -2l33 2h29l24 -9l21 -18l10 -27v-28l-6 -25l-23 -20l-31 -9l-30 2h-29l-49 -4h-27
l-32 -2h-29l-31 -2l-27 2l-26 6h-29l-26 -2h-25l-29 -2l-28 -8l-21 -20l-10 -29l2 -29v-30l-2 -29l2 -31l-2 -57l2 -29l-2 -24v-60l4 -57l2 -31v-57l-2 -31l-4 -29l-2 -26l2 -31v-80l-2 -59v-57l6 -31l2 -29l-2 -26v-93l-4 -28l-2 -27l2 -25l2 -30v-31l-2 -29l-4 -28l4 -58
l-4 -30l-23 -21l-30 -4l-29 -2l-23 4l-14 12l-12 17l-6 22l-4 27v31l4 59v31l-4 55l4 57v31l2 27v59l-2 31v31l2 26l-4 53v91l2 26l-2 27l-2 31l2 32v60l-2 24l2 27v61l2 31v82l-4 55v64l4 26l2 29l-4 27l-9 16l-18 12l-27 6l-28 -2z" />
    <glyph glyph-name="u" unicode="u" horiz-adv-x="1503" 
d="M1321 1292l-2 -28v-33l2 -25v-28l-4 -29v-53l2 -29v-29l4 -28v-29l-2 -31v-26l2 -29l-4 -55v-29l2 -33l-4 -53l4 -31v-88l-2 -31l-2 -24v-57l-8 -54l-2 -28l-13 -62l-10 -26l-8 -27l-39 -74l-16 -22l-21 -21l-53 -65l-21 -21l-24 -18l-45 -25l-25 -12l-84 -33l-28 -8
l-27 -6l-53 -4l-27 -4h-31l-61 -7l-27 3l-26 6l-29 2l-29 4l-24 8l-25 4l-26 8l-29 13l-49 26l-27 10l-29 17l-20 14l-43 37l-21 25l-34 49l-19 22l-14 23l-43 102l-10 29l-7 29v28l-2 31l-2 27l-4 30v29l2 31l-4 51l2 27l2 32l-2 29v27l-2 28v29l2 27l2 32l-2 29l-2 25v55
l-2 31l4 59v55l2 33l-2 29l-4 24v25l6 26l2 29l-2 31l-4 31l-2 28l6 25l11 18l16 11l27 6h30l31 -9l16 -22l9 -31l4 -31v-28l-4 -51v-31l2 -31v-28l-2 -23l4 -29v-30l-4 -33l-2 -29l2 -26v-52l4 -30l2 -31l-6 -86v-27l-2 -26v-27l4 -29l-2 -32l-2 -29l4 -31v-53l-2 -25
l2 -32l6 -29l4 -27l6 -26l8 -29l10 -29l13 -26l14 -23l59 -72l21 -18l20 -14l19 -17l22 -16l56 -27l26 -10l29 -6l31 -4l28 -6l54 -4h28l33 4l27 6l26 2l31 6l27 8l20 13l25 14l28 14l27 17l23 20l18 18l18 27l13 16l18 29l25 51l10 25l8 29l6 28l8 60l3 28l2 23l2 26l-2 35
l-2 29l6 86v111l-4 59l2 31l2 28v25l-2 25l-2 30v29l-2 31v28l2 27l4 27l2 26l-2 31l-4 31l-2 26v49l2 35l8 33l20 20l29 5h31l30 -7l19 -20l4 -29v-30z" />
    <glyph glyph-name="v" unicode="v" horiz-adv-x="1478" 
d="M723 -6l-31 4l-20 10l-17 17l-16 22l-10 27l-15 28l-30 80l-35 80l-12 25l-15 26l-22 58l-8 16l-13 33l-10 29l-25 53l-10 26l-10 29l-35 74l-14 26l-13 27l-10 27l-8 28l-31 82l-22 53l-10 27l-84 182l-13 31l-10 29l-49 102l-39 107l-14 28l-6 27l14 20l24 7l29 2
l27 -2l22 -9l19 -10l16 -14l14 -25l11 -26l8 -27l10 -25l12 -26l11 -27l14 -24l14 -27l33 -82l27 -84l14 -22l12 -29l25 -51l12 -27l10 -27l9 -22l12 -25l12 -28l8 -29l35 -82l10 -29l13 -26l10 -25l8 -24l12 -31l11 -25l30 -84l27 -49l37 -84l35 -104l16 -21l19 4l14 21
l12 22l25 58l18 47l25 55l16 55l10 27l50 105l12 28l10 27l12 24l11 27l18 57l35 78l8 27l12 31l60 129l8 28l6 25l10 26l13 29l10 25l12 24l23 60l8 26l24 49l11 29l12 27l12 24l17 23l14 16l18 10l27 9l27 -2l24 2l25 -6l12 -23l-8 -29l-21 -51l-12 -27l-14 -24l-49 -139
l-33 -76l-10 -27l-15 -28l-24 -52l-15 -24l-10 -25l-10 -31l-23 -53l-10 -28l-10 -25l-12 -27l-15 -28l-16 -51l-10 -29l-29 -53l-10 -25l-9 -27l-24 -57l-6 -27l-10 -24l-15 -23l-10 -26l-8 -27l-10 -27l-27 -57l-14 -24l-15 -29l-18 -53l-21 -52l-12 -26l-10 -27l-15 -29
l-16 -16l-20 -8l-27 -4l-27 2h-16z" />
    <glyph glyph-name="w" unicode="w" horiz-adv-x="2211" 
d="M1501 10l-14 17l-21 47l-12 24l-10 31l-8 29l-37 106l-8 29l-9 24l-8 27l-12 27l-10 26l-11 25l-6 29l-8 28l-10 27l-12 26l-9 31l-18 49l-4 23l-8 31l-11 26l-8 31l-10 27l-12 26l-13 58l-8 26l-10 23l-18 53l-13 29l-10 28l-6 27l-8 29l-17 49l-10 24l-14 2l-19 -49
l-8 -28l-6 -25l-8 -29l-10 -30l-11 -29l-8 -25l-10 -24l-25 -84l-12 -49l-20 -60l-21 -57l-6 -23l-8 -22l-13 -31l-26 -78l-8 -30l-9 -29l-14 -27l-6 -24l-6 -27l-31 -84l-12 -24l-13 -31l-24 -78l-8 -23l-8 -26l-11 -27l-14 -24l-14 -17l-23 -10l-29 -4h-28l-33 6l-29 21
l-18 28l-8 29l-6 24l-23 56l-8 26l-21 54l-12 28l-8 27l-6 27l-23 55l-8 24l-8 27l-10 27l-13 26l-30 82l-17 55l-6 27l-8 25l-35 84l-18 57l-13 25l-6 26l-6 29l-8 27l-25 53l-37 112l-6 27l-18 49l-15 27l-10 26l-8 29l-10 31l-13 28l-8 29l-4 27l-10 26l-4 25l12 18l25 7
h53l25 -2l18 -11l14 -16l15 -27l12 -24l16 -52l11 -28l8 -29l6 -29l8 -26l10 -23l15 -24l8 -31l4 -29l27 -80l8 -26l24 -57l11 -29l8 -25l6 -26l10 -27l6 -27l9 -24l12 -27l8 -26l8 -29l6 -29l11 -26l8 -27l10 -27l8 -26l21 -56l12 -26l8 -25l8 -28l11 -27l6 -27l8 -24
l12 -27l17 -57l12 -23h12l19 47l10 29l12 27l25 84l20 53l8 26l19 52l10 30l8 29l8 25l11 24l8 31l18 51l11 25l16 53l10 29l23 55l4 29l8 28l12 25l11 26l6 27l8 29l10 28l16 52l13 22l8 27l20 57l5 29l8 26l12 25l18 57l11 21l14 16l20 13l27 2l21 -11l16 -16l14 -27
l21 -55l8 -25l6 -26l10 -27l9 -31l10 -28l24 -56l4 -24l11 -27l8 -16l12 -31l6 -28l21 -56l12 -28l8 -27l8 -31l9 -26l12 -54l29 -75l12 -27l10 -31l10 -26l15 -52l24 -55l19 -80l12 -28l27 -80l12 -29l8 -31l10 -26l9 -19h10l12 21l23 55l8 27l6 28l8 31l10 27l21 47l10 26
l10 29l9 31l18 53l8 27l10 24l23 80l22 57l13 27l6 23l6 26l8 29l10 31l33 77l13 54l8 26l14 29l18 57l11 21l24 88l17 47l8 27l10 26l14 25l15 18l18 13l27 6h29l26 -2l21 -11l10 -16l2 -25l-10 -30l-13 -31l-8 -29l-8 -24l-20 -51l-9 -27l-16 -60l-10 -26l-13 -25l-10 -26
l-12 -27l-33 -111l-10 -28l-12 -27l-9 -29l-22 -49l-8 -28l-31 -78l-6 -31l-10 -29l-11 -24l-8 -25l-8 -28l-23 -54l-22 -84l-12 -30l-9 -19l-12 -30l-16 -58l-10 -26l-13 -25l-22 -51l-8 -31l-11 -29l-16 -49l-14 -26l-17 -19l-20 -10l-27 -2l-59 4z" />
    <glyph glyph-name="x" unicode="x" horiz-adv-x="1273" 
d="M1204 1423l-2 -20l-14 -25l-51 -63l-31 -51l-21 -25l-63 -90l-33 -43l-12 -27l-70 -92l-12 -22l-18 -25l-19 -22l-63 -95l-35 -47l-12 -24v-23l4 -20l14 -31l27 -43l18 -25l18 -20l31 -47l74 -90l47 -72l14 -27l15 -22l39 -47l32 -52l19 -22l18 -25l17 -20l16 -27l8 -16
l19 -27l18 -20l37 -51l6 -19l-18 -6h-27l-61 -4l-25 6l-21 10l-40 35l-31 47l-19 23l-30 49l-39 45l-33 51l-14 25l-17 26l-12 23l-39 45l-33 49l-14 25l-33 49l-37 47l-14 24l-16 23l-23 16h-22l-17 -12l-29 -51l-20 -25l-18 -20l-17 -21l-12 -24l-12 -27l-50 -67l-47 -72
l-39 -45l-10 -23l-16 -22l-37 -43l-12 -25l-45 -69l-19 -25l-22 -20l-21 -15l-20 -8l-23 -2l-24 4l-31 -2h-29l-16 8l8 21l14 24l15 23l37 41l28 53l17 23l39 45l34 47l13 24l166 240l34 37l21 26l14 27l14 23l19 24l14 27l6 22l-4 21l-16 22l-16 25l-17 20l-35 54l-59 86
l-16 20l-15 25l-39 51l-28 45l-35 45l-78 121l-16 22l-19 23l-18 26l-8 15l-17 26l-20 23l-9 18l17 9l29 2l26 -2l27 2l31 -4l20 -9l18 -12l23 -23l31 -51l16 -24l35 -45l10 -27l21 -27l36 -38l46 -68l14 -25l16 -24l17 -29l32 -47l17 -20l59 -93l19 -16h24l19 16l53 70
l47 76l35 47l14 24l16 21l15 24l14 27l53 68l29 47l53 69l29 48l18 18l25 14l27 11l26 2h62z" />
    <glyph glyph-name="y" unicode="y" horiz-adv-x="1357" 
d="M705 764l53 74l14 24l12 25l13 22l18 19l19 24l30 49l15 21l30 53l33 47l12 25l45 74l31 45l14 24l17 23l16 24l13 25l16 24l20 23l19 12l20 6l31 5l31 -2l28 2h27l18 -9l-6 -18l-37 -51l-14 -23l-14 -20l-12 -25l-17 -24l-18 -23l-31 -47l-25 -45l-86 -119l-14 -24
l-12 -25l-13 -23l-86 -122l-28 -48l-17 -26l-59 -86l-45 -72l-12 -29l-6 -28l-3 -29l5 -57l2 -31l-2 -29v-28l-5 -31l-2 -27l5 -26l4 -29v-59l-2 -27v-57l-2 -27v-27l-3 -30l-8 -19l-16 -10l-29 -4l-33 2l-28 8l-17 21l-6 28l-4 29l-2 29v30l2 29v55l2 29l-2 31v30l4 56v31
l-2 28l-4 27v84l-4 24l-8 25l-45 80l-35 45l-31 53l-16 23l-29 51l-45 69l-37 50l-28 47l-19 24l-16 27l-17 22l-47 78l-12 23l-49 71l-29 52l-33 45l-30 51l-2 22l16 9l27 -2l28 2h27l27 -9l14 -6l24 -12l19 -23l16 -24l11 -27l34 -43l45 -75l64 -93l14 -24l15 -29l14 -24
l12 -23l94 -143l27 -50l49 -67l19 -19h22z" />
    <glyph glyph-name="z" unicode="z" horiz-adv-x="1220" 
d="M270 1430l27 2l29 4h63l82 -6h29l30 4l31 2l27 -4l28 -2h31l31 2h27l28 -2h29l24 2l60 2h86l63 -4l88 6l29 -9l18 -24l-2 -29l-12 -26l-12 -21l-17 -22l-30 -50l-19 -22l-63 -92l-39 -45l-16 -25l-17 -22l-29 -52l-20 -22l-49 -68l-53 -67l-47 -76l-35 -47l-68 -90
l-18 -21l-17 -22l-14 -29l-16 -25l-52 -65l-20 -23l-16 -24l-15 -27l-16 -24l-19 -25l-18 -20l-27 -41l-69 -97l-9 -24l9 -19l22 -4h58l30 2h115l59 2h31l47 -2h53l70 -2h25l22 2h125l27 -2h28l29 -2h57l25 -2l16 -8l13 -16l2 -23v-29l-4 -26l-9 -19l-18 -12l-29 -4l-26 4
l-29 2l-27 -2h-57l-33 -4h-26l-54 2l-67 -4h-27l-51 4h-59l-84 2l-29 -2h-31l-30 2l-31 -2h-60l-26 -2l-31 -2h-31l-26 2l-29 4l-53 -2l-31 4h-55l-17 10l-10 17l-2 24l6 23l8 20l48 64l14 26l18 27l19 25l14 22l16 21l19 20l14 25l17 26l34 41l80 117l17 27l18 22l14 23
l19 22l18 27l54 65l16 27l63 86l15 25l14 26l53 72l21 22l29 47l14 21l18 18l31 54l18 24l19 21l84 114l8 25l-12 14l-23 4l-24 2l-31 2l-29 -2l-57 5h-59l-27 -3l-29 3h-31l-30 -3h-56l-26 3h-27l-53 -5h-27l-30 5h-62l-51 -5h-29l-26 5l-19 8l-10 14l-6 27v28l6 27l21 18
l28 7l31 2z" />
    <glyph glyph-name="braceleft" unicode="{" horiz-adv-x="671" 
d="M465 -154l-31 2l-28 7l-52 16l-24 14l-23 21l-20 22l-15 23l-10 24l-8 29l-4 29l-6 30l-4 29l-7 29l5 61l-5 49l3 31v33l-3 35l3 32l2 29v33l-2 27l-3 22l3 29l-3 28l-6 33l-8 29l-12 24l-21 19l-92 47l-10 18l-2 27l6 27l18 22l54 23l22 16l19 27l14 24l10 25l4 24l4 56
v28l3 31l2 27v84l2 30v27l-2 29l-5 33l3 24l2 23l4 63l6 29l4 26l8 29l12 29l31 45l23 20l28 17l19 8l30 10l29 4l29 2l31 -2l30 -4l33 -10l20 -23l11 -22l-6 -23l-23 -18l-29 -4h-26l-29 -4l-29 -6l-24 -15l-19 -20l-14 -23l-10 -24l-4 -29v-59l-4 -52v-26l4 -29v-29
l-4 -51v-57l-2 -33v-25l4 -22v-35l-2 -29l-2 -26l-9 -27l-20 -51l-14 -25l-21 -18l-29 -14l-18 -17l2 -18l16 -17l25 -16l23 -20l18 -29l8 -16l12 -33l7 -29l4 -29l-4 -53l2 -31l4 -32v-29l-4 -53l-2 -31v-31l2 -26l2 -29l-4 -33v-30l4 -60l6 -29l4 -30l10 -27l19 -20
l26 -15l31 -8l31 -4l26 -2l27 -4l22 -19l9 -26l-7 -27l-22 -18l-31 -10l-28 -5z" />
    <glyph glyph-name="bar" unicode="|" horiz-adv-x="526" 
d="M227 -145l-16 10l-12 14l-9 27l3 28l4 27l2 27l-4 59l-2 62l-3 26l3 29l-3 35l3 28l2 27l-2 29l-3 26l3 29v31l2 30v56l-2 30v31l4 27v55l-4 29l-3 28v60l5 26v29l-2 29v30l4 54l2 30l-2 31l-4 29v59l2 33v51l2 31v29l-4 30l-3 29l3 27v57l2 31l-2 28v27l4 61l-2 27l6 27
l18 22l27 8h30l29 -8l23 -20l4 -27l-2 -29l2 -32v-146l-4 -24v-60l2 -30l2 -27v-29l4 -63v-49l-2 -33l-2 -29v-113l-2 -30v-115l2 -31l-2 -28v-29l4 -57v-31l2 -29l-8 -57v-31l2 -28v-29l2 -25v-28l-2 -33v-31l-4 -57l2 -27l4 -26l2 -29l-2 -29v-57l-2 -29v-26l2 -29l-8 -29
l-21 -24l-24 -9h-25z" />
    <glyph glyph-name="braceright" unicode="}" horiz-adv-x="673" 
d="M205 -31l26 6l23 11l20 22l15 27l6 28l4 29l-2 29l4 63v62l2 30v27l-4 53v31l2 35l2 27l-2 26l2 35l-2 29l4 26l6 27l8 29l13 26l14 21l66 57l-2 14l-41 27l-19 18l-16 23l-12 24l-11 31l-4 31l-4 55l-2 31l-4 53v60l2 28l-2 25v24l4 56v32l-2 25v27l-2 34l-12 56l-11 28
l-16 21l-22 16l-25 15l-33 4l-31 -2l-24 6l-19 8l-10 12l-4 19l6 24l13 21l14 12l24 6h31l55 -2l31 -4l31 -8l22 -8l25 -17l23 -22l18 -23l25 -45l10 -26l8 -29l6 -33l4 -61l-4 -27v-24l2 -31v-31l-2 -27l4 -57l-4 -53l2 -25v-90l4 -31l21 -51l12 -24l14 -21l23 -16l27 -8
l24 -13l16 -14l15 -18l6 -23l-8 -27l-23 -22l-57 -23l-23 -18l-28 -45l-13 -25l-8 -30l-6 -86v-62l2 -29l4 -28v-62l-2 -32v-25l2 -27l-2 -34l-4 -31v-29l-2 -29l-8 -57l-10 -29l-15 -26l-30 -43l-50 -33l-26 -10l-25 -8l-28 -7h-29l-27 3l-33 2l-28 6l-17 12l-8 16l-4 25
l6 27l21 18l33 4l30 2z" />
    <glyph glyph-name="asciitilde" unicode="~" horiz-adv-x="1290" 
d="M1096 600l-62 -70l-24 -16l-27 -10l-57 -15l-27 -2h-27l-55 9l-33 10l-137 63l-43 25l-31 14l-30 17l-58 28l-26 11l-27 4l-26 -2l-64 -13l-27 -16l-18 -19l-16 -22l-19 -21l-18 -12l-19 -4l-24 2l-21 14l-8 17l2 18l8 25l25 47l65 61l23 17l27 10l26 8l27 4h28l33 2h31
l27 -8l28 -12l27 -14l24 -15l76 -37l31 -12l27 -12l24 -12l25 -19l30 -14l29 -8l27 -9l28 -4l31 -2l29 4l24 13l21 18l20 23l17 24l14 23l16 12l19 4l26 -4l23 -14l12 -17v-18l-8 -29z" />
    <glyph glyph-name="exclamdown" unicode="&#xa1;" horiz-adv-x="481" 
d="M170 -313l-2 28l2 27v33l-2 30l4 56l-2 28v82l2 33v49l-2 33l-4 31l-2 28l4 29l2 33l-4 29l-2 28l4 60l2 26v27l-4 59l2 29v29l-2 26l4 55v29l-4 31l4 31l12 14l17 10l24 6l29 2l27 -6l18 -12l10 -21l2 -26v-29l4 -26l2 -31l2 -25l-2 -24l-4 -31l-2 -33l2 -35v-26l2 -25
l2 -29l-4 -57v-26l4 -60v-29l-4 -28v-33l2 -29v-26l-4 -27v-86l2 -27v-151l4 -29v-53l-2 -27l-8 -30l-20 -25l-29 -6h-31l-24 4l-17 10l-12 17l-4 28l2 31v27zM274 821l-24 -8l-29 2l-28 10l-25 15l-18 16l-9 27v32l2 31l11 27l16 20l20 11l27 8h31l31 -11l22 -16l16 -18
l13 -23l2 -29l-4 -32l-11 -29l-20 -20z" />
    <glyph glyph-name="cent" unicode="&#xa2;" horiz-adv-x="1097" 
d="M899 43l-22 -14l-23 -13l-90 -36l-27 -9l-24 -10l-19 -22l-6 -29l-2 -33l-10 -31l-19 -20l-24 -4l-29 2l-26 8l-19 21l-8 28l2 27l-4 26l-14 19l-17 14l-22 10l-86 27l-29 10l-27 13l-69 47l-25 20l-20 23l-21 18l-37 43l-41 76l-22 53l-10 27l-7 31l-4 59v25l-4 59l8 65
l2 29l7 25l12 26l8 29l10 27l15 24l12 27l31 51l22 25l21 18l18 18l25 21l24 16l27 13l76 43l57 20l29 6l22 10l17 11l10 16l4 23l-2 24l6 25l20 18l29 8l27 2l26 -8l21 -18l8 -29l-2 -26l4 -23l10 -14l19 -11l31 -14l51 -16l28 -11l70 -36l51 -33l19 -19l4 -18l-8 -21
l-15 -22l-22 -18l-21 -11l-20 4l-49 33l-23 12l-25 11l-24 12l-27 12l-30 6l-29 2l-53 9l-25 -2h-31l-61 -15l-53 -18l-23 -10l-53 -35l-23 -19l-37 -37l-16 -18l-31 -47l-14 -27l-10 -26l-8 -29l-4 -31l-3 -28l-2 -31v-51l2 -31l5 -29l4 -30l8 -29l12 -25l60 -96l16 -20
l20 -19l76 -45l25 -10l22 -8l56 -15l28 -6l25 -4h28l29 2l29 4l31 6l24 11l53 18l27 12l47 33l27 12h30l23 -16l16 -20l15 -25v-25l-19 -22z" />
    <glyph glyph-name="sterling" unicode="&#xa3;" horiz-adv-x="1329" 
d="M371 905l6 -31l10 -28l12 -58l13 -30l26 -21l33 -6h29l26 -2h31l29 4h28l56 -4l26 2l31 2l29 -4h59l47 -4l29 -4l18 -10l13 -17l4 -24l-4 -27l-13 -16l-18 -13l-27 -8l-26 2l-27 6h-29l-28 -2h-31l-21 -2l-34 2h-31l-31 -2h-24l-27 2h-27l-57 -4l-18 -10l-9 -18l-2 -25
l7 -27v-30l-3 -27l-4 -25l-4 -30v-29l-4 -29l-8 -26l-12 -25l-27 -47l-14 -27l-15 -22l-18 -23l-18 -20l-11 -18l4 -17l23 -6h88l29 -2l61 8h86l60 -4l53 4l28 -2l29 -4l29 -2l33 4h32l19 -2h90l61 2l58 -4l61 4l25 -4l20 -21l8 -28v-29l-6 -27l-22 -18l-29 -4h-29l-26 -2
h-29l-59 2h-172l-27 2l-27 -2h-28l-33 4h-31l-28 -4h-29l-55 4h-25l-29 -4h-28l-60 -4h-28l-31 2l-58 6h-57l-26 -4l-27 -2l-33 4l-31 8l-18 19l-4 24v55l6 21l14 18l23 25l18 25l54 63l16 25l29 53l10 24l6 27l8 29l6 26v119l-8 23l-12 14l-17 8l-22 6l-27 -4h-26l-29 4
l-25 6l-18 23l-10 33l4 26l12 17l15 8l22 4h29l28 2l25 8l14 23l-4 26l-6 29l-16 60l-4 26l-2 29l-5 33l-6 88l2 26l6 29l5 29l6 24l24 58l13 24l16 23l41 45l35 32l26 19l54 27l24 10l25 14l26 10l27 7l29 4l61 12l27 2l22 -2h58l82 -8l32 -2l33 -6l29 -11l53 -16l25 -12
l24 -15l25 -12l20 -16l19 -21l20 -20l49 -76l13 -25l8 -30l4 -31l2 -27l-2 -22l-6 -19l-13 -12l-22 -4l-25 -2l-26 4l-19 10l-8 19l-6 26l-8 27l-25 55l-14 23l-66 55l-26 14l-31 8l-25 9l-26 6l-29 6h-31l-55 -4h-31l-30 4l-29 -2l-29 -6l-26 -8l-29 -13l-53 -28l-47 -33
l-21 -17l-18 -22l-17 -25l-14 -26l-10 -31l-4 -29l-4 -26l-3 -31l5 -31l2 -28v-29z" />
    <glyph glyph-name="currency" unicode="&#xa4;" horiz-adv-x="1234" 
d="M705 371l51 22l51 33l45 43l16 20l11 27l6 31l18 57l6 29l2 31l-12 84l-6 28l-12 27l-15 28l-18 25l-45 41l-47 29l-27 14l-27 10l-26 6l-31 5l-53 -5l-62 -8l-26 -6l-27 -12l-55 -37l-21 -19l-39 -49l-12 -24l-6 -27l-16 -53l-2 -29l2 -28v-31l2 -29l16 -53l10 -27
l13 -28l12 -23l12 -16l13 -13l18 -14l25 -16l22 -17l27 -12l28 -10l31 -8l33 -5l59 5h29zM176 270l-2 19l4 20l17 25l38 33l19 30l2 33l-8 27l-13 24l-18 51l-6 27l-6 33l-6 29v26l2 27v28l4 27l8 27l12 51l10 24l15 27l8 27v22l-6 23l-12 22l-43 39l-19 27v29l19 26l20 21
l23 10h30l27 -17l63 -57l21 -8l20 2l25 10l25 15l30 10l58 8l26 8l31 4l24 2l27 -2l29 -6l28 -2l29 -4l78 -31l29 -10l22 -2l19 8l36 39l21 21l25 14h30l29 -14l20 -23l15 -27l2 -28l-15 -25l-24 -18l-21 -19l-12 -24l-8 -21l2 -18l8 -25l14 -24l21 -52l6 -28l2 -31l4 -29
l2 -28v-27l-2 -27l-4 -26l-4 -29l-6 -31l-10 -26l-23 -47l-10 -29l6 -31l16 -26l45 -41l15 -21l4 -18l-6 -23l-17 -24l-20 -21l-25 -10l-28 2l-95 68l-20 8h-21l-28 -10l-25 -13l-22 -6l-25 -4l-31 -4l-30 -6l-84 -6l-25 2l-26 6l-29 4l-31 8l-31 12l-24 11l-25 8l-22 -2
l-19 -6l-22 -15l-19 -22l-20 -21l-25 -14h-26l-25 12l-24 21z" />
    <glyph glyph-name="yen" unicode="&#xa5;" horiz-adv-x="1378" 
d="M954 336l-55 -8l-55 4l-29 -2l-27 -4l-16 -11l-8 -16l-4 -23l-2 -24v-29l2 -30v-29l-2 -31l-2 -27v-51l-6 -28l-21 -21l-27 -8l-28 2l-33 6l-23 21l-6 26l4 53l-2 31v58l-4 55l2 29l-2 24l-10 16l-18 9l-29 2h-31l-55 -4l-25 2l-30 4l-31 2h-31l-26 2l-15 8l-10 18l-8 27
l4 31l22 18l31 6l31 2h57l66 -4l26 2h25l27 2l16 13l10 20l8 27l-2 24l-10 19l-16 10l-27 8l-31 2h-59l-31 -2l-35 -4l-26 -2l-27 2l-31 10l-22 25l-6 29l4 26l22 19l35 6h51l58 6l26 -2l29 4l12 19l-10 20l-22 27l-27 47l-31 47l-12 26l-35 48l-16 24l-17 23l-45 75l-32 48
l-13 22l-14 27l-37 45l-16 26l-15 27l-32 45l-27 47l-14 29l-19 24l-16 23l-6 20l14 9l27 2l61 -4h27l20 -7l17 -14l18 -22l16 -27l17 -25l14 -26l33 -45l12 -27l51 -72l13 -24l63 -92l10 -23l60 -98l18 -27l17 -20l14 -25l12 -27l51 -75l19 -19h20l21 19l16 28l12 27l17 20
l78 125l75 117l19 23l16 26l13 25l30 45l29 51l63 94l17 23l14 24l19 25l18 12l23 6l30 5h54l26 2l17 -9l-3 -22l-47 -70l-14 -24l-37 -45l-24 -54l-19 -26l-37 -43l-26 -51l-64 -101l-31 -45l-18 -24l-18 -27l-33 -41l-17 -23l-12 -26l-14 -27l-33 -49l-8 -25l6 -16l23 -6
l30 -4l56 2h28l25 2l24 -4l19 -12l10 -17l4 -24l-8 -27l-23 -23l-30 -8h-29l-27 2l-28 -2h-29l-29 2h-26l-27 2l-35 -8l-22 -24l-6 -31l6 -33l22 -20l31 -11l29 -2h59l29 4l26 2h60l26 -6l17 -8l10 -16l2 -25l-6 -29l-8 -18l-15 -10l-28 -2z" />
    <glyph glyph-name="brokenbar" unicode="&#xa6;" horiz-adv-x="497" 
d="M311 420l2 -27l4 -26v-115l-2 -31v-33l-2 -28v-82l-2 -27l2 -28v-31l-2 -31l2 -29l4 -28v-29l-10 -29l-18 -20l-29 -6l-29 -2l-24 4l-17 10l-8 18l-2 25l2 27l2 32v115l-6 29l-2 26l4 60l2 26v29l-2 29v28l2 29v29l-2 26v31l2 33l2 29l-2 30l-2 27l2 25l11 16l16 10l27 6
l26 -2l25 -10l22 -20l8 -27l-4 -62zM182 819l-2 17l-2 32l4 58l-2 30v62l-2 26v29l2 29v31l2 30v84l-2 29l-2 24l4 60v29l8 28l19 23l29 8h26l25 -4l14 -8l8 -17l4 -28l-2 -31l2 -29l2 -26v-29l2 -31l-2 -28l-4 -31l2 -29v-29l2 -28v-29l-4 -31l-2 -28l4 -58v-26l-2 -27v-29
l4 -30v-29l2 -27v-26l-4 -27l-10 -16l-16 -12l-27 -5h-26l-23 2l-16 11l-13 18l-6 27l4 28v33z" />
    <glyph glyph-name="section" unicode="&#xa7;" horiz-adv-x="1148" 
d="M807 829l-78 41l-27 7l-57 8l-27 6l-28 2l-60 2l-24 -2l-27 -6l-30 -6l-29 -9l-27 -12l-26 -14l-25 -12l-20 -19l-15 -22l-12 -27l-6 -27l-2 -30l2 -27l12 -25l18 -20l21 -19l22 -18l25 -12l84 -31l29 -4l57 -4h31l35 2l53 2l29 2l26 6l29 12l49 27l25 16l20 21l14 27
l9 28l4 25v24l-11 31l-41 41zM344 147l31 -16l31 -12l28 -8l27 -9l28 -6l91 -12l30 2l58 8l24 2l27 8l18 9l19 6l26 6l25 12l20 19l37 49l8 28l5 27v23l-5 26l-16 21l-20 20l-21 17l-27 12l-26 10l-25 6l-26 4l-29 11l-27 6h-30l-33 4l-25 4l-24 2l-33 2l-27 4l-28 8l-27 11
l-82 18l-27 10l-92 58l-18 18l-33 45l-16 25l-10 26l-3 33l-2 27l2 26l7 29l20 53l16 27l37 41l49 31l21 18v18l-16 17l-29 12l-25 16l-39 37l-16 23l-10 24l-6 29l-2 31v61l2 29l10 27l10 24l14 27l43 43l23 18l70 43l57 17l29 12l26 6l62 4l28 4l54 -2l61 4h29l26 -4
l29 -4l29 -6l53 -21l27 -8l24 -10l51 -35l27 -14l18 -17l2 -18l-8 -18l-16 -25l-25 -18l-30 -2l-29 10l-76 39l-80 18l-86 6l-57 2l-27 -2l-28 -4l-52 -4l-30 -8l-29 -10l-23 -17l-45 -41l-16 -22l-10 -31v-27l4 -22l6 -27l16 -22l23 -21l102 -41l29 -8l25 -6l57 -8l57 -10
l56 -5l55 -12l106 -29l25 -10l76 -39l24 -18l19 -21l30 -47l11 -26l8 -27l2 -25l-4 -57l-4 -29l-8 -26l-17 -29l-39 -49l-22 -16l-54 -27l-24 -14v-13l20 -12l31 -10l25 -12l41 -43l43 -72l8 -25v-24l2 -27v-31l-6 -28l-21 -54l-12 -24l-16 -25l-21 -22l-43 -35l-22 -14
l-54 -25l-24 -8l-29 -8l-57 -9l-29 -8l-31 -4l-57 -6h-49l-31 4l-29 6l-32 2l-31 4l-27 11l-22 4l-27 6l-24 14l-29 13l-29 10l-51 24l-43 35l-20 23l-17 28v31l17 25l20 14l25 10l26 -2l27 -14l24 -19z" />
    <glyph glyph-name="dieresis" unicode="&#xa8;" horiz-adv-x="931" 
d="M662 1335l24 2l27 -4l24 -10l21 -16l10 -27l2 -31l-2 -28l-10 -25l-21 -18l-28 -13l-29 -4l-25 8l-22 13l-19 18l-8 27l-2 24l2 27l10 29l21 18zM201 1337l26 4l27 -4l25 -12l22 -18l10 -29l2 -29l-4 -24l-10 -27l-18 -20l-25 -13l-27 -2l-26 6l-27 13l-20 20l-15 29
l-4 24l4 25l13 29l22 16z" />
    <glyph glyph-name="copyright" unicode="&#xa9;" horiz-adv-x="1708" 
d="M764 330l-31 10l-26 14l-25 15l-25 10l-22 16l-23 21l-22 18l-19 19l-14 22l-18 25l-15 26l-24 49l-11 29l-6 31l-8 24l-2 29v27l2 26l2 35l8 31l9 29l10 28l12 25l27 47l30 47l23 21l25 20l20 14l18 15l25 16l82 35l33 6l53 6l31 4l28 -2l29 -4l29 -6l26 -6l27 -8
l29 -11l24 -12l23 -14l24 -21l19 -22l2 -19l-8 -18l-17 -25l-20 -18l-21 -6l-20 6l-25 14l-20 17l-23 10l-28 10l-29 6h-51l-58 -4l-30 -6l-29 -12l-25 -15l-67 -53l-17 -20l-30 -47l-13 -25l-8 -31l-4 -33v-26l4 -25l4 -30l6 -31l21 -51l18 -27l41 -43l51 -35l25 -14l25 -8
l55 -13h31l55 4l29 7l47 24l20 15l23 14l20 6l23 -6l24 -19l17 -24l6 -23l-4 -18l-17 -19l-75 -51l-29 -10l-25 -6l-28 -8l-27 -9l-25 -2h-28l-29 2l-31 5l-30 2zM244 627l18 -86l17 -54l8 -30l20 -56l15 -26l30 -45l19 -25l37 -39l18 -22l23 -23l24 -18l102 -58l23 -14
l25 -10l57 -17l31 -6l57 -8l29 -6l30 -2h25l27 2l67 8h17l32 4l29 6l45 15l45 18l23 6l26 13l27 16l24 16l41 35l45 45l66 88l27 56l14 24l10 23l8 28l11 31l8 29l8 55l4 25v28l2 33v27l-2 24v31l2 33l-2 30l-8 29l-6 27l-6 24l-21 60l-6 28l-14 29l-31 43l-31 49l-55 68
l-21 20l-22 19l-98 61l-64 25l-14 6l-58 12l-30 8l-29 4l-29 3l-67 -5l-19 2h-30l-31 -4l-53 -6l-62 -16l-26 -6l-58 -25l-24 -12l-25 -14l-67 -52l-25 -22l-25 -27l-12 -12l-65 -94l-15 -27l-8 -29l-43 -110l-4 -27l-2 -26l-12 -58v-57l4 -64v-28zM971 1456l30 -4l29 -8
l113 -27l26 -10l29 -16l16 -11l54 -30l51 -33l41 -35l41 -41l35 -43l20 -20l17 -27l12 -27l12 -24l14 -23l27 -55l10 -27l6 -28l17 -52l6 -26l4 -27l6 -31l8 -59v-29l-4 -61v-29l-6 -80l-18 -90l-8 -26l-9 -25l-43 -80l-20 -51l-14 -27l-35 -51l-35 -41l-41 -39l-68 -51
l-26 -16l-27 -13l-24 -14l-25 -12l-53 -19l-54 -24l-114 -25l-92 -6l-56 4h-55l-27 4l-26 6l-66 11l-18 4l-119 43l-25 12l-26 14l-92 66l-21 23l-43 38l-72 86l-12 25l-12 29l-14 28l-15 25l-10 27l-23 47l-8 26l-6 31l-2 27l-12 59v57l-2 29l-4 31l-2 30l8 56v30l6 27
l8 57l8 29l9 27l8 28l12 25l14 23l13 26l10 29l12 24l17 23l32 51l58 60l20 18l27 18l69 56l25 14l25 12l22 13l25 10l26 12l29 12l33 9l28 2l27 4l86 18l31 4h30l52 -2l32 -2h27z" />
    <glyph glyph-name="guillemotleft" unicode="&#xab;" horiz-adv-x="954" 
d="M778 1128l17 -8l-4 -20l-29 -51l-14 -29l-17 -25l-18 -22l-56 -99l-26 -36l-56 -84l-28 -49l-2 -23l4 -23l10 -28l14 -29l15 -27l51 -71l57 -101l49 -77l29 -50l10 -24l-10 -14l-26 -7l-29 -2l-33 4l-22 9l-19 12l-16 20l-86 146l-31 47l-14 25l-33 45l-12 24l-15 25
l-16 24l-12 25l-11 27l-6 22l2 21l13 22l16 23l14 26l15 25l32 41l29 53l31 45l39 72l45 71l20 23l19 12l22 4l29 6l31 2zM545 1122l-6 -24l-31 -54l-16 -22l-17 -21l-16 -24l-13 -27l-14 -26l-37 -45l-14 -31l-14 -25l-13 -20l-12 -25l-18 -22l-17 -27l-10 -31l-2 -22
l2 -23l8 -22l19 -21l16 -24l12 -29l94 -147l17 -25l41 -72l16 -26l15 -19l4 -16l-15 -16l-28 -9h-31l-33 6l-33 19l-24 29l-45 65l-13 27l-14 22l-16 21l-15 22l-12 23l-14 24l-17 25l-71 119l-13 26l-8 27l2 23l11 22l51 74l12 14l14 29l80 117l15 24l12 27l12 24l14 23
l41 41l19 16l20 10l25 4h61z" />
    <glyph glyph-name="logicalnot" unicode="&#xac;" horiz-adv-x="1046" 
d="M780 350l-18 21l-2 28v29l-4 27v26l4 27l-4 29l-2 30l-6 29l-19 20l-31 7l-32 2h-27l-25 -2l-26 2l-60 -2l-63 -5l-31 3l-16 2l-33 2h-31l-30 2l-29 -2l-29 -7h-30l-29 3l-23 8l-16 10l-10 16l-4 21l-2 20l4 23l12 14l20 10l23 7h82l57 4l60 -4h59l18 -2l35 2l29 2l55 -2
h49l62 4h90l27 -2l22 -7l23 -22l10 -31l2 -28l-2 -31l-4 -31l-2 -29l2 -24v-29l6 -94v-25l-10 -26l-21 -19l-24 -8l-27 -4z" />
    <glyph glyph-name="registered" unicode="&#xae;" horiz-adv-x="1703" 
d="M690 887v-31l-2 -29l4 -53l8 -29l19 -22l24 -4l27 -2l31 2l30 4h31l27 -4h26l33 6l19 4l30 12l23 21l18 22l15 23l12 27l4 26l-4 29l-10 26l-13 25l-18 21l-16 12l-17 10l-18 8l-29 6h-108l-29 2l-25 2h-30l-35 -8l-25 -18l-8 -29l2 -28zM1104 336l-25 6l-18 14l-21 21
l-14 22l-57 64l-21 22l-33 41l-16 25l-18 20l-23 21l-22 14l-23 6l-29 2l-30 -2l-27 -2l-18 -10l-11 -18l-4 -27l-4 -53v-113l-6 -27l-12 -18l-19 -10l-22 -6l-25 6l-18 12l-13 16l-4 27v27l4 28l-4 62l4 57l-2 29l-4 26l4 60l2 33v18l-2 35l-2 29l2 28v60l-4 57v59l2 29v29
l9 24l22 21l29 10h59l64 -4l18 -2l66 4h84l24 -2l60 -8l30 -8l54 -35l40 -35l17 -23l29 -49l10 -30l6 -31v-29l-4 -27l-6 -28l-8 -27l-11 -28l-14 -25l-16 -21l-21 -20l-25 -18l-28 -15l-29 -10l-22 -16l-4 -21l16 -22l57 -66l21 -20l53 -68l18 -25l21 -22l12 -19l-2 -16
l-14 -10h-53zM254 600l18 -84l4 -31l21 -55l29 -51l12 -25l14 -24l74 -90l41 -39l25 -17l30 -16l17 -8l26 -15l33 -16l23 -10l26 -8l29 -5l26 -8l31 -8l27 -4h28l31 -4l29 -2l29 2h30l33 4l29 4l24 6l29 10l55 15l131 65l27 21l59 53l72 94l27 54l12 22l12 27l10 26l9 29
l6 29l4 30l8 29l2 29l2 24l2 33l2 27v26l-4 33l-6 27l-2 28l-4 33l-6 31l-8 27l-19 49l-14 28l-21 54l-28 49l-17 24l-18 23l-19 20l-65 58l-25 18l-102 57l-57 17l-17 6l-33 10l-30 6l-29 2l-29 4l-32 3l-27 2l-59 -5l-25 -4l-27 -2l-88 -20l-51 -19l-29 -10l-53 -28
l-22 -19l-23 -16l-24 -21l-60 -59l-39 -49l-39 -68l-14 -29l-23 -59l-6 -27l-4 -26l-12 -58l-4 -57v-31l-2 -24l-4 -25v-33l4 -30zM965 1452l26 -4l62 -4l57 -17l25 -12l26 -14l56 -25l45 -24l69 -52l25 -16l22 -20l35 -43l19 -19l20 -24l35 -50l14 -24l12 -25l41 -108
l19 -86l4 -25l4 -29l6 -83l4 -33v-33l-4 -53l-2 -29l-18 -90l-6 -27l-7 -22l-8 -17l-6 -16l-6 -25l-10 -26l-13 -27l-61 -100l-16 -21l-15 -24l-20 -21l-25 -18l-39 -41l-20 -16l-98 -62l-82 -35l-27 -10l-57 -12l-54 -15l-61 -4l-59 -8l-58 6h-59l-25 4l-82 19l-35 6l-28 4
l-27 10l-28 15l-46 18l-28 16l-70 52l-22 12l-23 18l-22 23l-21 18l-55 66l-10 22l-21 33l-10 25l-12 26l-15 25l-12 27l-25 77l-18 88l-4 27l-12 57v27l2 31v28l2 29l4 31l8 53l4 29l6 30l10 29l7 25l4 26l8 29l12 25l12 28l33 51l17 23l16 25l18 24l54 66l22 20l14 10
l25 21l49 35l23 14l80 37l28 10l25 8l26 6l62 19l27 4l30 6l86 6l54 -4l32 2l29 -2z" />
    <glyph glyph-name="macron" unicode="&#xaf;" horiz-adv-x="833" 
d="M315 1296h58l28 -2l56 2l30 -4h31l31 2h31l30 -2l29 2l27 -8l18 -22l6 -27l-6 -25l-8 -20l-14 -12l-25 -4l-31 4l-31 -4l-26 -2l-29 2l-65 2h-27l-59 2l-31 -2h-186l-27 6l-19 10l-8 18l-4 25l4 27l11 16l18 10l27 6l84 2z" />
    <glyph glyph-name="degree" unicode="&#xb0;" horiz-adv-x="663" 
d="M240 1346l-17 -23l-8 -27l-2 -28l2 -27l8 -27l15 -24l20 -19l55 -20l25 -4l27 4l26 12l21 17l16 18l14 25l11 32v29l-9 25l-14 26l-16 21l-21 16l-16 10l-21 7l-22 2l-51 -15l-23 -12zM449 1452l22 -14l18 -15l19 -22l29 -51l6 -25l4 -25l4 -28v-31l-4 -29l-10 -28
l-11 -27l-14 -22l-18 -21l-25 -18l-29 -17l-24 -12l-25 -4l-29 -2h-30l-19 2h-30l-31 6l-29 12l-26 17l-21 18l-18 19l-15 20l-14 27l-10 28l-6 31v29l2 30l6 27l8 25l12 24l13 23l43 41l24 18l25 12l28 7l33 2l25 2h26l31 -6l33 -9z" />
    <glyph glyph-name="plusminus" unicode="&#xb1;" horiz-adv-x="1083" 
d="M305 211l29 -2h31l65 4h19l61 -4l31 2l59 -4h31l55 6l62 -2l30 2h27l59 -4l25 -6l18 -10l11 -17l4 -24l-7 -29l-10 -21l-16 -12l-27 -4h-31l-28 4l-27 2l-86 -6h-61l-60 4h-28l-33 -4h-27l-26 4l-60 -2h-86l-30 -2h-29l-31 4l-31 8l-20 19l-2 30l6 31l10 21l15 10l24 4
l27 -2h57zM266 823l35 -2l29 -4h28l60 4l24 2l19 11l12 20l8 31v53l-2 33v59l-4 29v28l10 31l25 21l29 8l26 -4l19 -10l12 -17l6 -26v-29l4 -29v-33l-4 -30v-29l4 -29v-30l6 -27l21 -20l29 -11l28 -6l31 -2l67 4l19 2l59 4l27 -6l16 -10l11 -21l4 -30l-6 -33l-21 -23l-27 -6
l-28 2h-29l-31 -2h-30l-62 4l-28 -2l-25 -6l-16 -10l-13 -14l-6 -27v-29l2 -26l-4 -27v-29l4 -28v-27l-4 -29v-32l-2 -25l-12 -12l-21 -8l-28 -7l-27 7l-18 8l-13 14l-4 25v88l-2 28l2 31v19l2 30v25l-6 27l-12 18l-15 10l-24 6h-31l-33 2h-26l-27 -2l-33 -2h-63l-29 9
l-18 22l-6 31v26l10 19l18 10l31 8l35 2h18z" />
    <glyph glyph-name="acute" unicode="&#xb4;" horiz-adv-x="458" 
d="M354 1409l-63 -100l-19 -25l-20 -20l-37 -47l-22 -23l-23 -14l-23 -9l-26 -4l-29 4l-20 11l4 20l12 27l31 49l14 31l17 24l30 51l19 19l20 14l19 8l26 9l31 2l55 -4l12 -5z" />
    <glyph glyph-name="paragraph" unicode="&#xb6;" horiz-adv-x="1632" 
d="M588 -436l-17 8l-10 20l-2 27l2 27l-2 24l2 27l2 31v61l2 35v18l-2 31l-2 27l-4 28v33l2 29v26l-2 31l4 27l2 26v29l-4 61l-2 27l2 25v30l-4 58l-4 28l-19 23l-26 12l-31 6l-29 2l-26 9l-55 16l-25 12l-51 29l-23 20l-47 35l-35 45l-16 19l-16 22l-15 27l-16 24l-23 56
l-8 24l-6 27l-8 31l-6 28l-2 25v115l4 24l10 27l6 31l4 28l25 51l10 29l12 27l45 65l19 23l16 22l21 19l47 30l24 19l23 14l51 25l27 10l26 8l29 6l33 2h30l54 7l26 2h29l25 -2l34 -2h31l55 4l62 -4l51 4l29 -4l30 -3l62 5h35l18 2h33l26 -4l31 -3h84l60 5h114l27 -5h27
l28 5l31 -5l22 -22l9 -27v-24l-7 -25l-22 -20l-33 -6l-94 -7l-29 -8l-22 -18l-6 -25v-33l2 -28l-4 -58v-57l2 -25l4 -30l2 -25v-26l-2 -33l-4 -33l-4 -29l6 -84v-26l-2 -25v-31l-2 -32l2 -27v-25l2 -28l-2 -33l-2 -29v-116l2 -29v-29l4 -30l2 -23l-2 -25l-4 -30v-115l2 -29
v-88l-2 -28v-82l4 -31v-29l-4 -28l2 -33v-29l2 -26l-2 -27l-4 -27v-28l2 -29l-2 -29l-9 -18l-18 -10l-25 -4h-28l-27 6l-16 10l-8 20l-7 23l-2 27v57l4 57v31l-2 29l2 26v27l-2 31v34l4 52l-2 32l-2 29l-2 25l2 28l-2 31v27l9 57l-3 29l-4 28v58l2 26v29l-2 29v26l-4 60v26
l8 56v30l-2 33l2 29v28l3 29v25l-3 28l-4 31l-2 29v28l4 54v30l-4 29v27l4 26l-2 29v31l2 28l5 31v25l-3 24l-2 33l-6 31l-20 20l-33 6l-27 4h-53l-29 -2l-28 5l-29 2l-29 -2l-28 -7l-29 -2l-31 4l-28 2h-29l-27 -2h-24l-31 -8l-24 -20l-7 -27l5 -57l-3 -31l-2 -25l2 -26
v-31l-2 -31l2 -26l3 -29v-90l-3 -29v-84l5 -28v-27l-2 -29v-24l2 -29l2 -33l-4 -59l-3 -27v-86l-4 -59l2 -31v-18l2 -33l3 -29l-3 -28v-29l3 -31l-3 -28v-27l5 -61l2 -27l-4 -55l-3 -31v-53l3 -29l-3 -29v-59l3 -29v-28l-3 -31v-51l3 -33l-5 -27l-12 -16l-18 -8l-23 -2h-29z
" />
    <glyph glyph-name="periodcentered" unicode="&#xb7;" horiz-adv-x="505" 
d="M209 776l29 8l26 2l27 -6l26 -16l17 -23l10 -28l6 -25l-2 -24l-12 -25l-21 -21l-24 -18l-27 -8l-24 2l-29 10l-25 12l-18 19l-8 29l-2 26l4 25l10 28l14 19z" />
    <glyph glyph-name="cedilla" unicode="&#xb8;" horiz-adv-x="606" 
d="M213 -369l31 -8l24 -2l27 4l31 10l28 15l25 22l10 23l2 24l-4 29l-14 25l-25 18l-31 10l-26 6l-55 3h-23l-16 6l-11 14l2 20l5 25l12 51l8 47l4 17l19 10h69l14 -8l-8 -37l-4 -23v-18l10 -14l19 -6l24 -5l29 -10l53 -22l23 -19l18 -24l11 -27l8 -29l4 -28l-2 -29l-6 -31
l-6 -26l-13 -25l-18 -27l-19 -20l-22 -16l-27 -13l-26 -10l-29 -10l-31 -6l-31 -2l-32 4l-31 6l-33 10l-18 4l-31 12l-27 19l-18 16l-14 25l-2 22l8 21l22 18l23 2l18 -4l25 -12l22 -14z" />
    <glyph glyph-name="guillemotright" unicode="&#xbb;" horiz-adv-x="956" 
d="M752 578l-13 -27l-28 -43l-27 -55l-16 -25l-17 -22l-71 -117l-19 -21l-20 -14l-25 -6l-29 -4h-26l-27 8l-10 18l8 27l47 76l49 65l15 29l12 29l16 26l19 23l16 26l12 27l33 51l15 49l-4 25l-13 25l-31 49l-16 22l-14 25l-33 47l-29 53l-16 23l-12 22l-17 25l-18 22
l-29 54l-16 24l-6 21l20 10h31l26 -2l29 -4l23 -11l18 -14l21 -22l77 -117l21 -35l14 -20l13 -27l16 -27l16 -22l29 -49l16 -25l15 -29l16 -26l6 -23l-4 -20l-12 -25l-19 -20zM514 600l-72 -121l-14 -20l-12 -23l-35 -49l-16 -27l-15 -20l-12 -25l-14 -24l-19 -23l-20 -10
l-23 -6l-24 -4l-27 -2l-33 2l-12 18l8 27l33 45l84 141l12 27l31 43l20 24l43 72l13 27l4 22l-4 23l-13 28l-20 25l-74 119l-35 49l-26 49l-35 51l-41 74l-4 25l18 8l29 -4h27l26 -2l21 -6l18 -15l23 -24l20 -25l45 -76l33 -49l16 -22l31 -54l78 -123l8 -26l2 -25l-2 -22
l-6 -25z" />
    <glyph glyph-name="questiondown" unicode="&#xbf;" horiz-adv-x="1191" 
d="M1110 -125l-8 -27l-10 -28l-13 -25l-30 -47l-19 -24l-39 -41l-22 -19l-23 -12l-51 -35l-31 -12l-16 -4l-35 -11l-29 -6l-24 -6l-31 -10l-31 -4h-53l-59 -2l-29 2l-59 8h-31l-29 6l-108 33l-54 24l-49 29l-63 60l-21 22l-14 23l-10 22l-15 23l-12 26l-10 31l-6 29l-4 28
l-2 31l2 27l4 24l4 33l4 29l6 28l4 25l12 27l33 49l35 43l21 18l18 21l23 16l24 14l25 17l24 12l56 20l127 60l20 16l23 25l12 12l20 27l8 28l5 54l8 63l8 33l20 22l27 5l29 2l28 -7l23 -24l8 -35l2 -29l-2 -26l-4 -29l-6 -29l-8 -26l-11 -27l-20 -61l-16 -23l-66 -61
l-22 -15l-52 -26l-106 -39l-111 -57l-20 -17l-19 -22l-30 -52l-11 -26l-8 -27l-4 -31l2 -30v-33l4 -29l17 -53l14 -29l35 -41l43 -41l26 -16l56 -24l28 -11l172 -24l25 2l31 4l28 2l25 6l55 16l27 13l22 12l52 35l22 16l19 19l14 20l24 49l15 27l4 27l8 24l14 16l19 9l26 6
l29 2l25 -6l16 -23l4 -33l-2 -30zM698 840l-26 -9h-31l-27 9l-22 16l-21 23l-12 28l-2 27l4 22l10 27l21 23l22 16l27 6h31l30 -6l23 -14l16 -21l11 -26l2 -31l-6 -29l-9 -29l-16 -20z" />
    <glyph glyph-name="Agrave" unicode="&#xc0;" 
d="M516 461h84l27 2h28l29 -4l64 4l18 -2h33l114 -4l60 4l26 4h31l27 -2l24 6l11 23l-2 24l-7 23l-61 135l-14 24l-33 78l-12 25l-11 26l-10 29l-14 27l-27 78l-14 26l-17 25l-20 53l-14 25l-11 30l-8 29l-12 27l-12 24l-11 25l-16 20h-18l-17 -22l-10 -29l-23 -45l-10 -31
l-10 -26l-16 -25l-60 -129l-12 -29l-8 -28l-11 -27l-8 -27l-12 -24l-14 -25l-13 -28l-16 -54l-14 -24l-25 -54l-12 -28l-8 -25l-27 -53l-8 -27l14 -18l27 -4h30zM1059 330h-86l-29 2h-55l-62 -2l-30 2l-27 2h-27l-30 -4l-56 4h-32l-29 -2l-55 2l-25 -2h-27l-28 4h-29l-33 -2
l-30 -4l-21 -8l-14 -17l-27 -57l-6 -17l-14 -28l-27 -47l-10 -27l-6 -27l-25 -51l-20 -20l-17 -15l-20 -12l-29 -8h-31l-28 10l-17 21l6 26l17 25l20 49l27 55l12 29l8 25l39 75l9 25l22 51l10 27l15 26l10 29l10 25l29 53l12 26l10 25l23 47l24 57l9 27l37 80l14 25l22 53
l9 16l12 31l8 33l39 77l14 25l13 27l10 26l8 25l10 24l13 23l14 29l12 28l10 27l11 25l10 26l12 25l15 26l18 27l14 16l19 9l28 2l58 -4l22 -11l17 -16l16 -21l18 -53l27 -53l25 -59l24 -43l13 -27l8 -27l47 -106l20 -49l25 -52l22 -55l29 -49l10 -29l37 -75l31 -78l29 -54
l12 -26l26 -76l13 -25l16 -26l12 -29l13 -26l12 -29l35 -70l12 -30l16 -52l23 -53l41 -80l6 -24l-14 -21l-27 -6h-31l-28 2l-21 6l-20 15l-19 26l-8 25l-26 49l-33 82l-10 20l-9 25l-14 26l-16 25l-15 14l-22 9l-29 4h-27zM680 1853l20 -10l19 -16l39 -51l30 -52l15 -22
l24 -53l17 -23l6 -24l-19 -13h-51l-26 2l-19 11l-20 16l-21 20l-16 23l-16 27l-35 45l-21 24l-47 68l-4 20l14 10h82z" />
    <glyph glyph-name="Aacute" unicode="&#xc1;" 
d="M516 461h84l27 2h28l29 -4l64 4l18 -2h33l114 -4l60 4l26 4h31l27 -2l24 6l11 23l-2 24l-7 23l-61 135l-14 24l-33 78l-12 25l-11 26l-10 29l-14 27l-27 78l-14 26l-17 25l-20 53l-14 25l-11 30l-8 29l-12 27l-12 24l-11 25l-16 20h-18l-17 -22l-10 -29l-23 -45l-10 -31
l-10 -26l-16 -25l-60 -129l-12 -29l-8 -28l-11 -27l-8 -27l-12 -24l-14 -25l-13 -28l-16 -54l-14 -24l-25 -54l-12 -28l-8 -25l-27 -53l-8 -27l14 -18l27 -4h30zM1059 330h-86l-29 2h-55l-62 -2l-30 2l-27 2h-27l-30 -4l-56 4h-32l-29 -2l-55 2l-25 -2h-27l-28 4h-29l-33 -2
l-30 -4l-21 -8l-14 -17l-27 -57l-6 -17l-14 -28l-27 -47l-10 -27l-6 -27l-25 -51l-20 -20l-17 -15l-20 -12l-29 -8h-31l-28 10l-17 21l6 26l17 25l20 49l27 55l12 29l8 25l39 75l9 25l22 51l10 27l15 26l10 29l10 25l29 53l12 26l10 25l23 47l24 57l9 27l37 80l14 25l22 53
l9 16l12 31l8 33l39 77l14 25l13 27l10 26l8 25l10 24l13 23l14 29l12 28l10 27l11 25l10 26l12 25l15 26l18 27l14 16l19 9l28 2l58 -4l22 -11l17 -16l16 -21l18 -53l27 -53l25 -59l24 -43l13 -27l8 -27l47 -106l20 -49l25 -52l22 -55l29 -49l10 -29l37 -75l31 -78l29 -54
l12 -26l26 -76l13 -25l16 -26l12 -29l13 -26l12 -29l35 -70l12 -30l16 -52l23 -53l41 -80l6 -24l-14 -21l-27 -6h-31l-28 2l-21 6l-20 15l-19 26l-8 25l-26 49l-33 82l-10 20l-9 25l-14 26l-16 25l-15 14l-22 9l-29 4h-27zM924 1753l-35 -49l-21 -21l-37 -47l-22 -22
l-23 -15l-22 -8l-27 -4l-28 4l-21 11l4 20l13 27l30 49l15 31l47 75l18 19l21 14l18 8l27 8l30 2l56 -4l12 -4l-8 -18l-29 -45z" />
    <glyph glyph-name="Acircumflex" unicode="&#xc2;" 
d="M516 461h84l27 2h28l29 -4l64 4l18 -2h33l114 -4l60 4l26 4h31l27 -2l24 6l11 23l-2 24l-7 23l-61 135l-14 24l-33 78l-12 25l-11 26l-10 29l-14 27l-27 78l-14 26l-17 25l-20 53l-14 25l-11 30l-8 29l-12 27l-12 24l-11 25l-16 20h-18l-17 -22l-10 -29l-23 -45l-10 -31
l-10 -26l-16 -25l-60 -129l-12 -29l-8 -28l-11 -27l-8 -27l-12 -24l-14 -25l-13 -28l-16 -54l-14 -24l-25 -54l-12 -28l-8 -25l-27 -53l-8 -27l14 -18l27 -4h30zM1059 330h-86l-29 2h-55l-62 -2l-30 2l-27 2h-27l-30 -4l-56 4h-32l-29 -2l-55 2l-25 -2h-27l-28 4h-29l-33 -2
l-30 -4l-21 -8l-14 -17l-27 -57l-6 -17l-14 -28l-27 -47l-10 -27l-6 -27l-25 -51l-20 -20l-17 -15l-20 -12l-29 -8h-31l-28 10l-17 21l6 26l17 25l20 49l27 55l12 29l8 25l39 75l9 25l22 51l10 27l15 26l10 29l10 25l29 53l12 26l10 25l23 47l24 57l9 27l37 80l14 25l22 53
l9 16l12 31l8 33l39 77l14 25l13 27l10 26l8 25l10 24l13 23l14 29l12 28l10 27l11 25l10 26l12 25l15 26l18 27l14 16l19 9l28 2l58 -4l22 -11l17 -16l16 -21l18 -53l27 -53l25 -59l24 -43l13 -27l8 -27l47 -106l20 -49l25 -52l22 -55l29 -49l10 -29l37 -75l31 -78l29 -54
l12 -26l26 -76l13 -25l16 -26l12 -29l13 -26l12 -29l35 -70l12 -30l16 -52l23 -53l41 -80l6 -24l-14 -21l-27 -6h-31l-28 2l-21 6l-20 15l-19 26l-8 25l-26 49l-33 82l-10 20l-9 25l-14 26l-16 25l-15 14l-22 9l-29 4h-27zM852 1788l106 -105l23 -18l23 -16l63 -64l10 -20
l-20 -13l-29 -2l-29 2l-32 4l-27 7l-18 12l-41 39l-50 37l-22 20l-21 23l-20 12l-18 2l-21 -4l-67 -49l-15 -13l-12 -14l-41 -33l-23 -16l-26 -12l-29 -8l-24 -5l-60 2l-20 7l-2 12l14 16l22 19l21 14l65 57l37 43l45 39l39 39l25 17l22 10l25 6l20 4l23 -2l31 -12l30 -19z
" />
    <glyph glyph-name="Atilde" unicode="&#xc3;" 
d="M516 461h84l27 2h28l29 -4l64 4l18 -2h33l114 -4l60 4l26 4h31l27 -2l24 6l11 23l-2 24l-7 23l-61 135l-14 24l-33 78l-12 25l-11 26l-10 29l-14 27l-27 78l-14 26l-17 25l-20 53l-14 25l-11 30l-8 29l-12 27l-12 24l-11 25l-16 20h-18l-17 -22l-10 -29l-23 -45l-10 -31
l-10 -26l-16 -25l-60 -129l-12 -29l-8 -28l-11 -27l-8 -27l-12 -24l-14 -25l-13 -28l-16 -54l-14 -24l-25 -54l-12 -28l-8 -25l-27 -53l-8 -27l14 -18l27 -4h30zM1059 330h-86l-29 2h-55l-62 -2l-30 2l-27 2h-27l-30 -4l-56 4h-32l-29 -2l-55 2l-25 -2h-27l-28 4h-29l-33 -2
l-30 -4l-21 -8l-14 -17l-27 -57l-6 -17l-14 -28l-27 -47l-10 -27l-6 -27l-25 -51l-20 -20l-17 -15l-20 -12l-29 -8h-31l-28 10l-17 21l6 26l17 25l20 49l27 55l12 29l8 25l39 75l9 25l22 51l10 27l15 26l10 29l10 25l29 53l12 26l10 25l23 47l24 57l9 27l37 80l14 25l22 53
l9 16l12 31l8 33l39 77l14 25l13 27l10 26l8 25l10 24l13 23l14 29l12 28l10 27l11 25l10 26l12 25l15 26l18 27l14 16l19 9l28 2l58 -4l22 -11l17 -16l16 -21l18 -53l27 -53l25 -59l24 -43l13 -27l8 -27l47 -106l20 -49l25 -52l22 -55l29 -49l10 -29l37 -75l31 -78l29 -54
l12 -26l26 -76l13 -25l16 -26l12 -29l13 -26l12 -29l35 -70l12 -30l16 -52l23 -53l41 -80l6 -24l-14 -21l-27 -6h-31l-28 2l-21 6l-20 15l-19 26l-8 25l-26 49l-33 82l-10 20l-9 25l-14 26l-16 25l-15 14l-22 9l-29 4h-27zM528 1724l21 21l22 14l29 10l31 5l31 -2l22 -5
l49 -22l25 -8l28 -8l29 -11l25 -12l22 -4l25 8l22 14l23 17l18 8l23 2l24 -10l15 -15l6 -20l-4 -29l-13 -26l-36 -37l-27 -17l-14 -6l-31 -6l-31 2l-26 4l-52 19l-51 24l-24 6l-29 9l-27 6l-22 -4l-23 -15l-22 -18l-21 -12h-22l-27 14l-14 18l-6 19l4 22l12 23z" />
    <glyph glyph-name="Adieresis" unicode="&#xc4;" 
d="M516 461h84l27 2h28l29 -4l64 4l18 -2h33l114 -4l60 4l26 4h31l27 -2l24 6l11 23l-2 24l-7 23l-61 135l-14 24l-33 78l-12 25l-11 26l-10 29l-14 27l-27 78l-14 26l-17 25l-20 53l-14 25l-11 30l-8 29l-12 27l-12 24l-11 25l-16 20h-18l-17 -22l-10 -29l-23 -45l-10 -31
l-10 -26l-16 -25l-60 -129l-12 -29l-8 -28l-11 -27l-8 -27l-12 -24l-14 -25l-13 -28l-16 -54l-14 -24l-25 -54l-12 -28l-8 -25l-27 -53l-8 -27l14 -18l27 -4h30zM1059 330h-86l-29 2h-55l-62 -2l-30 2l-27 2h-27l-30 -4l-56 4h-32l-29 -2l-55 2l-25 -2h-27l-28 4h-29l-33 -2
l-30 -4l-21 -8l-14 -17l-27 -57l-6 -17l-14 -28l-27 -47l-10 -27l-6 -27l-25 -51l-20 -20l-17 -15l-20 -12l-29 -8h-31l-28 10l-17 21l6 26l17 25l20 49l27 55l12 29l8 25l39 75l9 25l22 51l10 27l15 26l10 29l10 25l29 53l12 26l10 25l23 47l24 57l9 27l37 80l14 25l22 53
l9 16l12 31l8 33l39 77l14 25l13 27l10 26l8 25l10 24l13 23l14 29l12 28l10 27l11 25l10 26l12 25l15 26l18 27l14 16l19 9l28 2l58 -4l22 -11l17 -16l16 -21l18 -53l27 -53l25 -59l24 -43l13 -27l8 -27l47 -106l20 -49l25 -52l22 -55l29 -49l10 -29l37 -75l31 -78l29 -54
l12 -26l26 -76l13 -25l16 -26l12 -29l13 -26l12 -29l35 -70l12 -30l16 -52l23 -53l41 -80l6 -24l-14 -21l-27 -6h-31l-28 2l-21 6l-20 15l-19 26l-8 25l-26 49l-33 82l-10 20l-9 25l-14 26l-16 25l-15 14l-22 9l-29 4h-27zM967 1755l24 2l27 -4l24 -10l21 -17l10 -26l2 -31
l-2 -29l-10 -24l-21 -19l-28 -12l-29 -4l-24 8l-23 13l-18 18l-9 27l-2 24l2 27l11 28l20 19zM506 1757l26 4l27 -4l25 -12l22 -19l10 -28l2 -29l-4 -24l-10 -27l-18 -21l-25 -12l-26 -2l-27 6l-27 13l-20 20l-15 29l-4 24l4 25l13 29l22 16z" />
    <glyph glyph-name="Aring" unicode="&#xc5;" 
d="M1090 516l-7 23l-61 135l-14 24l-33 78l-12 25l-11 26l-10 29l-14 27l-27 78l-14 26l-17 25l-20 53l-14 25l-11 30l-8 29l-12 27l-12 24l-11 25l-16 20h-18l-17 -22l-10 -29l-23 -45l-10 -31l-10 -26l-16 -25l-60 -129l-12 -29l-8 -28l-11 -27l-8 -27l-12 -24l-14 -25
l-13 -28l-16 -54l-14 -24l-25 -54l-12 -28l-8 -25l-27 -53l-8 -27l14 -18l27 -4h30l31 -2h84l27 2h28l29 -4l64 4l18 -2h33l114 -4l60 4l26 4h31l27 -2l24 6l11 23zM674 1487l26 -14l31 -9l25 -2l24 2l29 9l27 16l22 20l14 25l5 29l-3 28l-6 27l-12 22l-18 23l-29 18l-31 9
l-26 2l-25 -2l-29 -9l-22 -14l-19 -22l-14 -25l-4 -29l-2 -30l4 -27l12 -25zM1442 6l-27 -6h-31l-28 2l-21 6l-20 15l-19 26l-8 25l-26 49l-33 82l-10 20l-9 25l-14 26l-16 25l-15 14l-22 9l-29 4h-27l-28 2h-86l-29 2h-55l-62 -2l-30 2l-27 2h-27l-30 -4l-56 4h-32l-29 -2
l-55 2l-25 -2h-27l-28 4h-29l-33 -2l-30 -4l-21 -8l-14 -17l-27 -57l-6 -17l-14 -28l-27 -47l-10 -27l-6 -27l-25 -51l-20 -20l-17 -15l-20 -12l-29 -8h-31l-28 10l-17 21l6 26l17 25l20 49l27 55l12 29l8 25l39 75l9 25l22 51l10 27l15 26l10 29l10 25l29 53l12 26l10 25
l23 47l24 57l9 27l37 80l14 25l22 53l9 16l12 31l8 33l39 77l14 25l13 27l10 26l8 25l10 24l13 23l14 29l12 28l10 27l11 25l10 26l24 49l-16 6l-72 58l-16 22l-10 27l-8 27l-7 28l-4 31v31l6 30l11 27l12 23l41 43l22 18l25 12l27 8l61 9h84l31 -4l28 -13l25 -14l25 -16
l20 -19l17 -24l10 -27l12 -59l4 -27v-25l-4 -32l-12 -31l-13 -29l-16 -20l-18 -19l-25 -18l-31 -17l-12 -6l6 -20l10 -29l27 -53l25 -59l24 -43l13 -27l8 -27l47 -106l20 -49l25 -52l22 -55l29 -49l10 -29l37 -75l31 -78l29 -54l12 -26l26 -76l13 -25l16 -26l12 -29l13 -26
l12 -29l35 -70l12 -30l16 -52l23 -53l41 -80l6 -24z" />
    <glyph glyph-name="AE" unicode="&#xc6;" horiz-adv-x="1871" 
d="M913 698l2 35v19l-2 32l-4 29l-2 29l2 26l-2 31v31l-2 31v26l4 57v31l2 31v147l-6 17l-12 -8l-47 -76l-17 -23l-12 -26l-10 -29l-12 -27l-54 -67l-14 -29l-12 -29l-43 -69l-13 -25l-14 -24l-18 -25l-17 -27l-12 -28l-29 -49l-12 -23l-33 -53l-4 -23l10 -14l31 -8l53 -2
h31l29 2h31l26 -4h57l33 2l31 4l29 6l22 18l6 25zM1593 -2l-32 4l-31 -2l-27 -4h-26l-29 2h-82l-37 -2h-18l-33 2l-29 4h-28l-25 -4h-27l-32 2h-33l-17 -2h-32l-29 2l-61 -4l-29 6l-23 23l-6 30l-2 33l4 31l2 14l2 31l-4 31v28l-2 31l2 27v26l-2 29v33l2 28l-2 25l-10 16
l-18 11l-29 4h-86l-29 2l-30 -2h-29l-29 2l-55 -2h-119l-31 -4l-22 -7l-19 -14l-30 -53l-49 -72l-17 -29l-12 -26l-14 -27l-17 -22l-14 -21l-29 -53l-12 -25l-19 -24l-16 -27l-16 -24l-17 -13l-22 -10l-29 -2l-29 2h-30l-27 2l-10 19l8 26l55 94l19 23l16 24l43 78l17 21
l14 22l16 29l17 25l165 266l17 22l12 25l15 27l16 20l16 25l15 26l12 27l12 24l60 93l30 51l19 26l28 47l17 25l14 25l12 24l17 23l31 49l14 24l14 27l33 49l37 70l16 24l25 23l30 16l31 9l29 2h59l31 -2h53l33 2h29l55 -4l27 2h57l31 2h28l29 -2l31 2h30l19 -2h35l61 4h17
l67 -4h53l31 -7l19 -20l6 -25l2 -26l-6 -25l-23 -18l-31 -8l-28 -3h-23l-55 -4h-29l-31 2l-32 -2l-58 4l-28 -4h-84l-60 7l-32 -3l-27 -4h-25l-26 4l-29 -2l-29 -8l-22 -20l-8 -27v-29l-2 -26l-2 -29v-57l4 -29l2 -29v-30l-2 -27v-113l-2 -30l4 -29l10 -18l18 -9l25 -2l31 2
h32l19 3l31 2h26l31 -2l35 -5l49 -2h29l28 4l31 3h61l54 -5h28l29 2l25 5l26 -7l21 -12l10 -16v-78l-10 -14l-21 -11l-26 -4l-27 4l-29 2h-30l-56 -2l-26 2h-27l-31 -4l-30 -2h-27l-25 4l-28 2l-33 -2l-31 2h-28l-33 -2l-19 -2l-30 -2l-27 2l-25 -4l-20 -8l-8 -16l-6 -27
l-2 -29v-30l4 -60v-51l2 -31v-32l-2 -31l-4 -29l2 -29l2 -26v-29l-2 -28l6 -25l12 -14l14 -13l23 -6l31 2h28l33 -2h18l62 2l31 -2h90l18 4h35l59 -4l27 4h55l27 -2l27 2h32l27 -2l27 -10l20 -21l8 -24l-2 -27l-6 -28l-20 -19l-33 -8l-19 -2h-86z" />
    <glyph glyph-name="Ccedilla" unicode="&#xc7;" horiz-adv-x="1452" 
d="M1354 178l-21 -26l-71 -50l-50 -28l-26 -19l-47 -24l-29 -13l-27 -10l-57 -12l-31 -10l-28 -4l-58 -2l-32 -3l-37 5l-11 -50v-18l11 -14l18 -6l25 -5l82 -32l22 -19l19 -24l10 -27l8 -29l4 -28l-2 -29l-6 -31l-6 -26l-13 -25l-18 -27l-18 -20l-23 -16l-27 -13l-26 -10
l-29 -10l-31 -6l-30 -2l-33 4l-31 6l-33 10l-18 4l-31 12l-26 19l-19 16l-14 25l-2 22l8 21l23 18l22 2l19 -4l24 -12l23 -14l24 -13l31 -8l25 -2l26 4l31 10l29 15l24 22l10 23l2 24l-4 29l-14 25l-25 18l-30 10l-27 6l-55 3h-23l-16 6l-10 14l2 20l4 25l12 51l8 47l2 13
h-2l-33 2h-16l-31 6l-28 10l-135 47l-31 12l-53 35l-15 11l-26 16l-48 39l-18 18l-18 21l-33 47l-19 24l-16 25l-12 27l-29 49l-12 24l-21 54l-8 26l-6 29l-4 27l-6 28l-4 29l-2 31v30l-5 31v47l5 33l2 29v28l4 27l18 88l6 27l13 28l14 27l10 26l10 29l45 74l15 27l35 43
l59 61l23 20l26 19l23 14l22 12l47 33l25 13l59 20l27 4l88 25l27 6l55 2l59 8l33 2l29 -2l51 -8l31 -2l30 -4l27 -6l25 -9l28 -8l131 -51l25 -14l43 -37l24 -17l23 -22l14 -25l2 -18l-8 -21l-14 -20l-23 -16l-20 -5l-23 5l-26 14l-41 37l-23 14l-26 14l-25 15l-27 12l-28 6
l-31 8l-57 21l-56 4l-30 -2l-50 4l-32 -2l-64 -8l-80 -19l-26 -8l-103 -45l-47 -31l-24 -20l-58 -64l-20 -24l-15 -25l-30 -41l-13 -26l-10 -29l-10 -25l-23 -47l-6 -30l-4 -31l-4 -25l-2 -26l-4 -31l-2 -29l-4 -30v-29l8 -53l4 -31l6 -31l13 -55l10 -27l8 -28l10 -29
l10 -23l48 -75l18 -23l21 -18l16 -21l22 -20l72 -54l25 -16l26 -12l60 -17l55 -20l29 -6l57 -8l59 -5h25l57 7l25 4l29 2l32 6l27 8l22 8l58 27l16 6l31 14l47 29l23 16l22 19l23 14l20 4l21 -6l20 -14l16 -21l15 -22z" />
    <glyph glyph-name="Egrave" unicode="&#xc8;" horiz-adv-x="1341" 
d="M1112 0l-27 -2l-32 2h-29l-29 -4h-26l-29 -2l-59 2h-19l-88 2l-35 2h-55l-27 2l-61 -2l-31 -2h-28l-29 2h-29l-28 -4l-25 -2l-55 4h-35l-17 -2l-63 2l-27 2l-18 10l-8 17l-4 57v90l2 31v26l-2 27l-2 31l4 28v54l-4 28l-2 29l4 27l2 26l-4 31l-2 33l2 33l4 28l-2 27l-4 26
v27l4 27v28l2 31v31l-2 28v29l2 31l-2 29v55l-2 31l4 53v28l-2 29l-4 29v88l-2 31v26l2 25l2 33v30l6 29l20 20l29 7h90l57 -4h29l31 4l30 2h60l55 -4h31l18 2l33 2h33l29 -2l28 2l58 -4h88l24 2h172l29 -2l27 -9l16 -8l10 -14l8 -47l-2 -25l-10 -16l-16 -13l-29 -6l-29 4
l-30 -2h-35l-19 2h-32l-31 -4h-33l-51 2h-88l-31 2l-84 2l-31 3l-28 -3l-29 -4l-29 2l-24 2l-29 -2h-35l-63 5h-17l-28 -7l-19 -10l-10 -18l-6 -31l-2 -18v-35l4 -62v-170l2 -24v-62l2 -28l4 -29l19 -23l30 -6l60 4l26 -2h25l31 4h59l53 -2h29l57 -4l60 4l84 4h53l90 -6
l31 2h28l31 -2l27 -6l18 -20l10 -25v-29l-12 -28l-20 -19l-27 -4l-29 2h-30l-56 -4l-28 4h-31l-61 -2l-17 -2h-61l-31 4h-29l-59 -6h-51l-31 4l-31 2h-28l-25 -4l-29 2h-82l-26 -4l-19 -10l-12 -19l-6 -22v-86l-2 -29v-28l4 -31l2 -31v-29l-4 -59l2 -31l2 -24v-25l-2 -33
l4 -28l10 -17l19 -8l24 -4h27l57 4h29l84 -2l63 -4l56 4h57l25 2h26l29 -4h145l29 2l25 2l59 -4h61l23 -4l18 -10l11 -17l6 -26l2 -27l-10 -24l-25 -19l-29 -8l-28 2h-27zM659 1853l21 -10l18 -16l39 -51l17 -27l14 -25l14 -22l25 -53l16 -23l6 -24l-18 -13h-51l-27 2
l-18 11l-21 16l-20 20l-17 23l-16 27l-55 69l-47 68l-4 20l14 10h82z" />
    <glyph glyph-name="Eacute" unicode="&#xc9;" horiz-adv-x="1341" 
d="M1112 0l-27 -2l-32 2h-29l-29 -4h-26l-29 -2l-59 2h-19l-88 2l-35 2h-55l-27 2l-61 -2l-31 -2h-28l-29 2h-29l-28 -4l-25 -2l-55 4h-35l-17 -2l-63 2l-27 2l-18 10l-8 17l-4 57v90l2 31v26l-2 27l-2 31l4 28v54l-4 28l-2 29l4 27l2 26l-4 31l-2 33l2 33l4 28l-2 27l-4 26
v27l4 27v28l2 31v31l-2 28v29l2 31l-2 29v55l-2 31l4 53v28l-2 29l-4 29v88l-2 31v26l2 25l2 33v30l6 29l20 20l29 7h90l57 -4h29l31 4l30 2h60l55 -4h31l18 2l33 2h33l29 -2l28 2l58 -4h88l24 2h172l29 -2l27 -9l16 -8l10 -14l8 -47l-2 -25l-10 -16l-16 -13l-29 -6l-29 4
l-30 -2h-35l-19 2h-32l-31 -4h-33l-51 2h-88l-31 2l-84 2l-31 3l-28 -3l-29 -4l-29 2l-24 2l-29 -2h-35l-63 5h-17l-28 -7l-19 -10l-10 -18l-6 -31l-2 -18v-35l4 -62v-170l2 -24v-62l2 -28l4 -29l19 -23l30 -6l60 4l26 -2h25l31 4h59l53 -2h29l57 -4l60 4l84 4h53l90 -6
l31 2h28l31 -2l27 -6l18 -20l10 -25v-29l-12 -28l-20 -19l-27 -4l-29 2h-30l-56 -4l-28 4h-31l-61 -2l-17 -2h-61l-31 4h-29l-59 -6h-51l-31 4l-31 2h-28l-25 -4l-29 2h-82l-26 -4l-19 -10l-12 -19l-6 -22v-86l-2 -29v-28l4 -31l2 -31v-29l-4 -59l2 -31l2 -24v-25l-2 -33
l4 -28l10 -17l19 -8l24 -4h27l57 4h29l84 -2l63 -4l56 4h57l25 2h26l29 -4h145l29 2l25 2l59 -4h61l23 -4l18 -10l11 -17l6 -26l2 -27l-10 -24l-25 -19l-29 -8l-28 2h-27zM950 1829l-63 -100l-19 -25l-39 -43l-18 -25l-23 -22l-22 -15l-23 -8l-26 -4l-29 4l-20 11l4 20
l12 27l31 49l14 31l33 51l14 24l19 19l20 14l19 8l26 8l31 2l55 -4l12 -4z" />
    <glyph glyph-name="Ecircumflex" unicode="&#xca;" horiz-adv-x="1341" 
d="M1112 0l-27 -2l-32 2h-29l-29 -4h-26l-29 -2l-59 2h-19l-88 2l-35 2h-55l-27 2l-61 -2l-31 -2h-28l-29 2h-29l-28 -4l-25 -2l-55 4h-35l-17 -2l-63 2l-27 2l-18 10l-8 17l-4 57v90l2 31v26l-2 27l-2 31l4 28v54l-4 28l-2 29l4 27l2 26l-4 31l-2 33l2 33l4 28l-2 27l-4 26
v27l4 27v28l2 31v31l-2 28v29l2 31l-2 29v55l-2 31l4 53v28l-2 29l-4 29v88l-2 31v26l2 25l2 33v30l6 29l20 20l29 7h90l57 -4h29l31 4l30 2h60l55 -4h31l18 2l33 2h33l29 -2l28 2l58 -4h88l24 2h172l29 -2l27 -9l16 -8l10 -14l8 -47l-2 -25l-10 -16l-16 -13l-29 -6l-29 4
l-30 -2h-35l-19 2h-32l-31 -4h-33l-51 2h-88l-31 2l-84 2l-31 3l-28 -3l-29 -4l-29 2l-24 2l-29 -2h-35l-63 5h-17l-28 -7l-19 -10l-10 -18l-6 -31l-2 -18v-35l4 -62v-170l2 -24v-62l2 -28l4 -29l19 -23l30 -6l60 4l26 -2h25l31 4h59l53 -2h29l57 -4l60 4l84 4h53l90 -6
l31 2h28l31 -2l27 -6l18 -20l10 -25v-29l-12 -28l-20 -19l-27 -4l-29 2h-30l-56 -4l-28 4h-31l-61 -2l-17 -2h-61l-31 4h-29l-59 -6h-51l-31 4l-31 2h-28l-25 -4l-29 2h-82l-26 -4l-19 -10l-12 -19l-6 -22v-86l-2 -29v-28l4 -31l2 -31v-29l-4 -59l2 -31l2 -24v-25l-2 -33
l4 -28l10 -17l19 -8l24 -4h27l57 4h29l84 -2l63 -4l56 4h57l25 2h26l29 -4h145l29 2l25 2l59 -4h61l23 -4l18 -10l11 -17l6 -26l2 -27l-10 -24l-25 -19l-29 -8l-28 2h-27zM895 1726l20 -22l23 -21l45 -34l64 -64l10 -20l-21 -13l-28 -2l-29 2l-33 4l-26 7l-19 12l-20 20
l-21 19l-49 37l-23 20l-20 23l-20 12l-19 2l-20 -4l-68 -49l-14 -13l-13 -14l-41 -33l-22 -16l-27 -12l-28 -8l-25 -5l-59 2l-21 7l-2 12l14 16l64 49l45 41l20 25l17 18l20 19l25 20l39 39l24 17l23 10l25 6l20 4l23 -2l30 -12l31 -19l39 -32z" />
    <glyph glyph-name="Edieresis" unicode="&#xcb;" horiz-adv-x="1341" 
d="M1112 0l-27 -2l-32 2h-29l-29 -4h-26l-29 -2l-59 2h-19l-88 2l-35 2h-55l-27 2l-61 -2l-31 -2h-28l-29 2h-29l-28 -4l-25 -2l-55 4h-35l-17 -2l-63 2l-27 2l-18 10l-8 17l-4 57v90l2 31v26l-2 27l-2 31l4 28v54l-4 28l-2 29l4 27l2 26l-4 31l-2 33l2 33l4 28l-2 27l-4 26
v27l4 27v28l2 31v31l-2 28v29l2 31l-2 29v55l-2 31l4 53v28l-2 29l-4 29v88l-2 31v26l2 25l2 33v30l6 29l20 20l29 7h90l57 -4h29l31 4l30 2h60l55 -4h31l18 2l33 2h33l29 -2l28 2l58 -4h88l24 2h172l29 -2l27 -9l16 -8l10 -14l8 -47l-2 -25l-10 -16l-16 -13l-29 -6l-29 4
l-30 -2h-35l-19 2h-32l-31 -4h-33l-51 2h-88l-31 2l-84 2l-31 3l-28 -3l-29 -4l-29 2l-24 2l-29 -2h-35l-63 5h-17l-28 -7l-19 -10l-10 -18l-6 -31l-2 -18v-35l4 -62v-170l2 -24v-62l2 -28l4 -29l19 -23l30 -6l60 4l26 -2h25l31 4h59l53 -2h29l57 -4l60 4l84 4h53l90 -6
l31 2h28l31 -2l27 -6l18 -20l10 -25v-29l-12 -28l-20 -19l-27 -4l-29 2h-30l-56 -4l-28 4h-31l-61 -2l-17 -2h-61l-31 4h-29l-59 -6h-51l-31 4l-31 2h-28l-25 -4l-29 2h-82l-26 -4l-19 -10l-12 -19l-6 -22v-86l-2 -29v-28l4 -31l2 -31v-29l-4 -59l2 -31l2 -24v-25l-2 -33
l4 -28l10 -17l19 -8l24 -4h27l57 4h29l84 -2l63 -4l56 4h57l25 2h26l29 -4h145l29 2l25 2l59 -4h61l23 -4l18 -10l11 -17l6 -26l2 -27l-10 -24l-25 -19l-29 -8l-28 2h-27zM946 1755l25 2l26 -4l25 -10l20 -17l11 -26l2 -31l-2 -29l-11 -24l-20 -19l-29 -12l-28 -4l-25 8
l-22 13l-19 18l-8 27l-2 24l2 27l10 28l21 19zM485 1757l27 4l27 -4l24 -12l23 -19l10 -28l2 -29l-4 -24l-10 -27l-19 -21l-24 -12l-27 -2l-27 6l-26 13l-21 20l-14 29l-4 24l4 25l12 29l23 16z" />
    <glyph glyph-name="Igrave" unicode="&#xcc;" horiz-adv-x="540" 
d="M197 115l4 30l-2 31l-2 27l4 53v31l-2 26v29l-2 31l-2 28l2 29v57l6 58l-6 53l2 31v112l-2 29l4 31v30l-4 31v27l2 29v30l-2 31l2 27v26l-2 27v63l2 19l2 30l-4 58l2 31v114l4 27l8 18l16 11l27 4h29l28 -4l19 -11l8 -20l4 -27l2 -26l-4 -52v-88l-2 -26v-62l2 -26l4 -29
l-2 -31l-4 -28v-31l4 -29l-2 -29v-26l4 -60l-2 -26l-4 -29v-31l2 -30v-86l-2 -33v-14l2 -33l4 -33l2 -31l-2 -30l-4 -52v-55l-2 -31v-32l4 -31l2 -29v-51l-4 -27v-32l4 -58l-8 -30l-23 -23l-30 -6h-29l-25 4l-14 10l-12 17l-4 28l-2 31v29zM193 1853l20 -10l18 -16l39 -51
l17 -27l14 -25l14 -22l25 -53l16 -23l6 -24l-18 -13h-51l-27 2l-18 11l-21 16l-20 20l-17 23l-16 27l-55 69l-47 68l-4 20l14 10h82z" />
    <glyph glyph-name="Iacute" unicode="&#xcd;" horiz-adv-x="540" 
d="M197 115l4 30l-2 31l-2 27l4 53v31l-2 26v29l-2 31l-2 28l2 29v57l6 58l-6 53l2 31v112l-2 29l4 31v30l-4 31v27l2 29v30l-2 31l2 27v26l-2 27v63l2 19l2 30l-4 58l2 31v114l4 27l8 18l16 11l27 4h29l28 -4l19 -11l8 -20l4 -27l2 -26l-4 -52v-88l-2 -26v-62l2 -26l4 -29
l-2 -31l-4 -28v-31l4 -29l-2 -29v-26l4 -60l-2 -26l-4 -29v-31l2 -30v-86l-2 -33v-14l2 -33l4 -33l2 -31l-2 -30l-4 -52v-55l-2 -31v-32l4 -31l2 -29v-51l-4 -27v-32l4 -58l-8 -30l-23 -23l-30 -6h-29l-25 4l-14 10l-12 17l-4 28l-2 31v29zM492 1847l-72 -118l-19 -25
l-39 -43l-18 -25l-22 -22l-23 -15l-23 -8l-26 -4l-29 4l-20 11l4 20l12 27l31 49l14 31l17 24l30 51l19 19l20 14l19 8l26 8l31 2l55 -4z" />
    <glyph glyph-name="Icircumflex" unicode="&#xce;" horiz-adv-x="540" 
d="M197 115l4 30l-2 31l-2 27l4 53v31l-2 26v29l-2 31l-2 28l2 29v57l6 58l-6 53l2 31v112l-2 29l4 31v30l-4 31v27l2 29v30l-2 31l2 27v26l-2 27v63l2 19l2 30l-4 58l2 31v114l4 27l8 18l16 11l27 4h29l28 -4l19 -11l8 -20l4 -27l2 -26l-4 -52v-88l-2 -26v-62l2 -26l4 -29
l-2 -31l-4 -28v-31l4 -29l-2 -29v-26l4 -60l-2 -26l-4 -29v-31l2 -30v-86l-2 -33v-14l2 -33l4 -33l2 -31l-2 -30l-4 -52v-55l-2 -31v-32l4 -31l2 -29v-51l-4 -27v-32l4 -58l-8 -30l-23 -23l-30 -6h-29l-25 4l-14 10l-12 17l-4 28l-2 31v29zM365 1788l106 -105l45 -34l64 -64
l10 -20l-21 -13l-28 -2l-29 2l-33 4l-26 7l-19 12l-20 20l-21 19l-49 37l-22 20l-21 23l-20 12l-19 2l-20 -4l-68 -49l-14 -13l-13 -14l-41 -33l-22 -16l-27 -12l-28 -8l-25 -5l-59 2l-21 7l-2 12l15 16l22 19l21 14l65 57l37 43l20 19l25 20l39 39l24 17l23 10l25 6l20 4
l23 -2l30 -12l31 -19z" />
    <glyph glyph-name="Idieresis" unicode="&#xcf;" horiz-adv-x="540" 
d="M197 115l4 30l-2 31l-2 27l4 53v31l-2 26v29l-2 31l-2 28l2 29v57l6 58l-6 53l2 31v112l-2 29l4 31v30l-4 31v27l2 29v30l-2 31l2 27v26l-2 27v63l2 19l2 30l-4 58l2 31v114l4 27l8 18l16 11l27 4h29l28 -4l19 -11l8 -20l4 -27l2 -26l-4 -52v-88l-2 -26v-62l2 -26l4 -29
l-2 -31l-4 -28v-31l4 -29l-2 -29v-26l4 -60l-2 -26l-4 -29v-31l2 -30v-86l-2 -33v-14l2 -33l4 -33l2 -31l-2 -30l-4 -52v-55l-2 -31v-32l4 -31l2 -29v-51l-4 -27v-32l4 -58l-8 -30l-23 -23l-30 -6h-29l-25 4l-14 10l-12 17l-4 28l-2 31v29zM410 1743l28 -2l23 -8l20 -15
l19 -24l2 -29l-4 -29l-13 -26l-22 -17l-27 -12l-28 -2l-25 10l-23 21l-18 26l-2 31l6 29l10 24l25 17zM98 1743l29 2l27 -8l20 -17l14 -26l5 -29l-5 -29l-14 -28l-20 -19l-25 -6l-31 -2l-26 8l-21 19l-16 24l-6 31l2 33l12 26l27 15z" />
    <glyph glyph-name="Eth" unicode="&#xd0;" horiz-adv-x="1544" 
d="M346 647v-2l2 -29l4 -26l2 -33v-18l-2 -33v-178l-2 -25l4 -53l-4 -29l-2 -28l6 -29l11 -19l16 -10l27 -6l30 2l27 4h24l58 -4h51l35 2h29l28 -2l25 2l24 4l60 -2l112 25l50 18l28 12l51 31l27 19l18 18l19 16l39 39l53 66l12 24l11 29l26 49l17 58l12 49l6 28v31l4 29
l4 33l2 24l-2 25l-6 30l-2 27l-4 31l-6 28l-19 58l-12 26l-14 25l-23 55l-31 47l-16 21l-39 43l-67 57l-23 17l-27 12l-26 10l-27 15l-28 10l-33 6l-29 6l-25 6l-30 4l-31 6l-31 2l-16 -2h-31l-59 -2h-31l-29 4h-26l-29 -2h-115l-24 -8l-19 -22l-6 -27l-2 -27l2 -32l-4 -54
v-28l2 -29v-31l-2 -30l4 -54v-170l-2 -24h10l60 4h27l26 -4l29 -2h35l16 2l33 2h28l29 -2l29 -8l24 -17l9 -28l-9 -31l-20 -25l-27 -4l-55 4l-64 -4h-86l-26 -2h-74zM1436 698l-2 -26l-9 -58l-4 -28l-12 -58l-4 -28l-8 -29l-13 -25l-10 -24l-10 -27l-27 -51l-10 -27l-14 -24
l-43 -47l-15 -21l-36 -39l-21 -18l-20 -21l-21 -18l-24 -18l-27 -15l-27 -10l-47 -27l-28 -12l-29 -10l-60 -12l-28 -9l-27 -6l-31 -6l-32 -4h-29l-31 -2l-24 2h-23l-33 -2h-59l-29 -2h-106l-88 6l-29 -2l-55 -6l-27 2l-28 10l-21 23l-4 30l-4 56l4 55v27l-2 30l-2 27l2 27
v30l-2 31v31l-2 26l4 60v28l2 29v29l-2 28v29l2 25v26l-23 -4h-28l-31 4l-31 2l-26 4l-19 21l-6 29v22l8 17l17 12l30 4l33 -2h19l32 2h23l2 12l2 25l-2 26l-4 33l-2 29l4 57l-2 29v26l2 31l-2 31l-2 27l4 26l2 25l-2 28v88l-2 31v35l-2 18l2 33l8 29l21 20l28 11h60l51 4
l28 -2l31 -4l25 -2h61l62 4h47l61 -4h111l28 -3l29 -4l31 -8l29 -4l26 -8l53 -23l33 -8l27 -8l22 -16l25 -15l26 -12l50 -37l20 -18l57 -62l23 -20l61 -97l39 -77l11 -25l6 -24l6 -29l8 -31l8 -27l8 -57l3 -26l4 -29l2 -31v-33z" />
    <glyph glyph-name="Ntilde" unicode="&#xd1;" horiz-adv-x="1550" 
d="M1214 412l-4 55v53l-4 29v29l4 51v114l-2 27l-2 33l2 28v89l2 24v27l-2 30v29l2 29v59l-6 58l4 59l4 53l-4 29l-4 61l8 29l23 18l33 5h30l27 -7l18 -20l9 -29l2 -28v-29l-6 -29v-26l4 -31v-201l2 -24l2 -27v-31l-4 -61l2 -27v-29l-4 -61l2 -29l-2 -26l-4 -25l2 -28l2 -33
l-2 -29l2 -25v-26l-2 -31v-112l4 -60v-92l-2 -29l-2 -26l2 -27l2 -31l-2 -30v-29l2 -29l-9 -26l-20 -19h-31l-22 6l-37 29l-19 25l-16 24l-78 84l-30 43l-39 47l-19 21l-16 22l-21 21l-16 20l-16 23l-21 26l-37 39l-35 45l-14 25l-41 45l-16 22l-49 68l-19 23l-20 20l-35 43
l-39 43l-16 25l-19 22l-47 66l-41 43l-16 22l-54 72l-16 20l-37 39l-18 25l-19 16l-12 -4l-2 -22v-29l-2 -27l2 -26l2 -29l-2 -31v-32l-2 -27v-25l2 -26l2 -29l-2 -31l2 -28v-29l2 -31v-26l-4 -56v-34l4 -31l2 -27v-28l-4 -56v-61l-2 -29l4 -61v-113l-2 -31v-86l-8 -30
l-23 -19l-28 -6l-29 -4l-29 8l-20 21l-4 26v29l-4 61v29l2 31l-4 53l2 29l4 30l2 29l-4 29l-2 30v29l2 31l2 26v25l-2 29v28l2 29l-2 27v59l-2 31l2 31l2 26l-2 25l-2 30l-2 35l-2 27l2 22l4 58l-2 33v30l2 27l4 26l-4 54l-4 30v64l4 57l-2 29v27l4 53l10 16l18 8l25 7
l27 -11l24 -16l23 -19l18 -22l29 -45l37 -41l32 -45l23 -21l37 -45l14 -22l17 -23l18 -22l16 -23l21 -22l18 -23l19 -20l16 -25l23 -22l65 -91l57 -65l54 -70l69 -92l21 -18l51 -72l72 -88l18 -20l35 -46l20 -20l31 -47l21 -23l18 -12l12 2l7 23v59zM549 1724l20 21l23 14
l29 10l30 5l31 -2l23 -5l49 -22l24 -8l29 -8l29 -11l24 -12l23 -4l24 8l23 14l22 17l19 8l22 2l25 -10l14 -15l6 -20l-4 -29l-12 -26l-37 -37l-27 -17l-14 -6l-31 -6l-30 2l-27 4l-51 19l-27 12l-24 12l-25 6l-29 9l-26 6l-23 -4l-22 -15l-23 -18l-20 -12h-23l-26 14l-15 18
l-6 19l4 22l12 23z" />
    <glyph glyph-name="Ograve" unicode="&#xd2;" horiz-adv-x="1665" 
d="M260 600l4 -29l6 -28l9 -29l20 -53l10 -29l10 -26l15 -25l12 -23l14 -22l17 -23l41 -45l24 -22l13 -15l24 -20l49 -29l52 -24l26 -11l27 -8l29 -6l26 -8l27 -4l30 -4l29 -6h27l28 2h62l31 2l57 8l51 16l31 8l51 21l25 12l69 51l23 19l41 41l30 47l17 20l51 105l10 24
l8 29l17 53l2 29l6 31l4 26v33l2 27l-2 24l-4 31l-4 25l-4 59l-8 31l-11 26l-4 29l-8 25l-12 28l-10 27l-13 24l-18 21l-19 25l-30 47l-19 22l-24 23l-41 32l-99 60l-26 8l-53 21l-31 8l-31 4l-24 4h-117l-29 -2l-61 -2l-31 -6l-29 -11l-55 -16l-25 -8l-22 -12l-29 -13
l-26 -14l-23 -14l-45 -41l-18 -23l-19 -18l-55 -70l-14 -20l-13 -25l-20 -57l-17 -58l-12 -51l-6 -29l-4 -30v-64l-2 -22l-2 -25l4 -33l6 -28zM946 1448h29l29 -6l28 -8l29 -11l33 -8l73 -31l50 -24l98 -68l57 -53l68 -94l14 -25l10 -26l25 -52l8 -26l12 -29l13 -24l16 -56
l6 -24l4 -29l2 -33l4 -26l2 -27l3 -31v-49l-3 -31l-4 -28l-2 -33l-2 -27l-4 -22l-4 -29l-8 -31l-12 -30l-11 -25l-20 -53l-8 -25l-27 -47l-18 -26l-15 -25l-16 -20l-14 -23l-19 -25l-65 -57l-23 -16l-22 -21l-121 -59l-84 -31l-27 -6l-26 -8l-27 -6l-29 -4l-55 -3h-96
l-17 -2h-30l-60 9l-86 16l-78 31l-28 12l-47 25l-27 12l-25 14l-22 17l-23 20l-20 21l-21 18l-20 20l-19 23l-61 92l-51 107l-10 24l-9 27l-12 53l-6 31l-8 28l-6 25l-5 27l-4 63v27l2 24l5 29l4 27l4 55l6 29l27 108l20 58l12 26l29 53l35 50l14 22l16 19l21 18l18 22
l23 23l22 18l21 15l39 37l26 16l56 23l24 6l78 35l25 6l28 4l29 6h59l60 4l51 4h33l29 -4zM758 1853l20 -10l19 -16l39 -51l30 -52l15 -22l24 -53l17 -23l6 -24l-19 -13h-51l-27 2l-18 11l-20 16l-21 20l-33 50l-34 45l-21 24l-47 68l-4 20l14 10h82z" />
    <glyph glyph-name="Oacute" unicode="&#xd3;" horiz-adv-x="1665" 
d="M260 600l4 -29l6 -28l9 -29l20 -53l10 -29l10 -26l15 -25l12 -23l14 -22l17 -23l41 -45l24 -22l13 -15l24 -20l49 -29l52 -24l26 -11l27 -8l29 -6l26 -8l27 -4l30 -4l29 -6h27l28 2h62l31 2l57 8l51 16l31 8l51 21l25 12l69 51l23 19l41 41l30 47l17 20l51 105l10 24
l8 29l17 53l2 29l6 31l4 26v33l2 27l-2 24l-4 31l-4 25l-4 59l-8 31l-11 26l-4 29l-8 25l-12 28l-10 27l-13 24l-18 21l-19 25l-30 47l-19 22l-24 23l-41 32l-99 60l-26 8l-53 21l-31 8l-31 4l-24 4h-117l-29 -2l-61 -2l-31 -6l-29 -11l-55 -16l-25 -8l-22 -12l-29 -13
l-26 -14l-23 -14l-45 -41l-18 -23l-19 -18l-55 -70l-14 -20l-13 -25l-20 -57l-17 -58l-12 -51l-6 -29l-4 -30v-64l-2 -22l-2 -25l4 -33l6 -28zM946 1448h29l29 -6l28 -8l29 -11l33 -8l73 -31l50 -24l98 -68l57 -53l68 -94l14 -25l10 -26l25 -52l8 -26l12 -29l13 -24l16 -56
l6 -24l4 -29l2 -33l4 -26l2 -27l3 -31v-49l-3 -31l-4 -28l-2 -33l-2 -27l-4 -22l-4 -29l-8 -31l-12 -30l-11 -25l-20 -53l-8 -25l-27 -47l-18 -26l-15 -25l-16 -20l-14 -23l-19 -25l-65 -57l-23 -16l-22 -21l-121 -59l-84 -31l-27 -6l-26 -8l-27 -6l-29 -4l-55 -3h-96
l-17 -2h-30l-60 9l-86 16l-78 31l-28 12l-47 25l-27 12l-25 14l-22 17l-23 20l-20 21l-21 18l-20 20l-19 23l-61 92l-51 107l-10 24l-9 27l-12 53l-6 31l-8 28l-6 25l-5 27l-4 63v27l2 24l5 29l4 27l4 55l6 29l27 108l20 58l12 26l29 53l35 50l14 22l16 19l21 18l18 22
l23 23l22 18l21 15l39 37l26 16l56 23l24 6l78 35l25 6l28 4l29 6h59l60 4l51 4h33l29 -4zM1049 1829l-64 -100l-18 -25l-21 -21l-37 -47l-22 -22l-23 -15l-22 -8l-27 -4l-29 4l-20 11l4 20l12 27l15 22l16 27l14 31l17 24l30 51l19 19l20 14l19 8l26 8l31 2l55 -4l13 -4z
" />
    <glyph glyph-name="Ocircumflex" unicode="&#xd4;" horiz-adv-x="1665" 
d="M260 600l4 -29l6 -28l9 -29l20 -53l10 -29l10 -26l15 -25l12 -23l14 -22l17 -23l41 -45l24 -22l13 -15l24 -20l49 -29l52 -24l26 -11l27 -8l29 -6l26 -8l27 -4l30 -4l29 -6h27l28 2h62l31 2l57 8l51 16l31 8l51 21l25 12l69 51l23 19l41 41l30 47l17 20l51 105l10 24
l8 29l17 53l2 29l6 31l4 26v33l2 27l-2 24l-4 31l-4 25l-4 59l-8 31l-11 26l-4 29l-8 25l-12 28l-10 27l-13 24l-18 21l-19 25l-30 47l-19 22l-24 23l-41 32l-99 60l-26 8l-53 21l-31 8l-31 4l-24 4h-117l-29 -2l-61 -2l-31 -6l-29 -11l-55 -16l-25 -8l-22 -12l-29 -13
l-26 -14l-23 -14l-45 -41l-18 -23l-19 -18l-55 -70l-14 -20l-13 -25l-20 -57l-17 -58l-12 -51l-6 -29l-4 -30v-64l-2 -22l-2 -25l4 -33l6 -28zM946 1448h29l29 -6l28 -8l29 -11l33 -8l73 -31l50 -24l98 -68l57 -53l68 -94l14 -25l10 -26l25 -52l8 -26l12 -29l13 -24l16 -56
l6 -24l4 -29l2 -33l4 -26l2 -27l3 -31v-49l-3 -31l-4 -28l-2 -33l-2 -27l-4 -22l-4 -29l-8 -31l-12 -30l-11 -25l-20 -53l-8 -25l-27 -47l-18 -26l-15 -25l-16 -20l-14 -23l-19 -25l-65 -57l-23 -16l-22 -21l-121 -59l-84 -31l-27 -6l-26 -8l-27 -6l-29 -4l-55 -3h-96
l-17 -2h-30l-60 9l-86 16l-78 31l-28 12l-47 25l-27 12l-25 14l-22 17l-23 20l-20 21l-21 18l-20 20l-19 23l-61 92l-51 107l-10 24l-9 27l-12 53l-6 31l-8 28l-6 25l-5 27l-4 63v27l2 24l5 29l4 27l4 55l6 29l27 108l20 58l12 26l29 53l35 50l14 22l16 19l21 18l18 22
l23 23l22 18l21 15l39 37l26 16l56 23l24 6l78 35l25 6l28 4l29 6h59l60 4l51 4h33l29 -4zM930 1788l106 -105l45 -34l64 -64l10 -20l-20 -13l-29 -2l-29 2l-33 4l-26 7l-19 12l-20 20l-21 19l-49 37l-22 20l-21 23l-20 12l-19 2l-20 -4l-68 -49l-14 -13l-12 -14l-41 -33
l-23 -16l-26 -12l-29 -8l-25 -5l-59 2l-21 7l-2 12l15 16l22 19l21 14l65 57l37 43l45 39l39 39l25 17l22 10l25 6l20 4l23 -2l31 -12l30 -19z" />
    <glyph glyph-name="Otilde" unicode="&#xd5;" horiz-adv-x="1665" 
d="M260 600l4 -29l6 -28l9 -29l20 -53l10 -29l10 -26l15 -25l12 -23l14 -22l17 -23l41 -45l24 -22l13 -15l24 -20l49 -29l52 -24l26 -11l27 -8l29 -6l26 -8l27 -4l30 -4l29 -6h27l28 2h62l31 2l57 8l51 16l31 8l51 21l25 12l69 51l23 19l41 41l30 47l17 20l51 105l10 24
l8 29l17 53l2 29l6 31l4 26v33l2 27l-2 24l-4 31l-4 25l-4 59l-8 31l-11 26l-4 29l-8 25l-12 28l-10 27l-13 24l-18 21l-19 25l-30 47l-19 22l-24 23l-41 32l-99 60l-26 8l-53 21l-31 8l-31 4l-24 4h-117l-29 -2l-61 -2l-31 -6l-29 -11l-55 -16l-25 -8l-22 -12l-29 -13
l-26 -14l-23 -14l-45 -41l-18 -23l-19 -18l-55 -70l-14 -20l-13 -25l-20 -57l-17 -58l-12 -51l-6 -29l-4 -30v-64l-2 -22l-2 -25l4 -33l6 -28zM946 1448h29l29 -6l28 -8l29 -11l33 -8l73 -31l50 -24l98 -68l57 -53l68 -94l14 -25l10 -26l25 -52l8 -26l12 -29l13 -24l16 -56
l6 -24l4 -29l2 -33l4 -26l2 -27l3 -31v-49l-3 -31l-4 -28l-2 -33l-2 -27l-4 -22l-4 -29l-8 -31l-12 -30l-11 -25l-20 -53l-8 -25l-27 -47l-18 -26l-15 -25l-16 -20l-14 -23l-19 -25l-65 -57l-23 -16l-22 -21l-121 -59l-84 -31l-27 -6l-26 -8l-27 -6l-29 -4l-55 -3h-96
l-17 -2h-30l-60 9l-86 16l-78 31l-28 12l-47 25l-27 12l-25 14l-22 17l-23 20l-20 21l-21 18l-20 20l-19 23l-61 92l-51 107l-10 24l-9 27l-12 53l-6 31l-8 28l-6 25l-5 27l-4 63v27l2 24l5 29l4 27l4 55l6 29l27 108l20 58l12 26l29 53l35 50l14 22l16 19l21 18l18 22
l23 23l22 18l21 15l39 37l26 16l56 23l24 6l78 35l25 6l28 4l29 6h59l60 4l51 4h33l29 -4zM606 1724l21 21l22 14l29 10l31 5l30 -2l23 -5l49 -22l25 -8l28 -8l29 -11l25 -12l22 -4l25 8l22 14l23 17l18 8l23 2l24 -10l15 -15l6 -20l-4 -29l-13 -26l-37 -37l-26 -17l-15 -6
l-30 -6l-31 2l-27 4l-51 19l-51 24l-25 6l-28 9l-27 6l-22 -4l-23 -15l-22 -18l-21 -12h-22l-27 14l-14 18l-7 19l5 22l12 23z" />
    <glyph glyph-name="Odieresis" unicode="&#xd6;" horiz-adv-x="1665" 
d="M260 600l4 -29l6 -28l9 -29l20 -53l10 -29l10 -26l15 -25l12 -23l14 -22l17 -23l41 -45l24 -22l13 -15l24 -20l49 -29l52 -24l26 -11l27 -8l29 -6l26 -8l27 -4l30 -4l29 -6h27l28 2h62l31 2l57 8l51 16l31 8l51 21l25 12l69 51l23 19l41 41l30 47l17 20l51 105l10 24
l8 29l17 53l2 29l6 31l4 26v33l2 27l-2 24l-4 31l-4 25l-4 59l-8 31l-11 26l-4 29l-8 25l-12 28l-10 27l-13 24l-18 21l-19 25l-30 47l-19 22l-24 23l-41 32l-99 60l-26 8l-53 21l-31 8l-31 4l-24 4h-117l-29 -2l-61 -2l-31 -6l-29 -11l-55 -16l-25 -8l-22 -12l-29 -13
l-26 -14l-23 -14l-45 -41l-18 -23l-19 -18l-55 -70l-14 -20l-13 -25l-20 -57l-17 -58l-12 -51l-6 -29l-4 -30v-64l-2 -22l-2 -25l4 -33l6 -28zM946 1448h29l29 -6l28 -8l29 -11l33 -8l73 -31l50 -24l98 -68l57 -53l68 -94l14 -25l10 -26l25 -52l8 -26l12 -29l13 -24l16 -56
l6 -24l4 -29l2 -33l4 -26l2 -27l3 -31v-49l-3 -31l-4 -28l-2 -33l-2 -27l-4 -22l-4 -29l-8 -31l-12 -30l-11 -25l-20 -53l-8 -25l-27 -47l-18 -26l-15 -25l-16 -20l-14 -23l-19 -25l-65 -57l-23 -16l-22 -21l-121 -59l-84 -31l-27 -6l-26 -8l-27 -6l-29 -4l-55 -3h-96
l-17 -2h-30l-60 9l-86 16l-78 31l-28 12l-47 25l-27 12l-25 14l-22 17l-23 20l-20 21l-21 18l-20 20l-19 23l-61 92l-51 107l-10 24l-9 27l-12 53l-6 31l-8 28l-6 25l-5 27l-4 63v27l2 24l5 29l4 27l4 55l6 29l27 108l20 58l12 26l29 53l35 50l14 22l16 19l21 18l18 22
l23 23l22 18l21 15l39 37l26 16l56 23l24 6l78 35l25 6l28 4l29 6h59l60 4l51 4h33l29 -4zM1044 1755l25 2l27 -4l24 -10l21 -17l10 -26l2 -31l-2 -29l-10 -24l-21 -19l-28 -12l-29 -4l-25 8l-22 13l-19 18l-8 27l-2 24l2 27l10 28l21 19zM584 1757l26 4l27 -4l25 -12
l22 -19l10 -28l2 -29l-4 -24l-10 -27l-18 -21l-25 -12l-27 -2l-26 6l-27 13l-20 20l-15 29l-4 24l4 25l13 29l22 16z" />
    <glyph glyph-name="multiply" unicode="&#xd7;" horiz-adv-x="935" 
d="M522 805l68 59l57 62l41 35l19 6l18 -4l23 -17l16 -28l2 -31l-16 -29l-25 -22l-18 -21l-103 -96l-20 -23l-11 -22l-2 -21l4 -16l17 -23l37 -34l43 -48l43 -38l39 -41l18 -25l2 -31l-16 -26l-27 -17l-20 -8l-21 4l-20 17l-84 84l-19 22l-20 21l-23 20l-20 21l-21 16l-18 6
l-21 -6l-47 -39l-16 -18l-21 -21l-24 -20l-21 -21l-16 -22l-18 -21l-43 -37l-21 -6l-20 6l-23 19l-14 28v33l18 25l25 20l53 60l20 20l23 18l45 46l12 20l6 16l-4 23l-18 22l-43 39l-72 74l-22 25l-23 20l-14 23l2 26l20 29l27 20h31l24 -16l41 -39l76 -80l62 -55l18 -6
l18 6l19 16z" />
    <glyph glyph-name="Oslash" unicode="&#xd8;" horiz-adv-x="1665" 
d="M1413 717l-4 55l-4 27l-2 26l-2 31l-4 29l-29 78l-8 26l-43 82l-10 23l-15 24l-18 25l-21 20l-20 17l-23 16l-6 6l-24 -45l-15 -22l-24 -48l-86 -149l-33 -51l-27 -51l-16 -21l-74 -129l-14 -27l-17 -26l-36 -70l-62 -102l-43 -74l-12 -27l-16 -24l-17 -23l-24 -51
l-17 -22l-16 -25l-13 -29l-16 -24l-8 -15l10 -4l31 -8l29 -6l28 -4l60 -12l26 -7h51l25 5l33 4l31 2l26 -2l31 6l86 26l47 23l92 61l51 41l15 13l22 24l19 25l41 80l8 26l30 72l13 59l4 25l4 29l6 28l2 31zM422 272l37 -39l26 -20l19 27l41 75l30 47l27 52l12 26l13 25
l16 22l45 82l12 25l29 49l33 45l14 25l10 24l27 54l18 20l17 23l16 26l15 29l10 26l12 25l17 25l14 24l12 23l33 51l12 24l12 29l15 25l16 20l31 49l27 52l6 10l-62 24l-28 9l-25 6l-25 4l-32 2h-31l-62 4h-30l-25 -6h-26l-31 -2l-33 -4l-31 -11l-26 -8l-23 -6l-28 -12
l-29 -15l-27 -12l-14 -8l-29 -14l-45 -39l-80 -88l-28 -52l-15 -24l-10 -25l-10 -28l-12 -27l-9 -29l-6 -28l-4 -31l-2 -27l-12 -84l-2 -30l2 -31l8 -57l22 -111l9 -27l10 -26l14 -25l21 -51l14 -25l35 -47l20 -20zM1559 680l-3 -27l-4 -26l-4 -31l-2 -29l-4 -28l-6 -29
l-16 -53l-11 -27l-12 -24l-20 -52l-13 -26l-16 -25l-16 -22l-15 -25l-16 -23l-19 -22l-16 -21l-14 -16l-43 -39l-23 -18l-18 -17l-17 -10l-16 -12l-23 -10l-47 -25l-24 -14l-29 -11l-29 -8l-79 -18l-60 -8l-26 -7l-27 -4h-31l-49 -2h-31l-88 13l-143 30l-25 15l-30 -66
l-33 -43l-12 -26l-17 -25l-18 -14l-25 -9l-29 -8h-26l-27 10l-12 21l6 25l41 73l12 25l17 26l14 27l31 45l-60 45l-59 58l-70 88l-45 77l-24 48l-8 24l-13 57l-16 56l-6 26l-4 58l-2 32l-7 31v47l2 31l7 33l4 30l2 25l6 29l8 28l12 54l7 28l49 101l10 26l14 25l17 20l18 25
l16 25l19 22l110 94l46 29l98 51l28 8l31 6l29 7l27 8l24 4l29 2l33 4h55l24 -2h27l31 2h59l29 -2l28 -6l84 -27l33 -12l41 -21l35 50l12 28l25 47l18 25l19 14l20 8l31 5l33 -2l26 -7l13 -16l-7 -25l-28 -53l-17 -22l-41 -76l-16 -25l-8 -10l74 -68l18 -20l18 -25l19 -22
l18 -25l29 -49l16 -20l17 -27l14 -25l8 -26l8 -29l9 -24l8 -29l4 -31l6 -28l4 -25l2 -25l4 -26l4 -31l2 -27l3 -30v-33z" />
    <glyph glyph-name="Ugrave" unicode="&#xd9;" horiz-adv-x="1503" 
d="M1321 1292l-2 -28v-33l2 -25v-28l-4 -29v-53l2 -29v-29l4 -28v-29l-2 -31v-26l2 -29l-4 -55v-29l2 -33l-4 -53l4 -31v-88l-2 -31l-2 -24v-57l-8 -54l-2 -28l-13 -62l-10 -26l-8 -27l-39 -74l-16 -22l-21 -21l-53 -65l-21 -21l-24 -18l-45 -25l-25 -12l-84 -33l-28 -8
l-27 -6l-53 -4l-27 -4h-31l-61 -7l-27 3l-26 6l-29 2l-29 4l-24 8l-25 4l-26 8l-29 13l-49 26l-27 10l-29 17l-20 14l-43 37l-21 25l-34 49l-19 22l-14 23l-43 102l-10 29l-7 29v28l-2 31l-2 27l-4 30v29l2 31l-4 51l2 27l2 32l-2 29v27l-2 28v29l2 27l2 32l-2 29l-2 25v55
l-2 31l4 59v55l2 33l-2 29l-4 24v25l6 26l2 29l-2 31l-4 31l-2 28l6 25l11 18l16 11l27 6h30l31 -9l16 -22l9 -31l4 -31v-28l-4 -51v-31l2 -31v-28l-2 -23l4 -29v-30l-4 -33l-2 -29l2 -26v-52l4 -30l2 -31l-6 -86v-27l-2 -26v-27l4 -29l-2 -32l-2 -29l4 -31v-53l-2 -25
l2 -32l6 -29l4 -27l6 -26l8 -29l10 -29l13 -26l14 -23l59 -72l21 -18l20 -14l19 -17l22 -16l56 -27l26 -10l29 -6l31 -4l28 -6l54 -4h28l33 4l27 6l26 2l31 6l27 8l20 13l25 14l28 14l27 17l23 20l18 18l18 27l13 16l18 29l25 51l10 25l8 29l6 28l8 60l3 28l2 23l2 26l-2 35
l-2 29l6 86v111l-4 59l2 31l2 28v25l-2 25l-2 30v29l-2 31v28l2 27l4 27l2 26l-2 31l-4 31l-2 26v49l2 35l8 33l20 20l29 5h31l30 -7l19 -20l4 -29v-30zM680 1853l20 -10l19 -16l39 -51l30 -52l15 -22l24 -53l17 -23l6 -24l-19 -13h-51l-26 2l-19 11l-20 16l-21 20l-16 23
l-16 27l-35 45l-21 24l-47 68l-4 20l14 10h82z" />
    <glyph glyph-name="Uacute" unicode="&#xda;" horiz-adv-x="1503" 
d="M1321 1292l-2 -28v-33l2 -25v-28l-4 -29v-53l2 -29v-29l4 -28v-29l-2 -31v-26l2 -29l-4 -55v-29l2 -33l-4 -53l4 -31v-88l-2 -31l-2 -24v-57l-8 -54l-2 -28l-13 -62l-10 -26l-8 -27l-39 -74l-16 -22l-21 -21l-53 -65l-21 -21l-24 -18l-45 -25l-25 -12l-84 -33l-28 -8
l-27 -6l-53 -4l-27 -4h-31l-61 -7l-27 3l-26 6l-29 2l-29 4l-24 8l-25 4l-26 8l-29 13l-49 26l-27 10l-29 17l-20 14l-43 37l-21 25l-34 49l-19 22l-14 23l-43 102l-10 29l-7 29v28l-2 31l-2 27l-4 30v29l2 31l-4 51l2 27l2 32l-2 29v27l-2 28v29l2 27l2 32l-2 29l-2 25v55
l-2 31l4 59v55l2 33l-2 29l-4 24v25l6 26l2 29l-2 31l-4 31l-2 28l6 25l11 18l16 11l27 6h30l31 -9l16 -22l9 -31l4 -31v-28l-4 -51v-31l2 -31v-28l-2 -23l4 -29v-30l-4 -33l-2 -29l2 -26v-52l4 -30l2 -31l-6 -86v-27l-2 -26v-27l4 -29l-2 -32l-2 -29l4 -31v-53l-2 -25
l2 -32l6 -29l4 -27l6 -26l8 -29l10 -29l13 -26l14 -23l59 -72l21 -18l20 -14l19 -17l22 -16l56 -27l26 -10l29 -6l31 -4l28 -6l54 -4h28l33 4l27 6l26 2l31 6l27 8l20 13l25 14l28 14l27 17l23 20l18 18l18 27l13 16l18 29l25 51l10 25l8 29l6 28l8 60l3 28l2 23l2 26l-2 35
l-2 29l6 86v111l-4 59l2 31l2 28v25l-2 25l-2 30v29l-2 31v28l2 27l4 27l2 26l-2 31l-4 31l-2 26v49l2 35l8 33l20 20l29 5h31l30 -7l19 -20l4 -29v-30zM924 1753l-35 -49l-21 -21l-37 -47l-22 -22l-23 -15l-22 -8l-27 -4l-28 4l-21 11l4 20l13 27l30 49l15 31l47 75l18 19
l21 14l18 8l27 8l30 2l56 -4l12 -4l-8 -18l-29 -45z" />
    <glyph glyph-name="Ucircumflex" unicode="&#xdb;" horiz-adv-x="1503" 
d="M1321 1292l-2 -28v-33l2 -25v-28l-4 -29v-53l2 -29v-29l4 -28v-29l-2 -31v-26l2 -29l-4 -55v-29l2 -33l-4 -53l4 -31v-88l-2 -31l-2 -24v-57l-8 -54l-2 -28l-13 -62l-10 -26l-8 -27l-39 -74l-16 -22l-21 -21l-53 -65l-21 -21l-24 -18l-45 -25l-25 -12l-84 -33l-28 -8
l-27 -6l-53 -4l-27 -4h-31l-61 -7l-27 3l-26 6l-29 2l-29 4l-24 8l-25 4l-26 8l-29 13l-49 26l-27 10l-29 17l-20 14l-43 37l-21 25l-34 49l-19 22l-14 23l-43 102l-10 29l-7 29v28l-2 31l-2 27l-4 30v29l2 31l-4 51l2 27l2 32l-2 29v27l-2 28v29l2 27l2 32l-2 29l-2 25v55
l-2 31l4 59v55l2 33l-2 29l-4 24v25l6 26l2 29l-2 31l-4 31l-2 28l6 25l11 18l16 11l27 6h30l31 -9l16 -22l9 -31l4 -31v-28l-4 -51v-31l2 -31v-28l-2 -23l4 -29v-30l-4 -33l-2 -29l2 -26v-52l4 -30l2 -31l-6 -86v-27l-2 -26v-27l4 -29l-2 -32l-2 -29l4 -31v-53l-2 -25
l2 -32l6 -29l4 -27l6 -26l8 -29l10 -29l13 -26l14 -23l59 -72l21 -18l20 -14l19 -17l22 -16l56 -27l26 -10l29 -6l31 -4l28 -6l54 -4h28l33 4l27 6l26 2l31 6l27 8l20 13l25 14l28 14l27 17l23 20l18 18l18 27l13 16l18 29l25 51l10 25l8 29l6 28l8 60l3 28l2 23l2 26l-2 35
l-2 29l6 86v111l-4 59l2 31l2 28v25l-2 25l-2 30v29l-2 31v28l2 27l4 27l2 26l-2 31l-4 31l-2 26v49l2 35l8 33l20 20l29 5h31l30 -7l19 -20l4 -29v-30zM852 1788l106 -105l23 -18l23 -16l63 -64l10 -20l-20 -13l-29 -2l-29 2l-32 4l-27 7l-18 12l-41 39l-50 37l-22 20
l-21 23l-20 12l-18 2l-21 -4l-67 -49l-15 -13l-12 -14l-41 -33l-23 -16l-26 -12l-29 -8l-24 -5l-60 2l-20 7l-2 12l14 16l22 19l21 14l65 57l37 43l45 39l39 39l25 17l22 10l25 6l20 4l23 -2l31 -12l30 -19z" />
    <glyph glyph-name="Udieresis" unicode="&#xdc;" horiz-adv-x="1503" 
d="M1321 1292l-2 -28v-33l2 -25v-28l-4 -29v-53l2 -29v-29l4 -28v-29l-2 -31v-26l2 -29l-4 -55v-29l2 -33l-4 -53l4 -31v-88l-2 -31l-2 -24v-57l-8 -54l-2 -28l-13 -62l-10 -26l-8 -27l-39 -74l-16 -22l-21 -21l-53 -65l-21 -21l-24 -18l-45 -25l-25 -12l-84 -33l-28 -8
l-27 -6l-53 -4l-27 -4h-31l-61 -7l-27 3l-26 6l-29 2l-29 4l-24 8l-25 4l-26 8l-29 13l-49 26l-27 10l-29 17l-20 14l-43 37l-21 25l-34 49l-19 22l-14 23l-43 102l-10 29l-7 29v28l-2 31l-2 27l-4 30v29l2 31l-4 51l2 27l2 32l-2 29v27l-2 28v29l2 27l2 32l-2 29l-2 25v55
l-2 31l4 59v55l2 33l-2 29l-4 24v25l6 26l2 29l-2 31l-4 31l-2 28l6 25l11 18l16 11l27 6h30l31 -9l16 -22l9 -31l4 -31v-28l-4 -51v-31l2 -31v-28l-2 -23l4 -29v-30l-4 -33l-2 -29l2 -26v-52l4 -30l2 -31l-6 -86v-27l-2 -26v-27l4 -29l-2 -32l-2 -29l4 -31v-53l-2 -25
l2 -32l6 -29l4 -27l6 -26l8 -29l10 -29l13 -26l14 -23l59 -72l21 -18l20 -14l19 -17l22 -16l56 -27l26 -10l29 -6l31 -4l28 -6l54 -4h28l33 4l27 6l26 2l31 6l27 8l20 13l25 14l28 14l27 17l23 20l18 18l18 27l13 16l18 29l25 51l10 25l8 29l6 28l8 60l3 28l2 23l2 26l-2 35
l-2 29l6 86v111l-4 59l2 31l2 28v25l-2 25l-2 30v29l-2 31v28l2 27l4 27l2 26l-2 31l-4 31l-2 26v49l2 35l8 33l20 20l29 5h31l30 -7l19 -20l4 -29v-30zM967 1755l24 2l27 -4l24 -10l21 -17l10 -26l2 -31l-2 -29l-10 -24l-21 -19l-28 -12l-29 -4l-24 8l-23 13l-18 18l-9 27
l-2 24l2 27l11 28l20 19zM506 1757l26 4l27 -4l25 -12l22 -19l10 -28l2 -29l-4 -24l-10 -27l-18 -21l-25 -12l-26 -2l-27 6l-27 13l-20 20l-15 29l-4 24l4 25l13 29l22 16z" />
    <glyph glyph-name="Yacute" unicode="&#xdd;" horiz-adv-x="1357" 
d="M705 764l53 74l14 24l12 25l13 22l18 19l19 24l30 49l15 21l30 53l33 47l12 25l45 74l31 45l14 24l17 23l16 24l13 25l16 24l20 23l19 12l20 6l31 5l31 -2l28 2h27l18 -9l-6 -18l-37 -51l-14 -23l-14 -20l-12 -25l-17 -24l-18 -23l-31 -47l-25 -45l-86 -119l-14 -24
l-12 -25l-13 -23l-86 -122l-28 -48l-17 -26l-59 -86l-45 -72l-12 -29l-6 -28l-3 -29l5 -57l2 -31l-2 -29v-28l-5 -31l-2 -27l5 -26l4 -29v-59l-2 -27v-57l-2 -27v-27l-3 -30l-8 -19l-16 -10l-29 -4l-33 2l-28 8l-17 21l-6 28l-4 29l-2 29v30l2 29v55l2 29l-2 31v30l4 56v31
l-2 28l-4 27v84l-4 24l-8 25l-45 80l-35 45l-31 53l-16 23l-29 51l-45 69l-37 50l-28 47l-19 24l-16 27l-17 22l-47 78l-12 23l-49 71l-29 52l-33 45l-30 51l-2 22l16 9l27 -2l28 2h27l27 -9l14 -6l24 -12l19 -23l16 -24l11 -27l34 -43l45 -75l64 -93l14 -24l15 -29l14 -24
l12 -23l94 -143l27 -50l49 -67l19 -19h22zM846 1753l-35 -49l-39 -43l-18 -25l-23 -22l-22 -15l-23 -8l-27 -4l-28 4l-21 11l4 20l13 27l30 49l15 31l33 51l14 24l18 19l21 14l18 8l27 8l31 2l55 -4l12 -4l-8 -18l-29 -45z" />
    <glyph glyph-name="Thorn" unicode="&#xde;" horiz-adv-x="1396" 
d="M463 377l26 2l62 -4l31 2h28l29 -2h109l65 4h18l66 4l27 2l30 6l29 10l49 25l64 61l39 74l12 27l10 26l6 27l11 59l-3 29l-6 25l-4 26l-4 33l-6 29l-10 24l-15 23l-14 24l-18 25l-21 20l-47 35l-45 25l-29 10l-49 12l-33 4h-63l-19 3l-36 2h-54l-34 -2l-29 2l-25 2
l-94 -7h-27l-24 3l-31 2l-33 -2l-30 -9l-21 -18l-6 -29l4 -30l-2 -31l-4 -31v-57l2 -29v-88l6 -88v-29l-2 -30v-84l-4 -62l4 -26l12 -15l17 -10l26 -8h31zM313 1427l23 -18l6 -31l4 -59l-2 -25v-28l2 -27l4 -22l8 -17l17 -12l26 -4l58 4h88l26 -4h58l28 -2h31l31 -2l29 2h28
l31 2l61 2l29 -2l55 -10l58 -17l80 -37l28 -14l29 -23l37 -34l20 -21l35 -43l14 -24l11 -29l12 -27l14 -24l11 -27l4 -27l12 -59l-2 -29v-24l2 -31v-31l-4 -30l-8 -29l-11 -25l-4 -26l-10 -29l-12 -27l-31 -53l-20 -22l-17 -21l-41 -39l-47 -35l-22 -14l-29 -16l-29 -13
l-26 -10l-58 -16l-26 -4h-58l-30 -2h-52l-30 2l-64 -2h-53l-35 2h-29l-28 -4h-27l-29 2h-59l-31 2l-28 -4l-17 -11l-8 -18l-2 -27l-2 -32v-35l4 -62l-2 -28l-10 -17l-19 -8l-30 -4h-29l-27 8l-18 12l-8 17l-2 26v27l-4 25v143l2 31v26l-2 29v31l4 26v27l-4 31l2 32v29l-2 27
v26l4 62l-2 29l-2 26v27l-2 30v29l4 57l-2 29l-4 27l2 26l4 31l2 31l-2 31l-4 26v27l4 31l-2 30l2 27v55l-2 29v31l2 30v29l2 27v28l6 25l10 18l16 11l23 4l27 -2z" />
    <glyph glyph-name="agrave" unicode="&#xe0;" 
d="M516 461h84l27 2h28l29 -4l64 4l18 -2h33l114 -4l60 4l26 4h31l27 -2l24 6l11 23l-2 24l-7 23l-61 135l-14 24l-33 78l-12 25l-11 26l-10 29l-14 27l-27 78l-14 26l-17 25l-20 53l-14 25l-11 30l-8 29l-12 27l-12 24l-11 25l-16 20h-18l-17 -22l-10 -29l-23 -45l-10 -31
l-10 -26l-16 -25l-60 -129l-12 -29l-8 -28l-11 -27l-8 -27l-12 -24l-14 -25l-13 -28l-16 -54l-14 -24l-25 -54l-12 -28l-8 -25l-27 -53l-8 -27l14 -18l27 -4h30zM1059 330h-86l-29 2h-55l-62 -2l-30 2l-27 2h-27l-30 -4l-56 4h-32l-29 -2l-55 2l-25 -2h-27l-28 4h-29l-33 -2
l-30 -4l-21 -8l-14 -17l-27 -57l-6 -17l-14 -28l-27 -47l-10 -27l-6 -27l-25 -51l-20 -20l-17 -15l-20 -12l-29 -8h-31l-28 10l-17 21l6 26l17 25l20 49l27 55l12 29l8 25l39 75l9 25l22 51l10 27l15 26l10 29l10 25l29 53l12 26l10 25l23 47l24 57l9 27l37 80l14 25l22 53
l9 16l12 31l8 33l39 77l14 25l13 27l10 26l8 25l10 24l13 23l14 29l12 28l10 27l11 25l10 26l12 25l15 26l18 27l14 16l19 9l28 2l58 -4l22 -11l17 -16l16 -21l18 -53l27 -53l25 -59l24 -43l13 -27l8 -27l47 -106l20 -49l25 -52l22 -55l29 -49l10 -29l37 -75l31 -78l29 -54
l12 -26l26 -76l13 -25l16 -26l12 -29l13 -26l12 -29l35 -70l12 -30l16 -52l23 -53l41 -80l6 -24l-14 -21l-27 -6h-31l-28 2l-21 6l-20 15l-19 26l-8 25l-26 49l-33 82l-10 20l-9 25l-14 26l-16 25l-15 14l-22 9l-29 4h-27zM680 1853l20 -10l19 -16l39 -51l30 -52l15 -22
l24 -53l17 -23l6 -24l-19 -13h-51l-26 2l-19 11l-20 16l-21 20l-16 23l-16 27l-35 45l-21 24l-47 68l-4 20l14 10h82z" />
    <glyph glyph-name="aacute" unicode="&#xe1;" 
d="M516 461h84l27 2h28l29 -4l64 4l18 -2h33l114 -4l60 4l26 4h31l27 -2l24 6l11 23l-2 24l-7 23l-61 135l-14 24l-33 78l-12 25l-11 26l-10 29l-14 27l-27 78l-14 26l-17 25l-20 53l-14 25l-11 30l-8 29l-12 27l-12 24l-11 25l-16 20h-18l-17 -22l-10 -29l-23 -45l-10 -31
l-10 -26l-16 -25l-60 -129l-12 -29l-8 -28l-11 -27l-8 -27l-12 -24l-14 -25l-13 -28l-16 -54l-14 -24l-25 -54l-12 -28l-8 -25l-27 -53l-8 -27l14 -18l27 -4h30zM1059 330h-86l-29 2h-55l-62 -2l-30 2l-27 2h-27l-30 -4l-56 4h-32l-29 -2l-55 2l-25 -2h-27l-28 4h-29l-33 -2
l-30 -4l-21 -8l-14 -17l-27 -57l-6 -17l-14 -28l-27 -47l-10 -27l-6 -27l-25 -51l-20 -20l-17 -15l-20 -12l-29 -8h-31l-28 10l-17 21l6 26l17 25l20 49l27 55l12 29l8 25l39 75l9 25l22 51l10 27l15 26l10 29l10 25l29 53l12 26l10 25l23 47l24 57l9 27l37 80l14 25l22 53
l9 16l12 31l8 33l39 77l14 25l13 27l10 26l8 25l10 24l13 23l14 29l12 28l10 27l11 25l10 26l12 25l15 26l18 27l14 16l19 9l28 2l58 -4l22 -11l17 -16l16 -21l18 -53l27 -53l25 -59l24 -43l13 -27l8 -27l47 -106l20 -49l25 -52l22 -55l29 -49l10 -29l37 -75l31 -78l29 -54
l12 -26l26 -76l13 -25l16 -26l12 -29l13 -26l12 -29l35 -70l12 -30l16 -52l23 -53l41 -80l6 -24l-14 -21l-27 -6h-31l-28 2l-21 6l-20 15l-19 26l-8 25l-26 49l-33 82l-10 20l-9 25l-14 26l-16 25l-15 14l-22 9l-29 4h-27zM924 1753l-35 -49l-21 -21l-37 -47l-22 -22
l-23 -15l-22 -8l-27 -4l-28 4l-21 11l4 20l13 27l30 49l15 31l47 75l18 19l21 14l18 8l27 8l30 2l56 -4l12 -4l-8 -18l-29 -45z" />
    <glyph glyph-name="acircumflex" unicode="&#xe2;" 
d="M516 461h84l27 2h28l29 -4l64 4l18 -2h33l114 -4l60 4l26 4h31l27 -2l24 6l11 23l-2 24l-7 23l-61 135l-14 24l-33 78l-12 25l-11 26l-10 29l-14 27l-27 78l-14 26l-17 25l-20 53l-14 25l-11 30l-8 29l-12 27l-12 24l-11 25l-16 20h-18l-17 -22l-10 -29l-23 -45l-10 -31
l-10 -26l-16 -25l-60 -129l-12 -29l-8 -28l-11 -27l-8 -27l-12 -24l-14 -25l-13 -28l-16 -54l-14 -24l-25 -54l-12 -28l-8 -25l-27 -53l-8 -27l14 -18l27 -4h30zM1059 330h-86l-29 2h-55l-62 -2l-30 2l-27 2h-27l-30 -4l-56 4h-32l-29 -2l-55 2l-25 -2h-27l-28 4h-29l-33 -2
l-30 -4l-21 -8l-14 -17l-27 -57l-6 -17l-14 -28l-27 -47l-10 -27l-6 -27l-25 -51l-20 -20l-17 -15l-20 -12l-29 -8h-31l-28 10l-17 21l6 26l17 25l20 49l27 55l12 29l8 25l39 75l9 25l22 51l10 27l15 26l10 29l10 25l29 53l12 26l10 25l23 47l24 57l9 27l37 80l14 25l22 53
l9 16l12 31l8 33l39 77l14 25l13 27l10 26l8 25l10 24l13 23l14 29l12 28l10 27l11 25l10 26l12 25l15 26l18 27l14 16l19 9l28 2l58 -4l22 -11l17 -16l16 -21l18 -53l27 -53l25 -59l24 -43l13 -27l8 -27l47 -106l20 -49l25 -52l22 -55l29 -49l10 -29l37 -75l31 -78l29 -54
l12 -26l26 -76l13 -25l16 -26l12 -29l13 -26l12 -29l35 -70l12 -30l16 -52l23 -53l41 -80l6 -24l-14 -21l-27 -6h-31l-28 2l-21 6l-20 15l-19 26l-8 25l-26 49l-33 82l-10 20l-9 25l-14 26l-16 25l-15 14l-22 9l-29 4h-27zM852 1788l106 -105l23 -18l23 -16l63 -64l10 -20
l-20 -13l-29 -2l-29 2l-32 4l-27 7l-18 12l-41 39l-50 37l-22 20l-21 23l-20 12l-18 2l-21 -4l-67 -49l-15 -13l-12 -14l-41 -33l-23 -16l-26 -12l-29 -8l-24 -5l-60 2l-20 7l-2 12l14 16l22 19l21 14l65 57l37 43l45 39l39 39l25 17l22 10l25 6l20 4l23 -2l31 -12l30 -19z
" />
    <glyph glyph-name="atilde" unicode="&#xe3;" 
d="M516 461h84l27 2h28l29 -4l64 4l18 -2h33l114 -4l60 4l26 4h31l27 -2l24 6l11 23l-2 24l-7 23l-61 135l-14 24l-33 78l-12 25l-11 26l-10 29l-14 27l-27 78l-14 26l-17 25l-20 53l-14 25l-11 30l-8 29l-12 27l-12 24l-11 25l-16 20h-18l-17 -22l-10 -29l-23 -45l-10 -31
l-10 -26l-16 -25l-60 -129l-12 -29l-8 -28l-11 -27l-8 -27l-12 -24l-14 -25l-13 -28l-16 -54l-14 -24l-25 -54l-12 -28l-8 -25l-27 -53l-8 -27l14 -18l27 -4h30zM1059 330h-86l-29 2h-55l-62 -2l-30 2l-27 2h-27l-30 -4l-56 4h-32l-29 -2l-55 2l-25 -2h-27l-28 4h-29l-33 -2
l-30 -4l-21 -8l-14 -17l-27 -57l-6 -17l-14 -28l-27 -47l-10 -27l-6 -27l-25 -51l-20 -20l-17 -15l-20 -12l-29 -8h-31l-28 10l-17 21l6 26l17 25l20 49l27 55l12 29l8 25l39 75l9 25l22 51l10 27l15 26l10 29l10 25l29 53l12 26l10 25l23 47l24 57l9 27l37 80l14 25l22 53
l9 16l12 31l8 33l39 77l14 25l13 27l10 26l8 25l10 24l13 23l14 29l12 28l10 27l11 25l10 26l12 25l15 26l18 27l14 16l19 9l28 2l58 -4l22 -11l17 -16l16 -21l18 -53l27 -53l25 -59l24 -43l13 -27l8 -27l47 -106l20 -49l25 -52l22 -55l29 -49l10 -29l37 -75l31 -78l29 -54
l12 -26l26 -76l13 -25l16 -26l12 -29l13 -26l12 -29l35 -70l12 -30l16 -52l23 -53l41 -80l6 -24l-14 -21l-27 -6h-31l-28 2l-21 6l-20 15l-19 26l-8 25l-26 49l-33 82l-10 20l-9 25l-14 26l-16 25l-15 14l-22 9l-29 4h-27zM528 1724l21 21l22 14l29 10l31 5l31 -2l22 -5
l49 -22l25 -8l28 -8l29 -11l25 -12l22 -4l25 8l22 14l23 17l18 8l23 2l24 -10l15 -15l6 -20l-4 -29l-13 -26l-36 -37l-27 -17l-14 -6l-31 -6l-31 2l-26 4l-52 19l-51 24l-24 6l-29 9l-27 6l-22 -4l-23 -15l-22 -18l-21 -12h-22l-27 14l-14 18l-6 19l4 22l12 23z" />
    <glyph glyph-name="adieresis" unicode="&#xe4;" 
d="M516 461h84l27 2h28l29 -4l64 4l18 -2h33l114 -4l60 4l26 4h31l27 -2l24 6l11 23l-2 24l-7 23l-61 135l-14 24l-33 78l-12 25l-11 26l-10 29l-14 27l-27 78l-14 26l-17 25l-20 53l-14 25l-11 30l-8 29l-12 27l-12 24l-11 25l-16 20h-18l-17 -22l-10 -29l-23 -45l-10 -31
l-10 -26l-16 -25l-60 -129l-12 -29l-8 -28l-11 -27l-8 -27l-12 -24l-14 -25l-13 -28l-16 -54l-14 -24l-25 -54l-12 -28l-8 -25l-27 -53l-8 -27l14 -18l27 -4h30zM1059 330h-86l-29 2h-55l-62 -2l-30 2l-27 2h-27l-30 -4l-56 4h-32l-29 -2l-55 2l-25 -2h-27l-28 4h-29l-33 -2
l-30 -4l-21 -8l-14 -17l-27 -57l-6 -17l-14 -28l-27 -47l-10 -27l-6 -27l-25 -51l-20 -20l-17 -15l-20 -12l-29 -8h-31l-28 10l-17 21l6 26l17 25l20 49l27 55l12 29l8 25l39 75l9 25l22 51l10 27l15 26l10 29l10 25l29 53l12 26l10 25l23 47l24 57l9 27l37 80l14 25l22 53
l9 16l12 31l8 33l39 77l14 25l13 27l10 26l8 25l10 24l13 23l14 29l12 28l10 27l11 25l10 26l12 25l15 26l18 27l14 16l19 9l28 2l58 -4l22 -11l17 -16l16 -21l18 -53l27 -53l25 -59l24 -43l13 -27l8 -27l47 -106l20 -49l25 -52l22 -55l29 -49l10 -29l37 -75l31 -78l29 -54
l12 -26l26 -76l13 -25l16 -26l12 -29l13 -26l12 -29l35 -70l12 -30l16 -52l23 -53l41 -80l6 -24l-14 -21l-27 -6h-31l-28 2l-21 6l-20 15l-19 26l-8 25l-26 49l-33 82l-10 20l-9 25l-14 26l-16 25l-15 14l-22 9l-29 4h-27zM967 1755l24 2l27 -4l24 -10l21 -17l10 -26l2 -31
l-2 -29l-10 -24l-21 -19l-28 -12l-29 -4l-24 8l-23 13l-18 18l-9 27l-2 24l2 27l11 28l20 19zM506 1757l26 4l27 -4l25 -12l22 -19l10 -28l2 -29l-4 -24l-10 -27l-18 -21l-25 -12l-26 -2l-27 6l-27 13l-20 20l-15 29l-4 24l4 25l13 29l22 16z" />
    <glyph glyph-name="aring" unicode="&#xe5;" 
d="M1090 516l-7 23l-61 135l-14 24l-33 78l-12 25l-11 26l-10 29l-14 27l-27 78l-14 26l-17 25l-20 53l-14 25l-11 30l-8 29l-12 27l-12 24l-11 25l-16 20h-18l-17 -22l-10 -29l-23 -45l-10 -31l-10 -26l-16 -25l-60 -129l-12 -29l-8 -28l-11 -27l-8 -27l-12 -24l-14 -25
l-13 -28l-16 -54l-14 -24l-25 -54l-12 -28l-8 -25l-27 -53l-8 -27l14 -18l27 -4h30l31 -2h84l27 2h28l29 -4l64 4l18 -2h33l114 -4l60 4l26 4h31l27 -2l24 6l11 23zM674 1487l26 -14l31 -9l25 -2l24 2l29 9l27 16l22 20l14 25l5 29l-3 28l-6 27l-12 22l-18 23l-29 18l-31 9
l-26 2l-25 -2l-29 -9l-22 -14l-19 -22l-14 -25l-4 -29l-2 -30l4 -27l12 -25zM1442 6l-27 -6h-31l-28 2l-21 6l-20 15l-19 26l-8 25l-26 49l-33 82l-10 20l-9 25l-14 26l-16 25l-15 14l-22 9l-29 4h-27l-28 2h-86l-29 2h-55l-62 -2l-30 2l-27 2h-27l-30 -4l-56 4h-32l-29 -2
l-55 2l-25 -2h-27l-28 4h-29l-33 -2l-30 -4l-21 -8l-14 -17l-27 -57l-6 -17l-14 -28l-27 -47l-10 -27l-6 -27l-25 -51l-20 -20l-17 -15l-20 -12l-29 -8h-31l-28 10l-17 21l6 26l17 25l20 49l27 55l12 29l8 25l39 75l9 25l22 51l10 27l15 26l10 29l10 25l29 53l12 26l10 25
l23 47l24 57l9 27l37 80l14 25l22 53l9 16l12 31l8 33l39 77l14 25l13 27l10 26l8 25l10 24l13 23l14 29l12 28l10 27l11 25l10 26l24 49l-16 6l-72 58l-16 22l-10 27l-8 27l-7 28l-4 31v31l6 30l11 27l12 23l41 43l22 18l25 12l27 8l61 9h84l31 -4l28 -13l25 -14l25 -16
l20 -19l17 -24l10 -27l12 -59l4 -27v-25l-4 -32l-12 -31l-13 -29l-16 -20l-18 -19l-25 -18l-31 -17l-12 -6l6 -20l10 -29l27 -53l25 -59l24 -43l13 -27l8 -27l47 -106l20 -49l25 -52l22 -55l29 -49l10 -29l37 -75l31 -78l29 -54l12 -26l26 -76l13 -25l16 -26l12 -29l13 -26
l12 -29l35 -70l12 -30l16 -52l23 -53l41 -80l6 -24z" />
    <glyph glyph-name="ae" unicode="&#xe6;" horiz-adv-x="1871" 
d="M913 698l2 35v19l-2 32l-4 29l-2 29l2 26l-2 31v31l-2 31v26l4 57v31l2 31v147l-6 17l-12 -8l-47 -76l-17 -23l-12 -26l-10 -29l-12 -27l-54 -67l-14 -29l-12 -29l-43 -69l-13 -25l-14 -24l-18 -25l-17 -27l-12 -28l-29 -49l-12 -23l-33 -53l-4 -23l10 -14l31 -8l53 -2
h31l29 2h31l26 -4h57l33 2l31 4l29 6l22 18l6 25zM1593 -2l-32 4l-31 -2l-27 -4h-26l-29 2h-82l-37 -2h-18l-33 2l-29 4h-28l-25 -4h-27l-32 2h-33l-17 -2h-32l-29 2l-61 -4l-29 6l-23 23l-6 30l-2 33l4 31l2 14l2 31l-4 31v28l-2 31l2 27v26l-2 29v33l2 28l-2 25l-10 16
l-18 11l-29 4h-86l-29 2l-30 -2h-29l-29 2l-55 -2h-119l-31 -4l-22 -7l-19 -14l-30 -53l-49 -72l-17 -29l-12 -26l-14 -27l-17 -22l-14 -21l-29 -53l-12 -25l-19 -24l-16 -27l-16 -24l-17 -13l-22 -10l-29 -2l-29 2h-30l-27 2l-10 19l8 26l55 94l19 23l16 24l43 78l17 21
l14 22l16 29l17 25l165 266l17 22l12 25l15 27l16 20l16 25l15 26l12 27l12 24l60 93l30 51l19 26l28 47l17 25l14 25l12 24l17 23l31 49l14 24l14 27l33 49l37 70l16 24l25 23l30 16l31 9l29 2h59l31 -2h53l33 2h29l55 -4l27 2h57l31 2h28l29 -2l31 2h30l19 -2h35l61 4h17
l67 -4h53l31 -7l19 -20l6 -25l2 -26l-6 -25l-23 -18l-31 -8l-28 -3h-23l-55 -4h-29l-31 2l-32 -2l-58 4l-28 -4h-84l-60 7l-32 -3l-27 -4h-25l-26 4l-29 -2l-29 -8l-22 -20l-8 -27v-29l-2 -26l-2 -29v-57l4 -29l2 -29v-30l-2 -27v-113l-2 -30l4 -29l10 -18l18 -9l25 -2l31 2
h32l19 3l31 2h26l31 -2l35 -5l49 -2h29l28 4l31 3h61l54 -5h28l29 2l25 5l26 -7l21 -12l10 -16v-78l-10 -14l-21 -11l-26 -4l-27 4l-29 2h-30l-56 -2l-26 2h-27l-31 -4l-30 -2h-27l-25 4l-28 2l-33 -2l-31 2h-28l-33 -2l-19 -2l-30 -2l-27 2l-25 -4l-20 -8l-8 -16l-6 -27
l-2 -29v-30l4 -60v-51l2 -31v-32l-2 -31l-4 -29l2 -29l2 -26v-29l-2 -28l6 -25l12 -14l14 -13l23 -6l31 2h28l33 -2h18l62 2l31 -2h90l18 4h35l59 -4l27 4h55l27 -2l27 2h32l27 -2l27 -10l20 -21l8 -24l-2 -27l-6 -28l-20 -19l-33 -8l-19 -2h-86z" />
    <glyph glyph-name="ccedilla" unicode="&#xe7;" horiz-adv-x="1452" 
d="M1354 178l-21 -26l-71 -50l-50 -28l-26 -19l-47 -24l-29 -13l-27 -10l-57 -12l-31 -10l-28 -4l-58 -2l-32 -3l-37 5l-11 -50v-18l11 -14l18 -6l25 -5l82 -32l22 -19l19 -24l10 -27l8 -29l4 -28l-2 -29l-6 -31l-6 -26l-13 -25l-18 -27l-18 -20l-23 -16l-27 -13l-26 -10
l-29 -10l-31 -6l-30 -2l-33 4l-31 6l-33 10l-18 4l-31 12l-26 19l-19 16l-14 25l-2 22l8 21l23 18l22 2l19 -4l24 -12l23 -14l24 -13l31 -8l25 -2l26 4l31 10l29 15l24 22l10 23l2 24l-4 29l-14 25l-25 18l-30 10l-27 6l-55 3h-23l-16 6l-10 14l2 20l4 25l12 51l8 47l2 13
h-2l-33 2h-16l-31 6l-28 10l-135 47l-31 12l-53 35l-15 11l-26 16l-48 39l-18 18l-18 21l-33 47l-19 24l-16 25l-12 27l-29 49l-12 24l-21 54l-8 26l-6 29l-4 27l-6 28l-4 29l-2 31v30l-5 31v47l5 33l2 29v28l4 27l18 88l6 27l13 28l14 27l10 26l10 29l45 74l15 27l35 43
l59 61l23 20l26 19l23 14l22 12l47 33l25 13l59 20l27 4l88 25l27 6l55 2l59 8l33 2l29 -2l51 -8l31 -2l30 -4l27 -6l25 -9l28 -8l131 -51l25 -14l43 -37l24 -17l23 -22l14 -25l2 -18l-8 -21l-14 -20l-23 -16l-20 -5l-23 5l-26 14l-41 37l-23 14l-26 14l-25 15l-27 12l-28 6
l-31 8l-57 21l-56 4l-30 -2l-50 4l-32 -2l-64 -8l-80 -19l-26 -8l-103 -45l-47 -31l-24 -20l-58 -64l-20 -24l-15 -25l-30 -41l-13 -26l-10 -29l-10 -25l-23 -47l-6 -30l-4 -31l-4 -25l-2 -26l-4 -31l-2 -29l-4 -30v-29l8 -53l4 -31l6 -31l13 -55l10 -27l8 -28l10 -29
l10 -23l48 -75l18 -23l21 -18l16 -21l22 -20l72 -54l25 -16l26 -12l60 -17l55 -20l29 -6l57 -8l59 -5h25l57 7l25 4l29 2l32 6l27 8l22 8l58 27l16 6l31 14l47 29l23 16l22 19l23 14l20 4l21 -6l20 -14l16 -21l15 -22z" />
    <glyph glyph-name="egrave" unicode="&#xe8;" horiz-adv-x="1341" 
d="M1112 0l-27 -2l-32 2h-29l-29 -4h-26l-29 -2l-59 2h-19l-88 2l-35 2h-55l-27 2l-61 -2l-31 -2h-28l-29 2h-29l-28 -4l-25 -2l-55 4h-35l-17 -2l-63 2l-27 2l-18 10l-8 17l-4 57v90l2 31v26l-2 27l-2 31l4 28v54l-4 28l-2 29l4 27l2 26l-4 31l-2 33l2 33l4 28l-2 27l-4 26
v27l4 27v28l2 31v31l-2 28v29l2 31l-2 29v55l-2 31l4 53v28l-2 29l-4 29v88l-2 31v26l2 25l2 33v30l6 29l20 20l29 7h90l57 -4h29l31 4l30 2h60l55 -4h31l18 2l33 2h33l29 -2l28 2l58 -4h88l24 2h172l29 -2l27 -9l16 -8l10 -14l8 -47l-2 -25l-10 -16l-16 -13l-29 -6l-29 4
l-30 -2h-35l-19 2h-32l-31 -4h-33l-51 2h-88l-31 2l-84 2l-31 3l-28 -3l-29 -4l-29 2l-24 2l-29 -2h-35l-63 5h-17l-28 -7l-19 -10l-10 -18l-6 -31l-2 -18v-35l4 -62v-170l2 -24v-62l2 -28l4 -29l19 -23l30 -6l60 4l26 -2h25l31 4h59l53 -2h29l57 -4l60 4l84 4h53l90 -6
l31 2h28l31 -2l27 -6l18 -20l10 -25v-29l-12 -28l-20 -19l-27 -4l-29 2h-30l-56 -4l-28 4h-31l-61 -2l-17 -2h-61l-31 4h-29l-59 -6h-51l-31 4l-31 2h-28l-25 -4l-29 2h-82l-26 -4l-19 -10l-12 -19l-6 -22v-86l-2 -29v-28l4 -31l2 -31v-29l-4 -59l2 -31l2 -24v-25l-2 -33
l4 -28l10 -17l19 -8l24 -4h27l57 4h29l84 -2l63 -4l56 4h57l25 2h26l29 -4h145l29 2l25 2l59 -4h61l23 -4l18 -10l11 -17l6 -26l2 -27l-10 -24l-25 -19l-29 -8l-28 2h-27zM659 1853l21 -10l18 -16l39 -51l17 -27l14 -25l14 -22l25 -53l16 -23l6 -24l-18 -13h-51l-27 2
l-18 11l-21 16l-20 20l-17 23l-16 27l-55 69l-47 68l-4 20l14 10h82z" />
    <glyph glyph-name="eacute" unicode="&#xe9;" horiz-adv-x="1341" 
d="M1112 0l-27 -2l-32 2h-29l-29 -4h-26l-29 -2l-59 2h-19l-88 2l-35 2h-55l-27 2l-61 -2l-31 -2h-28l-29 2h-29l-28 -4l-25 -2l-55 4h-35l-17 -2l-63 2l-27 2l-18 10l-8 17l-4 57v90l2 31v26l-2 27l-2 31l4 28v54l-4 28l-2 29l4 27l2 26l-4 31l-2 33l2 33l4 28l-2 27l-4 26
v27l4 27v28l2 31v31l-2 28v29l2 31l-2 29v55l-2 31l4 53v28l-2 29l-4 29v88l-2 31v26l2 25l2 33v30l6 29l20 20l29 7h90l57 -4h29l31 4l30 2h60l55 -4h31l18 2l33 2h33l29 -2l28 2l58 -4h88l24 2h172l29 -2l27 -9l16 -8l10 -14l8 -47l-2 -25l-10 -16l-16 -13l-29 -6l-29 4
l-30 -2h-35l-19 2h-32l-31 -4h-33l-51 2h-88l-31 2l-84 2l-31 3l-28 -3l-29 -4l-29 2l-24 2l-29 -2h-35l-63 5h-17l-28 -7l-19 -10l-10 -18l-6 -31l-2 -18v-35l4 -62v-170l2 -24v-62l2 -28l4 -29l19 -23l30 -6l60 4l26 -2h25l31 4h59l53 -2h29l57 -4l60 4l84 4h53l90 -6
l31 2h28l31 -2l27 -6l18 -20l10 -25v-29l-12 -28l-20 -19l-27 -4l-29 2h-30l-56 -4l-28 4h-31l-61 -2l-17 -2h-61l-31 4h-29l-59 -6h-51l-31 4l-31 2h-28l-25 -4l-29 2h-82l-26 -4l-19 -10l-12 -19l-6 -22v-86l-2 -29v-28l4 -31l2 -31v-29l-4 -59l2 -31l2 -24v-25l-2 -33
l4 -28l10 -17l19 -8l24 -4h27l57 4h29l84 -2l63 -4l56 4h57l25 2h26l29 -4h145l29 2l25 2l59 -4h61l23 -4l18 -10l11 -17l6 -26l2 -27l-10 -24l-25 -19l-29 -8l-28 2h-27zM950 1829l-63 -100l-19 -25l-39 -43l-18 -25l-23 -22l-22 -15l-23 -8l-26 -4l-29 4l-20 11l4 20
l12 27l31 49l14 31l33 51l14 24l19 19l20 14l19 8l26 8l31 2l55 -4l12 -4z" />
    <glyph glyph-name="ecircumflex" unicode="&#xea;" horiz-adv-x="1341" 
d="M1112 0l-27 -2l-32 2h-29l-29 -4h-26l-29 -2l-59 2h-19l-88 2l-35 2h-55l-27 2l-61 -2l-31 -2h-28l-29 2h-29l-28 -4l-25 -2l-55 4h-35l-17 -2l-63 2l-27 2l-18 10l-8 17l-4 57v90l2 31v26l-2 27l-2 31l4 28v54l-4 28l-2 29l4 27l2 26l-4 31l-2 33l2 33l4 28l-2 27l-4 26
v27l4 27v28l2 31v31l-2 28v29l2 31l-2 29v55l-2 31l4 53v28l-2 29l-4 29v88l-2 31v26l2 25l2 33v30l6 29l20 20l29 7h90l57 -4h29l31 4l30 2h60l55 -4h31l18 2l33 2h33l29 -2l28 2l58 -4h88l24 2h172l29 -2l27 -9l16 -8l10 -14l8 -47l-2 -25l-10 -16l-16 -13l-29 -6l-29 4
l-30 -2h-35l-19 2h-32l-31 -4h-33l-51 2h-88l-31 2l-84 2l-31 3l-28 -3l-29 -4l-29 2l-24 2l-29 -2h-35l-63 5h-17l-28 -7l-19 -10l-10 -18l-6 -31l-2 -18v-35l4 -62v-170l2 -24v-62l2 -28l4 -29l19 -23l30 -6l60 4l26 -2h25l31 4h59l53 -2h29l57 -4l60 4l84 4h53l90 -6
l31 2h28l31 -2l27 -6l18 -20l10 -25v-29l-12 -28l-20 -19l-27 -4l-29 2h-30l-56 -4l-28 4h-31l-61 -2l-17 -2h-61l-31 4h-29l-59 -6h-51l-31 4l-31 2h-28l-25 -4l-29 2h-82l-26 -4l-19 -10l-12 -19l-6 -22v-86l-2 -29v-28l4 -31l2 -31v-29l-4 -59l2 -31l2 -24v-25l-2 -33
l4 -28l10 -17l19 -8l24 -4h27l57 4h29l84 -2l63 -4l56 4h57l25 2h26l29 -4h145l29 2l25 2l59 -4h61l23 -4l18 -10l11 -17l6 -26l2 -27l-10 -24l-25 -19l-29 -8l-28 2h-27zM895 1726l20 -22l23 -21l45 -34l64 -64l10 -20l-21 -13l-28 -2l-29 2l-33 4l-26 7l-19 12l-20 20
l-21 19l-49 37l-23 20l-20 23l-20 12l-19 2l-20 -4l-68 -49l-14 -13l-13 -14l-41 -33l-22 -16l-27 -12l-28 -8l-25 -5l-59 2l-21 7l-2 12l14 16l64 49l45 41l20 25l17 18l20 19l25 20l39 39l24 17l23 10l25 6l20 4l23 -2l30 -12l31 -19l39 -32z" />
    <glyph glyph-name="edieresis" unicode="&#xeb;" horiz-adv-x="1341" 
d="M1112 0l-27 -2l-32 2h-29l-29 -4h-26l-29 -2l-59 2h-19l-88 2l-35 2h-55l-27 2l-61 -2l-31 -2h-28l-29 2h-29l-28 -4l-25 -2l-55 4h-35l-17 -2l-63 2l-27 2l-18 10l-8 17l-4 57v90l2 31v26l-2 27l-2 31l4 28v54l-4 28l-2 29l4 27l2 26l-4 31l-2 33l2 33l4 28l-2 27l-4 26
v27l4 27v28l2 31v31l-2 28v29l2 31l-2 29v55l-2 31l4 53v28l-2 29l-4 29v88l-2 31v26l2 25l2 33v30l6 29l20 20l29 7h90l57 -4h29l31 4l30 2h60l55 -4h31l18 2l33 2h33l29 -2l28 2l58 -4h88l24 2h172l29 -2l27 -9l16 -8l10 -14l8 -47l-2 -25l-10 -16l-16 -13l-29 -6l-29 4
l-30 -2h-35l-19 2h-32l-31 -4h-33l-51 2h-88l-31 2l-84 2l-31 3l-28 -3l-29 -4l-29 2l-24 2l-29 -2h-35l-63 5h-17l-28 -7l-19 -10l-10 -18l-6 -31l-2 -18v-35l4 -62v-170l2 -24v-62l2 -28l4 -29l19 -23l30 -6l60 4l26 -2h25l31 4h59l53 -2h29l57 -4l60 4l84 4h53l90 -6
l31 2h28l31 -2l27 -6l18 -20l10 -25v-29l-12 -28l-20 -19l-27 -4l-29 2h-30l-56 -4l-28 4h-31l-61 -2l-17 -2h-61l-31 4h-29l-59 -6h-51l-31 4l-31 2h-28l-25 -4l-29 2h-82l-26 -4l-19 -10l-12 -19l-6 -22v-86l-2 -29v-28l4 -31l2 -31v-29l-4 -59l2 -31l2 -24v-25l-2 -33
l4 -28l10 -17l19 -8l24 -4h27l57 4h29l84 -2l63 -4l56 4h57l25 2h26l29 -4h145l29 2l25 2l59 -4h61l23 -4l18 -10l11 -17l6 -26l2 -27l-10 -24l-25 -19l-29 -8l-28 2h-27zM946 1755l25 2l26 -4l25 -10l20 -17l11 -26l2 -31l-2 -29l-11 -24l-20 -19l-29 -12l-28 -4l-25 8
l-22 13l-19 18l-8 27l-2 24l2 27l10 28l21 19zM485 1757l27 4l27 -4l24 -12l23 -19l10 -28l2 -29l-4 -24l-10 -27l-19 -21l-24 -12l-27 -2l-27 6l-26 13l-21 20l-14 29l-4 24l4 25l12 29l23 16z" />
    <glyph glyph-name="igrave" unicode="&#xec;" horiz-adv-x="540" 
d="M197 115l4 30l-2 31l-2 27l4 53v31l-2 26v29l-2 31l-2 28l2 29v57l6 58l-6 53l2 31v112l-2 29l4 31v30l-4 31v27l2 29v30l-2 31l2 27v26l-2 27v63l2 19l2 30l-4 58l2 31v114l4 27l8 18l16 11l27 4h29l28 -4l19 -11l8 -20l4 -27l2 -26l-4 -52v-88l-2 -26v-62l2 -26l4 -29
l-2 -31l-4 -28v-31l4 -29l-2 -29v-26l4 -60l-2 -26l-4 -29v-31l2 -30v-86l-2 -33v-14l2 -33l4 -33l2 -31l-2 -30l-4 -52v-55l-2 -31v-32l4 -31l2 -29v-51l-4 -27v-32l4 -58l-8 -30l-23 -23l-30 -6h-29l-25 4l-14 10l-12 17l-4 28l-2 31v29zM193 1853l20 -10l18 -16l39 -51
l17 -27l14 -25l14 -22l25 -53l16 -23l6 -24l-18 -13h-51l-27 2l-18 11l-21 16l-20 20l-17 23l-16 27l-55 69l-47 68l-4 20l14 10h82z" />
    <glyph glyph-name="iacute" unicode="&#xed;" horiz-adv-x="540" 
d="M197 115l4 30l-2 31l-2 27l4 53v31l-2 26v29l-2 31l-2 28l2 29v57l6 58l-6 53l2 31v112l-2 29l4 31v30l-4 31v27l2 29v30l-2 31l2 27v26l-2 27v63l2 19l2 30l-4 58l2 31v114l4 27l8 18l16 11l27 4h29l28 -4l19 -11l8 -20l4 -27l2 -26l-4 -52v-88l-2 -26v-62l2 -26l4 -29
l-2 -31l-4 -28v-31l4 -29l-2 -29v-26l4 -60l-2 -26l-4 -29v-31l2 -30v-86l-2 -33v-14l2 -33l4 -33l2 -31l-2 -30l-4 -52v-55l-2 -31v-32l4 -31l2 -29v-51l-4 -27v-32l4 -58l-8 -30l-23 -23l-30 -6h-29l-25 4l-14 10l-12 17l-4 28l-2 31v29zM492 1847l-72 -118l-19 -25
l-39 -43l-18 -25l-22 -22l-23 -15l-23 -8l-26 -4l-29 4l-20 11l4 20l12 27l31 49l14 31l17 24l30 51l19 19l20 14l19 8l26 8l31 2l55 -4z" />
    <glyph glyph-name="icircumflex" unicode="&#xee;" horiz-adv-x="540" 
d="M197 115l4 30l-2 31l-2 27l4 53v31l-2 26v29l-2 31l-2 28l2 29v57l6 58l-6 53l2 31v112l-2 29l4 31v30l-4 31v27l2 29v30l-2 31l2 27v26l-2 27v63l2 19l2 30l-4 58l2 31v114l4 27l8 18l16 11l27 4h29l28 -4l19 -11l8 -20l4 -27l2 -26l-4 -52v-88l-2 -26v-62l2 -26l4 -29
l-2 -31l-4 -28v-31l4 -29l-2 -29v-26l4 -60l-2 -26l-4 -29v-31l2 -30v-86l-2 -33v-14l2 -33l4 -33l2 -31l-2 -30l-4 -52v-55l-2 -31v-32l4 -31l2 -29v-51l-4 -27v-32l4 -58l-8 -30l-23 -23l-30 -6h-29l-25 4l-14 10l-12 17l-4 28l-2 31v29zM365 1788l106 -105l45 -34l64 -64
l10 -20l-21 -13l-28 -2l-29 2l-33 4l-26 7l-19 12l-20 20l-21 19l-49 37l-22 20l-21 23l-20 12l-19 2l-20 -4l-68 -49l-14 -13l-13 -14l-41 -33l-22 -16l-27 -12l-28 -8l-25 -5l-59 2l-21 7l-2 12l15 16l22 19l21 14l65 57l37 43l20 19l25 20l39 39l24 17l23 10l25 6l20 4
l23 -2l30 -12l31 -19z" />
    <glyph glyph-name="idieresis" unicode="&#xef;" horiz-adv-x="540" 
d="M197 115l4 30l-2 31l-2 27l4 53v31l-2 26v29l-2 31l-2 28l2 29v57l6 58l-6 53l2 31v112l-2 29l4 31v30l-4 31v27l2 29v30l-2 31l2 27v26l-2 27v63l2 19l2 30l-4 58l2 31v114l4 27l8 18l16 11l27 4h29l28 -4l19 -11l8 -20l4 -27l2 -26l-4 -52v-88l-2 -26v-62l2 -26l4 -29
l-2 -31l-4 -28v-31l4 -29l-2 -29v-26l4 -60l-2 -26l-4 -29v-31l2 -30v-86l-2 -33v-14l2 -33l4 -33l2 -31l-2 -30l-4 -52v-55l-2 -31v-32l4 -31l2 -29v-51l-4 -27v-32l4 -58l-8 -30l-23 -23l-30 -6h-29l-25 4l-14 10l-12 17l-4 28l-2 31v29zM410 1743l28 -2l23 -8l20 -15
l19 -24l2 -29l-4 -29l-13 -26l-22 -17l-27 -12l-28 -2l-25 10l-23 21l-18 26l-2 31l4 29l12 24l25 17zM98 1743l29 2l27 -8l20 -17l14 -26l5 -29l-5 -29l-14 -28l-20 -19l-25 -6l-31 -2l-26 8l-21 19l-16 24l-6 31l2 33l12 26l27 15z" />
    <glyph glyph-name="eth" unicode="&#xf0;" horiz-adv-x="1544" 
d="M346 647v-2l2 -29l4 -26l2 -33v-18l-2 -33v-178l-2 -25l4 -53l-4 -29l-2 -28l6 -29l11 -19l16 -10l27 -6l30 2l27 4h24l58 -4h51l35 2h29l28 -2l25 2l24 4l60 -2l112 25l50 18l28 12l51 31l27 19l18 18l19 16l39 39l53 66l12 24l11 29l26 49l17 58l12 49l6 28v31l4 29
l4 33l2 24l-2 25l-6 30l-2 27l-4 31l-6 28l-19 58l-12 26l-14 25l-23 55l-31 47l-16 21l-39 43l-67 57l-23 17l-27 12l-26 10l-27 15l-28 10l-33 6l-29 6l-25 6l-30 4l-31 6l-31 2l-16 -2h-31l-59 -2h-31l-29 4h-26l-29 -2h-115l-24 -8l-19 -22l-6 -27l-2 -27l2 -32l-4 -54
v-28l2 -29v-31l-2 -30l4 -54v-170l-2 -24h10l60 4h27l26 -4l29 -2h35l16 2l33 2h28l29 -2l29 -8l24 -17l9 -28l-9 -31l-20 -25l-27 -4l-55 4l-64 -4h-86l-26 -2h-74zM1436 698l-2 -26l-9 -58l-4 -28l-12 -58l-4 -28l-8 -29l-13 -25l-10 -24l-10 -27l-27 -51l-10 -27l-14 -24
l-43 -47l-15 -21l-36 -39l-21 -18l-20 -21l-21 -18l-24 -18l-27 -15l-27 -10l-47 -27l-28 -12l-29 -10l-60 -12l-28 -9l-27 -6l-31 -6l-32 -4h-29l-31 -2l-24 2h-23l-33 -2h-59l-29 -2h-106l-88 6l-29 -2l-55 -6l-27 2l-28 10l-21 23l-4 30l-4 56l4 55v27l-2 30l-2 27l2 27
v30l-2 31v31l-2 26l4 60v28l2 29v29l-2 28v29l2 25v26l-23 -4h-28l-31 4l-31 2l-26 4l-19 21l-6 29v22l8 17l17 12l30 4l33 -2h19l32 2h23l2 12l2 25l-2 26l-4 33l-2 29l4 57l-2 29v26l2 31l-2 31l-2 27l4 26l2 25l-2 28v88l-2 31v35l-2 18l2 33l8 29l21 20l28 11h60l51 4
l28 -2l31 -4l25 -2h61l62 4h47l61 -4h111l28 -3l29 -4l31 -8l29 -4l26 -8l53 -23l33 -8l27 -8l22 -16l25 -15l26 -12l50 -37l20 -18l57 -62l23 -20l61 -97l39 -77l11 -25l6 -24l6 -29l8 -31l8 -27l8 -57l3 -26l4 -29l2 -31v-33z" />
    <glyph glyph-name="ntilde" unicode="&#xf1;" horiz-adv-x="1550" 
d="M1214 412l-4 55v53l-4 29v29l4 51v114l-2 27l-2 33l2 28v89l2 24v27l-2 30v29l2 29v59l-6 58l4 59l4 53l-4 29l-4 61l8 29l23 18l33 5h30l27 -7l18 -20l9 -29l2 -28v-29l-6 -29v-26l4 -31v-201l2 -24l2 -27v-31l-4 -61l2 -27v-29l-4 -61l2 -29l-2 -26l-4 -25l2 -28l2 -33
l-2 -29l2 -25v-26l-2 -31v-112l4 -60v-92l-2 -29l-2 -26l2 -27l2 -31l-2 -30v-29l2 -29l-9 -26l-20 -19h-31l-22 6l-37 29l-19 25l-16 24l-78 84l-30 43l-39 47l-19 21l-16 22l-21 21l-16 20l-16 23l-21 26l-37 39l-35 45l-14 25l-41 45l-16 22l-49 68l-19 23l-20 20l-35 43
l-39 43l-16 25l-19 22l-47 66l-41 43l-16 22l-54 72l-16 20l-37 39l-18 25l-19 16l-12 -4l-2 -22v-29l-2 -27l2 -26l2 -29l-2 -31v-32l-2 -27v-25l2 -26l2 -29l-2 -31l2 -28v-29l2 -31v-26l-4 -56v-34l4 -31l2 -27v-28l-4 -56v-61l-2 -29l4 -61v-113l-2 -31v-86l-8 -30
l-23 -19l-28 -6l-29 -4l-29 8l-20 21l-4 26v29l-4 61v29l2 31l-4 53l2 29l4 30l2 29l-4 29l-2 30v29l2 31l2 26v25l-2 29v28l2 29l-2 27v59l-2 31l2 31l2 26l-2 25l-2 30l-2 35l-2 27l2 22l4 58l-2 33v30l2 27l4 26l-4 54l-4 30v64l4 57l-2 29v27l4 53l10 16l18 8l25 7
l27 -11l24 -16l23 -19l18 -22l29 -45l37 -41l32 -45l23 -21l37 -45l14 -22l17 -23l18 -22l16 -23l21 -22l18 -23l19 -20l16 -25l23 -22l65 -91l57 -65l54 -70l69 -92l21 -18l51 -72l72 -88l18 -20l35 -46l20 -20l31 -47l21 -23l18 -12l12 2l7 23v59zM549 1724l20 21l23 14
l29 10l30 5l31 -2l23 -5l49 -22l24 -8l29 -8l29 -11l24 -12l23 -4l24 8l23 14l22 17l19 8l22 2l25 -10l14 -15l6 -20l-4 -29l-12 -26l-37 -37l-27 -17l-14 -6l-31 -6l-30 2l-27 4l-51 19l-27 12l-24 12l-25 6l-29 9l-26 6l-23 -4l-22 -15l-23 -18l-20 -12h-23l-26 14l-15 18
l-6 19l4 22l12 23z" />
    <glyph glyph-name="ograve" unicode="&#xf2;" horiz-adv-x="1665" 
d="M260 600l4 -29l6 -28l9 -29l20 -53l10 -29l10 -26l15 -25l12 -23l14 -22l17 -23l41 -45l24 -22l13 -15l24 -20l49 -29l52 -24l26 -11l27 -8l29 -6l26 -8l27 -4l30 -4l29 -6h27l28 2h62l31 2l57 8l51 16l31 8l51 21l25 12l69 51l23 19l41 41l30 47l17 20l51 105l10 24
l8 29l17 53l2 29l6 31l4 26v33l2 27l-2 24l-4 31l-4 25l-4 59l-8 31l-11 26l-4 29l-8 25l-12 28l-10 27l-13 24l-18 21l-19 25l-30 47l-19 22l-24 23l-41 32l-99 60l-26 8l-53 21l-31 8l-31 4l-24 4h-117l-29 -2l-61 -2l-31 -6l-29 -11l-55 -16l-25 -8l-22 -12l-29 -13
l-26 -14l-23 -14l-45 -41l-18 -23l-19 -18l-55 -70l-14 -20l-13 -25l-20 -57l-17 -58l-12 -51l-6 -29l-4 -30v-64l-2 -22l-2 -25l4 -33l6 -28zM946 1448h29l29 -6l28 -8l29 -11l33 -8l73 -31l50 -24l98 -68l57 -53l68 -94l14 -25l10 -26l25 -52l8 -26l12 -29l13 -24l16 -56
l6 -24l4 -29l2 -33l4 -26l2 -27l3 -31v-49l-3 -31l-4 -28l-2 -33l-2 -27l-4 -22l-4 -29l-8 -31l-12 -30l-11 -25l-20 -53l-8 -25l-27 -47l-18 -26l-15 -25l-16 -20l-14 -23l-19 -25l-65 -57l-23 -16l-22 -21l-121 -59l-84 -31l-27 -6l-26 -8l-27 -6l-29 -4l-55 -3h-96
l-17 -2h-30l-60 9l-86 16l-78 31l-28 12l-47 25l-27 12l-25 14l-22 17l-23 20l-20 21l-21 18l-20 20l-19 23l-61 92l-51 107l-10 24l-9 27l-12 53l-6 31l-8 28l-6 25l-5 27l-4 63v27l2 24l5 29l4 27l4 55l6 29l27 108l20 58l12 26l29 53l35 50l14 22l16 19l21 18l18 22
l23 23l22 18l21 15l39 37l26 16l56 23l24 6l78 35l25 6l28 4l29 6h59l60 4l51 4h33l29 -4zM758 1853l20 -10l19 -16l39 -51l30 -52l15 -22l24 -53l17 -23l6 -24l-19 -13h-51l-27 2l-18 11l-20 16l-21 20l-33 50l-34 45l-21 24l-47 68l-4 20l14 10h82z" />
    <glyph glyph-name="oacute" unicode="&#xf3;" horiz-adv-x="1665" 
d="M260 600l4 -29l6 -28l9 -29l20 -53l10 -29l10 -26l15 -25l12 -23l14 -22l17 -23l41 -45l24 -22l13 -15l24 -20l49 -29l52 -24l26 -11l27 -8l29 -6l26 -8l27 -4l30 -4l29 -6h27l28 2h62l31 2l57 8l51 16l31 8l51 21l25 12l69 51l23 19l41 41l30 47l17 20l51 105l10 24
l8 29l17 53l2 29l6 31l4 26v33l2 27l-2 24l-4 31l-4 25l-4 59l-8 31l-11 26l-4 29l-8 25l-12 28l-10 27l-13 24l-18 21l-19 25l-30 47l-19 22l-24 23l-41 32l-99 60l-26 8l-53 21l-31 8l-31 4l-24 4h-117l-29 -2l-61 -2l-31 -6l-29 -11l-55 -16l-25 -8l-22 -12l-29 -13
l-26 -14l-23 -14l-45 -41l-18 -23l-19 -18l-55 -70l-14 -20l-13 -25l-20 -57l-17 -58l-12 -51l-6 -29l-4 -30v-64l-2 -22l-2 -25l4 -33l6 -28zM946 1448h29l29 -6l28 -8l29 -11l33 -8l73 -31l50 -24l98 -68l57 -53l68 -94l14 -25l10 -26l25 -52l8 -26l12 -29l13 -24l16 -56
l6 -24l4 -29l2 -33l4 -26l2 -27l3 -31v-49l-3 -31l-4 -28l-2 -33l-2 -27l-4 -22l-4 -29l-8 -31l-12 -30l-11 -25l-20 -53l-8 -25l-27 -47l-18 -26l-15 -25l-16 -20l-14 -23l-19 -25l-65 -57l-23 -16l-22 -21l-121 -59l-84 -31l-27 -6l-26 -8l-27 -6l-29 -4l-55 -3h-96
l-17 -2h-30l-60 9l-86 16l-78 31l-28 12l-47 25l-27 12l-25 14l-22 17l-23 20l-20 21l-21 18l-20 20l-19 23l-61 92l-51 107l-10 24l-9 27l-12 53l-6 31l-8 28l-6 25l-5 27l-4 63v27l2 24l5 29l4 27l4 55l6 29l27 108l20 58l12 26l29 53l35 50l14 22l16 19l21 18l18 22
l23 23l22 18l21 15l39 37l26 16l56 23l24 6l78 35l25 6l28 4l29 6h59l60 4l51 4h33l29 -4zM1049 1829l-64 -100l-18 -25l-21 -21l-37 -47l-22 -22l-23 -15l-22 -8l-27 -4l-29 4l-20 11l4 20l12 27l15 22l16 27l14 31l17 24l30 51l19 19l20 14l19 8l26 8l31 2l55 -4l13 -4z
" />
    <glyph glyph-name="ocircumflex" unicode="&#xf4;" horiz-adv-x="1665" 
d="M260 600l4 -29l6 -28l9 -29l20 -53l10 -29l10 -26l15 -25l12 -23l14 -22l17 -23l41 -45l24 -22l13 -15l24 -20l49 -29l52 -24l26 -11l27 -8l29 -6l26 -8l27 -4l30 -4l29 -6h27l28 2h62l31 2l57 8l51 16l31 8l51 21l25 12l69 51l23 19l41 41l30 47l17 20l51 105l10 24
l8 29l17 53l2 29l6 31l4 26v33l2 27l-2 24l-4 31l-4 25l-4 59l-8 31l-11 26l-4 29l-8 25l-12 28l-10 27l-13 24l-18 21l-19 25l-30 47l-19 22l-24 23l-41 32l-99 60l-26 8l-53 21l-31 8l-31 4l-24 4h-117l-29 -2l-61 -2l-31 -6l-29 -11l-55 -16l-25 -8l-22 -12l-29 -13
l-26 -14l-23 -14l-45 -41l-18 -23l-19 -18l-55 -70l-14 -20l-13 -25l-20 -57l-17 -58l-12 -51l-6 -29l-4 -30v-64l-2 -22l-2 -25l4 -33l6 -28zM946 1448h29l29 -6l28 -8l29 -11l33 -8l73 -31l50 -24l98 -68l57 -53l68 -94l14 -25l10 -26l25 -52l8 -26l12 -29l13 -24l16 -56
l6 -24l4 -29l2 -33l4 -26l2 -27l3 -31v-49l-3 -31l-4 -28l-2 -33l-2 -27l-4 -22l-4 -29l-8 -31l-12 -30l-11 -25l-20 -53l-8 -25l-27 -47l-18 -26l-15 -25l-16 -20l-14 -23l-19 -25l-65 -57l-23 -16l-22 -21l-121 -59l-84 -31l-27 -6l-26 -8l-27 -6l-29 -4l-55 -3h-96
l-17 -2h-30l-60 9l-86 16l-78 31l-28 12l-47 25l-27 12l-25 14l-22 17l-23 20l-20 21l-21 18l-20 20l-19 23l-61 92l-51 107l-10 24l-9 27l-12 53l-6 31l-8 28l-6 25l-5 27l-4 63v27l2 24l5 29l4 27l4 55l6 29l27 108l20 58l12 26l29 53l35 50l14 22l16 19l21 18l18 22
l23 23l22 18l21 15l39 37l26 16l56 23l24 6l78 35l25 6l28 4l29 6h59l60 4l51 4h33l29 -4zM930 1788l106 -105l45 -34l64 -64l10 -20l-20 -13l-29 -2l-29 2l-33 4l-26 7l-19 12l-20 20l-21 19l-49 37l-22 20l-21 23l-20 12l-19 2l-20 -4l-68 -49l-14 -13l-12 -14l-41 -33
l-23 -16l-26 -12l-29 -8l-25 -5l-59 2l-21 7l-2 12l15 16l22 19l21 14l65 57l37 43l45 39l39 39l25 17l22 10l25 6l20 4l23 -2l31 -12l30 -19z" />
    <glyph glyph-name="otilde" unicode="&#xf5;" horiz-adv-x="1665" 
d="M260 600l4 -29l6 -28l9 -29l20 -53l10 -29l10 -26l15 -25l12 -23l14 -22l17 -23l41 -45l24 -22l13 -15l24 -20l49 -29l52 -24l26 -11l27 -8l29 -6l26 -8l27 -4l30 -4l29 -6h27l28 2h62l31 2l57 8l51 16l31 8l51 21l25 12l69 51l23 19l41 41l30 47l17 20l51 105l10 24
l8 29l17 53l2 29l6 31l4 26v33l2 27l-2 24l-4 31l-4 25l-4 59l-8 31l-11 26l-4 29l-8 25l-12 28l-10 27l-13 24l-18 21l-19 25l-30 47l-19 22l-24 23l-41 32l-99 60l-26 8l-53 21l-31 8l-31 4l-24 4h-117l-29 -2l-61 -2l-31 -6l-29 -11l-55 -16l-25 -8l-22 -12l-29 -13
l-26 -14l-23 -14l-45 -41l-18 -23l-19 -18l-55 -70l-14 -20l-13 -25l-20 -57l-17 -58l-12 -51l-6 -29l-4 -30v-64l-2 -22l-2 -25l4 -33l6 -28zM946 1448h29l29 -6l28 -8l29 -11l33 -8l73 -31l50 -24l98 -68l57 -53l68 -94l14 -25l10 -26l25 -52l8 -26l12 -29l13 -24l16 -56
l6 -24l4 -29l2 -33l4 -26l2 -27l3 -31v-49l-3 -31l-4 -28l-2 -33l-2 -27l-4 -22l-4 -29l-8 -31l-12 -30l-11 -25l-20 -53l-8 -25l-27 -47l-18 -26l-15 -25l-16 -20l-14 -23l-19 -25l-65 -57l-23 -16l-22 -21l-121 -59l-84 -31l-27 -6l-26 -8l-27 -6l-29 -4l-55 -3h-96
l-17 -2h-30l-60 9l-86 16l-78 31l-28 12l-47 25l-27 12l-25 14l-22 17l-23 20l-20 21l-21 18l-20 20l-19 23l-61 92l-51 107l-10 24l-9 27l-12 53l-6 31l-8 28l-6 25l-5 27l-4 63v27l2 24l5 29l4 27l4 55l6 29l27 108l20 58l12 26l29 53l35 50l14 22l16 19l21 18l18 22
l23 23l22 18l21 15l39 37l26 16l56 23l24 6l78 35l25 6l28 4l29 6h59l60 4l51 4h33l29 -4zM606 1724l21 21l22 14l29 10l31 5l30 -2l23 -5l49 -22l25 -8l28 -8l29 -11l25 -12l22 -4l25 8l22 14l23 17l18 8l23 2l24 -10l15 -15l6 -20l-4 -29l-13 -26l-37 -37l-26 -17l-15 -6
l-30 -6l-31 2l-27 4l-51 19l-51 24l-25 6l-28 9l-27 6l-22 -4l-23 -15l-22 -18l-21 -12h-22l-27 14l-14 18l-7 19l5 22l12 23z" />
    <glyph glyph-name="odieresis" unicode="&#xf6;" horiz-adv-x="1665" 
d="M260 600l4 -29l6 -28l9 -29l20 -53l10 -29l10 -26l15 -25l12 -23l14 -22l17 -23l41 -45l24 -22l13 -15l24 -20l49 -29l52 -24l26 -11l27 -8l29 -6l26 -8l27 -4l30 -4l29 -6h27l28 2h62l31 2l57 8l51 16l31 8l51 21l25 12l69 51l23 19l41 41l30 47l17 20l51 105l10 24
l8 29l17 53l2 29l6 31l4 26v33l2 27l-2 24l-4 31l-4 25l-4 59l-8 31l-11 26l-4 29l-8 25l-12 28l-10 27l-13 24l-18 21l-19 25l-30 47l-19 22l-24 23l-41 32l-99 60l-26 8l-53 21l-31 8l-31 4l-24 4h-117l-29 -2l-61 -2l-31 -6l-29 -11l-55 -16l-25 -8l-22 -12l-29 -13
l-26 -14l-23 -14l-45 -41l-18 -23l-19 -18l-55 -70l-14 -20l-13 -25l-20 -57l-17 -58l-12 -51l-6 -29l-4 -30v-64l-2 -22l-2 -25l4 -33l6 -28zM946 1448h29l29 -6l28 -8l29 -11l33 -8l73 -31l50 -24l98 -68l57 -53l68 -94l14 -25l10 -26l25 -52l8 -26l12 -29l13 -24l16 -56
l6 -24l4 -29l2 -33l4 -26l2 -27l3 -31v-49l-3 -31l-4 -28l-2 -33l-2 -27l-4 -22l-4 -29l-8 -31l-12 -30l-11 -25l-20 -53l-8 -25l-27 -47l-18 -26l-15 -25l-16 -20l-14 -23l-19 -25l-65 -57l-23 -16l-22 -21l-121 -59l-84 -31l-27 -6l-26 -8l-27 -6l-29 -4l-55 -3h-96
l-17 -2h-30l-60 9l-86 16l-78 31l-28 12l-47 25l-27 12l-25 14l-22 17l-23 20l-20 21l-21 18l-20 20l-19 23l-61 92l-51 107l-10 24l-9 27l-12 53l-6 31l-8 28l-6 25l-5 27l-4 63v27l2 24l5 29l4 27l4 55l6 29l27 108l20 58l12 26l29 53l35 50l14 22l16 19l21 18l18 22
l23 23l22 18l21 15l39 37l26 16l56 23l24 6l78 35l25 6l28 4l29 6h59l60 4l51 4h33l29 -4zM1044 1755l25 2l27 -4l24 -10l21 -17l10 -26l2 -31l-2 -29l-10 -24l-21 -19l-28 -12l-29 -4l-25 8l-22 13l-19 18l-8 27l-2 24l2 27l10 28l21 19zM584 1757l26 4l27 -4l25 -12
l22 -19l10 -28l2 -29l-4 -24l-10 -27l-18 -21l-25 -12l-27 -2l-26 6l-27 13l-20 20l-15 29l-4 24l4 25l13 29l22 16z" />
    </font>
</defs>
</svg>
