<?xml version="1.0" standalone="no"?>
<!DOCTYPE svg PUBLIC "-//W3C//DTD SVG 1.1//EN" "http://www.w3.org/Graphics/SVG/1.1/DTD/svg11.dtd" >
<svg xmlns="http://www.w3.org/2000/svg">
<metadata>
Created by FontPrep 20130207 at Mon Feb  8 10:00:44 2016
 By Cristian Borquez
Copyright (c) 2014 by Fontfabric. All rights reserved.
</metadata>
<defs>
<font id="703b2b1a3b1a9cc70b6e98b36b84348b" horiz-adv-x='1024' >
  <font-face 
    font-family="NexaRustSans-Black"
    font-weight="900"
    font-stretch="normal"
    units-per-em="2048"
    panose-1="0 0 10 0 0 0 0 0 0 0"
    ascent="1638"
    descent="-410"
    x-height="1479"
    cap-height="1483"
    bbox="-240 -686 2660 2124"
    underline-thickness="102"
    underline-position="-102"
    unicode-range="U+0020-25CA"
  />
<missing-glyph horiz-adv-x="1075" 
d="M358 -193h152l-152 -100v-72h359v72h-219l149 100h70v72h-359v-72zM430 0v100h215v-100h-215zM358 -72h359v244h-359v-244zM502 424h71v49h72v-100h-215v172h-72v-244h359v244h-215v-121zM645 664h-287v-72h359v215h-72v-143zM358 864h144v-80h-144v-69h215v149h144v72
h-359v-72zM430 1067v78h72v-78h-72zM358 993h359v74h-144v150h-215v-224zM360 1423h142v-80h-144v-69h359v69h-144v80h144v72h-357v-72zM201 -512v2150h682v-2150h-682z" />
    <glyph glyph-name=".notdef" horiz-adv-x="1075" 
d="M358 -193h152l-152 -100v-72h359v72h-219l149 100h70v72h-359v-72zM430 0v100h215v-100h-215zM358 -72h359v244h-359v-244zM502 424h71v49h72v-100h-215v172h-72v-244h359v244h-215v-121zM645 664h-287v-72h359v215h-72v-143zM358 864h144v-80h-144v-69h215v149h144v72
h-359v-72zM430 1067v78h72v-78h-72zM358 993h359v74h-144v150h-215v-224zM360 1423h142v-80h-144v-69h359v69h-144v80h144v72h-357v-72zM201 -512v2150h682v-2150h-682z" />
    <glyph glyph-name=".null" horiz-adv-x="0" 
 />
    <glyph glyph-name="nonmarkingreturn" horiz-adv-x="681" 
 />
    <glyph glyph-name="space" unicode=" " horiz-adv-x="819" 
 />
    <glyph glyph-name="exclam" unicode="!" horiz-adv-x="681" 
d="M508 133l-10 -33l-15 -30l-20 -29l-25 -25l-28 -18l-31 -8l-33 -6h-74l-16 2l-31 2l-45 14l-33 18l-26 21l-8 12l-19 23l-18 39l-6 12l-7 29v43l9 39l6 14l12 24l8 11l19 22l8 13l27 22l32 23l31 14l12 4l31 6l14 2h35l35 -6l33 -12l55 -35l27 -21l20 -24l17 -29l10 -33
l6 -32l2 -35zM492 1030l-3 -45l-2 -33l9 -123l-2 -32l-2 -45l-5 -31l-2 -47v-31l2 -45l2 -33l-4 -45l-2 -26l-14 -17l-29 -8l-49 -2l-33 -2l-51 2h-82l-32 2l-50 8l-26 6l-17 13l-4 24l-6 201v31l-2 47v30l-4 123v33l2 45v31l4 47v31l-4 123v32l-4 45l2 31l2 47l8 25l17 14
l26 4l53 2l33 2l53 -4l33 2l53 6l35 2h52l30 -6l15 -18l4 -29l4 -47v-31l-4 -45v-110l2 -45l-2 -31l-2 -47z" />
    <glyph glyph-name="quotedbl" unicode="&#x22;" horiz-adv-x="937" 
d="M782 991l-2 -51l-6 -29l-18 -14l-27 -6l-57 -4l-29 2h-29l-59 -4l-29 2l-24 6l-15 18l-4 29l-4 51v37l4 51v123l-2 51v37l-4 51l2 35l2 54l6 28l17 15l24 6l58 4l28 -2h29l31 2h28l29 -2l27 -6l14 -15l4 -30v-89l-2 -51v-37l2 -51v-35l2 -53l2 -35l2 -51v-37zM344 991
l-4 -51l-4 -29l-19 -14l-26 -6l-58 -4l-28 2h-29l-57 -4l-29 2l-24 6l-15 18l-4 29l-4 51v37l4 51v35l-2 53v123l-4 51l2 35l2 54l6 28l15 15l24 6l57 4l29 -2h29l31 2l32 -2h19l30 -6l17 -15l4 -30v-89l-4 -51v-37l4 -51v-35l2 -53v-35l4 -51v-37z" />
    <glyph glyph-name="numbersign" unicode="#" horiz-adv-x="1527" 
d="M616 793l-10 -48l-20 -77l-6 -33l-5 -49v-29l11 -20l26 -11l50 -4h32l51 6l27 7l14 12l9 24l14 45l8 33l8 49l27 78l10 33l8 45l2 33l-16 20l-31 8l-49 7h-33l-51 -7l-26 -4l-19 -12l-10 -27l-12 -47zM1403 1012l-6 -76l-6 -27l-19 -16l-31 -4l-122 8l-27 -4l-14 -16
l-11 -27l-10 -35l-8 -33l-6 -34l-37 -140l-10 -24l-4 -19l18 -6l31 -2l61 4l31 -6l18 -18l6 -29l7 -80l-2 -33l-9 -78l-6 -28l-16 -17l-29 -6l-51 4l-33 2l-51 2l-25 -2l-12 -16l-8 -29l-27 -75l-32 -109l-9 -23l-12 -10l-24 -4l-31 -4l-29 -2h-59l-31 -2l-31 2l-30 6l-29 8
l-19 17l-2 26l23 97l29 88l-4 16l-21 6l-61 12l-29 3l-62 -5l-24 -6l-14 -14l-9 -27l-20 -75l-8 -33l-31 -101l-14 -10l-25 -4l-59 -4l-31 2l-29 -2l-30 -4h-29l-31 2l-26 8l-15 21v30l13 64l6 33l16 61l6 29l-4 18l-24 8h-19l-33 2l-18 2l-27 5l-14 12l-6 26l-10 78l-3 33
l7 78l6 29l16 16l29 4l63 2h33l62 -2l24 4l8 10l19 60l32 137l9 33l6 35l6 30l-2 21l-21 6h-63l-33 -2l-26 4l-13 16l-6 27l-6 78v30l6 76l6 31l13 18l26 7l62 -5h30l62 -4l24 2l17 15l18 57l8 33l7 33l4 32l12 68l10 31l10 24l19 13l24 2l31 2h31l31 -2h30l31 2h29l30 -2
l27 -7l14 -18v-27l-12 -61l-25 -82l-18 -88l6 -25l23 -10l61 -6h33l63 8l23 8l6 15l4 26l10 33l9 33l20 98l10 33l11 31l12 24l14 13l27 2l31 2l59 -4h31l59 4l31 -2l26 -7l13 -18v-29l-4 -32l-7 -31l-8 -31l-10 -33l-12 -30l-15 -64l4 -22l21 -4h31l32 -2l29 -9l16 -16
l7 -29l8 -76z" />
    <glyph glyph-name="dollar" unicode="$" horiz-adv-x="1466" 
d="M1343 428l-10 -45l-18 -66l-25 -73l-12 -31l-18 -31l-23 -28l-27 -23l-26 -20l-97 -58l-69 -35l-31 -12l-67 -20l-43 -11l-11 -2l2 -12v-53l-2 -35l-6 -51l-4 -29l-14 -12l-29 -4l-35 -6l-35 -2h-114l-35 2l-35 6l-27 4l-12 14l-4 27l-4 35l-2 34l2 35l-4 29l-14 14
l-27 8l-49 11l-33 6l-78 26l-47 19l-29 14l-45 27l-67 47l-64 57l-12 25l6 20l17 23l20 31l68 79l24 37l21 27l24 27l25 18l24 2l25 -12l33 -33l57 -43l29 -16l43 -19l67 -20l33 -4l45 -4l105 6l45 2l32 4l33 8l29 12l37 25l18 24l10 31v29l-10 31l-20 22l-43 27l-31 14
l-33 10l-33 6l-49 11l-145 10l-33 6l-35 10l-69 27l-31 10l-43 10l-31 11l-33 14l-28 14l-35 29l-25 23l-24 26l-21 29l-16 31l-12 28l-15 43l-8 31l-8 35l-6 30l-6 48v30l8 54l6 30l16 47l13 29l49 66l94 90l68 49l30 14l78 25l49 12l19 4l4 2v17l2 47l2 28l10 74l12 23
l23 6l45 4l29 -2l45 -2l28 -2h45l33 -2l35 -6l29 -7l12 -14l4 -25l4 -45l2 -28l-4 -45l2 -19l6 -8l21 -6l31 -6l92 -25l30 -6l60 -20l53 -31l49 -39l19 -21l6 -20l-12 -25l-19 -26l-68 -80l-18 -29l-45 -51l-20 -16l-19 -4l-24 10l-48 24l-30 13l-47 16l-82 16l-33 2l-53 5
h-33l-35 -2l-59 -13l-29 -12l-27 -19l-18 -24l-10 -29v-28l14 -43l18 -23l39 -25l33 -10l68 -12l119 -10l71 -8l76 -17l66 -18l32 -15l92 -55l60 -43l26 -22l48 -54l22 -28l19 -31l14 -33l12 -33l12 -65l2 -47v-29z" />
    <glyph glyph-name="percent" unicode="%" horiz-adv-x="1939" 
d="M1501 385l-24 29l-31 14l-16 2h-29l-15 -2l-28 -14l-25 -29l-10 -33v-35l10 -30l25 -23l28 -12l15 -2h29l16 2l31 12l24 23l12 30v35zM1786 242l-8 -35l-15 -35l-18 -31l-47 -55l-27 -25l-29 -22l-30 -19l-33 -16l-35 -14l-33 -6l-36 -4l-39 -3h-39l-39 5l-35 6l-35 8
l-35 12l-34 15l-31 18l-27 22l-26 25l-23 27l-18 30l-29 66l-8 35l-6 35l-2 34v37l2 35l4 37l8 35l12 33l17 30l22 29l25 27l53 47l29 20l32 19l33 12l35 8l37 6l39 4h39l37 -4l36 -6l33 -8l35 -12l35 -17l59 -41l25 -24l22 -29l17 -31l16 -33l14 -32l13 -35l8 -35l4 -35
v-73zM494 1190l-25 27l-31 12l-16 4h-29l-14 -4l-29 -12l-24 -27l-13 -31v-35l13 -30l24 -27l29 -12l14 -4h29l16 4l31 12l25 27l12 30v35zM1544 1407l-18 -29l-56 -65l-241 -393l-197 -279l-84 -125l-164 -262l-84 -127l-61 -104l-16 -21l-15 -8h-24l-123 -4l-35 -2l-51 -2
h-35l-35 6l-29 14l-12 21v16l8 23l19 28l53 64l82 131l96 162l70 94l98 162l176 254l64 98l110 153l84 127l62 105l16 18l15 4h20l229 19h31l16 -4l23 -4l14 -13l9 -16l-3 -16zM780 1049l-8 -35l-14 -33l-19 -31l-22 -28l-25 -27l-26 -25l-29 -22l-31 -21l-33 -16l-34 -12
l-35 -6l-35 -5l-45 -4l-35 2l-39 5l-35 6l-32 8l-35 12l-35 14l-31 19l-26 20l-27 25l-23 29l-18 30l-29 66l-8 33l-6 34l-4 72l2 37l4 35l8 35l13 32l18 31l23 29l24 26l53 50l29 20l33 19l33 12l34 8l35 6l39 4h33l12 -2l33 -2l37 -8l33 -8l34 -13l33 -16l31 -18l29 -23
l24 -24l23 -29l18 -31l16 -33l25 -65l8 -35l6 -37v-74z" />
    <glyph glyph-name="ampersand" unicode="&#x26;" horiz-adv-x="1566" 
d="M866 598l-18 2h-72l-51 -4h-100l-35 -4l-35 -8l-35 -13l-31 -16l-28 -18l-21 -27l-10 -35l-2 -39l10 -35l17 -28l24 -25l29 -16l33 -10l34 -9l37 -4l33 -2l43 6l12 4l27 11l14 4l25 12l41 27l22 22l9 13l12 22l6 14l6 27l2 14l4 60l4 32l-2 17zM1391 897v-33l2 -30l4 -27
v-139l-2 -29v-31l-6 -2h-23l-33 -2l-26 -4l-56 -4l-2 -18v-48l-2 -24l6 -53l13 -33l32 -35l17 -8l31 -8l30 -2l19 -2l2 -5v-4l-2 -18l2 -19l2 -32l4 -37l2 -35l2 -18v-33l-2 -19v-32l-4 -74v-37l-2 -4h-2l-19 -2l-32 -4h-72l-35 4l-70 16l-30 15l-29 18l-23 25l-20 28
l-29 49l-4 5h-10l-16 -17l-27 -24l-70 -50l-67 -34l-45 -21l-29 -10l-12 -2l-33 -8l-39 -4h-164l-51 4l-35 2l-49 8l-33 8l-47 10l-78 31l-24 14l-45 31l-54 51l-22 33l-16 29l-15 41l-6 12l-8 33l-14 71v13l-2 28l-3 17v31l3 30l6 31l8 33l12 28l14 29l19 29l43 49l22 22
l27 21l43 29l2 4v4l-2 4l-27 16l-22 19l-12 8l-19 20l-10 13l-18 28l-17 31l-4 14l-10 29l-2 16l-6 29v12l-2 33v37l4 37l6 35l8 32l10 35l31 66l18 28l23 27l53 47l31 21l31 18l30 14l103 37l104 25l35 6l37 4l35 2h67l51 -4l33 -2l76 -12l43 -6l47 -11l37 -10l31 -14
l37 -19l12 -8l29 -16l32 -25l29 -28l27 -37l14 -25l22 -51l11 -31l10 -37l6 -35v-12l2 -28l2 -15v-18l-14 -6h-57l-78 -4l-17 -3h-37l-165 9l-7 2l-4 4l-4 14l-4 17l-10 26l-6 12l-23 27l-28 21l-13 6l-41 12l-28 2h-15l-28 -2l-45 -10l-13 -4l-28 -11l-13 -6l-37 -22
l-18 -21l-6 -10l-10 -27l-4 -12v-33l8 -34l12 -29l20 -25l25 -18l29 -17l32 -8l31 -4h31l14 -2h29l59 -2h41l15 -2h28l60 -4h43l14 2l29 2l28 4l29 2l14 2h29l14 -2h29l29 -4l28 -2l15 -2h28l15 2h121z" />
    <glyph glyph-name="quotesingle" unicode="'" horiz-adv-x="507" 
d="M352 983l-4 -51l-4 -29l-16 -14l-27 -6l-59 -4l-31 2h-29l-30 -2h-29l-31 2l-24 6l-17 16l-6 29l-2 51v37l2 51l2 33v94l2 51l-2 37l-2 51l-2 37l4 51l4 29l17 14l24 7l60 4l30 -2h29l31 2l59 -4l27 -7l18 -14l4 -29v-86l-4 -143v-92l2 -33l2 -51z" />
    <glyph glyph-name="parenleft" unicode="(" horiz-adv-x="845" 
d="M723 -31l-18 -26l-23 -25l-23 -22l-22 -25l-19 -25l-45 -45l-20 -18l-21 -6l-24 12l-88 72l-72 73l-74 86l-43 56l-55 94l-16 33l-29 71l-8 33l-10 35l-39 100l-11 35l-8 31l-6 45l-4 33l-2 35l-4 36l-12 68l-4 45l-3 31l5 47l2 33l10 82l10 47l6 32l10 45l23 80l25 78
l36 72l17 29l29 40l43 68l114 158l33 39l23 22l106 72l25 12l18 -2l41 -37l57 -69l21 -23l35 -49l12 -23l-4 -18l-70 -86l-26 -39l-54 -68l-47 -65l-16 -29l-35 -78l-31 -77l-24 -80l-13 -47l-6 -33l-6 -51l-2 -33l-2 -47l4 -70l8 -69l2 -33l2 -45l2 -31l5 -35l8 -35l12 -34
l43 -97l57 -92l58 -88l67 -82l54 -49l20 -25l6 -24z" />
    <glyph glyph-name="parenright" unicode=")" horiz-adv-x="837" 
d="M723 692l-2 -45l-4 -31l-6 -34l-39 -142l-47 -139l-27 -65l-16 -33l-90 -156l-41 -61l-23 -29l-49 -51l-51 -47l-54 -54l-34 -28l-21 -10l-20 10l-23 18l-45 45l-41 49l-37 54l-16 26l-12 25v24l14 23l123 133l61 84l37 61l31 62l20 68l25 106l37 209v35l-2 47l-4 33
l-11 53l-6 33l-10 47l-8 32l-17 50l-12 30l-20 43l-45 72l-76 150l-19 26l-55 62l-35 34l-18 23l-4 18l10 21l16 26l58 70l18 27l37 47l23 16l22 4l25 -14l63 -53l152 -148l92 -133l41 -72l37 -73l12 -29l27 -78l14 -47l18 -78l6 -32l11 -48l4 -32l2 -49l2 -33v-78l2 -45
v-29z" />
    <glyph glyph-name="asterisk" unicode="*" horiz-adv-x="886" 
d="M754 1126l-9 -12l-24 -8l-35 -6l-65 -17l-21 -6l-8 -6l-2 -10v-10l12 -17l31 -33l20 -24l35 -33l14 -20l-2 -15l-16 -18l-53 -45l-86 -55l-23 -13l-16 2l-17 19l-28 43l-49 65l-19 19l-12 2l-8 -6l-84 -119l-15 -19l-14 -4l-82 47l-80 68l-18 20l-4 15l12 18l76 84l14 19
l2 12l-2 10l-8 8l-20 6l-33 7l-33 4l-33 6l-22 8l-6 12l2 23l14 76l33 98l12 22l12 7l23 -9l43 -14l71 -27l19 -4h10l10 7l4 8l-2 20l-8 107v24l10 13l25 4l70 4h32l70 -4l25 -4l12 -13v-26l-8 -70l-2 -35v-24l4 -11l6 -6l10 -2l90 35l43 20l23 7l14 -9l35 -88l10 -32
l15 -70z" />
    <glyph glyph-name="plus" unicode="+" horiz-adv-x="1105" 
d="M950 700l2 -34l-2 -35l-2 -15l-4 -24l-12 -14l-12 -7l-25 -4l-37 -4l-47 2l-31 2l-47 4h-41l-20 -4l-15 -6l-8 -12l-6 -27v-18l-2 -31l6 -92l-2 -33v-18l-4 -29l-14 -16l-27 -9h-43l-86 5l-45 -5l-33 3l-14 4l-27 6l-16 14l-4 29l-4 67l6 82l-2 31v12l-8 29l-17 14l-24 2
h-136l-32 2h-19l-30 9l-19 12l-4 26l-2 19l2 35l4 30l2 33l-4 51l4 35l6 29l15 16l26 4h51l68 -4l68 4l24 4l15 5l10 14l4 22l2 29l-2 31l-4 84v51l4 27l8 16l10 8l21 2l14 2l31 -2l51 -6h33l47 4h47l23 -4l14 -8l8 -14l4 -25v-70l-2 -32l-4 -47l2 -29v-17l6 -22l8 -14
l13 -7l22 -4h49l107 6l33 -2l16 -2l27 -4l18 -16l10 -29v-35l-2 -51v-35z" />
    <glyph glyph-name="comma" unicode="," horiz-adv-x="491" 
d="M373 94l-4 -14l-7 -33l-28 -110l-6 -17l-9 -39l-10 -37l-14 -34l-6 -17l-10 -22l-7 -9l-6 -4l-10 -4l-66 -8l-28 -2l-29 2l-14 4l-23 4l-12 6l-8 9l-4 14l2 22l6 29l8 33l10 37l13 55l2 25v10l-4 8l-52 43l-20 31l-10 30l-4 15l-3 29l3 12l6 33l12 34l16 29l25 25l33 18
l35 12l34 6l37 3l37 -7l33 -12l31 -18l22 -25l16 -27l11 -32l6 -33v-43z" />
    <glyph glyph-name="hyphen" unicode="-" horiz-adv-x="1003" 
d="M844 608l-4 -26l-17 -17l-26 -8l-45 -2l-29 -2l-45 4h-31l-115 4h-102l-45 2h-102l-45 -2l-29 -2l-45 -2l-29 -2l-45 4l-24 6l-15 17l-6 26l-2 31v31l2 30v31l-2 31l4 61l6 27l13 14l24 4h74l45 -2h29l45 4h28l45 2h176l115 -4l31 2l45 2l29 2l45 -4l26 -4l15 -16l6 -27
l2 -30l-4 -62v-31l4 -61z" />
    <glyph glyph-name="period" unicode="." horiz-adv-x="602" 
d="M485 106l-10 -32l-14 -31l-19 -29l-26 -24l-29 -17l-31 -10l-32 -4l-37 -2h-37l-14 2l-31 2l-47 14l-33 19l-27 20l-8 13l-18 22l-19 39l-4 12l-6 29v55l12 41l15 25l6 12l26 33l27 22l33 23l31 14l12 6l31 7h49l37 -7l30 -12l29 -16l53 -39l23 -25l14 -28l12 -33l6 -33
l3 -35z" />
    <glyph glyph-name="slash" unicode="/" horiz-adv-x="1107" 
d="M963 1532l-11 -29l-78 -178l-100 -287l-61 -139l-54 -143l-24 -74l-8 -29l-41 -112l-13 -29l-26 -72l-17 -43l-24 -71l-70 -170l-49 -107l-10 -31l-43 -112l-10 -21l-13 -8l-24 -4l-31 -2h-63l-33 -2l-35 -6l-33 -2l-31 2l-26 8l-12 23v30l10 47l8 29l16 41l33 70l12 28
l21 39l24 72l35 102l21 39l30 70l62 172l20 72l25 73l31 70l20 39l66 174l45 106l10 31l20 74l25 71l21 41l12 29l20 39l11 29l12 45l24 71l13 21l14 8h123l65 4l64 -4l29 -6l14 -18l-4 -27z" />
    <glyph glyph-name="zero" unicode="0" horiz-adv-x="1533" 
d="M532 397l23 -24l39 -25l33 -10l37 -6l34 -2h37l51 4l33 8l31 12l29 19l10 10l22 27l19 32l14 31l21 70l6 32l2 50l6 98v33l2 61l-2 31l-4 49l-8 33l-11 35l-12 30l-22 45l-17 27l-24 25l-27 20l-29 14l-14 4l-31 11l-30 2l-15 2h-33l-34 -6l-15 -2l-30 -11l-31 -16
l-37 -25l-23 -22l-22 -31l-18 -31l-13 -36l-8 -35l-4 -35l-2 -47v-31l-2 -61v-33l-2 -66v-32l4 -52l4 -32l8 -35l15 -43l20 -39zM1386 817l-2 -69v-121l-2 -45l-2 -31l-2 -45l-6 -31l-8 -47l-21 -66l-34 -71l-39 -60l-43 -57l-58 -59l-24 -19l-41 -20l-27 -15l-69 -30
l-43 -17l-29 -10l-45 -10l-31 -6l-35 -4l-34 -2l-50 -5l-32 3l-54 4l-32 4l-111 18l-31 6l-43 13l-76 32l-59 37l-65 47l-23 21l-49 57l-29 39l-14 27l-23 39l-10 28l-14 47l-6 29l-11 45l-4 31l-6 35l-4 32l-2 54l-2 30l2 78v84l4 66l6 32l8 54l9 32l8 46l20 73l23 62
l14 30l25 45l20 29l33 37l55 45l27 18l67 37l72 31l55 21l31 10l31 8l33 4l53 2h33l104 -4l33 -2l49 -8l33 -4l80 -19l35 -10l32 -12l31 -13l29 -14l47 -27l26 -18l23 -22l55 -68l47 -74l15 -28l24 -60l25 -78l8 -34l6 -33l10 -76l2 -45z" />
    <glyph glyph-name="one" unicode="1" horiz-adv-x="1021" 
d="M899 49l-6 -26l-14 -13l-15 -10l-14 -6h-59l-89 4h-32l-277 4h-33l-206 -8l-68 4l-23 6l-8 6l-4 13l-2 20v47l4 62l-2 32l-8 62v30l2 15l8 22l23 4l82 -6h32l48 2l24 4l12 7l7 14v145l10 156v31l-2 45l-4 30l-2 52l-2 32l4 54l4 69v23l-6 12l-13 8l-18 2l-74 -24l-31 -8
l-30 -4h-27l-18 8l-9 14l-6 21l-2 16v33l4 51v35l-4 63v35l4 27l9 12l10 8l20 10l19 6l30 13l60 18l168 62l108 34l113 50l31 8l24 2l21 -6l10 -15l6 -24l4 -25l-2 -24l-4 -80l-2 -33v-319l-6 -125v-33l8 -127l-12 -191l8 -127l2 -20l6 -12l12 -9l25 -2l147 -2l13 -4l8 -18
l2 -15l2 -30l-4 -62v-32l4 -68v-35z" />
    <glyph glyph-name="two" unicode="2" horiz-adv-x="1431" 
d="M436 350l21 -4l28 -2l78 2h166l105 -2h32l240 4l33 2l67 6h35l27 -6l12 -18l4 -29l4 -63v-84l4 -52l-2 -32l-2 -29l-4 -20l-8 -13l-12 -6l-66 -10l-29 -2l-225 12h-115l-180 -10h-297l-149 2l-115 4l-25 2l-14 8l-4 13l-2 22l4 123v33l-6 125l2 32l6 62l19 94l20 68l6 16
l15 33l16 26l35 37l22 21l37 28l66 43l26 15l43 20l82 27l35 8l35 6l33 4l104 6l19 2l36 3l52 2l36 8l17 8l31 18l14 15l18 26l13 43v45l-15 50l-8 14l-20 24l-27 13l-45 12l-29 4l-30 2h-31l-29 -2l-29 -6l-43 -14l-26 -15l-12 -8l-21 -22l-10 -13l-15 -30l-10 -29l-18 -12
l-31 -9h-18l-35 -2l-86 5h-86l-35 2l-53 6l-27 4l-14 8l-6 10v35l4 31l4 18l6 33l14 45l37 68l19 26l22 27l49 43l39 26l90 50l35 14l33 10l78 17l30 6l29 4l45 2l33 2h68l47 2h32l31 -2l31 -6l43 -10l127 -41l74 -33l28 -17l27 -22l49 -53l47 -64l29 -59l20 -60l6 -30
l7 -49v-31l-3 -45l-4 -29l-10 -47l-8 -31l-12 -35l-15 -30l-22 -39l-45 -62l-56 -53l-26 -16l-43 -23l-31 -12l-35 -10l-32 -11l-68 -12l-47 -4l-33 -4l-68 -12l-49 -4l-34 -2h-17l-37 -3h-16l-35 -6l-16 -6l-31 -14l-12 -10l-23 -23l-16 -24l-13 -29l-10 -43l-2 -17z" />
    <glyph glyph-name="three" unicode="3" horiz-adv-x="1468" 
d="M1321 412l-2 -35l-6 -33l-10 -45l-11 -31l-30 -55l-33 -41l-43 -45l-72 -55l-27 -15l-40 -16l-72 -25l-74 -20l-33 -8l-34 -6l-35 -5l-45 -2h-33l-117 5l-69 4l-35 4l-64 12l-47 12l-31 11l-30 12l-31 14l-70 41l-57 47l-33 33l-20 25l-19 30l-16 29l-43 113l-16 75l4 23
l18 14l33 6l69 4l70 -4h33l94 9h49l29 -7l16 -14l13 -27l4 -18l16 -31l37 -35l12 -8l31 -14l14 -8l35 -10l35 -9l35 -4h32l52 6l32 11l19 6l29 18l12 10l31 35l10 27l4 16v31l-4 16l-10 31l-29 37l-37 25l-39 18l-33 6l-34 4l-35 2h-52l-65 -4l-45 -2h-45l-25 8l-14 17
l-6 24l-4 31l-2 29l2 28v31l-2 45l2 37l6 27l8 14l12 6l70 6l33 -2l63 -6l31 -2l14 -2l31 2l45 6l35 8l16 6l33 15l14 10l23 23l10 12l12 31l2 20l-2 21l-14 30l-10 17l-33 32l-27 13l-30 6l-29 4l-47 2l-31 -2l-51 -4l-31 -6l-16 -6l-29 -13l-39 -30l-22 -39l-10 -25
l-19 -12l-29 -6h-51l-86 4l-30 2l-62 -4l-31 2l-45 2l-24 6l-11 6l-6 12v23l6 45l7 31l34 98l15 29l18 30l23 27l26 25l27 22l31 18l30 21l62 35l33 14l34 12l35 9l35 6l35 4l70 12l36 4l35 2l33 -2l47 -2l96 -12l47 -10l31 -6l111 -37l57 -27l29 -18l57 -45l27 -27l20 -23
l27 -39l37 -92l12 -43l6 -30l2 -35v-35l-2 -14l-6 -31l-14 -39l-29 -53l-25 -39l-18 -23l-35 -32l-14 -17l-6 -16l8 -17l47 -32l25 -21l41 -43l18 -24l22 -46l11 -32l6 -35l4 -64v-32z" />
    <glyph glyph-name="four" unicode="4" horiz-adv-x="1499" 
d="M655 580l84 2l29 4l18 12l13 23l10 137v141l-4 25l-12 10l-15 -2l-90 -88l-86 -105l-94 -94l-14 -18v-19l16 -18l27 -6l86 -4h32zM1360 301l-8 -27l-17 -14l-26 -6l-62 -4l-14 -6l-21 -17l-12 -24l-2 -29l6 -65l2 -33l-2 -31l-6 -29l-18 -20l-29 -8h-47l-119 8h-51l-33 2
l-47 4l-29 4l-16 12l-8 27l-2 31v33l4 79l-2 31l-15 25l-18 10l-27 2l-135 -8h-33l-307 6l-108 -8h-31l-31 2l-24 8l-13 18l-24 142l-4 33l-8 120l2 23l90 115l96 108l100 103l23 22l76 82l90 113l100 102l55 63l39 50l23 20l94 96l10 9l21 2l139 -4l111 6h30l31 -2l23 -4
l14 -7l6 -12l2 -27l6 -129v-32l-4 -129v-33l2 -129v-33l-2 -129v-33l-6 -129l2 -26l16 -23l27 -18l57 -4h13l24 -7l15 -14l6 -27l2 -18l2 -33l-4 -47l2 -33l4 -49v-51z" />
    <glyph glyph-name="five" unicode="5" horiz-adv-x="1388" 
d="M1264 451l-4 -68l-9 -45l-8 -29l-20 -41l-35 -57l-45 -53l-25 -23l-61 -47l-64 -37l-63 -28l-41 -15l-31 -10l-35 -10l-32 -6l-46 -2l-28 -3l-45 3h-29l-45 4l-33 2l-35 4l-65 4l-33 4l-49 10l-31 8l-30 13l-29 14l-43 25l-27 18l-33 27l-22 20l-49 60l-19 30l-16 29
l-16 41l-9 29l-10 45l-4 32l-2 35l4 31l14 14l25 4l47 4l94 -6h33l92 6h49l27 -6l14 -12l11 -27l12 -34l20 -31l23 -23l27 -18l59 -19l45 -2h29l45 2l30 9l33 14l33 18l27 29l14 33l6 33l2 36l-8 33l-4 13l-19 26l-22 23l-27 20l-33 14l-32 9l-47 6l-31 2l-64 -4l-45 -4
l-137 8h-33l-243 -4l-27 6l-14 16l-2 27l-2 123v33l2 122v33l-7 123v33l7 123l-2 35l-7 69l-2 33l2 18l7 31l18 17l25 4h43l77 -7h33l152 9l119 2l184 -13l119 5h180l61 4l62 -4l22 -5l15 -6l10 -12l4 -25l2 -14l2 -31l-4 -61v-66l-2 -32l-6 -35l-4 -31l-15 -16l-26 -4
l-17 -2h-32l-86 -3h-33l-168 3h-135l-97 6h-34l-35 -2l-31 -9l-16 -16l-4 -25l-2 -61l4 -29l12 -24l24 -15l29 -4l115 7h35l51 -5l65 -4l82 -10l66 -12l31 -10l43 -19l30 -16l58 -37l57 -47l29 -35l18 -25l14 -30l29 -78l6 -33l10 -47l5 -33l2 -35v-34z" />
    <glyph glyph-name="six" unicode="6" horiz-adv-x="1492" 
d="M842 346l49 37l29 41l10 31l4 18l-2 35l-2 16l-12 33l-33 39l-17 10l-28 23l-35 16l-33 10l-12 2l-29 7h-45l-76 -15l-39 -18l-14 -6l-27 -21l-16 -10l-25 -27l-8 -12l-14 -25l-6 -26l2 -33l2 -16l14 -31l23 -27l33 -26l36 -25l31 -14l39 -13l33 -8h41l28 2l50 13l32 14z
M1346 473l-5 -51l-6 -33l-35 -115l-34 -67l-56 -57l-61 -46l-55 -34l-78 -37l-76 -25l-29 -8l-47 -8l-30 -6l-46 -2l-32 -2l-45 -2h-33l-68 4l-51 6l-70 12l-34 8l-78 25l-64 28l-47 23l-26 18l-37 33l-45 51l-23 29l-39 57l-20 48l-13 28l-8 47l-4 31l-4 45v35l4 51v35
l4 47l-12 201l-2 49v86l2 33l10 51l8 33l21 61l14 45l35 62l21 26l59 60l27 22l30 19l31 16l76 33l33 12l65 20l47 11l31 6l47 6l29 2l47 4l61 -4l135 -18l33 -4l78 -19l35 -10l33 -12l104 -54l27 -16l22 -19l19 -24l18 -27l16 -30l15 -35l12 -33l23 -61l8 -31l2 -15l-4 -24
l-21 -14l-28 -7l-35 -4l-33 -2h-102l-52 2l-32 2l-54 7l-24 4l-12 10l-11 20l-20 23l-13 10l-43 25l-32 12l-47 12l-47 4l-29 2l-47 -6l-31 -8l-33 -12l-14 -6l-29 -19l-10 -8l-18 -23l-15 -26l-12 -31l-6 -51l-2 -31v-24l10 -21l23 -14l14 -4l16 6l27 14l31 13l51 16l31 8
l47 10l30 2l45 4l33 -2l53 -2l156 -32l31 -11l45 -14l28 -14l66 -49l33 -33l22 -25l43 -67l23 -45l10 -31l16 -82l3 -47v-31z" />
    <glyph glyph-name="seven" unicode="7" horiz-adv-x="1314" 
d="M1200 1305l-10 -33l-51 -96l-52 -132l-67 -124l-62 -127l-57 -129l-131 -248l-70 -160l-61 -127l-53 -94l-15 -23l-12 -10l-24 -6h-17l-33 -2l-174 4l-92 -6h-29l-12 2l-24 8l-15 16l-2 19l64 123l16 28l49 105l15 29l43 106l82 160l178 366l67 131l6 27l-12 16l-27 5
l-110 4h-33l-110 -7h-33l-113 3h-31l-61 -5h-33l-18 2l-29 9l-18 16l-6 25l-3 28l3 31l8 53l2 33l-4 61v31l2 17l6 28l12 17l25 8h43l84 -10l32 -2l158 4l125 6h33l125 -6h33l124 2h33l125 -2l119 8h37l31 -8l12 -17l6 -26l6 -50l2 -49z" />
    <glyph glyph-name="eight" unicode="8" horiz-adv-x="1521" 
d="M879 346l39 33l10 14l16 33l4 16v35l-2 15l-14 28l-12 15l-27 22l-45 25l-41 14l-31 8l-47 6l-31 2l-47 -4l-30 -4l-48 -10l-30 -12l-15 -11l-24 -22l-12 -12l-15 -29l-8 -31l-2 -28l4 -13l12 -30l9 -15l24 -26l27 -21l28 -14l35 -11l35 -8l51 -2h33l45 2l31 6zM524 1102
l-16 -27l-10 -28v-29l2 -14l14 -27l10 -12l23 -23l43 -27l14 -8l33 -12l49 -8l33 -2l31 2l30 4l45 16l25 13l12 8l29 30l12 27l8 31l2 28l-4 15l-10 26l-14 25l-31 31l-27 14l-30 10l-31 9l-45 2h-31l-31 -2l-73 -23l-25 -14l-24 -21zM1378 449v-52l-2 -30l-6 -45l-8 -29
l-16 -43l-15 -29l-28 -41l-19 -24l-35 -35l-22 -19l-41 -28l-29 -15l-49 -18l-68 -21l-112 -24l-76 -10l-49 -2l-31 -2l-47 -2h-29l-47 2l-31 2l-47 2l-102 12l-53 10l-33 8l-45 15l-31 12l-41 20l-28 17l-64 49l-29 35l-20 22l-27 35l-18 27l-21 45l-10 29l-6 45l-2 30v52
l4 32l8 47l10 31l37 70l35 45l72 67l2 19l-6 16l-39 49l-21 31l-41 96l-8 35l-6 35l-2 31l4 45l4 30l10 35l27 66l19 31l69 86l49 45l29 18l16 8l35 15l17 8l32 12l31 8l47 15l31 8l31 6l30 2l51 4h93l51 -4l63 -4l70 -12l37 -9l100 -30l74 -31l29 -14l67 -43l27 -23l51 -61
l18 -27l17 -31l12 -32l10 -35l4 -33l5 -47v-31l-3 -31l-6 -30l-14 -45l-14 -29l-21 -31l-22 -26l-25 -23l-18 -20l-6 -17l6 -16l18 -19l25 -22l22 -25l37 -55l16 -29l17 -43l8 -32l10 -52z" />
    <glyph glyph-name="nine" unicode="9" horiz-adv-x="1490" 
d="M913 999l-2 19l-12 31l-18 24l-19 21l-35 22l-26 10l-15 7l-30 6l-54 8l-30 2l-60 -4l-18 -2l-33 -8l-41 -25l-22 -23l-19 -24l-8 -12l-12 -50l2 -32l6 -31l12 -27l19 -26l22 -23l27 -16l47 -23l29 -8l47 -6h30l64 6l33 8l32 13l29 16l23 22l18 27l8 14l8 33v17z
M1343 803l-10 -166v-133l-2 -31l-2 -47l-6 -29l-8 -47l-10 -28l-17 -41l-14 -29l-25 -39l-20 -27l-33 -39l-51 -45l-27 -18l-63 -35l-45 -20l-31 -11l-31 -8l-30 -6l-62 -10l-102 -19l-52 -6h-34l-35 2l-35 4l-121 21l-84 20l-67 21l-31 12l-31 14l-31 17l-26 18l-33 27
l-22 25l-11 14l-18 29l-23 45l-12 32l-8 29l-12 66v12l2 26l6 19l10 8l20 4l48 2l30 2l97 -6l77 4h31l31 -2l26 -6l17 -14l10 -23l8 -14l19 -23l14 -12l27 -16l32 -11l35 -8l31 -4l59 -4l70 8l33 12l59 29l25 23l22 28l15 31l10 29v12l-2 31l-4 14l-8 33l-15 26l-16 11
l-6 -2l-17 -11l-30 -16l-78 -27l-31 -6l-47 -4l-31 -2l-129 -4l-33 2l-47 2l-32 8l-68 21l-55 26l-74 43l-25 21l-34 33l-19 24l-37 58l-14 30l-21 62l-8 51l-6 33l-2 45v31l6 61l6 31l8 30l27 72l14 27l23 39l18 24l29 33l57 51l29 21l31 18l78 35l28 10l121 27l64 8l34 2
l52 4h34l46 -4l32 -2l45 -4l80 -14l70 -21l33 -12l63 -31l70 -45l37 -27l22 -20l51 -57l19 -27l45 -80l10 -31l12 -67l4 -51l2 -35v-166z" />
    <glyph glyph-name="colon" unicode=":" horiz-adv-x="530" 
d="M393 125l-6 -37l-12 -33l-19 -28l-22 -23l-31 -22l-33 -15l-34 -6h-35l-35 8l-35 15l-29 20l-24 23l-17 28l-12 33l-6 37l-2 33l2 12l4 33l12 33l17 26l24 23l29 18l35 10l35 6l37 -2l34 -6l33 -10l29 -18l22 -23l19 -27l14 -32l4 -31l2 -12v-33zM391 707l-4 -31l-12 -33
l-19 -29l-22 -22l-31 -21l-33 -12l-34 -8h-37l-35 8l-33 12l-31 21l-22 22l-19 29l-12 33l-4 31l-2 12l2 35l4 37l12 32l17 27l24 22l31 19l35 10l35 6h35l32 -6l33 -12l31 -19l22 -24l19 -27l12 -31l6 -34l2 -35z" />
    <glyph glyph-name="semicolon" unicode=";" horiz-adv-x="540" 
d="M391 96l-4 -16l-6 -31l-6 -18l-8 -31l-9 -29l-28 -127l-15 -32l-6 -19l-10 -22l-6 -9l-6 -4l-11 -2l-20 -2l-14 -4l-29 -4h-31l-28 2l-15 4l-22 4l-13 4l-8 11l-2 12l4 27l2 18l11 37l10 39l6 37l2 18l2 25v8l-14 14l-17 14l-24 25l-21 31l-10 30l-2 15l-2 29l2 14l4 33
l12 32l19 29l24 25l31 18l35 12l37 6h37l34 -6l33 -12l31 -18l22 -25l17 -27l10 -30l6 -33v-43zM395 674l-14 -33l-19 -29l-24 -22l-29 -19l-33 -12l-32 -6h-37l-35 4l-33 12l-30 17l-25 22l-18 27l-13 33l-6 30l-2 13l2 34l8 35l13 31l18 27l25 24l30 19l31 14l35 6h37
l32 -6l33 -12l29 -19l24 -22l19 -27l14 -31l6 -34v-39z" />
    <glyph glyph-name="less" unicode="&#x3c;" horiz-adv-x="882" 
d="M741 420v-12l-16 -19l-164 -168l-18 -16l-13 -4l-18 12l-90 104l-264 265l-49 45l-23 26l-20 27l-15 18l-8 17l2 16l14 19l47 51l74 67l92 99l123 118l99 105l22 18l16 15h13l18 -17l68 -76l96 -90l16 -18v-16l-16 -21l-168 -158l-88 -94l-14 -18l-4 -15l14 -18l94 -90
l96 -86l68 -68z" />
    <glyph glyph-name="equal" unicode="=" horiz-adv-x="1081" 
d="M930 494l-6 -80l-4 -27l-15 -16l-28 -4l-50 -5l-32 3l-50 2l-32 2l-47 -2h-277l-49 -2h-82l-33 -3l-49 -2l-33 -2l-47 4l-26 7l-17 16l-6 29l-4 80v32l8 80l6 29l13 16l26 4l49 2h195l211 -6h33l49 2h112l50 4h32l47 -4l29 -4l15 -14l4 -29l8 -80v-32zM930 901l-6 -78
l-4 -26l-15 -17l-28 -6l-50 -2h-32l-50 4h-356l-49 -2h-82l-33 -2l-49 -2l-33 -2l-47 2l-26 6l-17 19l-6 28l-4 78v33l8 78l6 28l13 17l26 4l49 2h113l49 -2h115l129 -4h115l47 2h32l50 4l32 -2l47 -2l29 -4l15 -15l4 -28l8 -78v-33z" />
    <glyph glyph-name="greater" unicode="&#x3e;" horiz-adv-x="876" 
d="M737 709l-106 -119l-266 -264l-93 -99l-20 -12l-12 2l-113 100l-68 68l-14 18l2 13l105 119l92 94l73 67l15 19v14l-15 19l-73 67l-90 100l-97 95l-14 18l2 12l107 113l84 80h12l22 -14l121 -119l332 -342l16 -19l4 -16z" />
    <glyph glyph-name="question" unicode="?" horiz-adv-x="1329" 
d="M817 137l-10 -33l-16 -30l-19 -29l-27 -25l-28 -16l-31 -14l-35 -8l-37 -5l-39 3l-36 4l-33 10l-31 14l-29 17l-24 22l-21 27l-16 30l-10 33l-6 33v33l6 33l10 32l16 29l21 27l27 20l28 18l31 13l31 8l36 6h39l37 -4l33 -8l31 -10l28 -19l27 -22l23 -27l16 -29l10 -32
l6 -33l-2 -35zM1196 983l-8 -33l-12 -30l-17 -29l-20 -27l-49 -47l-27 -22l-143 -103l-27 -24l-45 -50l-19 -28l-16 -33l-14 -57l-6 -8l-7 -5l-32 -6l-19 -2l-67 -4h-95l-16 -2l-74 -4l-34 2l-19 2l-24 4l-13 6l-6 9l-4 12l2 22v15l4 30l12 50l25 67l23 41l6 12l22 29l27 29
l35 32l24 17l80 43l33 20l41 31l12 12l21 27l14 35l4 31l-6 28l-14 29l-19 24l-22 19l-23 12l-29 10l-32 7h-33l-31 -7l-29 -12l-26 -12l-25 -17l-18 -18l-17 -23l-10 -30l-6 -21l-6 -10l-8 -6l-13 -2l-22 -4l-14 -2l-33 -2h-131l-97 6l-49 10l-6 4l-6 8l-2 21v16l2 29v12
l6 35l8 39l11 31l4 14l12 25l6 14l16 31l25 32l29 29l24 20l47 31l101 47l14 4l33 13l33 10l12 2l29 6l12 2l31 4l49 4l30 2h48l180 -22l35 -6l34 -8l35 -13l33 -14l33 -16l61 -37l58 -43l26 -25l21 -29l16 -32l14 -33l21 -70l6 -33l4 -36v-76z" />
    <glyph glyph-name="at" unicode="@" horiz-adv-x="1937" 
d="M1130 625l11 30l6 31l4 35l2 33l-2 32l-6 31l-10 29l-35 53l-23 23l-26 18l-29 14l-27 11l-30 10l-35 6h-35l-35 -4l-33 -8l-28 -11l-27 -16l-24 -22l-21 -27l-31 -57l-12 -31l-8 -31l-6 -33v-32l2 -33l6 -33l10 -31l14 -28l21 -27l25 -22l26 -19l29 -14l28 -10l33 -9
l35 -6l33 2l35 6l30 13l27 14l27 16l26 19l21 24l18 27zM1821 725l-4 -47l-2 -31l-7 -47l-6 -29l-14 -47l-10 -30l-29 -66l-37 -68l-29 -34l-18 -25l-33 -33l-22 -20l-39 -27l-27 -12l-43 -10l-31 -4l-47 -2l-59 4l-29 8l-28 10l-29 18l-14 11l-23 24l-18 27l-23 18h-24
l-25 -14l-35 -29l-26 -16l-43 -18l-33 -11l-35 -8l-35 -4l-49 -4l-33 2l-49 2l-33 4l-45 10l-30 9l-48 18l-28 14l-107 70l-57 59l-19 27l-20 43l-29 78l-6 33l-6 45l-2 32l-2 52v32l2 52l2 32l8 45l8 31l37 72l27 41l47 63l55 55l66 46l29 14l75 27l45 14l33 6l47 6h35
l35 -4l33 -6l94 -35l31 -14l26 -19l29 -12l24 8l9 19l2 14l12 10h14l25 -6l51 -6l33 -6l80 -19l16 -12l6 -27l-2 -49l-2 -32l-4 -50l-2 -32l-4 -131v-277l-2 -49l6 -29l10 -26l23 -21l26 -2l41 23l19 20l35 68l8 30l8 47l4 33l4 68v78l-4 69l-6 33l-10 45l-37 96l-19 43
l-34 60l-50 59l-22 21l-64 47l-30 18l-31 15l-41 16l-31 10l-35 10l-32 7l-47 8l-29 4l-45 2l-29 2h-76l-45 -2l-32 -2l-70 -12l-35 -11l-135 -57l-33 -16l-31 -19l-28 -22l-27 -25l-24 -25l-91 -112l-22 -39l-29 -62l-12 -30l-12 -43l-13 -68l-4 -33l-4 -47l2 -28l4 -45
l7 -31l12 -68l10 -45l6 -31l10 -34l11 -31l20 -39l35 -59l20 -25l33 -31l56 -43l61 -39l31 -16l32 -14l35 -13l35 -8l33 -6l110 -16l31 -2l45 -2h58l30 2l33 4l61 12l58 21l29 8l22 -6l16 -21l21 -41l12 -27l15 -45l8 -28l-2 -23l-19 -16l-57 -23l-31 -10l-84 -22l-61 -13
l-33 -4l-51 -2h-31l-76 10l-47 11l-31 2l-45 4l-30 2l-47 8l-29 8l-70 33l-65 37l-41 20l-64 41l-86 64l-32 30l-21 23l-27 37l-79 131l-37 68l-11 28l-22 121l-14 107l-2 45v32l10 78l10 45l4 31l8 45l6 31l11 45l10 28l20 43l37 68l43 66l68 81l55 56l33 30l61 48l66 41
l29 14l143 53l45 14l29 11l77 16l46 2l32 2l45 2l33 -2l45 -2l109 -14l45 -8l31 -7l45 -8l28 -8l47 -10l29 -8l72 -29l41 -20l65 -43l60 -48l57 -55l47 -59l39 -66l33 -69l12 -29l14 -45l11 -29l14 -43l8 -31l8 -45l6 -30l5 -47l2 -31l4 -45v-33z" />
    <glyph glyph-name="A" unicode="A" 
d="M1008 635l-105 317l-10 27l-21 14l-26 6l-23 -6l-20 -20l-121 -307l-6 -31l6 -25l23 -10l28 -4h129l96 -6l27 8l16 16zM1698 29l-15 -23l-22 -10l-27 -4h-28l-47 4l-31 2h-92l-127 -8l-27 8l-12 16l-74 195l-14 20l-19 4l-24 3l-123 8h-33l-154 4l-122 2h-31l-31 -2h-94
l-27 -4l-16 -11l-12 -24l-47 -139l-13 -33l-22 -27l-31 -12l-152 8h-32l-127 -8l-27 -2l-25 12l-16 23l2 26l4 17l230 526l12 31l55 114l86 197l117 248l102 242l11 22l20 12l31 7l94 4h160l94 -2l35 -7l22 -16l51 -137l52 -96l57 -129l49 -134l127 -284l41 -103l139 -280
l56 -129l41 -103z" />
    <glyph glyph-name="B" unicode="B" horiz-adv-x="1562" 
d="M981 365l8 12l15 31l6 32l2 13l-2 28l-6 29l-17 29l-12 14l-27 27l-33 18l-30 10l-15 4l-28 2l-92 -4l-35 -2h-121l-31 -2l-37 -6l-18 -6l-6 -10l-2 -25v-35l2 -32v-46l-4 -34v-41l4 -23l8 -12l14 -8l27 -4l289 6l69 4l33 6l23 10zM496 993l2 -32l4 -23l8 -12l16 -8
l25 -3h82l35 3h34l48 -5l69 -4h45l27 6l24 13l21 14l14 16l13 21l6 29v34l-6 27l-19 27l-29 20l-12 4l-31 8l-49 7h-18l-80 10h-31l-51 -2l-33 -2h-43l-20 -4l-19 -2l-12 -7l-8 -10l-6 -26l-6 -50l-2 -32zM1423 418l-4 -53l-6 -31l-14 -43l-13 -29l-20 -39l-18 -26l-33 -39
l-23 -23l-51 -37l-27 -16l-59 -29l-63 -20l-93 -19l-47 -6l-32 -2l-50 -4h-32l-113 -4h-178l-115 6h-33l-112 -4h-31l-78 2l-33 4l-28 4l-17 6l-10 11l-4 22l-2 29l2 31v32l2 17v35l6 108l-2 33l-2 51l-2 31l-2 28v31l2 51v90l8 109v33l-4 108v33l-2 109l8 141l2 33l-8 108
l-2 33l-6 61v48l8 26l21 12l28 5l33 2l223 6l178 -10l111 4h33l112 -2h33l119 -9l35 -4l35 -6l77 -24l70 -35l27 -19l35 -28l49 -58l37 -65l12 -29l10 -31l6 -32l8 -54l2 -32l-2 -35l-6 -35l-12 -47l-12 -29l-23 -39l-69 -69l-7 -15l7 -16l18 -21l25 -22l24 -27l31 -43
l18 -30l23 -50l10 -32l8 -35l6 -53z" />
    <glyph glyph-name="C" unicode="C" horiz-adv-x="1505" 
d="M1411 186l-53 -49l-64 -47l-24 -16l-68 -37l-47 -23l-65 -20l-35 -6l-51 -11l-72 -8l-37 -2l-51 -4h-107l-35 2l-34 4l-35 6l-35 9l-31 10l-92 24l-45 17l-27 12l-38 23l-80 55l-54 45l-47 51l-41 60l-51 100l-45 127l-20 61l-4 31l-3 47l3 31l2 33v34l6 103l14 76l8 30
l35 101l45 90l37 59l43 56l49 49l51 43l66 45l55 33l62 28l67 23l70 16l35 6l34 4l64 4l45 5l31 -3l45 -2l76 -10l28 -6l47 -8l72 -21l29 -12l73 -43l140 -98l12 -10l14 -15l4 -16l-2 -17l-30 -38l-23 -23l-45 -39l-80 -88l-28 -27l-15 -6l-14 -2l-15 4l-22 13l-39 28
l-27 15l-45 20l-28 10l-45 13l-31 6l-51 4h-33l-45 -4l-33 -8l-45 -15l-57 -22l-41 -21l-29 -20l-39 -39l-33 -55l-14 -29l-12 -31l-10 -33l-7 -34l-4 -31l-4 -62v-32l2 -52l2 -30l11 -47l10 -31l14 -35l17 -31l30 -45l23 -24l39 -33l26 -19l41 -20l31 -12l45 -13l33 -6
l49 -2h47l29 6l98 33l33 14l31 15l26 14l39 25l47 35l12 4l19 -4l22 -15l23 -20l8 -13l21 -22l53 -66l55 -63l19 -25l10 -10l10 -18v-13z" />
    <glyph glyph-name="D" unicode="D" horiz-adv-x="1613" 
d="M1044 555l13 35l8 31l8 45l2 28l2 47v66l-2 33l-6 47l-8 31l-4 12l-17 31l-30 43l-54 55l-24 18l-45 27l-29 12l-61 12l-52 2l-34 3h-52l-45 2l-30 -2l-45 -7l-23 -6l-10 -10l-6 -25l-2 -18l-2 -31l4 -61l2 -33l4 -45l4 -33l2 -33v-32l-2 -45v-99l-4 -67l-4 -45v-29
l-2 -47l2 -31l6 -49l8 -22l12 -11l25 -2l190 13l48 2l32 6l35 10l33 12l31 15l26 18l37 33l21 24l24 39zM1495 666l-2 -50l-6 -32l-14 -47l-60 -162l-22 -45l-17 -27l-28 -33l-101 -100l-26 -23l-39 -30l-27 -17l-41 -22l-27 -12l-45 -17l-30 -10l-33 -8l-158 -25l-31 -2
l-45 -4h-32l-66 2l-53 4h-33l-65 -4l-52 -2l-34 -2l-31 2h-144l-30 2l-88 8l-17 8l-10 11l-4 22l-2 33l2 16l4 62v28l2 48v30l2 33v33l-2 108v33l-4 109l2 30l2 45l4 31l2 35v33l-4 53l-2 35v18l-2 35l8 109v32l-2 109v33l-6 108v80l2 33l10 53l9 12l22 7l35 4l31 4l32 2
l181 -2h32l99 -6l16 -2h37l86 4l31 2h32l52 -4l65 -4l86 -13l33 -6l31 -8l73 -27l31 -14l31 -16l29 -17l67 -47l51 -43l66 -63l18 -23l37 -72l35 -96l10 -33l8 -32l9 -45l12 -68l4 -33l2 -49l4 -68z" />
    <glyph glyph-name="E" unicode="E" horiz-adv-x="1431" 
d="M1276 193l-10 -144l-2 -20l-9 -15l-10 -8l-268 -8h-33l-108 8l-140 -10l-32 -2h-142l-106 8h-33l-176 -10l-70 4l-24 4l-15 10l-6 15l-4 22l-4 47l-2 33l2 31v30l8 109v33l2 108l-8 142l-2 32l4 111v174l8 109l-8 141l-2 33v49l4 61v31l6 106l2 29l6 17l11 8l16 2l27 4
l133 -8l125 2h33l122 -8h33l123 8h33l278 -4l35 2l70 6h51l29 -6l12 -11l4 -14l4 -27v-55l-4 -51v-35l2 -51l2 -31l-2 -30l-4 -25l-8 -14l-10 -9l-25 -4h-16l-33 -2l-193 4h-32l-105 -4h-33l-106 4l-92 6h-31l-16 -2l-21 -4l-10 -10l-6 -35l-4 -49v-33l2 -34l2 -23l4 -14
l8 -11l23 -6l65 -4l66 4h194l230 13l63 -4l23 -5l12 -10l6 -12l2 -23l4 -34l2 -35v-68l4 -47l-4 -61l-4 -25l-8 -14l-14 -11l-21 -4h-41l-92 11l-33 2l-164 -11l-131 4h-32l-82 7l-35 -2l-25 -2l-10 -7l-6 -14l-2 -31l-6 -51l-2 -33v-45l2 -20l6 -15l8 -8l22 -2l113 -4h33
l110 8l146 -8h33l145 8h31l31 -2l73 -8l13 -6l8 -12l2 -23z" />
    <glyph glyph-name="F" unicode="F" horiz-adv-x="1378" 
d="M1223 1204l-2 -30l-2 -23l-7 -14l-12 -11l-22 -6h-43l-62 8l-33 2h-133l-233 -8l-92 6h-45l-21 -6l-8 -14l-2 -29l-4 -182l2 -23l2 -12l10 -8l25 -6h53l70 6l32 2l123 -4h156l108 8h50l22 -4l12 -10l9 -17l4 -24l2 -17l2 -30l-4 -62v-30l2 -48l-4 -63l-4 -25l-7 -16
l-10 -8l-24 -6h-50l-75 10l-33 2l-123 -4h-33l-221 4l-31 -2l-28 -4l-21 -6l-8 -13v-26l-2 -117v-33l-8 -114v-33l2 -45l-4 -68l-2 -24l-7 -13l-12 -6l-22 -4l-35 -4l-33 -2l-76 2h-32l-84 -6l-62 4l-22 4l-13 8l-4 15l-2 22l-6 109l-2 32l-2 109l10 141l2 33l-6 109v32
l-6 111v33l4 108v174l4 109v174l4 109l2 24l4 14l13 7l20 4h45l78 -6h33l121 6h32l119 -6h33l121 6l33 2l120 -6h33l121 6h33l51 -2l33 -2l35 -4l22 -3l12 -6l9 -12l2 -22l2 -19v-31l-4 -61v-33l4 -49z" />
    <glyph glyph-name="G" unicode="G" horiz-adv-x="1638" 
d="M1481 805l-8 -133v-193l-5 -86v-121l-2 -22l-28 -47l-19 -27l-35 -35l-24 -22l-12 -13l-68 -43l-41 -20l-59 -23l-47 -14l-31 -8l-64 -12l-47 -6l-59 -11l-82 -10l-31 -2l-63 4l-47 4l-33 4l-33 6l-102 29l-31 8l-72 25l-67 37l-52 37l-49 39l-55 53l-20 24l-23 31
l-70 121l-28 63l-11 33l-10 35l-12 68l-4 32l-8 45l-4 33l-2 31v31l6 92l4 16l6 35l8 35l41 131l29 67l14 29l45 62l45 51l78 67l51 39l123 74l35 14l35 11l32 8l76 12l60 8l30 6l31 4l47 5l33 2l45 -5l31 -2l47 -6l29 -6l45 -8l30 -8l76 -25l74 -37l31 -18l26 -19l33 -20
l22 -16l11 -11l22 -16l12 -10l13 -15v-14l-6 -14l-31 -45l-78 -80l-61 -53l-39 -29l-13 -8l-16 -2l-76 49l-28 16l-66 27l-35 8l-35 6l-96 6h-14l-33 -2l-53 -4l-33 -8l-61 -29l-27 -18l-27 -21l-22 -22l-21 -27l-18 -26l-16 -29l-13 -31l-10 -33l-8 -30l-12 -62l-7 -33
l-2 -34v-35l4 -49l17 -80l10 -33l21 -49l14 -29l24 -37l21 -24l37 -35l26 -21l41 -22l31 -12l62 -15l34 -4l35 -2h33l33 4l141 33l33 12l31 15l20 14l6 12v23l2 18v31l-4 61v35l-8 13l-23 4h-49l-33 -2l-47 -7l-32 -2h-48l-32 2l-70 13l-12 4l-8 10l-4 25l-3 16l-2 33l2 51
l-4 61l-4 31v43l6 23l11 10l24 4l51 6l35 2h94l134 6l163 -10h33l84 10l33 2l16 -2l31 -6l14 -8l4 -12l7 -29l2 -16z" />
    <glyph glyph-name="H" unicode="H" horiz-adv-x="1658" 
d="M1452 156l4 -52l2 -30l-2 -29l-10 -27l-14 -14l-23 -2l-33 -4l-110 6h-33l-109 -8h-32l-29 6l-12 16l-4 29l-9 133l-2 33l4 133v33l-4 131v29l-8 16l-22 8h-50l-82 -6l-32 -2l-164 4l-111 6l-26 -2l-19 -6l-10 -18l-2 -29l2 -131v-33l-4 -133l2 -33l8 -88v-47l-8 -29
l-18 -16l-27 -6l-31 -2l-31 2l-86 8l-32 2l-97 -6l-32 2h-17l-22 4l-17 8l-8 11l-4 22l-2 18v33l4 62v172l4 108v33l2 109v32l-6 109v33l-2 108v142l8 141l2 33l-2 108l-2 33l-10 70v43l8 24l19 14l26 7l31 2h31l86 -4h32l82 6h33l31 -2l26 -4l17 -17l8 -26l2 -15v-31
l-8 -124l-2 -134v-167l2 -25l6 -16l10 -9l21 -2l28 -2h29l78 13l31 2l131 -4l121 -9h30l15 2l22 13l8 16l11 156v32l-5 134v32l-2 133l7 33l16 19l25 4h32l111 -6h33l92 6l33 -2h18l27 -4l16 -17l8 -28v-31l-6 -82l-2 -33l6 -108v-33l-4 -109v-32l8 -109v-33l-8 -108v-33
l-4 -109v-32l2 -109v-33l-2 -108v-142z" />
    <glyph glyph-name="I" unicode="I" horiz-adv-x="706" 
d="M510 293l-8 -111v-32l-2 -113v-23l-6 -10l-17 -6l-28 -2l-105 2h-127l-102 8l-13 4l-6 6v21l-4 51v33l-2 31v30l-6 111l8 143l2 33l-6 113v32l-2 111v176l-2 113v33l2 110v176l-4 113l6 22l12 9l21 2h16l31 2l49 -2h33l94 4h127l23 -4l4 -13l2 -22l4 -53l2 -33v-201
l2 -110v-33l-2 -113v-33l2 -110v-33l-4 -111v-178l6 -110v-33z" />
    <glyph glyph-name="J" unicode="J" horiz-adv-x="1554" 
d="M1364 752l4 -105v-35l-4 -69l-6 -51l-6 -31l-13 -47l-24 -72l-31 -61l-18 -31l-52 -66l-53 -55l-35 -31l-24 -18l-66 -41l-43 -21l-28 -12l-76 -22l-78 -15l-51 -4l-70 -4l-35 2l-47 2l-104 15l-76 16l-72 22l-73 27l-39 21l-27 16l-37 29l-22 20l-49 57l-25 39l-35 70
l-31 96l-8 51l-6 33l-2 47l-2 35v35l8 27l23 8l30 2h93l92 -4l33 2l61 6l33 2l24 -12l11 -23l2 -27l2 -14l6 -29l14 -47l12 -28l15 -27l20 -27l39 -34l29 -19l31 -14l32 -8l49 -6l31 2l62 12l28 10l29 14l29 17l39 33l22 24l19 31l12 31l10 45l4 30l2 47v31l2 123v33l2 125
v33l2 122l2 29l-16 8l-94 -6h-33l-92 6h-33l-65 -6h-29l-25 10l-12 25v12l-2 31l6 86v33l-6 96l2 31l12 22l25 8h43l82 -4h33l122 11l33 2l121 -4h188l95 4h30l21 -6l8 -13l2 -22l4 -60l2 -47l-8 -135v-33l8 -137l2 -104l-2 -33l-10 -105z" />
    <glyph glyph-name="K" unicode="K" horiz-adv-x="1517" 
d="M1442 23l-12 -23l-15 -8h-26l-111 8h-33l-129 2h-33l-131 -6l-24 2l-19 14l-71 80l-82 115l-19 22l-80 80l-88 105l-16 22l-10 19l-15 6l-12 -8l-4 -27v-141l-4 -111v-33l2 -49v-31l-2 -30l-2 -21l-10 -8l-25 -4l-63 -4h-64l-94 8l-33 -2l-102 -8l-17 6l-8 12l-2 19
l-2 28v33l2 51l2 35l-8 111v143l8 145l2 33v144l-4 110v33l4 113v32l-4 254v33l6 111l2 24l6 11l21 4l31 -2l63 -7h33l94 9h33l94 -7l23 -2l10 -6l6 -16l2 -21l-8 -94l-2 -33l6 -108v-33l2 -108l4 -23l16 -4l23 14l63 88l111 133l64 89l92 106l16 16l21 5l94 6h33l124 -9
l78 -2h33l78 2l22 -2l11 -8l4 -4l-2 -6l-95 -104l-112 -144l-101 -112l-169 -205l-23 -25l-51 -47l-23 -25l-10 -12l-10 -16l4 -12l90 -119l113 -115l120 -147l105 -119l88 -92l20 -25l91 -90z" />
    <glyph glyph-name="L" unicode="L" horiz-adv-x="1359" 
d="M1225 63v-18l-6 -25l-13 -14l-14 -6l-21 -4h-16l-29 -2l-227 12h-154l-184 -12l-119 8h-151l-94 -6h-31l-29 2l-22 4l-15 8l-10 13l-4 24v33l10 78l2 30l-8 109v33l4 108v33l4 250v33l-8 250v32l-2 109v174l-4 61v31l2 19l6 26l8 12l15 7l22 4h17l30 2l101 -6h32l146 2
h20l15 -9l10 -14v-178l4 -119v-33l-6 -118v-33l4 -119v-33l6 -119v-32l-12 -271l2 -20l2 -10l4 -11l10 -8l25 -4l69 -4l62 4h33l295 4l32 2l70 8l33 2h30l25 -6l14 -12l7 -14l2 -23l2 -114l6 -97z" />
    <glyph glyph-name="M" unicode="M" horiz-adv-x="1945" 
d="M1733 154l8 -64l2 -31l-2 -16l-2 -23l-10 -16l-13 -10l-22 -4l-31 -2h-33l-82 6l-35 2h-51l-37 2l-75 10l-15 4l-8 11l-2 20l-4 59l4 70v193l-6 129v32l8 127v160l-4 25l-12 8h-13l-34 -47l-211 -248l-82 -102l-19 -17l-14 -6h-16l-23 4l-25 6l-22 17l-102 122l-76 101
l-127 143l-27 27l-12 -4l-4 -23l-6 -129v-33l8 -129v-32l4 -129v-33l-2 -127v-31l2 -61l-4 -68l-4 -27l-8 -12l-15 -4l-53 -6l-33 -2l-80 6l-32 -2l-99 -8h-47l-24 4l-13 12l-4 15l-4 20v47l4 64v315l-4 109v32l2 109l-8 143v33l6 109l2 32l-8 109l10 141v33l-8 76v32l4 27
l8 14l13 11l16 4l27 2l34 -4l45 -11h33l99 11l30 2l78 -2h27l22 -11l92 -102l80 -111l88 -106l84 -109l21 -22l18 -10h21l18 10l19 20l61 82l20 29l66 80l20 26l72 80l74 93l16 22l17 16l20 11l135 -9l97 -2h32l62 5l35 -3l24 -4l15 -4l12 -10l4 -16l-10 -117l-2 -33l4 -108
v-33l-2 -109v-32l2 -109v-33l8 -110v-33l-8 -109v-32l6 -109v-33l-8 -108v-33l-4 -109z" />
    <glyph glyph-name="N" unicode="N" horiz-adv-x="1681" 
d="M1473 1124v-303l6 -119v-32l4 -271v-34l-2 -17l-8 -133l2 -119l-2 -28l-9 -25l-16 -23l-21 -14l-18 -6l-29 -2l-104 -4l-33 -2l-51 -2h-33l-26 6l-25 10l-25 19l-18 26l-31 60l-18 26l-180 223l-91 134l-118 147l-76 100l-19 17l-14 -6l-6 -25l-4 -102v-33l2 -103v-32
l2 -115v-33l-6 -114l2 -33l12 -82l2 -33l-6 -27l-14 -14l-15 -4l-24 -4l-17 -2l-34 -2l-95 2h-32l-84 -4h-33l-31 2l-22 4l-17 10l-8 15l-4 20l-2 14v31l6 100l-6 109v33l4 250l8 141l2 33v141l-8 109v32l8 109l-10 143l-2 33v47l2 31l4 31l4 22l6 14l13 7l22 4l62 4l61 -4
h154l24 -2l11 -9l12 -18l86 -92l192 -248l21 -25l92 -127l98 -122l74 -103l16 -14l17 -2l14 10v23l-14 86l-2 32l6 88v33l-8 125v33l8 125l-2 33l-6 75v52l6 26l8 17l14 8l25 4h18l35 2l92 -6h33l70 4l30 -2l48 -2l22 -4l14 -7l13 -14l4 -29l2 -18l2 -35l-4 -63l-4 -33
l-6 -121z" />
    <glyph glyph-name="O" unicode="O" horiz-adv-x="1787" 
d="M1186 518l33 76l10 47l4 31l4 49v35l-4 67l-12 62l-9 28l-22 45l-16 27l-29 37l-51 55l-23 19l-53 30l-29 13l-33 10l-32 6l-66 4l-31 -2l-45 -2l-30 -6l-54 -14l-32 -13l-48 -24l-28 -19l-33 -28l-22 -25l-23 -31l-16 -26l-7 -13l-18 -43l-10 -30l-6 -15l-6 -28l-5 -29
l-4 -59v-31l2 -33l7 -33l2 -18l8 -31l4 -14l10 -29l35 -61l22 -29l37 -39l41 -35l29 -18l33 -16l30 -13l43 -14l31 -6l51 -6l35 -2l51 4l33 4l45 10l29 12l45 29l24 18l33 33l47 55zM1665 723l-4 -47l-4 -31l-12 -61l-5 -47l-4 -31l-6 -33l-8 -31l-20 -43l-70 -120l-39 -54
l-53 -57l-23 -21l-51 -38l-37 -25l-26 -16l-31 -17l-70 -28l-131 -39l-33 -9l-34 -8l-35 -6l-35 -2h-111l-69 4l-68 8l-29 6l-141 46l-33 10l-100 43l-31 16l-30 19l-27 20l-27 23l-47 53l-55 55l-41 51l-16 27l-17 41l-31 92l-12 43l-18 94l-6 45l-2 31l-3 35v35l3 35l2 36
l4 35l6 35l8 35l10 35l10 30l13 33l14 47l14 33l25 49l59 90l25 25l61 49l115 76l57 31l43 18l60 20l31 9l108 20l103 12l65 4l62 -4l49 -2l34 -4l35 -6l35 -8l35 -6l33 -8l61 -19l43 -16l29 -13l67 -38l54 -39l80 -76l47 -64l16 -26l14 -27l17 -27l22 -40l17 -27l14 -31
l10 -28l23 -109l4 -35l6 -35l4 -69z" />
    <glyph glyph-name="P" unicode="P" horiz-adv-x="1519" 
d="M825 756l35 8l17 6l28 16l13 9l20 20l8 12l15 27l6 14l8 33l2 14v52l-6 30l-6 17l-13 26l-8 13l-22 24l-48 27l-53 14l-33 4h-47l-61 -4l-90 6h-31l-16 -2l-23 -4l-8 -6l-6 -14l-4 -25v-47l6 -76l2 -32l2 -119l2 -25l6 -14l23 -8l106 -9l139 9zM1403 922l-2 -31l-2 -35
l-17 -84l-28 -70l-21 -38l-47 -66l-22 -25l-54 -47l-55 -37l-111 -49l-30 -10l-45 -12l-31 -6l-31 -4l-33 -2l-53 -5h-172l-35 2l-34 -2l-35 -4l-25 -4l-6 -14l-10 -164v-33l2 -61l-2 -31l-2 -45l-4 -22l-6 -13l-11 -4l-22 -4l-66 -4l-80 4h-32l-66 -4l-33 2l-47 2l-26 8
l-13 13l-4 24l-4 31l-2 33v219l8 108v33l-8 109v32l-4 250v33l8 111v32l-6 109v33l8 108v31l-4 61l2 31l2 16l4 23l6 12l11 11l22 2l60 4l47 -2h30l138 2h137l137 -9h135l78 5l29 -2h16l78 -19l33 -10l32 -12l31 -15l31 -18l88 -74l47 -49l31 -39l14 -25l8 -12l13 -26
l10 -31l8 -29l2 -14l8 -29l4 -16l9 -29l12 -57v-17z" />
    <glyph glyph-name="Q" unicode="Q" horiz-adv-x="1789" 
d="M852 313l51 9l31 6l47 14l76 33l63 47l21 24l26 39l15 29l18 47l21 64l6 32l6 62v33l-2 45l-6 32l-15 50l-10 30l-45 82l-22 27l-58 55l-26 19l-41 24l-29 12l-47 15l-31 6l-49 6h-35l-35 -2l-32 -6l-60 -19l-28 -10l-31 -14l-78 -57l-23 -25l-28 -39l-17 -29l-20 -45
l-10 -30l-9 -35l-4 -31l-6 -92l2 -47l4 -31l11 -51l26 -76l45 -72l23 -24l41 -27l28 -16l76 -31l45 -14l31 -8l51 -11h33zM1690 115l-248 -244l-23 -14l-16 -2l-17 16l-55 68l-22 24l-60 57l-20 13l-25 -4l-30 -11l-33 -10l-31 -6l-66 -16l-32 -6l-31 -7l-35 -2l-18 -2h-78
l-31 -2l-47 -2l-31 -2h-30l-33 2l-62 12l-47 11l-30 8l-66 24l-35 15l-92 53l-80 57l-26 21l-35 33l-21 22l-26 37l-72 127l-27 55l-24 78l-12 62l-3 30l7 111v31l-4 63v47l4 33l6 35l8 35l10 34l12 33l29 66l76 127l37 45l59 49l96 65l117 56l31 12l65 21l45 10l33 6l97 14
l34 4l35 2h33l47 -2h31l33 -2l79 -14l60 -16l74 -27l28 -12l27 -15l26 -12l31 -10l70 -35l26 -21l25 -24l94 -107l23 -28l37 -56l14 -30l12 -29l15 -43l12 -31l10 -34l16 -68l7 -33l2 -35v-37l-2 -34v-97l-5 -51l-4 -31l-10 -45l-22 -65l-13 -33l-10 -33l-12 -30l-21 -43
l-8 -21v-14l17 -21l112 -116l17 -23z" />
    <glyph glyph-name="R" unicode="R" horiz-adv-x="1554" 
d="M877 805l26 10l25 14l20 25l15 31l8 33l2 32l-2 35l-4 35l-9 31l-14 30l-18 25l-23 18l-29 13l-45 10l-32 4l-103 2h-32l-105 -6l-25 -2l-14 -6l-12 -13l-2 -22l2 -47l8 -68l2 -35l-4 -112l2 -23l4 -12l14 -6l25 -4l107 -9h32l135 9zM1425 0h-143l-113 2h-32l-93 -4h-26
l-19 8l-16 17l-65 92l-103 137l-57 94l-84 113l-15 16l-12 6l-24 2l-66 4l-27 -2l-16 -12l-6 -27l-4 -112l10 -148l2 -32l2 -50v-32l-2 -33l-4 -25l-10 -10l-23 -6h-33l-98 6l-94 -6h-33l-94 6l-25 4l-12 8l-4 21l-4 59l14 197v33l-6 110l-2 33l-2 109v32l6 111v33l-6 110
v33l6 111v32l4 109v33l-2 110v33l-4 68l2 30l2 13l6 26l13 17l24 6l17 2l30 2l92 -4l244 -8l139 8h33l135 -8h78l35 -2l31 -7l43 -12l94 -35l31 -14l65 -43l23 -18l20 -21l21 -25l47 -67l24 -39l15 -29l14 -30l10 -33l6 -33l2 -33l5 -45v-33l-2 -32l-5 -35l-6 -35l-8 -33
l-12 -30l-15 -31l-18 -31l-37 -51l-18 -23l-33 -32l-23 -19l-40 -22l-25 -15l-27 -14l-26 -6l-17 -6l8 -17l166 -229l21 -25l74 -102l84 -98l18 -23l10 -22l-8 -19z" />
    <glyph glyph-name="S" unicode="S" horiz-adv-x="1476" 
d="M1339 424l-4 -35l-6 -33l-10 -45l-10 -28l-19 -41l-14 -27l-25 -37l-20 -24l-49 -48l-41 -26l-27 -19l-59 -30l-47 -17l-62 -20l-115 -19l-45 -4l-28 -2l-47 -2l-99 -6h-45l-28 2l-47 4l-31 4l-35 6l-31 11l-45 14l-88 43l-92 61l-86 70l-23 23l-16 18l-2 14l10 19l29 33
l57 53l19 22l35 54l38 45l23 12l22 -4l89 -62l106 -53l64 -20l32 -6l47 -2l33 -3l129 9l33 4l16 4l31 12l27 17l20 20l10 14l13 31l-2 35l-4 16l-17 29l-10 12l-27 21l-47 18l-35 8l-34 6l-195 19l-61 12l-33 8l-45 17l-31 10l-100 49l-27 19l-31 18l-26 18l-35 29l-19 27
l-18 30l-27 74l-6 31l-6 45l-4 66l2 32l4 49l6 31l8 27l11 31l20 45l15 28l16 25l20 22l33 31l27 21l26 18l29 14l39 23l61 24l31 11l80 14l61 8l46 8l32 4l31 3h33l61 -7l31 -4l14 -4l33 -4l70 -12l35 -8l32 -11l35 -10l33 -12l61 -27l39 -22l29 -15l27 -18l18 -19v-20
l-35 -63l-16 -25l-101 -131l-24 -21l-17 -6l-14 2l-51 29l-31 12l-14 6l-31 11l-51 12l-47 10l-33 2l-53 4h-53l-35 -2l-35 -6l-33 -10l-12 -6l-25 -19l-10 -12l-14 -29l-4 -32l6 -27l16 -27l23 -20l39 -19l30 -6l52 -6l69 -4l35 -6l70 -16l65 -21l47 -10l31 -8l57 -21
l41 -18l58 -31l26 -16l60 -50l43 -49l41 -63l14 -31l8 -31l8 -45l4 -30l2 -35z" />
    <glyph glyph-name="T" unicode="T" horiz-adv-x="1409" 
d="M1286 1286l2 -61l-2 -33l-2 -16l-4 -25l-6 -14l-12 -11l-25 -4h-33l-61 6l-33 2l-94 -6h-33l-51 4h-31l-14 -2l-21 -6l-8 -12l-10 -147v-33l8 -123l-12 -189l4 -120v-189l-4 -121l2 -30l10 -93l2 -32l-6 -25l-10 -10l-27 -4l-39 2l-51 6l-35 2l-92 -6h-33l-92 6l-24 2
l-13 6l-4 23v35l6 86l2 32v154l2 123v33l2 120v33l-8 123l-2 33v156l-4 120v29l-6 16l-21 4h-30l-66 -4h-37l-55 4l-35 3l-35 -3l-47 -2h-30l-17 2l-22 5l-13 8l-8 12l-4 21v14l-2 33l4 61v31l-6 78l2 32l6 27l8 14l13 7l20 4h47l76 -7h33l119 9h32l121 -11h33l152 11
l118 -2h33l154 2h151l68 4l35 -2l16 -2l25 -4l14 -9l10 -14l4 -25v-14l2 -31z" />
    <glyph glyph-name="U" unicode="U" horiz-adv-x="1646" 
d="M1464 655l-2 -30l-2 -47l-4 -31l-22 -129l-9 -31l-26 -72l-19 -43l-14 -28l-27 -41l-20 -27l-25 -26l-67 -56l-68 -43l-69 -35l-76 -26l-31 -8l-78 -15l-63 -4h-94l-48 4l-30 2l-113 13l-33 6l-18 2l-33 10l-49 20l-45 21l-31 18l-31 21l-53 45l-22 22l-45 60l-52 82
l-16 30l-27 64l-16 59l-14 80l-4 35l-5 70l-2 32l7 125v33l-5 125v33l7 125v190l-4 66v35l2 34l6 33l14 19l27 6l67 4l78 -6h33l67 2l31 -2l47 -2l27 -6l16 -17l6 -26l2 -29v-31l-4 -80v-33l7 -124v-33l-3 -125v-33l-6 -125v-33l-2 -125l2 -32l4 -52l7 -32l12 -45l12 -31
l21 -47l20 -25l33 -35l26 -16l46 -16l30 -9l54 -4h32l54 11l30 8l39 18l27 17l33 28l20 25l23 43l14 31l10 32l6 33l8 62l3 32l-9 125v33l6 127v33l5 125v32l-5 127l-8 119v51l8 29l19 17l27 6h43l104 -9h33l82 7h32l31 -2l27 -7l16 -14l2 -24l2 -62v-31l-2 -47v-33l6 -127
v-32l-4 -125v-33l-8 -127z" />
    <glyph glyph-name="V" unicode="V" horiz-adv-x="1687" 
d="M1591 1417l-18 -51l-29 -55l-14 -31l-37 -115l-68 -139l-14 -31l-37 -112l-112 -287l-70 -139l-72 -174l-49 -107l-59 -143l-8 -23l-13 -8l-24 -2l-150 2l-33 -2l-114 -10l-35 -2l-27 4l-14 14l-70 164l-53 113l-70 172l-36 112l-127 285l-54 141l-63 140l-49 147l-13 31
l-36 59l-13 31l-6 18l-4 27l6 18l14 13l23 6l12 2h31l92 -6l98 2l132 -8l26 -3l17 -4l12 -16l47 -150l49 -106l66 -174l41 -129l57 -160l51 -164l10 -22l15 -8l18 8l12 22l50 127l43 166l10 33l57 123l55 176l52 108l10 31l20 76l13 35l16 26l14 9l25 4h14l33 2l51 -4h131
l95 6l36 -4l25 -6l12 -13l6 -18z" />
    <glyph glyph-name="W" unicode="W" horiz-adv-x="2355" 
d="M2277 1446l-110 -289l-35 -115l-61 -145l-11 -31l-32 -114l-13 -33l-51 -107l-12 -32l-33 -117l-10 -31l-54 -113l-92 -292l-8 -21l-10 -10l-14 -2l-138 4l-159 10l-21 4l-61 117l-92 268l-64 162l-37 103l-10 18h-6l-56 -152l-49 -98l-88 -270l-51 -131l-10 -23l-23 -10
l-127 10h-32l-127 -10l-19 10l-8 25l-57 110l-11 31l-28 117l-62 145l-55 141l-45 150l-10 31l-115 288l-37 115l-80 170l-47 117l-2 24l12 15l23 6h31l80 -6h32l142 -2h110l27 -2l8 -8l4 -21l47 -135l51 -162l64 -154l51 -155l31 -162l8 -18l12 -2l13 16l34 104l11 29
l26 109l123 403l49 139l11 11l22 4l102 8l31 2l45 -2h31l31 -2l20 -8l12 -21l52 -131l71 -242l9 -28l24 -109l10 -28l49 -101l9 -29l6 -47l6 -32l8 -31l12 -16l13 2l10 22l25 119l8 31l43 118l10 33l20 96l58 156l39 92l10 31l20 78l9 24l12 15l24 4l109 -8h33l110 6h33
l109 -8h22l8 -7z" />
    <glyph glyph-name="X" unicode="X" horiz-adv-x="1650" 
d="M1499 -10l-31 2l-84 4l-32 2l-113 -4h-33l-112 2l-19 4l-31 35l-55 78l-59 104l-152 242h-16l-80 -125l-66 -127l-18 -29l-70 -94l-61 -88l-21 -6h-30l-228 12l-32 -2l-88 -8l-29 -2l-14 12l2 21l229 333l18 29l66 92l16 27l66 92l16 27l64 92l10 20l-2 10l-74 105
l-69 121l-82 114l-166 261l-66 88l-4 18l4 4v10l17 11h61l33 -2l262 4l33 -2l28 -7l19 -16l123 -203l49 -102l74 -127l16 -12l16 14l56 86l59 121l16 29l56 83l45 82l14 23l19 16l26 11l35 4l33 -2l84 -7l33 -2l94 5h98l29 -7l12 -16l-10 -27l-37 -59l-74 -98l-72 -107
l-98 -162l-74 -106l-84 -131l-10 -21l8 -22l54 -66l282 -424l115 -161l10 -15l13 -28v-25z" />
    <glyph glyph-name="Y" unicode="Y" horiz-adv-x="1638" 
d="M1563 1456l-160 -235l-109 -148l-57 -100l-168 -246l-88 -121l-8 -16v-166l8 -111l-10 -143v-33l8 -86l2 -28l-6 -17l-8 -8l-19 -4h-135l-240 8l-8 6l-4 21v252l-10 143l-2 33l8 110l-4 19l-14 14l-56 98l-18 29l-66 92l-94 156l-143 217l-154 252l-6 18l2 11l12 8h275
l151 -8l23 -3l8 -6l59 -102l95 -145l53 -95l74 -116l14 -19l12 -4l15 14l51 99l100 143l51 96l74 123l16 21l17 4l22 -2l103 -6h33l118 6h33l117 -8l24 -5l11 -4z" />
    <glyph glyph-name="Z" unicode="Z" horiz-adv-x="1396" 
d="M1253 29l-4 -25l-18 -8l-17 -2h-28l-78 6h-31l-119 -6l-151 10h-33l-119 -6l-32 -2l-119 -2l-152 8l-33 2h-118l-35 -2l-51 -4l-35 -2h-31l-18 8l-4 25l-4 82v20l8 19l84 120l78 125l65 92l76 127l16 29l64 96l16 29l82 119l70 94l84 121v22l-25 9l-115 8h-32l-115 -2
h-33l-115 -6h-75l-68 4l-22 8l-9 24v17l-2 35l-2 69v33l-4 125l10 20l27 2l256 9h33l112 -2h33l111 2h33l112 -6l146 8h32l146 -8l110 2l27 -5l10 -22v-14l2 -35l-2 -19l-2 -22l-158 -232l-16 -28l-65 -92l-72 -127l-103 -146l-153 -246l-64 -94l-8 -20l6 -15l23 -6l35 -2
h35l208 15h33l125 -5h33l80 7h30l17 -2l20 -9l6 -24v-168z" />
    <glyph glyph-name="bracketleft" unicode="[" horiz-adv-x="741" 
d="M602 -16l-2 -17l-4 -28l-4 -17l-2 -28l-8 -27l-21 -12h-33l-32 2l-119 -4h-33l-149 -11l-48 -2h-28l-47 2l-27 6l-16 19l-4 29l-5 45l3 28l2 45l2 31l4 115v104l2 45l-2 29l-2 45l-2 29l-4 45v28l4 45v31l6 189v32l-8 115v31l2 45v102l-4 45v29l-3 45v29l3 45v102l2 45
v144l2 30l4 45l6 29l12 18l25 5l51 4h119l135 -4l33 2l53 2l33 2l51 -2l26 -7l15 -20l6 -31l2 -30l-4 -66v-33l8 -49l-2 -31l-16 -26l-25 -15l-29 -2h-30l-31 4l-29 2l-30 -2l-25 -6l-12 -18l-4 -31l-2 -35v-32l2 -45v-29l-4 -45l-5 -33l-4 -68l2 -45v-32l2 -35v-33l-2 -45
v-33l-2 -35v-32l4 -45l2 -33l3 -35l2 -33l-2 -45v-215l-3 -31l-2 -45l-2 -28l4 -45l7 -27l16 -18l27 -7l135 5l28 -5l15 -14l12 -57l2 -29v-31z" />
    <glyph glyph-name="backslash" unicode="\" horiz-adv-x="1193" 
d="M965 -145l-35 -5l-35 -2l-113 5l-34 2l-35 4l-23 2l-14 16l-23 45l-32 72l-58 176l-61 141l-43 115l-13 29l-51 143l-30 72l-19 41l-47 145l-8 31l-41 117l-78 167l-14 43l-13 29l-16 43l-43 146l-10 30l-23 41l-12 29l-14 43l-4 27l8 18l26 6l35 2l109 -6l35 2h36l35 -2
l25 -2l8 -10l25 -64l12 -28l24 -72l17 -43l24 -74l62 -141l26 -72l23 -74l61 -137l60 -178l51 -111l49 -145l62 -143l10 -29l20 -74l25 -73l16 -41l13 -29l16 -43l31 -72l10 -28l12 -43l6 -25l-6 -12z" />
    <glyph glyph-name="bracketright" unicode="]" horiz-adv-x="753" 
d="M608 -131l-18 -16l-31 -5l-53 -2l-33 -2l-53 -2h-33l-53 2h-119l-53 -2l-33 2l-53 4l-25 7l-14 16l-6 27l-2 28v29l2 31l-2 30l-4 31l-2 29v30l6 27l18 14l29 5l137 -9l29 7l18 20l4 27v45l-2 28l-4 45v33l2 35l4 33l2 45l2 33v67l-2 45l-4 68l-4 33l-2 45v32l2 35v33
l2 45v33l2 35v110l-2 35v33l-2 45v33l2 34l-4 72l-4 29l-14 12l-27 4l-51 2l-33 2l-51 4l-29 4l-18 15l-6 24v31l2 31l4 31v30l-6 31l-3 29v30l9 25l20 14l29 4l51 2l33 2l53 -4h119l53 -2l33 2l53 9l33 2h53l27 -7l10 -20l2 -29l4 -45v-28l-4 -45v-29l2 -45v-31l8 -115v-30
l2 -45v-33l-2 -35v-33l-2 -45v-176l4 -45v-29l2 -45l-10 -145l-2 -31l2 -45v-176l-2 -45v-29l2 -45v-219l2 -31l6 -45l2 -28l2 -45z" />
    <glyph glyph-name="asciicircum" unicode="^" horiz-adv-x="1343" 
d="M1200 752l-6 -23l-14 -18l-21 -6h-47l-65 4h-33l-53 -2l-31 -2h-29l-20 4l-13 8l-71 117l-105 143l-22 45l-19 27l-35 41l-14 4l-16 -4l-39 -39l-45 -68l-88 -156l-64 -92l-14 -18l-14 -4h-25l-14 -2h-33l-53 4h-31l-62 -4h-45l-20 4l-12 14l-7 21l9 22l63 92l78 123
l16 29l80 119l68 92l80 121l47 82l18 28l27 33l12 8l23 2l118 -8h23l16 -14l80 -101l248 -360l16 -29l80 -123l68 -92z" />
    <glyph glyph-name="underscore" unicode="_" horiz-adv-x="1169" 
d="M1038 -164l-6 -78l-6 -28l-16 -17l-29 -6l-45 -2h-33l-45 2l-33 2l-45 2h-110l-45 2h-111l-203 -6h-110l-45 -4h-33l-45 4l-27 4l-14 19l-6 28l-8 78v33l4 76l6 28l16 19l29 6l45 -2h33l45 -4h32l46 2h32l45 4h33l47 -2h189l45 2h32l123 -4l33 2l47 2l33 2l45 -2l27 -6
l14 -19l6 -28l8 -76v-33z" />
    <glyph glyph-name="grave" unicode="`" horiz-adv-x="774" 
d="M528 1223l-14 -2h-33l-92 6l-61 -4h-33l-16 2l-27 4l-19 8l-176 207l-18 26l-8 13l-8 26l8 17l26 6l19 2h35l96 -6l137 8l31 -2h16l27 -4l20 -12l15 -25l57 -125l33 -57l14 -33l6 -29l-8 -18z" />
    <glyph glyph-name="a" unicode="a" 
d="M1008 637l-105 317l-10 27l-21 14l-26 6l-23 -6l-20 -20l-121 -307l-6 -31l6 -25l23 -10l28 -4h129l96 -6l27 8l16 16zM1698 31l-15 -23l-22 -10l-27 -4h-28l-47 4l-31 2h-92l-127 -8l-27 10l-12 14l-74 195l-14 20l-19 5l-147 10h-33l-154 4l-122 2h-31l-31 -2h-94
l-27 -4l-16 -10l-12 -25l-47 -139l-13 -33l-22 -27l-31 -10h-33l-119 6h-32l-127 -8l-27 -2l-25 12l-16 23l2 26l4 17l230 526l12 31l55 115l86 196l117 248l102 242l11 22l20 12l31 7l94 4h160l94 -2l35 -7l22 -16l51 -137l52 -96l57 -129l49 -134l127 -284l41 -103
l139 -280l56 -129l41 -103z" />
    <glyph glyph-name="b" unicode="b" horiz-adv-x="1560" 
d="M1010 477l-6 29l-17 29l-12 14l-27 26l-33 21l-30 10l-15 2l-28 2l-92 -4l-35 -2h-121l-31 -2h-12l-25 -4l-18 -8l-6 -8l-2 -21v-45l2 -33v-37l-4 -49v-30l4 -23l8 -12l14 -8l27 -2l162 2l127 4l69 4l33 4l23 10l16 14l8 13l15 30l6 33l2 13zM498 958l4 -22l8 -14l16 -9
l25 -2h47l70 4l34 -2l48 -2l69 -4h45l27 6l24 11l21 14l14 18l13 21l6 27v34l-6 29l-19 25l-29 20l-12 6l-31 8l-49 7h-18l-33 4l-47 4l-31 2l-100 -6h-27l-20 -2l-19 -5l-12 -6l-8 -10l-6 -27l-6 -49l-2 -32l2 -15zM1423 414l-4 -54l-6 -30l-14 -43l-13 -29l-20 -39
l-18 -26l-33 -37l-23 -23l-51 -37l-27 -18l-28 -15l-31 -14l-63 -20l-93 -19l-47 -6l-32 -2l-50 -4h-32l-113 -4h-178l-115 6h-33l-143 -2h-78l-33 4l-28 4l-17 6l-10 11l-4 22l-2 31l2 28v33l2 17v34l6 109l-2 33l-2 53l-2 35l-2 18v35l2 53v88l8 109v33l-4 108v33l-2 109
l8 141l2 33l-8 108l-2 33l-6 61v50l8 24l21 12l28 7l33 2h111l112 4l178 -11l111 5h33l112 -3h33l119 -8l35 -4l35 -6l32 -8l76 -29l39 -22l27 -19l35 -28l24 -25l23 -29l39 -69l12 -29l10 -31l6 -33l8 -53l2 -33l-2 -34l-6 -35l-12 -47l-14 -31l-19 -31l-22 -26l-49 -49
l-7 -15l7 -16l18 -19l25 -22l24 -27l10 -16l21 -29l18 -31l15 -30l8 -19l10 -32l8 -35l4 -35l2 -19z" />
    <glyph glyph-name="c" unicode="c" horiz-adv-x="1505" 
d="M1411 186l-53 -49l-64 -47l-24 -16l-68 -37l-47 -23l-65 -20l-35 -6l-51 -11l-72 -8l-37 -2l-51 -4h-107l-35 2l-34 4l-35 6l-35 9l-31 10l-92 24l-45 17l-27 12l-38 23l-80 55l-54 45l-47 51l-41 60l-51 100l-45 127l-20 61l-4 31l-3 47l3 31l2 33v34l6 103l14 76l8 30
l35 101l45 90l37 59l43 56l49 49l51 43l66 45l55 33l62 28l67 23l70 16l35 6l34 4l64 4l45 5l31 -3l45 -2l76 -10l28 -6l47 -8l72 -21l29 -12l73 -43l140 -98l12 -10l14 -15l4 -16l-2 -17l-30 -38l-23 -23l-45 -39l-80 -88l-28 -27l-15 -6l-14 -2l-15 4l-22 13l-39 28
l-27 15l-45 20l-28 10l-45 13l-31 6l-51 4h-33l-45 -4l-33 -8l-45 -15l-57 -22l-41 -21l-29 -20l-39 -39l-33 -55l-14 -29l-12 -31l-10 -33l-7 -34l-4 -31l-4 -62v-32l2 -52l2 -30l11 -47l10 -31l14 -35l17 -31l30 -45l23 -24l39 -33l26 -19l41 -20l31 -12l45 -13l33 -6
l49 -2h47l29 6l98 33l33 14l31 15l26 14l39 25l47 35l12 4l19 -4l22 -15l23 -20l8 -13l21 -22l53 -66l55 -63l19 -25l10 -10l10 -18v-13z" />
    <glyph glyph-name="d" unicode="d" horiz-adv-x="1613" 
d="M1044 555l13 35l8 31l8 45l2 28l2 47v66l-2 33l-6 47l-8 31l-4 12l-17 31l-30 43l-54 55l-24 18l-45 27l-29 12l-61 12l-52 2l-34 3h-52l-45 2l-30 -2l-45 -7l-23 -6l-10 -10l-6 -25l-2 -18l-2 -31l4 -61l2 -33l4 -45l4 -33l2 -33v-32l-2 -45v-99l-4 -67l-4 -45v-29
l-2 -47l2 -31l6 -49l8 -22l12 -11l25 -2l190 13l48 2l32 6l35 10l33 12l31 15l26 18l37 33l21 24l24 39zM1495 666l-2 -50l-6 -32l-14 -47l-60 -162l-22 -45l-17 -27l-28 -33l-101 -100l-26 -23l-39 -30l-27 -17l-41 -22l-27 -12l-45 -17l-30 -10l-33 -8l-158 -25l-31 -2
l-45 -4h-32l-66 2l-53 4h-33l-65 -4l-52 -2l-34 -2l-31 2h-144l-30 2l-88 8l-17 8l-10 11l-4 22l-2 33l2 16l4 62v28l2 48v30l2 33v33l-2 108v33l-4 109l2 30l2 45l4 31l2 35v33l-4 53l-2 35v18l-2 35l8 109v32l-2 109v33l-6 108v80l2 33l10 53l9 12l22 7l35 4l31 4l32 2
l181 -2h32l99 -6l16 -2h37l86 4l31 2h32l52 -4l65 -4l86 -13l33 -6l31 -8l73 -27l31 -14l31 -16l29 -17l67 -47l51 -43l66 -63l18 -23l37 -72l35 -96l10 -33l8 -32l9 -45l12 -68l4 -33l2 -49l4 -68z" />
    <glyph glyph-name="e" unicode="e" horiz-adv-x="1431" 
d="M1276 193l-10 -144l-2 -20l-9 -15l-10 -8l-268 -8h-33l-108 8l-140 -10l-32 -2h-142l-106 8h-33l-176 -10l-70 4l-24 4l-15 10l-6 15l-4 22l-4 47l-2 33l2 31v30l8 109v33l2 108l-8 142l-2 32l4 111v174l8 109l-8 141l-2 33v49l4 61v31l6 106l2 29l6 17l11 8l16 2l27 4
l133 -8l125 2h33l122 -8h33l123 8h33l278 -4l35 2l70 6h51l29 -6l12 -11l4 -14l4 -27v-55l-4 -51v-35l2 -51l2 -31l-2 -30l-4 -25l-8 -14l-10 -9l-25 -4h-16l-33 -2l-193 4h-32l-105 -4h-33l-106 4l-92 6h-31l-16 -2l-21 -4l-10 -10l-6 -35l-4 -49v-33l2 -34l2 -23l4 -14
l8 -11l23 -6l65 -4l66 4h194l230 13l63 -4l23 -5l12 -10l6 -12l2 -23l4 -34l2 -35v-68l4 -47l-4 -61l-4 -25l-8 -14l-14 -11l-21 -4h-41l-92 11l-33 2l-164 -11l-131 4h-32l-82 7l-35 -2l-25 -2l-10 -7l-6 -14l-2 -31l-6 -51l-2 -33v-45l2 -20l6 -15l8 -8l22 -2l113 -4h33
l110 8l146 -8h33l145 8h31l31 -2l73 -8l13 -6l8 -12l2 -23z" />
    <glyph glyph-name="f" unicode="f" horiz-adv-x="1378" 
d="M1223 1204l-2 -30l-2 -23l-7 -14l-12 -11l-22 -6h-43l-62 8l-33 2h-133l-233 -8l-92 6h-45l-21 -6l-8 -14l-2 -29l-4 -182l2 -23l2 -12l10 -8l25 -6h53l70 6l32 2l123 -4h156l108 8h50l22 -4l12 -10l9 -17l4 -24l2 -17l2 -30l-4 -62v-30l2 -48l-4 -63l-4 -25l-7 -16
l-10 -8l-24 -6h-50l-75 10l-33 2l-123 -4h-33l-221 4l-31 -2l-28 -4l-21 -6l-8 -13v-26l-2 -117v-33l-8 -114v-33l2 -45l-4 -68l-2 -24l-7 -13l-12 -6l-22 -4l-35 -4l-33 -2l-76 2h-32l-84 -6l-62 4l-22 4l-13 8l-4 15l-2 22l-6 109l-2 32l-2 109l10 141l2 33l-6 109v32
l-6 111v33l4 108v174l4 109v174l4 109l2 24l4 14l13 7l20 4h45l78 -6h33l121 6h32l119 -6h33l121 6l33 2l120 -6h33l121 6h33l51 -2l33 -2l35 -4l22 -3l12 -6l9 -12l2 -22l2 -19v-31l-4 -61v-33l4 -49z" />
    <glyph glyph-name="g" unicode="g" horiz-adv-x="1638" 
d="M1481 805l-8 -133v-193l-5 -86v-121l-2 -22l-28 -47l-19 -27l-35 -35l-24 -22l-12 -13l-68 -43l-41 -20l-59 -23l-47 -14l-31 -8l-64 -12l-47 -6l-59 -11l-82 -10l-31 -2l-63 4l-47 4l-33 4l-33 6l-102 29l-31 8l-72 25l-67 37l-52 37l-49 39l-55 53l-20 24l-23 31
l-70 121l-28 63l-11 33l-10 35l-12 68l-4 32l-8 45l-4 33l-2 31v31l6 92l4 16l6 35l8 35l41 131l29 67l14 29l45 62l45 51l78 67l51 39l123 74l35 14l35 11l32 8l76 12l60 8l30 6l31 4l47 5l33 2l45 -5l31 -2l47 -6l29 -6l45 -8l30 -8l76 -25l74 -37l31 -18l26 -19l33 -20
l22 -16l11 -11l22 -16l12 -10l13 -15v-14l-6 -14l-31 -45l-78 -80l-61 -53l-39 -29l-13 -8l-16 -2l-76 49l-28 16l-66 27l-35 8l-35 6l-96 6h-14l-33 -2l-53 -4l-33 -8l-61 -29l-27 -18l-27 -21l-22 -22l-21 -27l-18 -26l-16 -29l-13 -31l-10 -33l-8 -30l-12 -62l-7 -33
l-2 -34v-35l4 -49l17 -80l10 -33l21 -49l14 -29l24 -37l21 -24l37 -35l26 -21l41 -22l31 -12l62 -15l34 -4l35 -2h33l33 4l141 33l33 12l31 15l20 14l6 12v23l2 18v31l-4 61v35l-8 13l-23 4h-49l-33 -2l-47 -7l-32 -2h-48l-32 2l-70 13l-12 4l-8 10l-4 25l-3 16l-2 33l2 51
l-4 61l-4 31v43l6 23l11 10l24 4l51 6l35 2h94l134 6l163 -10h33l84 10l33 2l16 -2l31 -6l14 -8l4 -12l7 -29l2 -16z" />
    <glyph glyph-name="h" unicode="h" horiz-adv-x="1658" 
d="M1452 156l4 -52l2 -30l-2 -29l-10 -27l-14 -14l-23 -2l-33 -4l-110 6h-33l-109 -8h-32l-29 6l-12 16l-4 29l-9 133l-2 33l4 133v33l-4 131v29l-8 16l-22 8h-50l-82 -6l-32 -2l-164 4l-111 6l-26 -2l-19 -6l-10 -18l-2 -29l2 -131v-33l-4 -133l2 -33l8 -88v-47l-8 -29
l-18 -16l-27 -6l-31 -2l-31 2l-86 8l-32 2l-97 -6l-32 2h-17l-22 4l-17 8l-8 11l-4 22l-2 18v33l4 62v172l4 108v33l2 109v32l-6 109v33l-2 108v142l8 141l2 33l-2 108l-2 33l-10 70v43l8 24l19 14l26 7l31 2h31l86 -4h32l82 6h33l31 -2l26 -4l17 -17l8 -26l2 -15v-31
l-8 -124l-2 -134v-167l2 -25l6 -16l10 -9l21 -2l28 -2h29l78 13l31 2l131 -4l121 -9h30l15 2l22 13l8 16l11 156v32l-5 134v32l-2 133l7 33l16 19l25 4h32l111 -6h33l92 6l33 -2h18l27 -4l16 -17l8 -28v-31l-6 -82l-2 -33l6 -108v-33l-4 -109v-32l8 -109v-33l-8 -108v-33
l-4 -109v-32l2 -109v-33l-2 -108v-142z" />
    <glyph glyph-name="i" unicode="i" horiz-adv-x="706" 
d="M510 289l-8 -111v-33l-2 -112v-23l-6 -12l-17 -4l-28 -2l-105 2h-127l-102 8l-13 4l-6 6v21l-4 51v33l-2 30v31l-6 111l8 143l2 33l-6 113v32l-2 111v176l-2 113v32l2 111v176l-4 113l6 22l12 9l21 2h16l31 2l49 -2h33l94 4h127l23 -4l4 -13l2 -22l4 -54l2 -32v-201
l2 -111v-32l-2 -113v-33l2 -110v-33l-4 -111v-178l6 -110v-33z" />
    <glyph glyph-name="j" unicode="j" horiz-adv-x="1574" 
d="M1384 752l5 -105v-35l-5 -69l-6 -51l-6 -31l-12 -47l-25 -72l-14 -31l-16 -30l-19 -31l-51 -66l-53 -55l-35 -31l-64 -43l-26 -16l-43 -21l-29 -12l-76 -22l-78 -15l-51 -4l-69 -4l-35 2l-47 2l-105 15l-75 16l-72 22l-74 27l-39 21l-26 16l-37 29l-23 20l-49 57l-25 39
l-34 70l-31 96l-8 51l-6 33l-2 47l-3 35v35l9 27l22 8l31 2h92l92 -4l33 2l61 6l33 2l25 -12l10 -23l2 -27l2 -14l6 -29l15 -47l12 -28l14 -27l21 -27l39 -34l28 -19l31 -14l33 -8l49 -6l31 2l61 12l29 10l28 14l29 17l39 33l23 24l18 31l12 31l11 45l4 30l2 47v31l2 123v33
l2 125v33l2 122l2 29l-17 8l-94 -6h-33l-92 6h-32l-66 -6h-29l-24 10l-13 25v12l-2 31l7 86v33l-7 96l2 31l13 22l24 8h43l82 -4h33l123 11l33 2l121 -4h188l94 4h31l20 -6l9 -13l2 -22l4 -60l2 -47l-8 -135v-33l8 -137l2 -104l-2 -33l-11 -105z" />
    <glyph glyph-name="k" unicode="k" horiz-adv-x="1517" 
d="M1442 23l-12 -23l-15 -8h-26l-111 8h-33l-129 2h-33l-131 -6l-24 2l-19 14l-71 80l-82 115l-19 22l-80 80l-88 105l-16 22l-10 19l-15 6l-12 -8l-4 -27v-141l-4 -111v-33l2 -49v-31l-2 -30l-2 -21l-10 -8l-25 -4l-63 -4h-64l-94 8l-33 -2l-102 -8l-17 6l-8 12l-2 19
l-2 28v33l2 51l2 35l-8 111v143l8 145l2 33v144l-4 110v33l4 113v32l-4 254v33l6 111l2 24l6 11l21 4l31 -2l63 -7h33l94 9h33l94 -7l23 -2l10 -6l6 -16l2 -21l-8 -94l-2 -33l6 -108v-33l2 -108l4 -23l16 -4l23 14l63 88l111 133l64 89l92 106l16 16l21 5l94 6h33l124 -9
l78 -2h33l78 2l22 -2l11 -8l4 -4l-2 -6l-95 -104l-112 -144l-101 -112l-169 -205l-23 -25l-51 -47l-23 -25l-10 -12l-10 -16l4 -12l90 -119l113 -115l120 -147l105 -119l88 -92l20 -25l91 -90z" />
    <glyph glyph-name="l" unicode="l" horiz-adv-x="1359" 
d="M1225 63v-18l-6 -25l-13 -14l-14 -6l-21 -4h-16l-29 -2l-227 12h-154l-184 -12l-119 8h-151l-94 -6h-31l-29 2l-22 4l-15 8l-10 13l-4 24v33l10 78l2 30l-8 109v33l4 108v33l4 250v33l-8 250v32l-2 109v174l-4 61v31l2 19l6 26l8 12l15 7l22 4h17l30 2l101 -6h32l146 2
h20l15 -9l10 -14v-178l4 -119v-33l-6 -118v-33l4 -119v-33l6 -119v-32l-12 -271l2 -20l2 -10l4 -11l10 -8l25 -4l69 -4l62 4h33l295 4l32 2l70 8l33 2h30l25 -6l14 -12l7 -14l2 -23l2 -114l6 -97z" />
    <glyph glyph-name="m" unicode="m" horiz-adv-x="1945" 
d="M1733 154l8 -64l2 -31l-2 -16l-2 -23l-10 -16l-13 -10l-22 -4l-31 -2h-33l-82 6l-35 2h-51l-37 2l-75 10l-15 4l-8 11l-2 20l-4 59l4 70v193l-6 129v32l8 127v160l-4 25l-12 8h-13l-34 -47l-211 -248l-82 -102l-19 -17l-14 -6h-16l-23 4l-25 6l-22 17l-102 122l-76 101
l-127 143l-27 27l-12 -4l-4 -23l-6 -129v-33l8 -129v-32l4 -129v-33l-2 -127v-31l2 -61l-4 -68l-4 -27l-8 -12l-15 -4l-53 -6l-33 -2l-80 6l-32 -2l-99 -8h-47l-24 4l-13 12l-4 15l-4 20v47l4 64v315l-4 109v32l2 109l-8 143v33l6 109l2 32l-8 109l10 141v33l-8 76v32l4 27
l8 14l13 11l16 4l27 2l34 -4l45 -11h33l99 11l30 2l78 -2h27l22 -11l92 -102l80 -111l88 -106l84 -109l21 -22l18 -10h21l18 10l19 20l61 82l20 29l66 80l20 26l72 80l74 93l16 22l17 16l20 11l135 -9l97 -2h32l62 5l35 -3l24 -4l15 -4l12 -10l4 -16l-10 -117l-2 -33l4 -108
v-33l-2 -109v-32l2 -109v-33l8 -110v-33l-8 -109v-32l6 -109v-33l-8 -108v-33l-4 -109z" />
    <glyph glyph-name="n" unicode="n" horiz-adv-x="1681" 
d="M1473 1124v-303l6 -119v-32l4 -271v-34l-2 -17l-8 -133l2 -119l-2 -28l-9 -25l-16 -23l-21 -14l-18 -6l-29 -2l-104 -4l-33 -2l-51 -2h-33l-26 6l-25 10l-25 19l-18 26l-31 60l-18 26l-180 223l-91 134l-118 147l-76 100l-19 17l-14 -6l-6 -25l-4 -102v-33l2 -103v-32
l2 -115v-33l-6 -114l2 -33l12 -82l2 -33l-6 -27l-14 -14l-15 -4l-24 -4l-17 -2l-34 -2l-95 2h-32l-84 -4h-33l-31 2l-22 4l-17 10l-8 15l-4 20l-2 14v31l6 100l-6 109v33l4 250l8 141l2 33v141l-8 109v32l8 109l-10 143l-2 33v47l2 31l4 31l4 22l6 14l13 7l22 4l62 4l61 -4
h154l24 -2l11 -9l12 -18l86 -92l192 -248l21 -25l92 -127l98 -122l74 -103l16 -14l17 -2l14 10v23l-14 86l-2 32l6 88v33l-8 125v33l8 125l-2 33l-6 75v52l6 26l8 17l14 8l25 4h18l35 2l92 -6h33l70 4l30 -2l48 -2l22 -4l14 -7l13 -14l4 -29l2 -18l2 -35l-4 -63l-4 -33
l-6 -121z" />
    <glyph glyph-name="o" unicode="o" horiz-adv-x="1787" 
d="M1237 756l-4 67l-12 62l-9 28l-22 45l-16 27l-29 37l-51 55l-23 19l-53 30l-29 13l-33 10l-32 6l-66 4l-31 -2l-45 -2l-30 -6l-54 -14l-32 -13l-48 -24l-28 -19l-33 -28l-22 -25l-23 -31l-16 -26l-7 -13l-18 -43l-10 -30l-6 -15l-6 -28l-5 -29l-4 -59v-31l2 -33l7 -33
l2 -18l8 -31l4 -14l10 -29l35 -61l22 -29l37 -39l41 -35l29 -18l33 -16l30 -13l43 -14l31 -6l51 -6l35 -2l51 4l33 4l45 10l29 12l45 29l24 18l33 33l47 55l19 29l33 76l10 47l4 31l4 49v35zM1665 723l-4 -47l-4 -31l-12 -61l-5 -47l-4 -31l-6 -33l-8 -31l-20 -43l-70 -120
l-39 -54l-53 -57l-23 -21l-51 -38l-37 -25l-26 -16l-31 -17l-70 -28l-131 -39l-33 -9l-34 -8l-35 -6l-35 -2h-111l-69 4l-68 8l-29 6l-141 46l-33 10l-100 43l-31 16l-30 19l-27 20l-27 23l-47 53l-55 55l-41 51l-16 27l-17 41l-31 92l-12 43l-18 94l-6 45l-2 31l-3 35v35
l3 35l2 36l4 35l6 35l8 35l10 35l10 30l13 33l14 47l14 33l25 49l59 90l25 25l61 49l115 76l57 31l43 18l60 20l31 9l108 20l103 12l65 4l62 -4l49 -2l34 -4l35 -6l35 -8l35 -6l33 -8l61 -19l43 -16l29 -13l67 -38l54 -39l80 -76l47 -64l16 -26l14 -27l17 -27l22 -40l17 -27
l14 -31l10 -28l23 -109l4 -35l6 -35l4 -69z" />
    <glyph glyph-name="p" unicode="p" horiz-adv-x="1519" 
d="M977 967l-6 30l-6 17l-13 26l-8 13l-22 24l-48 27l-53 14l-33 4h-47l-61 -4l-90 6h-31l-16 -2l-23 -4l-8 -6l-6 -14l-4 -25v-47l6 -76l2 -32l2 -119l2 -25l6 -14l23 -8l106 -9l139 9l37 4l35 8l17 6l28 16l13 9l20 20l8 12l15 27l6 14l8 33l2 14v52zM1403 922l-2 -31
l-2 -35l-17 -84l-28 -70l-21 -38l-47 -66l-22 -25l-54 -47l-55 -37l-111 -49l-30 -10l-45 -12l-31 -6l-31 -4l-33 -2l-53 -5h-172l-35 2l-34 -2l-35 -4l-25 -4l-6 -14l-10 -164v-33l2 -61l-2 -31l-2 -45l-4 -22l-6 -13l-11 -4l-22 -4l-66 -4l-80 4h-32l-66 -4l-33 2l-47 2
l-26 8l-13 13l-4 24l-4 31l-2 33v219l8 108v33l-8 109v32l-4 250v33l8 111v32l-6 109v33l8 108v31l-4 61l2 31l2 16l4 23l6 12l11 11l22 2l60 4l47 -2h30l138 2h137l137 -9h135l78 5l29 -2h16l78 -19l33 -10l32 -12l31 -15l31 -18l88 -74l47 -49l31 -39l14 -25l8 -12l13 -26
l10 -31l8 -29l2 -14l8 -29l4 -16l9 -29l12 -57v-17z" />
    <glyph glyph-name="q" unicode="q" horiz-adv-x="1810" 
d="M1233 752l-2 45l-6 32l-15 50l-10 30l-45 82l-22 27l-58 55l-26 19l-41 24l-29 12l-47 15l-31 6l-49 6h-35l-35 -2l-32 -6l-60 -19l-28 -10l-31 -14l-78 -57l-23 -25l-28 -39l-17 -29l-20 -45l-10 -30l-9 -35l-4 -31l-6 -92l2 -47l4 -31l11 -51l26 -76l45 -72l23 -24
l41 -27l28 -16l76 -31l45 -14l31 -8l51 -11h33l51 9l31 6l47 14l76 33l63 47l21 24l26 39l15 29l18 47l21 64l6 32l6 62v33zM1690 115l-248 -244l-23 -14l-16 -2l-17 16l-55 68l-22 24l-60 57l-20 13l-25 -4l-30 -11l-33 -10l-31 -6l-66 -16l-32 -6l-31 -7l-35 -2l-18 -2
h-78l-31 -2l-47 -2l-31 -2h-30l-33 2l-62 12l-47 11l-30 8l-66 24l-35 15l-92 53l-80 57l-26 21l-35 33l-21 22l-26 37l-72 127l-27 55l-24 78l-12 62l-3 30l7 111v31l-4 63v47l4 33l6 35l8 35l10 34l12 33l29 66l76 127l37 45l59 49l96 65l117 56l31 12l65 21l45 10l33 6
l97 14l34 4l35 2h33l47 -2h31l33 -2l79 -14l60 -16l74 -27l28 -12l27 -15l26 -12l31 -10l70 -35l26 -21l25 -24l94 -107l23 -28l37 -56l14 -30l12 -29l15 -43l12 -31l10 -34l16 -68l7 -33l2 -35v-37l-2 -34v-97l-5 -51l-4 -31l-10 -45l-22 -65l-13 -33l-10 -33l-12 -30
l-21 -43l-8 -21v-14l17 -21l112 -116l17 -23z" />
    <glyph glyph-name="r" unicode="r" horiz-adv-x="1554" 
d="M903 815l25 14l20 25l15 31l8 33l2 32l-2 35l-4 35l-9 31l-14 30l-18 25l-23 18l-29 13l-45 10l-32 4l-103 2h-32l-105 -6l-25 -2l-14 -6l-12 -13l-2 -22l2 -47l8 -68l2 -35l-4 -112l2 -23l4 -12l14 -6l25 -4l107 -9h32l135 9l46 8zM1425 0h-143l-113 2h-32l-93 -4h-26
l-19 8l-16 17l-65 92l-103 137l-57 94l-84 113l-15 16l-12 6l-24 2l-66 4l-27 -2l-16 -12l-6 -27l-4 -112l10 -148l2 -32l2 -50v-32l-2 -33l-4 -25l-10 -10l-23 -6h-33l-98 6l-94 -6h-33l-94 6l-25 4l-12 8l-4 21l-4 59l14 197v33l-6 110l-2 33l-2 109v32l6 111v33l-6 110
v33l6 111v32l4 109v33l-2 110v33l-4 68l2 30l2 13l6 26l13 17l24 6l17 2l30 2l92 -4l244 -8l139 8h33l135 -8h78l35 -2l31 -7l43 -12l94 -35l31 -14l65 -43l23 -18l20 -21l21 -25l47 -67l24 -39l15 -29l14 -30l10 -33l6 -33l2 -33l5 -45v-33l-2 -32l-5 -35l-6 -35l-8 -33
l-12 -30l-15 -31l-18 -31l-37 -51l-18 -23l-33 -32l-23 -19l-40 -22l-25 -15l-27 -14l-26 -6l-17 -6l8 -17l166 -229l21 -25l74 -102l84 -98l18 -23l10 -22l-8 -19z" />
    <glyph glyph-name="s" unicode="s" horiz-adv-x="1435" 
d="M1319 424l-4 -35l-6 -33l-11 -45l-10 -28l-18 -41l-15 -27l-24 -37l-45 -49l-25 -23l-41 -26l-26 -19l-60 -30l-108 -37l-115 -19l-45 -4l-29 -2l-47 -2l-98 -6h-45l-29 2l-47 4l-31 4l-34 6l-31 11l-45 14l-88 43l-92 61l-87 70l-38 41l-2 14l10 19l28 33l58 53l18 22
l35 54l18 22l21 23l22 12l23 -4l88 -62l107 -53l63 -20l33 -6l47 -2l33 -3l129 9l32 4l17 4l31 12l26 17l21 20l10 14l12 31l-2 35l-4 16l-16 29l-11 12l-26 21l-47 18l-35 8l-35 6l-194 19l-62 12l-33 8l-45 17l-30 10l-101 49l-26 19l-31 18l-27 18l-35 29l-36 57l-13 31
l-14 43l-6 31l-6 45l-4 66l2 32l4 49l6 31l18 58l35 73l16 25l54 53l26 21l27 18l29 14l39 23l61 24l31 11l80 14l61 8l45 8l33 4l31 3h32l62 -7l30 -4l15 -4l33 -4l69 -12l35 -8l33 -11l35 -10l94 -39l67 -37l27 -18l18 -19v-20l-34 -63l-117 -156l-25 -21l-16 -6l-14 2
l-52 29l-45 18l-30 11l-99 22l-32 2l-54 4h-53l-35 -2l-35 -6l-32 -10l-13 -6l-24 -19l-10 -12l-15 -29l-4 -32l6 -27l17 -27l22 -20l39 -19l31 -6l51 -6l70 -4l34 -6l70 -16l66 -21l47 -10l30 -8l58 -21l41 -18l57 -31l27 -16l59 -50l23 -24l20 -25l25 -37l16 -26l14 -31
l9 -31l8 -45l4 -30l2 -35z" />
    <glyph glyph-name="t" unicode="t" horiz-adv-x="1409" 
d="M1286 1286l2 -61l-2 -33l-2 -16l-4 -25l-6 -14l-12 -11l-25 -4h-33l-61 6l-33 2l-94 -6h-33l-51 4h-31l-14 -2l-21 -6l-8 -12l-10 -147v-33l8 -123l-12 -189l4 -120v-189l-4 -121l2 -30l10 -93l2 -32l-6 -25l-10 -10l-27 -4l-39 2l-51 6l-35 2l-92 -6h-33l-92 6l-24 2
l-13 6l-4 23v35l6 86l2 32v154l2 123v33l2 120v33l-8 123l-2 33v156l-4 120v29l-6 16l-21 4h-30l-66 -4h-37l-55 4l-35 3l-35 -3l-47 -2h-30l-17 2l-22 5l-13 8l-8 12l-4 21v14l-2 33l4 61v31l-6 78l2 32l6 27l8 14l13 7l20 4h47l76 -7h33l119 9h32l121 -11h33l152 11
l118 -2h33l154 2h151l68 4l35 -2l16 -2l25 -4l14 -9l10 -14l4 -25v-14l2 -31z" />
    <glyph glyph-name="u" unicode="u" horiz-adv-x="1646" 
d="M1464 655l-2 -30l-2 -47l-4 -31l-22 -129l-9 -31l-26 -72l-19 -43l-14 -28l-27 -41l-20 -27l-25 -26l-67 -56l-68 -43l-69 -35l-76 -26l-31 -8l-78 -15l-63 -4h-94l-48 4l-30 2l-113 13l-33 6l-18 2l-33 10l-49 20l-45 21l-31 18l-31 21l-53 45l-22 22l-45 60l-52 82
l-16 30l-27 64l-16 59l-14 80l-4 35l-5 70l-2 32l7 125v33l-5 125v33l7 125v190l-4 66v35l2 34l6 33l14 19l27 6l67 4l78 -6h33l67 2l31 -2l47 -2l27 -6l16 -17l6 -26l2 -29v-31l-4 -80v-33l7 -124v-33l-3 -125v-33l-6 -125v-33l-2 -125l2 -32l4 -52l7 -32l12 -45l12 -31
l21 -47l20 -25l33 -35l26 -16l46 -16l30 -9l54 -4h32l54 11l30 8l39 18l27 17l33 28l20 25l23 43l14 31l10 32l6 33l8 62l3 32l-9 125v33l6 127v33l5 125v32l-5 127l-8 119v51l8 29l19 17l27 6h43l104 -9h33l82 7h32l31 -2l27 -7l16 -14l2 -24l2 -62v-31l-2 -47v-33l6 -127
v-32l-4 -125v-33l-8 -127z" />
    <glyph glyph-name="v" unicode="v" horiz-adv-x="1687" 
d="M1591 1417l-18 -51l-29 -55l-14 -31l-37 -115l-68 -139l-14 -31l-37 -112l-112 -287l-70 -139l-72 -174l-49 -107l-59 -143l-8 -23l-13 -8l-24 -2l-150 2l-33 -2l-114 -10l-35 -2l-27 4l-14 14l-70 164l-53 113l-70 172l-36 112l-127 285l-54 141l-63 140l-49 147l-13 31
l-36 59l-13 31l-6 18l-4 27l6 18l14 13l23 6l12 2h31l92 -6l98 2l132 -8l26 -3l17 -4l12 -16l47 -150l49 -106l66 -174l41 -129l57 -160l51 -164l10 -22l15 -8l18 8l12 22l50 127l43 166l10 33l57 123l55 176l52 108l10 31l20 76l13 35l16 26l14 9l25 4h14l33 2l51 -4h131
l95 6l36 -4l25 -6l12 -13l6 -18z" />
    <glyph glyph-name="w" unicode="w" horiz-adv-x="2355" 
d="M2277 1446l-110 -289l-35 -115l-61 -145l-11 -31l-32 -114l-13 -33l-51 -107l-12 -32l-33 -117l-10 -31l-54 -113l-92 -292l-8 -21l-10 -10l-14 -2l-138 4l-159 10l-21 4l-61 117l-92 268l-64 162l-37 103l-10 18h-6l-56 -152l-49 -98l-88 -270l-51 -131l-10 -23l-23 -10
l-127 10h-32l-127 -10l-19 10l-8 25l-57 110l-11 31l-28 117l-62 145l-55 141l-45 150l-10 31l-115 288l-37 115l-80 170l-47 117l-2 24l12 15l23 6h31l80 -6h32l142 -2h110l27 -2l8 -8l4 -21l47 -135l51 -162l64 -154l51 -155l31 -162l8 -18l12 -2l13 16l34 104l11 29
l26 109l123 403l49 139l11 11l22 4l102 8l31 2l45 -2h31l31 -2l20 -8l12 -21l52 -131l71 -242l9 -28l24 -109l10 -28l49 -101l9 -29l6 -47l6 -32l8 -31l12 -16l13 2l10 22l25 119l8 31l43 118l10 33l20 96l58 156l39 92l10 31l20 78l9 24l12 15l24 4l109 -8h33l110 6h33
l109 -8h22l8 -7z" />
    <glyph glyph-name="x" unicode="x" horiz-adv-x="1650" 
d="M1499 -10l-31 2l-84 4l-32 2l-113 -4h-33l-112 2l-19 4l-31 35l-55 78l-59 104l-152 242h-16l-80 -125l-66 -127l-18 -29l-70 -94l-61 -88l-21 -6h-30l-228 12l-32 -2l-88 -8l-29 -2l-14 12l2 21l229 333l18 29l66 92l16 27l66 92l16 27l64 92l10 20l-2 10l-74 105
l-69 121l-82 114l-166 261l-66 88l-4 18l4 4v10l17 11h61l33 -2l262 4l33 -2l28 -7l19 -16l123 -203l49 -102l74 -127l16 -12l16 14l56 86l59 121l16 29l56 83l45 82l14 23l19 16l26 11l35 4l33 -2l84 -7l33 -2l94 5h98l29 -7l12 -16l-10 -27l-37 -59l-74 -98l-72 -107
l-98 -162l-74 -106l-84 -131l-10 -21l8 -22l54 -66l282 -424l115 -161l10 -15l13 -28v-25z" />
    <glyph glyph-name="y" unicode="y" horiz-adv-x="1638" 
d="M1563 1456l-160 -235l-109 -148l-57 -100l-168 -246l-88 -121l-8 -16v-166l8 -111l-10 -143v-33l8 -86l2 -28l-6 -17l-8 -8l-19 -4h-135l-240 8l-8 6l-4 21v252l-10 143l-2 33l8 110l-4 19l-14 14l-56 98l-18 29l-66 92l-94 156l-143 217l-154 252l-6 18l2 11l12 8h275
l151 -8l23 -3l8 -6l59 -102l95 -145l53 -95l74 -116l14 -19l12 -4l15 14l51 99l100 143l51 96l74 123l16 21l17 4l22 -2l103 -6h33l118 6h33l117 -8l24 -5l11 -4z" />
    <glyph glyph-name="z" unicode="z" horiz-adv-x="1396" 
d="M1253 29l-4 -25l-18 -8l-17 -2h-28l-78 6h-31l-119 -6l-151 10h-33l-119 -6l-32 -2l-119 -2l-152 8l-33 2h-118l-35 -2l-51 -4l-35 -2h-31l-18 8l-4 25l-4 82v20l8 19l84 120l78 125l65 92l76 127l16 29l64 96l16 29l82 119l70 94l84 121v22l-25 9l-115 8h-32l-115 -2
h-33l-115 -6h-75l-68 4l-22 8l-9 24v17l-2 35l-2 69v33l-4 125l10 20l27 2l256 9h33l112 -2h33l111 2h33l112 -6l146 8h32l146 -8l110 2l27 -5l10 -22v-14l2 -35l-2 -19l-2 -22l-158 -232l-16 -28l-65 -92l-72 -127l-103 -146l-153 -246l-64 -94l-8 -20l6 -15l23 -6l35 -2
h35l208 15h33l125 -5h33l80 7h30l17 -2l20 -9l6 -24v-168z" />
    <glyph glyph-name="braceleft" unicode="{" horiz-adv-x="847" 
d="M727 29l-4 -29l-4 -14l-8 -64l-2 -22l-2 -9l-5 -6l-8 -4l-37 -6l-30 -6l-17 -4l-41 -6l-30 -4h-78l-37 4l-35 8l-33 12l-32 19l-29 22l-49 51l-23 29l-22 31l-17 32l-10 35l-4 31v45l2 35v78l-2 30v191l-2 35l-8 37l-19 24l-12 10l-25 13l-49 14l-10 6l-8 6l-6 11l-4 22
l-4 62l-3 14l3 29v14l8 61l4 21l4 10l8 6l57 19l25 14l10 8l17 29l8 37v32l2 15l2 28l4 29v27l2 14v29l-2 12v29l-4 28l-2 29l-2 12v29l2 12l4 33l6 37l8 37l21 74l14 32l19 31l22 29l27 22l30 21l35 16l35 12l35 9l37 8l33 2l14 2h65l47 -6l33 -6l43 -11l8 -4l5 -6l2 -10
l2 -21l4 -28l6 -33l4 -35l2 -12l-2 -33v-18l-4 -25l-8 -12l-11 -8l-12 -7h-55l-27 -6l-24 -10l-21 -16l-14 -21l-12 -26l-9 -33l-2 -33v-14l4 -60v-73l2 -15l3 -28l4 -62l2 -14v-29l-4 -63l-5 -19l-8 -35l-8 -16l-16 -27l-19 -22l-14 -21l-4 -14l4 -12l12 -21l13 -14l16 -29
l4 -14l8 -35l2 -16l2 -35v-125l-2 -33v-51l2 -31v-59l6 -45l7 -33l16 -29l10 -12l29 -16l14 -4l31 -4h51l14 -5l13 -4l6 -10l4 -25l2 -30v-47z" />
    <glyph glyph-name="bar" unicode="|" horiz-adv-x="673" 
d="M471 -137l-2 -29l-4 -47l-4 -27l-15 -14l-26 -4h-78l-47 4l-33 -2l-47 -4l-33 -2l-45 4l-26 4l-17 14l-6 25l-4 47l2 31l2 45l2 31l2 47v28l4 47v29l-4 47v31l-6 194v185l-4 119l2 30l4 47l4 29l2 47v29l-4 47l-4 29l-2 47l-2 30v119l12 183l-4 47v28l4 47l4 25l15 10
l24 4l45 4l33 2h47l80 7l33 2l47 -2l27 -7l14 -18l4 -27l4 -47l2 -28l2 -47l-2 -29l-4 -47l-4 -29l-2 -47l-2 -31v-149l4 -47l2 -29l2 -47l2 -31l-8 -119v-258l2 -47v-104l2 -47v-29l-2 -47v-105l2 -47v-28l4 -47v-76z" />
    <glyph glyph-name="braceright" unicode="}" horiz-adv-x="849" 
d="M692 668l-26 -21l-17 -4l-31 -20l-18 -35l-4 -37l-2 -33v-43l-2 -31v-73l-2 -17v-57l-2 -31v-49l-4 -39l-6 -35l-19 -69l-12 -35l-17 -31l-20 -31l-25 -24l-26 -21l-31 -18l-33 -16l-35 -13l-32 -8l-37 -8l-37 -6h-37l-33 4l-41 8l-16 4l-29 6l-16 2l-21 7l-10 2l-10 4
l-6 8l-4 22l-2 31l-6 47l-3 29l3 16l4 62l4 24l6 11l10 6l16 4h23l29 -2l30 4l15 6l28 16l11 11l16 28l6 35l2 31l2 14l2 29v57l2 14v29l-2 14v58l-2 28l-2 15v28l4 60l4 18l9 31l6 16l16 29l12 12l23 35l2 12l-2 15l-16 20l-15 13l-20 30l-19 47l-2 19l-4 31l-2 30v74l2 31
v84l4 63v43l-2 33l-6 35l-10 26l-14 21l-19 16l-24 15l-29 8l-29 2l-24 2l-13 2l-10 4l-6 8l-4 21l-4 28l-2 35v33l2 12l2 29l4 29l4 20l4 8l6 4l33 7l14 4l31 4h14l29 2l47 4h41l35 -2l37 -4l33 -6l28 -9l43 -18l33 -21l27 -22l22 -29l19 -30l14 -35l12 -37l8 -35l9 -74
v-73l-2 -15v-127l2 -12l4 -29l6 -28l2 -29l2 -12l2 -33l6 -37l21 -31l28 -18l27 -8l18 -8l4 -9v-10l-2 -14l-2 -25v-115l4 -30l2 -23z" />
    <glyph glyph-name="asciitilde" unicode="~" horiz-adv-x="1277" 
d="M1135 762l-9 -29l-6 -12l-12 -33l-18 -35l-19 -30l-8 -11l-19 -22l-32 -27l-11 -8l-24 -14l-12 -9l-31 -14l-37 -12l-35 -8l-14 -4l-29 -2l-16 -3l-31 3l-33 6l-32 12l-93 43l-92 49l-33 14l-32 9l-31 2l-29 -6l-26 -13l-27 -20l-20 -25l-11 -10l-12 -16l-16 -13h-11
l-55 11l-47 12l-29 10l-41 23l-26 18l-19 12l-8 8l-4 7l-2 10l2 20l2 13l8 28l19 45l18 37l19 27l36 43l21 18l35 25l43 22l39 15l47 12l28 4h48l32 -8l33 -10l96 -43l62 -33l33 -16l32 -13l33 -10l33 -4h29l26 10l25 19l18 24l6 14l13 19l10 8l8 2h12l84 -22l13 -4l28 -11
l92 -45l9 -6l4 -8l2 -10l-4 -21z" />
    <glyph glyph-name="exclamdown" unicode="&#xa1;" horiz-adv-x="673" 
d="M492 -313l-3 -31l-6 -47l-4 -27l-12 -14l-27 -6l-53 -2l-33 -2l-53 2l-35 -2l-51 -4l-35 -3l-53 3l-25 6l-12 20l-6 29l-4 47l-2 31l2 45v32l-2 46v30l-2 47l2 31l2 45l4 33l4 45v33l-2 45l-2 31l-4 47v231l2 31l8 47l6 29l13 18l26 4l49 4l33 -2l51 -4h33l51 2l33 2
l49 -4l31 -4l18 -16l6 -29l-4 -123v-111l2 -45v-30l2 -47v-31l3 -45l-3 -33l-2 -45l-2 -33l-4 -45l2 -31l2 -47l2 -30l5 -46v-77zM516 827l-2 -12l-12 -41l-23 -37l-26 -32l-25 -23l-33 -23l-33 -14l-12 -6l-31 -6l-14 -2h-35l-37 4l-34 10l-31 12l-27 19l-24 24l-19 29
l-14 31l-10 33l-8 34l-5 33l5 35l12 33l16 28l21 25l28 25l29 18l29 12l32 8l37 7l35 -2h14l31 -7l15 -4l26 -10l39 -22l25 -23l28 -35l25 -51l6 -29l2 -12v-29z" />
    <glyph glyph-name="cent" unicode="&#xa2;" horiz-adv-x="1136" 
d="M995 119l-41 -33l-45 -31l-30 -16l-31 -12l-33 -11l-16 -4l-51 -10l-7 -8l-2 -21l2 -61l-2 -33l-6 -29l-12 -16l-14 -8l-23 -4h-53l-51 6h-33l-62 -4l-30 2h-15l-26 4l-15 10l-6 15l-4 24v53l2 35l2 27l-4 14l-10 2l-23 6l-30 11l-86 45l-31 20l-25 19l-24 22l-45 53
l-19 29l-28 55l-23 64l-8 37l-6 35l-6 30l-2 31l-3 33v32l5 62v16l6 33l2 19l20 63l10 29l29 53l6 12l37 49l39 45l23 21l39 27l26 14l80 35l16 4l23 8l10 4l2 21l-2 77l4 37l4 31l9 16l10 6l22 5l60 4l47 -4h28l62 2l31 -2l16 -2l25 -5l14 -10l8 -14l4 -23l2 -32l-2 -52
l2 -20l4 -10l11 -7l55 -16l31 -10l26 -12l60 -35l49 -39l12 -14l4 -13l-2 -18l-14 -23l-8 -16l-21 -27l-45 -49l-27 -35l-32 -32l-19 -13l-14 -2l-16 4l-52 31l-45 16l-28 7l-29 2h-45l-29 -7l-28 -10l-29 -14l-12 -8l-23 -19l-20 -24l-21 -29l-16 -33l-4 -18l-9 -31l-2 -29
v-45l7 -32l2 -15l12 -33l16 -28l8 -10l23 -21l10 -8l53 -23l31 -8l45 -6l31 2h14l33 6l18 4l48 19l30 18l25 17l14 6l12 -2l25 -15l158 -184l6 -14l-4 -17z" />
    <glyph glyph-name="sterling" unicode="&#xa3;" horiz-adv-x="1378" 
d="M1241 27l-16 -15l-25 -10l-29 -2h-30l-33 2h-18l-33 4l-60 4h-131l-131 -8h-65l-33 2h-33l-33 -2h-96l-96 -4h-33l-96 4h-33l-143 -4l-25 6l-18 19l-11 28v35l3 35l4 35l2 32l-2 35l4 66l4 28l10 17l27 12l32 12l27 17l23 22l20 27l16 31l13 30l6 35l6 27l2 16l-20 8
l-35 4l-68 5l-31 -2l-24 6l-14 18l-5 29l3 33l4 30l6 107l4 26l16 17l25 4l31 2h30l15 8v21l-4 26l-7 29l-4 31v16l-2 31v45l2 30l4 35l7 35l10 35l12 33l14 32l17 31l20 29l23 26l26 25l27 23l61 34l33 15l66 24l35 11l34 8l33 6l70 8l35 2l34 -2l48 -2l77 -10l78 -15
l31 -8l43 -14l29 -12l67 -45l33 -33l20 -23l27 -39l14 -26l21 -47l8 -29l10 -45l4 -31l2 -49l-4 -27l-18 -12l-27 -6l-47 -2l-29 -2l-47 2h-30l-45 -2h-31l-47 4l-25 4l-14 12l-10 23l-11 31l-14 24l-8 12l-23 19l-26 8l-45 10l-29 2l-29 -4h-14l-31 -8l-26 -16l-19 -23
l-12 -26l-4 -31l-4 -47v-58l2 -30l6 -31l6 -25l14 -12l27 -4l78 -4h33l149 8l31 2l41 -6l18 -16l8 -27l2 -31l-2 -30v-33l-4 -103l-2 -20l-14 -12l-25 -11l-47 -4l-30 -2l-119 4h-31l-47 -2l-21 -4l-4 -16l-2 -27l-8 -47l-8 -31l-16 -47l-15 -26l-4 -21l19 -8h206l62 -2h31
l151 4h33l104 -6l25 -2l12 -2l19 -8l16 -15l6 -26v-15l2 -30v-91l-2 -12v-43l2 -29v-22z" />
    <glyph glyph-name="currency" unicode="&#xa4;" horiz-adv-x="1288" 
d="M733 623l19 41l6 34l-2 33l-4 31l-9 26l-6 15l-26 35l-25 18l-33 12l-35 6h-34l-17 -2l-28 -8l-27 -10l-27 -16l-22 -29l-14 -33l-9 -33v-43l11 -45l12 -28l8 -15l25 -24l28 -19l43 -12h17l32 2l35 6l31 10l23 17l20 18zM1147 395l-14 -24l-11 -11l-20 -24l-160 -150
l-20 -16l-23 -2l-27 12l-34 31l-47 53l-23 21l-14 6l-21 -2l-16 -4l-62 -9l-30 -2l-13 -2h-32l-19 2l-37 2l-49 7l-16 4h-21l-14 -6l-98 -101l-25 -14l-22 4l-23 16l-190 183l-17 24l2 23l17 24l36 43l15 13l18 22l4 14l-6 27l-10 35l-2 18l-6 35v15l-4 69l2 14v31l2 12
l4 31l2 17l10 34l8 31v19l-16 18l-64 57l-16 25l2 20l19 23l79 80l68 80l23 24l10 8l24 15l23 -4l37 -29l73 -74l21 -16l14 -2l29 4l33 6l61 4l19 2h32l31 -2l29 -4l28 -2l56 -10l14 6l107 106l24 13l21 -2l176 -162l32 -39l17 -27l2 -22l-16 -25l-23 -26l-33 -31l-16 -19
l-8 -14l4 -22l16 -60l6 -31l6 -53v-37l-2 -18l-2 -31v-14l-6 -33l-2 -16l-14 -58l-2 -18l16 -18l29 -23l28 -25l17 -26v-23z" />
    <glyph glyph-name="yen" unicode="&#xa5;" horiz-adv-x="1667" 
d="M1561 1436l-25 -39l-43 -54l-18 -26l-54 -94l-18 -27l-72 -86l-18 -27l-53 -96l-80 -119l-11 -18l5 -8l22 -4l104 -9l13 -12l4 -26l6 -70v-33l-8 -92l-12 -12l-29 -9h-268l-15 -8l-4 -22v-31l2 -25l12 -8h27l94 8l31 3h47l29 -3l47 -6l24 -6l13 -14l4 -27l12 -67l2 -31
l-4 -62l-6 -22l-18 -12l-29 -4l-119 -9h-33l-100 7h-27l-10 -9l-2 -22l-4 -156l-2 -29l-12 -16l-27 -6l-141 4h-33l-141 -6l-25 2l-16 12l-11 17l-2 22l4 156l2 18l-16 2l-268 4l-27 4l-16 9l-8 14l-4 25l-3 34v35l11 86l6 31l14 18l27 4l127 -2h31l77 -4h35l19 17l-5 51
l-16 16l-117 -2l-151 10l-25 7l-12 6l-6 16l-4 31l-2 31v32l-2 95l10 24l18 12l29 5h35l49 -3h27l8 9l-6 14l-17 20l-55 87l-80 112l-88 148l-80 108l-61 92l-9 23l7 16l16 10l27 7l45 8l35 2l18 -2l137 -8h33l70 6l32 2l29 -12l20 -17l15 -20l59 -107l74 -115l143 -278h17
l147 270l139 230l15 20l10 10l14 4h23l108 3l142 10l63 4l33 -2l45 -6l25 -6l8 -15z" />
    <glyph glyph-name="brokenbar" unicode="&#xa6;" horiz-adv-x="690" 
d="M487 -96v-35l-4 -29l-18 -16l-29 -4l-49 -2l-33 2l-51 6h-33l-51 -2l-33 -2l-73 6l-13 14l-4 29l-6 35l-4 35l-2 34v35l8 111l2 35l-2 34l-4 37l-4 68l8 111v34l-2 35v37l2 35l4 26l17 13l26 4l49 4l33 2l49 -2h33l49 2l33 -2l49 -4l27 -4l14 -13l4 -28l8 -70l2 -35
l-2 -37l-8 -71l-2 -35v-35l6 -106v-35l-4 -111l2 -35l4 -34zM481 905l4 -67v-35l-2 -35l-6 -27l-14 -12l-29 -6l-49 -4l-33 -2l-49 2h-33l-49 -2l-33 2l-49 4l-26 6l-13 12l-6 27l-4 35l-4 69v35l8 70l4 67l-8 107v35l2 35v36l2 35l-2 35l-4 35l-2 35v35l6 28l17 17l28 4h49
l33 -2l51 -4h33l51 2l33 2l49 -4l27 -5l10 -14l6 -26l6 -35l4 -33l3 -35l-5 -70l-4 -36l-2 -35v-35l8 -139z" />
    <glyph glyph-name="section" unicode="&#xa7;" horiz-adv-x="1378" 
d="M858 743l-12 21l-21 18l-28 17l-31 10l-29 6l-28 4l-31 2h-33l-61 -4l-27 -4l-31 -10l-30 -17l-21 -20l-12 -23l2 -24l10 -21l23 -18l32 -12l31 -9l29 -6l31 -4l30 -2h62l28 2l29 4l29 11l28 16l21 18l10 23v22zM1231 741l-4 -28l-6 -17l-19 -43l-18 -28l-33 -39l-29 -31
l-4 -12v-13l4 -12l56 -57l14 -25l25 -55l8 -27l4 -26l-2 -29v-14l-4 -29l-2 -12l-7 -31l-12 -35l-18 -35l-49 -61l-29 -27l-33 -22l-33 -19l-36 -16l-74 -27l-82 -14l-154 -16l-32 -2h-76l-80 6l-31 2l-78 14l-108 27l-35 12l-70 29l-61 34l-53 41l-7 11v12l5 12l12 23
l16 24l15 19l20 22l21 31l22 45l16 29l17 18l10 6l12 2l11 -4l55 -30l61 -29l33 -14l70 -21l63 -12l47 -8l33 -4l33 -3h31l30 3l29 4l25 4l30 8l31 10l20 14l9 19l-4 27l-23 24l-33 14l-28 7l-31 2l-47 4h-35l-33 2l-45 4l-69 10l-78 14l-31 11l-35 10l-69 29l-31 16l-60 43
l-24 27l-21 28l-16 31l-12 31l-9 35l-4 38l2 33l2 15l9 30l6 15l16 30l10 17l21 24l39 35l6 10l2 13l-6 10l-59 63l-15 25l-14 29l-12 47l-3 14l-2 29l7 47l10 37l12 37l17 32l24 29l27 29l61 47l31 18l35 17l37 16l34 12l154 29l74 8h71l93 6l30 -2h15l34 -6l33 -8l53 -19
l27 -12l12 -4l33 -14l35 -19l39 -24l53 -39l6 -10l2 -11l-4 -12l-14 -20l-88 -95l-47 -43l-17 -14l-10 -4l-10 2l-29 16l-31 13l-34 10l-72 16l-107 13l-34 -2l-52 -5l-30 -6l-31 -10l-27 -12l-14 -8l-18 -23v-27l18 -22l39 -19l57 -12l47 -2l31 -2h115l33 -4l45 -4l32 -4
l37 -8l33 -9l45 -16l33 -10l33 -17l30 -20l29 -25l25 -28l22 -31l14 -33l11 -35l6 -37l2 -34v-13z" />
    <glyph glyph-name="dieresis" unicode="&#xa8;" horiz-adv-x="1169" 
d="M1038 1309l-10 -29l-14 -25l-17 -22l-24 -19l-27 -16l-28 -12l-35 -8l-19 -2h-47l-26 6l-27 8l-27 12l-20 15l-21 20l-20 25l-17 26l-8 27l-4 28v31l4 29l6 22l13 27l22 29l25 24l26 19l31 12l14 6l31 6h12l31 2l31 -4l12 -4l33 -8l29 -16l34 -27l17 -23l14 -32l10 -35
l2 -29v-31zM414 1309l-11 -29l-14 -25l-16 -22l-25 -19l-26 -16l-29 -12l-35 -8l-18 -2h-47l-27 6l-27 8l-24 12l-23 15l-20 20l-21 25l-16 26l-8 27l-4 28v31l4 29l6 22l12 27l23 29l24 24l27 19l31 12l14 6l31 6h12l31 2l30 -4l13 -4l32 -8l29 -16l35 -27l16 -23l15 -32
l10 -35l2 -29v-31z" />
    <glyph glyph-name="copyright" unicode="&#xa9;" horiz-adv-x="1705" 
d="M1147 451l-29 -25l-24 -14l-13 -9l-24 -12l-78 -31l-45 -14l-35 -8l-12 -2l-29 -4h-14l-31 -2l-49 4l-35 4l-39 10l-39 12l-30 15l-41 26l-62 52l-26 30l-21 27l-20 35l-7 14l-10 31l-8 37l-6 32v13l-2 28l-2 17v16l2 15v14l6 31l12 45l25 65l4 15l16 30l27 39l20 25
l29 28l27 21l41 24l28 15l45 18l39 10l33 7l12 2l29 2l12 2h41l29 -2l12 -2l33 -7l74 -24l37 -16l30 -15l35 -22l27 -25l2 -10l-2 -10l-6 -13l-37 -51l-45 -37l-11 -8l-16 -10l-8 -4l-8 -2l-11 2l-55 28l-37 11l-39 6l-32 2l-17 -2l-28 -2l-13 -4l-26 -6l-43 -21l-27 -27
l-20 -30l-15 -33l-2 -14l-6 -31v-60l6 -26l6 -14l15 -29l22 -29l29 -24l35 -19l39 -12l32 -8h54l34 8l37 12l56 33l10 4h8l10 -4l17 -12l10 -9l24 -16l21 -20l26 -33l13 -19l6 -10v-12zM1346 834l-3 34l-6 33l-10 43l-10 31l-14 35l-35 63l-23 31l-47 53l-27 25l-26 20
l-37 25l-59 33l-31 14l-43 14l-33 8l-68 4h-75l-47 -4l-33 -2l-68 -12l-43 -16l-61 -27l-68 -39l-57 -47l-45 -51l-21 -27l-39 -67l-43 -107l-12 -67l-2 -33l-4 -47v-29l2 -47l2 -29l4 -45l6 -29l13 -45l26 -65l15 -29l24 -39l47 -57l80 -64l107 -59l26 -12l41 -15l29 -8
l45 -4l29 -2l47 -2l28 2l47 2l68 12l31 7l43 12l31 12l32 15l29 18l115 92l26 25l19 26l43 107l10 31l12 45l6 32l4 35l3 31v76l2 47zM1577 801v-78l-2 -45l-2 -31l-4 -45l-15 -76l-32 -100l-29 -72l-59 -106l-48 -60l-22 -22l-35 -27l-65 -43l-31 -16l-31 -19l-74 -36
l-71 -27l-29 -8l-47 -8l-29 -7l-47 -4l-31 -2l-45 -2h-32l-47 2l-31 2l-47 4l-29 7l-47 8l-74 22l-102 41l-39 23l-27 14l-41 27l-59 47l-23 22l-47 60l-26 41l-17 24l-37 68l-20 43l-10 29l-17 43l-8 30l-10 45l-6 31l-6 47l-2 31l-5 45l7 78l6 30l8 48l6 28l8 47l6 29
l13 45l10 29l35 69l22 39l17 27l28 39l19 24l53 56l59 47l39 28l27 17l68 35l43 18l28 10l45 13l31 6l45 10l31 4l47 4l31 2l45 4h110l45 -4l29 -4l47 -12l146 -51l67 -33l27 -16l37 -27l57 -53l51 -56l19 -24l26 -39l37 -66l12 -26l25 -74l16 -43l19 -74l6 -28l2 -48z" />
    <glyph glyph-name="guillemotleft" unicode="&#xab;" horiz-adv-x="1126" 
d="M1012 281l-13 -21l-26 -10l-31 -6l-31 -2l-30 2h-31l-31 -2h-31l-30 2l-25 2l-14 8l-17 20l-47 72l-202 342l-13 25l-2 16l8 23l48 71l30 41l156 250l29 41l14 23l12 8l21 2l28 2h170l25 -2l14 -10l13 -15l6 -14v-21l-13 -24l-43 -62l-28 -36l-17 -25l-20 -41l-17 -25
l-22 -41l-43 -61l-16 -25l-31 -61v-16l10 -25l39 -68l27 -38l16 -29l25 -39l16 -29l72 -104l39 -70zM578 250l-31 -6l-31 -2l-31 2h-30l-31 -2h-31l-31 2l-24 2l-14 8l-19 20l-74 117l-86 150l-63 102l-25 45l-12 25l-2 16l8 23l47 71l31 41l156 250l43 64l12 10l22 2l31 2
h31l31 -2h30l31 2l64 -4l20 -4l8 -10l6 -21l-2 -27l-14 -28l-66 -94l-36 -62l-19 -29l-20 -41l-60 -86l-22 -38l-10 -21v-16l10 -25l41 -68l26 -38l58 -97l71 -104l17 -27l22 -43l6 -28l-12 -21z" />
    <glyph glyph-name="logicalnot" unicode="&#xac;" horiz-adv-x="1118" 
d="M965 487l-7 -26l-10 -10l-22 -2h-49l-64 4h-31l-61 -2l-33 2h-16l-27 4l-10 6l-4 20l-2 31v31l2 135l-2 25l-6 8h-23l-104 -2h-33l-107 4h-276l-23 4l-10 8l-4 23l6 92l-2 32l-4 52v37l6 24l8 8l23 2h147l146 2h293l112 2h33l115 -8h22l8 -6l2 -22v-310l3 -32l4 -84v-52z
" />
    <glyph glyph-name="registered" unicode="&#xae;" horiz-adv-x="1697" 
d="M928 782l8 31l-2 33l-10 31l-19 26l-28 15l-35 4l-80 -4l-27 -5l-16 -18l-4 -31v-16l2 -37l6 -47l12 -16l27 -7l82 -4l30 4l31 15zM1149 770l-10 -35l-15 -28l-22 -27l-31 -25l-33 -18l-20 -12l-8 -13l-4 -16v-14l10 -21l98 -151l12 -21v-18l-8 -21l-16 -8h-29l-69 2
l-19 2l-20 8l-9 4l5 -6l-5 -4l-18 6l-16 15l-15 22l-28 62l-50 88l-14 18l-18 6l-19 2h-18l-10 -2l-13 -4l-14 -14l-4 -27l-8 -127l-4 -28l-15 -17l-24 -8l-52 -4l-16 2l-31 2l-14 2l-31 8l-20 21l-4 30l2 35v31l-2 47v31l-2 45v342l-2 45l2 33l4 45l6 28l10 15l12 4l19 2
l45 2l33 2l127 -4h32l123 -8l33 -4l33 -9l29 -12l40 -20l52 -43l20 -29l17 -33l12 -31l8 -34l2 -39v-45zM1110 240l57 45l27 26l25 27l24 29l21 30l18 31l16 33l25 69l16 74l7 35l4 35l2 39v39l-9 73l-6 35l-20 76l-10 31l-13 32l-32 66l-19 33l-22 28l-25 27l-27 25l-26 20
l-37 25l-29 16l-71 29l-68 16l-35 6l-33 2l-47 4h-32l-39 -4l-103 -24l-45 -13l-31 -10l-32 -12l-33 -16l-64 -41l-28 -23l-27 -27l-43 -55l-20 -41l-17 -29l-14 -32l-21 -72l-8 -35l-4 -33l-4 -45v-112l4 -70l8 -37l11 -33l16 -40l14 -31l17 -29l20 -41l41 -55l25 -27
l28 -24l31 -21l66 -37l32 -14l31 -12l45 -13l33 -8l72 -12l75 -4l39 2l37 4l35 6l35 8l37 11l67 28zM1571 635l-8 -72l-15 -76l-12 -45l-10 -30l-17 -35l-59 -101l-18 -28l-50 -64l-55 -53l-29 -25l-32 -22l-66 -37l-80 -31l-139 -39l-35 -4l-45 -4l-33 -4h-157l-39 4l-37 6
l-72 17l-78 28l-69 29l-35 19l-33 20l-61 47l-54 49l-57 60l-43 57l-41 72l-14 37l-15 34l-10 37l-8 39l-18 115l-2 35l-5 45l3 33v18l2 25l2 38l12 76l8 37l10 37l41 113l33 67l21 33l20 27l33 32l24 27l27 27l125 84l41 20l31 18l34 17l109 37l117 20l37 4l34 2h84l33 -4
l47 -4l35 -6l37 -8l108 -37l35 -16l35 -19l92 -59l64 -49l28 -27l52 -57l24 -31l19 -33l16 -33l37 -112l12 -33l12 -37l9 -39l8 -74v-194z" />
    <glyph glyph-name="macron" unicode="&#xaf;" horiz-adv-x="966" 
d="M827 1290l-2 -22l-4 -25l-10 -14l-12 -8l-27 -4l-18 -3h-33l-62 5h-32l-260 4h-33l-115 -2l-100 -7h-33l-14 3l-23 4l-12 8l-8 16l-4 27l-2 16v35l2 35v33l-2 34v35l4 19l4 26l6 15l12 8h23l114 -2h33l115 8h33l145 -2l115 -4l98 6h33l16 -2l25 -4l14 -10l8 -15l2 -18
l4 -21l-6 -73v-31z" />
    <glyph glyph-name="degree" unicode="&#xb0;" horiz-adv-x="862" 
d="M473 1225l-6 16l-8 14l-15 13l-16 10l-16 6l-19 2h-18l-19 -4l-18 -6l-14 -10l-15 -13l-10 -12l-8 -16l-4 -21v-20l4 -19l8 -14l10 -14l29 -21l18 -6l19 -2h18l19 2l16 6l16 10l13 11l8 14l8 16l4 19v18zM721 1182l-2 -13l-2 -28l-12 -47l-13 -33l-6 -12l-18 -27l-25 -27
l-33 -26l-37 -21l-12 -8l-33 -12l-36 -15l-35 -8l-45 -6h-15l-32 -2l-15 2l-31 2l-14 2l-29 6l-12 2l-31 11l-30 14l-15 6l-22 16l-37 33l-25 31l-20 33l-6 12l-4 4l-11 23l-12 39l-8 32v54l6 28l2 13l8 26l7 14l10 25l30 47l23 25l27 22l10 11l24 16l15 6l31 16l30 11l13 2
l28 6l15 4l30 2l15 2h32l15 -2l30 -2l50 -12l36 -13l31 -16l14 -6l25 -17l10 -6l33 -26l23 -25l18 -29l8 -12l15 -39l8 -33l4 -34l2 -13v-28z" />
    <glyph glyph-name="plusminus" unicode="&#xb1;" horiz-adv-x="1157" 
d="M995 123l-6 -27l-18 -14l-27 -6l-45 -2l-29 -2h-45l-67 4h-35l-188 6h-33l-113 -4h-147l-31 -2l-45 -2l-29 -2l-45 4l-24 4l-17 16l-6 29l-2 31v30l4 62l-2 31v30l2 31l6 27l17 14l28 4l35 2h109l114 -4h33l113 8h104l45 -2h174l45 2l29 -2l45 -4l27 -4l18 -14l6 -25
l2 -31l-4 -63v-33l4 -61zM991 942l2 -35l-4 -65l-6 -27l-16 -14l-29 -4l-190 -9l-27 -2l-16 -14l-5 -27l2 -77v-33l3 -76l-7 -27l-18 -14l-27 -6l-45 -4l-28 -2l-45 2h-29l-45 -2l-29 2l-45 2l-25 6l-12 16l-4 27l-2 78v33l-2 75l-4 29l-16 19l-29 4l-195 -4l-26 4l-17 16
l-6 29l-2 32v33l4 68l-2 33v32l2 35l6 27l17 14l26 2l80 -2h33l80 4l29 6l14 17l4 28v109l2 78l4 26l16 15l25 4l45 6l31 2h115l30 -2l45 -4l25 -6l12 -15l2 -28l4 -185l6 -28l17 -15l29 -4l190 -4l29 -2l18 -14l8 -29l2 -33l-4 -67v-33z" />
    <glyph glyph-name="acute" unicode="&#xb4;" horiz-adv-x="669" 
d="M578 1509l-93 -127l-104 -127l-19 -20l-20 -10l-25 -4l-16 -2l-100 6h-152l-18 2l-6 2l-2 6v6l127 260l12 21l10 6h25l16 2h33l47 -2h31l96 2h31l45 4l57 -4l20 -6z" />
    <glyph glyph-name="paragraph" unicode="&#xb6;" horiz-adv-x="1882" 
d="M1743 1288l2 -45l-2 -33l-6 -34l-4 -29l-11 -17l-26 -6l-64 4l-14 2h-25l-20 -6l-17 -18l-6 -27l-4 -45l-2 -28l2 -48v-30l4 -115v-31l4 -45l5 -73v-29l-3 -45l-4 -29l-4 -47l-2 -31v-293l4 -45v-28l2 -45v-29l4 -47v-29l3 -45v-176l2 -45l-2 -29l-7 -45l-6 -26l-14 -15
l-29 -6l-47 -4l-33 -2l-47 4h-80l-32 2l-47 4l-27 4l-16 15l-9 24l-4 45l-2 29v76l12 188v31l5 47v471l-2 47v74l-3 29l-4 45l-4 28l-2 45l-2 29l4 45v29l2 45v28l4 46l-2 28l-4 45l-4 25l-14 12l-90 14l-33 2l-64 -4l-26 -6l-17 -14l-8 -27l-4 -45l-2 -28l2 -48v-102
l-2 -45l2 -31l12 -114v-31l-2 -45l-2 -29l-4 -47v-102l-2 -45v-31l4 -115v-33l9 -114l-3 -31l-4 -47l-4 -29l-2 -45l-2 -31l12 -188l-2 -31l-4 -45l-4 -28l-14 -19l-29 -4l-45 4l-33 2l-45 4h-32l-45 -8l-33 -2l-47 -2l-29 4l-18 19l-7 28l-4 47l2 31l4 45l2 33v78l5 118v33
l4 45l-2 31l-2 47l-2 29l-5 47l5 76l4 30l2 47l-4 25l-19 12l-29 7l-47 6l-30 6l-72 24l-68 35l-98 72l-22 20l-33 35l-19 25l-37 67l-18 43l-8 29l-10 47l-2 29l-5 47v76l3 30l6 45l6 29l8 47l10 29l17 43l14 27l43 61l55 55l33 27l25 18l41 25l65 33l29 10l47 12l29 6
l45 4l30 2h78l47 5l33 2l49 2h33l47 -2l33 -2l47 -5l80 7l33 4l47 2h32l129 -8h33l47 2l33 2l47 4h33l129 -8l33 2l47 6l33 2l47 -2l30 -4l19 -19l4 -30l2 -35l-2 -33l-4 -45z" />
    <glyph glyph-name="periodcentered" unicode="&#xb7;" horiz-adv-x="624" 
d="M477 684l-2 -12l-4 -29l-2 -12l-10 -27l-6 -14l-17 -23l-8 -10l-25 -20l-32 -19l-33 -10l-16 -4l-46 -6h-32l-45 6l-47 14l-35 19l-27 20l-24 33l-15 41l-4 12l-4 29l-2 12v29l2 12l4 29l14 39l7 12l16 22l8 13l27 20l33 19l32 10l15 4l45 6l32 -2h15l31 -6l12 -6l33 -13
l30 -20l33 -31l21 -26l16 -37l8 -33v-12z" />
    <glyph glyph-name="cedilla" unicode="&#xb8;" horiz-adv-x="806" 
d="M698 -303l-6 -31l-6 -16l-10 -33l-14 -31l-19 -28l-59 -62l-27 -22l-29 -19l-47 -20l-28 -10l-45 -9l-31 -2h-49l-33 2l-45 6l-31 7l-47 14l-29 12l-28 17l-25 18l-22 18l-37 37l-8 17v12l14 18l82 84l16 15l15 6l16 2l49 -23l14 -8l31 -8l14 -4l31 -2l17 2l26 2l21 10
l16 13l10 14l2 26l-8 25l-16 14l-27 15l-31 10l-26 6h-29l-24 -6l-23 -4l-16 4l-25 12l-20 17l-11 14l-2 16l6 19l15 26l12 25l23 41l10 27l16 30l23 2l35 2h32l70 -2l33 -2l47 -4l16 -8l-14 -51l6 -19l16 -2l21 -4l33 -10l32 -14l29 -17l29 -22l49 -49l16 -31l6 -27v-41z
" />
    <glyph glyph-name="guillemotright" unicode="&#xbb;" horiz-adv-x="1130" 
d="M1012 686l-47 -74l-31 -41l-137 -221l-62 -90l-10 -10l-23 -2l-30 -2h-31l-31 2l-63 -4h-31l-31 4l-26 10l-15 25l7 28l20 43l43 68l109 156l43 67l24 41l10 23l-4 16l-34 63l-17 29l-27 39l-81 135l-48 66l-16 26l-20 41l-7 31l11 25l28 10l31 2h31l63 -4l31 2h31l30 -2
l23 -2l14 -6l15 -21l26 -45l47 -72l88 -147l95 -145l12 -23v-16zM608 686l-47 -74l-31 -41l-155 -249l-43 -62l-10 -10l-23 -2l-31 -2h-32l-31 2l-62 -4h-30l-31 4l-27 10l-14 25l6 28l21 43l43 68l47 65l59 91l29 40l41 68l10 23l-4 16l-51 92l-27 39l-82 135l-47 66
l-39 67l-6 31l12 25l29 10l31 2h30l62 -4l31 2h32l31 -2l23 -2l14 -6l59 -95l74 -116l61 -103l48 -71l28 -45l12 -23v-16z" />
    <glyph glyph-name="questiondown" unicode="&#xbf;" horiz-adv-x="1337" 
d="M1202 -43l-2 -29v-12l-6 -35l-10 -37l-10 -30l-17 -39l-24 -41l-25 -33l-53 -51l-13 -8l-22 -17l-35 -20l-12 -8l-31 -15l-37 -16l-33 -10l-12 -5l-29 -8l-90 -16l-30 -4h-15l-28 -2l-13 -2h-69l-35 2l-70 8l-35 6l-67 16l-103 31l-61 31l-31 20l-51 50l-20 26l-19 29
l-31 65l-10 33l-6 33l-4 37l-2 37l2 37l4 38l10 33l13 33l16 31l20 28l23 29l53 49l115 88l27 25l49 53l41 55l16 31l10 35l13 37l6 8l8 4l25 4h16l37 2l73 -8l17 -2h37l16 2l37 2h35l37 -2l43 -4l12 -4l10 -6l4 -11l-2 -24l-2 -14l-6 -31l-14 -39l-4 -14l-27 -62l-20 -39
l-7 -12l-20 -27l-25 -30l-37 -33l-24 -17l-123 -77l-25 -21l-10 -12l-18 -27l-13 -35l-2 -30l5 -29l10 -27l16 -24l23 -19l22 -10l29 -8l33 -4h32l60 8l28 10l25 17l21 18l16 23l12 30l6 23l4 12l7 8l8 4l22 5h15l32 2l33 -5l33 -2l16 -2h33l82 11h49l23 -4l10 -7l4 -8
l6 -14l2 -21zM874 797l-10 -33l-16 -31l-21 -26l-26 -25l-29 -16l-31 -13l-32 -8l-72 -4l-12 2l-31 2l-35 6l-31 11l-28 18l-27 25l-20 28l-17 31l-10 33l-8 34l-2 35l4 35l12 31l17 29l24 24l29 23l28 18l31 12l35 6l37 5h39l37 -2l32 -9l29 -10l31 -16l26 -25l21 -26
l14 -31l12 -33l7 -33v-35z" />
    <glyph glyph-name="Agrave" unicode="&#xc0;" 
d="M1008 635l-105 317l-10 27l-21 14l-26 6l-23 -6l-20 -20l-121 -307l-6 -31l6 -25l23 -10l28 -4h129l96 -6l27 8l16 16zM1698 29l-15 -23l-22 -10l-27 -4h-28l-47 4l-31 2h-92l-127 -8l-27 8l-12 16l-74 195l-14 20l-19 4l-24 3l-123 8h-33l-154 4l-122 2h-31l-31 -2h-94
l-27 -4l-16 -11l-12 -24l-47 -139l-13 -33l-22 -27l-31 -12l-152 8h-32l-127 -8l-27 -2l-25 12l-16 23l2 26l4 17l230 526l12 31l55 114l86 197l117 248l102 242l11 22l20 12l31 7l94 4h160l94 -2l35 -7l22 -16l51 -137l52 -96l57 -129l49 -134l127 -284l41 -103l139 -280
l56 -129l41 -103zM961 1673l-15 -2h-33l-92 6l-61 -4h-33l-16 2l-27 4l-18 9l-177 206l-26 39l-8 27l8 16l26 6l19 3h35l96 -7l137 9l31 -2h16l27 -5l20 -12l15 -24l57 -125l33 -58l14 -32l6 -29l-8 -19z" />
    <glyph glyph-name="Aacute" unicode="&#xc1;" 
d="M1008 635l-105 317l-10 27l-21 14l-26 6l-23 -6l-20 -20l-121 -307l-6 -31l6 -25l23 -10l28 -4h129l96 -6l27 8l16 16zM1698 29l-15 -23l-22 -10l-27 -4h-28l-47 4l-31 2h-92l-127 -8l-27 8l-12 16l-74 195l-14 20l-19 4l-24 3l-123 8h-33l-154 4l-122 2h-31l-31 -2h-94
l-27 -4l-16 -11l-12 -24l-47 -139l-13 -33l-22 -27l-31 -12l-152 8h-32l-127 -8l-27 -2l-25 12l-16 23l2 26l4 17l230 526l12 31l55 114l86 197l117 248l102 242l11 22l20 12l31 7l94 4h160l94 -2l35 -7l22 -16l51 -137l52 -96l57 -129l49 -134l127 -284l41 -103l139 -280
l56 -129l41 -103zM1178 1939l-80 -106l-105 -127l-18 -20l-21 -11l-24 -4l-17 -2l-100 6h-151l-19 2l-6 2l-2 7v6l61 123l17 28l49 109l12 20l10 6h25l16 2h33l47 -2h31l96 2h31l45 5l57 -5l21 -6l4 -14z" />
    <glyph glyph-name="Acircumflex" unicode="&#xc2;" 
d="M1008 635l-105 317l-10 27l-21 14l-26 6l-23 -6l-20 -20l-121 -307l-6 -31l6 -25l23 -10l28 -4h129l96 -6l27 8l16 16zM1698 29l-15 -23l-22 -10l-27 -4h-28l-47 4l-31 2h-92l-127 -8l-27 8l-12 16l-74 195l-14 20l-19 4l-24 3l-123 8h-33l-154 4l-122 2h-31l-31 -2h-94
l-27 -4l-16 -11l-12 -24l-47 -139l-13 -33l-22 -27l-31 -12l-152 8h-32l-127 -8l-27 -2l-25 12l-16 23l2 26l4 17l230 526l12 31l55 114l86 197l117 248l102 242l11 22l20 12l31 7l94 4h160l94 -2l35 -7l22 -16l51 -137l52 -96l57 -129l49 -134l127 -284l41 -103l139 -280
l56 -129l41 -103zM1292 1683l-20 -6l-31 -2h-31l-67 4h-158l-20 4l-113 91h-4l-105 -86l-8 -2h-149l-103 -9h-30l-29 2l-18 4l-7 13l2 12l13 14l8 13l67 69l125 119l43 45l56 49l12 8l16 5l27 2l66 4h30l78 -6h23l12 -5l12 -8l115 -116l84 -74l98 -101l12 -16l2 -12z" />
    <glyph glyph-name="Atilde" unicode="&#xc3;" 
d="M1008 635l-105 317l-10 27l-21 14l-26 6l-23 -6l-20 -20l-121 -307l-6 -31l6 -25l23 -10l28 -4h129l96 -6l27 8l16 16zM1698 29l-15 -23l-22 -10l-27 -4h-28l-47 4l-31 2h-92l-127 -8l-27 8l-12 16l-74 195l-14 20l-19 4l-24 3l-123 8h-33l-154 4l-122 2h-31l-31 -2h-94
l-27 -4l-16 -11l-12 -24l-47 -139l-13 -33l-22 -27l-31 -12l-152 8h-32l-127 -8l-27 -2l-25 12l-16 23l2 26l4 17l230 526l12 31l55 114l86 197l117 248l102 242l11 22l20 12l31 7l94 4h160l94 -2l35 -7l22 -16l51 -137l52 -96l57 -129l49 -134l127 -284l41 -103l139 -280
l56 -129l41 -103zM1280 1831l-25 -45l-18 -29l-20 -22l-33 -27l-27 -16l-31 -15l-30 -10l-29 -6l-16 -2h-31l-31 2l-33 4l-49 12l-33 15l-18 6l-65 31l-50 12l-16 2h-29l-26 -8l-31 -19l-25 -24l-10 -15l-16 -14l-15 2l-186 117l-8 10l2 16l12 25l15 27l10 12l18 26l8 13
l25 24l27 21l51 29l16 8l29 10l12 2l29 6l14 2l31 2h31l28 -2l13 -2l32 -8l49 -18l15 -9l33 -14l49 -18l28 -7h13l28 2l17 3l30 14l27 20l8 13l19 14h12l174 -119l8 -10l-2 -16z" />
    <glyph glyph-name="Adieresis" unicode="&#xc4;" 
d="M1008 635l-105 317l-10 27l-21 14l-26 6l-23 -6l-20 -20l-121 -307l-6 -31l6 -25l23 -10l28 -4h129l96 -6l27 8l16 16zM1698 29l-15 -23l-22 -10l-27 -4h-28l-47 4l-31 2h-92l-127 -8l-27 8l-12 16l-74 195l-14 20l-19 4l-24 3l-123 8h-33l-154 4l-122 2h-31l-31 -2h-94
l-27 -4l-16 -11l-12 -24l-47 -139l-13 -33l-22 -27l-31 -12l-152 8h-32l-127 -8l-27 -2l-25 12l-16 23l2 26l4 17l230 526l12 31l55 114l86 197l117 248l102 242l11 22l20 12l31 7l94 4h160l94 -2l35 -7l22 -16l51 -137l52 -96l57 -129l49 -134l127 -284l41 -103l139 -280
l56 -129l41 -103zM1348 1759l-11 -28l-14 -25l-16 -23l-25 -18l-27 -16l-28 -13l-35 -8l-18 -2h-48l-26 6l-27 8l-26 13l-21 14l-41 45l-16 27l-8 26l-5 29v31l5 28l6 23l12 27l22 28l25 25l27 18l30 13l15 6l30 6h13l30 2l31 -4l12 -4l33 -8l29 -17l12 -8l23 -18l16 -23
l14 -33l11 -35l2 -28v-31zM723 1759l-10 -28l-15 -25l-16 -23l-25 -18l-26 -16l-29 -13l-35 -8l-18 -2h-47l-27 6l-26 8l-25 13l-23 14l-41 45l-16 27l-8 26l-4 29v31l4 28l6 23l12 27l23 28l24 25l27 18l45 19l31 6h12l31 2l31 -4l12 -4l33 -8l41 -25l22 -18l16 -23l15 -33
l10 -35l2 -28v-31z" />
    <glyph glyph-name="Aring" unicode="&#xc5;" 
d="M1008 635l-105 317l-10 27l-21 14l-26 6l-23 -6l-20 -20l-121 -307l-6 -31l6 -25l23 -10l28 -4h129l96 -6l27 8l16 16zM770 1532l14 -21l19 -16l22 -10l21 -2l26 2l27 6l12 8l15 14l12 19l6 22v29l-6 25l-12 20l-17 14l-18 11l-23 4h-26l-23 -4l-24 -15l-21 -22l-10 -31
l-2 -29zM1698 29l-15 -23l-22 -10l-27 -4h-28l-47 4l-31 2h-92l-127 -8l-27 8l-12 16l-74 195l-14 20l-19 4l-24 3l-123 8h-33l-154 4l-122 2h-31l-31 -2h-94l-27 -4l-16 -11l-12 -24l-47 -139l-13 -33l-22 -27l-31 -12l-152 8h-32l-127 -8l-27 -2l-25 12l-16 23l2 26l4 17
l230 526l12 31l55 114l86 197l117 248l53 127l12 31l13 26l-4 27l-19 29l-14 32l-12 33l-11 45v55l7 31l10 31l4 16l16 33l51 70l21 18l41 27l31 16l30 10l45 11l29 6l29 2h32l35 -6l15 -2l73 -23l31 -14l68 -49l22 -23l27 -41l24 -66l7 -36v-19l2 -35l-2 -14l-2 -33l-5 -14
l-8 -33l-14 -31l-17 -28l-16 -19v-20l4 -17l12 -28l52 -96l57 -129l49 -134l127 -284l41 -103l139 -280l56 -129l41 -103z" />
    <glyph glyph-name="AE" unicode="&#xc6;" horiz-adv-x="2070" 
d="M999 1016l-20 4l-21 -19l-61 -118l-113 -238l-8 -20l-8 -17l2 -18l21 -6h167l21 6l4 16v27l2 51v35l8 186l4 35l9 51zM1919 66l2 -15l2 -24l-6 -17l-12 -6l-23 -2l-88 -6h-33l-162 -4h-32l-158 4l-152 8h-32l-97 -8h-32l-76 6l-25 4l-12 4l-4 19v59l4 98l2 25l-14 6h-154
l-106 4h-33l-133 -6l-15 -14l-63 -101l-43 -75l-12 -19l-23 -6l-33 -4l-30 -2l-220 2l-53 2h-28l-19 8l-6 12l8 21l66 100l71 135l154 263l86 125l18 28l54 107l98 159l68 97l18 28l55 105l80 131l96 149l11 9l20 2l12 2h31l96 -6l140 4l137 2h137l105 2h32l107 -8l33 2
l61 6h29l16 -2l23 -4l10 -13l4 -14l10 -123l4 -35l2 -51v-35l-2 -16l-6 -25l-10 -14l-12 -6l-25 -2l-119 8h-32l-117 -4h-176l-13 -8l-4 -17l-2 -24l-2 -140l2 -24l4 -12l15 -7l26 -2l105 7h32l107 -5h33l49 2l35 -2l18 -2l27 -4l16 -4l12 -12l7 -25l2 -16v-33l-4 -51
l-3 -35l3 -35l-3 -32l-4 -31l-6 -23l-10 -12l-35 -6l-18 -2l-33 -2l-53 4h-33l-107 -4h-34l-35 2l-68 -4l-24 -4l-17 -9l-8 -10l-4 -22l-6 -76v-33l4 -67l2 -21l4 -8l12 -6l23 -2h133l98 -4h156l51 4l33 -2h16l21 -7l6 -12v-24l4 -84v-33l-4 -70v-30z" />
    <glyph glyph-name="Ccedilla" unicode="&#xc7;" horiz-adv-x="1505" 
d="M1411 186l-53 -49l-64 -47l-24 -16l-68 -37l-47 -23l-65 -20l-35 -6l-51 -11l-72 -8l-29 -2l-2 -4l-4 -14l6 -19l17 -2l20 -4l33 -10l33 -14l28 -17l29 -22l49 -49l16 -31l7 -27v-41l-2 -16l-7 -31l-6 -16l-10 -33l-14 -31l-19 -28l-59 -62l-27 -22l-28 -19l-48 -20
l-28 -10l-45 -9l-31 -2h-49l-33 2l-45 6l-31 7l-47 14l-28 12l-29 17l-25 18l-22 18l-37 37l-8 17v12l14 18l82 84l16 15l15 6l16 2l49 -23l15 -8l45 -12l30 -2l17 2l26 2l21 10l16 13l10 14l2 26l-8 25l-16 14l-27 15l-30 10l-27 6h-29l-24 -6l-23 -4l-16 4l-25 12l-20 17
l-11 14l-2 16l7 19l14 26l12 25l23 41l8 20h-4l-35 9l-31 10l-92 24l-45 17l-27 12l-38 23l-80 55l-54 45l-47 51l-41 60l-51 100l-45 127l-20 61l-4 31l-3 47l3 31l2 33v34l6 103l14 76l8 30l35 101l45 90l37 59l43 56l49 49l51 43l66 45l55 33l62 28l67 23l70 16l35 6
l34 4l64 4l45 5l31 -3l45 -2l76 -10l28 -6l47 -8l72 -21l29 -12l73 -43l140 -98l12 -10l14 -15l4 -16l-2 -17l-30 -38l-23 -23l-45 -39l-80 -88l-28 -27l-15 -6l-14 -2l-15 4l-22 13l-39 28l-27 15l-45 20l-28 10l-45 13l-31 6l-51 4h-33l-45 -4l-33 -8l-45 -15l-57 -22
l-41 -21l-29 -20l-39 -39l-33 -55l-14 -29l-12 -31l-10 -33l-7 -34l-4 -31l-4 -62v-32l2 -52l2 -30l11 -47l10 -31l14 -35l17 -31l30 -45l23 -24l39 -33l26 -19l41 -20l31 -12l45 -13l33 -6l49 -2h47l29 6l98 33l33 14l31 15l26 14l39 25l47 35l12 4l19 -4l22 -15l23 -20
l8 -13l21 -22l53 -66l55 -63l19 -25l10 -10l10 -18v-13z" />
    <glyph glyph-name="Egrave" unicode="&#xc8;" horiz-adv-x="1431" 
d="M1276 193l-10 -144l-2 -20l-9 -15l-10 -8l-268 -8h-33l-108 8l-140 -10l-32 -2h-142l-106 8h-33l-176 -10l-70 4l-24 4l-15 10l-6 15l-4 22l-4 47l-2 33l2 31v30l8 109v33l2 108l-8 142l-2 32l4 111v174l8 109l-8 141l-2 33v49l4 61v31l6 106l2 29l6 17l11 8l16 2l27 4
l133 -8l125 2h33l122 -8h33l123 8h33l278 -4l35 2l70 6h51l29 -6l12 -11l4 -14l4 -27v-55l-4 -51v-35l2 -51l2 -31l-2 -30l-4 -25l-8 -14l-10 -9l-25 -4h-16l-33 -2l-193 4h-32l-105 -4h-33l-106 4l-92 6h-31l-16 -2l-21 -4l-10 -10l-6 -35l-4 -49v-33l2 -34l2 -23l4 -14
l8 -11l23 -6l65 -4l66 4h194l230 13l63 -4l23 -5l12 -10l6 -12l2 -23l4 -34l2 -35v-68l4 -47l-4 -61l-4 -25l-8 -14l-14 -11l-21 -4h-41l-92 11l-33 2l-164 -11l-131 4h-32l-82 7l-35 -2l-25 -2l-10 -7l-6 -14l-2 -31l-6 -51l-2 -33v-45l2 -20l6 -15l8 -8l22 -2l113 -4h33
l110 8l146 -8h33l145 8h31l31 -2l73 -8l13 -6l8 -12l2 -23zM762 1673l-14 -2h-33l-92 6l-62 -4h-33l-16 2l-27 4l-18 9l-176 206l-27 39l-8 27l8 16l27 6l18 3h35l96 -7l138 9l30 -2h17l26 -5l21 -12l14 -24l23 -48l20 -47l14 -30l33 -58l15 -32l6 -29l-9 -19z" />
    <glyph glyph-name="Eacute" unicode="&#xc9;" horiz-adv-x="1431" 
d="M1276 193l-10 -144l-2 -20l-9 -15l-10 -8l-268 -8h-33l-108 8l-140 -10l-32 -2h-142l-106 8h-33l-176 -10l-70 4l-24 4l-15 10l-6 15l-4 22l-4 47l-2 33l2 31v30l8 109v33l2 108l-8 142l-2 32l4 111v174l8 109l-8 141l-2 33v49l4 61v31l6 106l2 29l6 17l11 8l16 2l27 4
l133 -8l125 2h33l122 -8h33l123 8h33l278 -4l35 2l70 6h51l29 -6l12 -11l4 -14l4 -27v-55l-4 -51v-35l2 -51l2 -31l-2 -30l-4 -25l-8 -14l-10 -9l-25 -4h-16l-33 -2l-193 4h-32l-105 -4h-33l-106 4l-92 6h-31l-16 -2l-21 -4l-10 -10l-6 -35l-4 -49v-33l2 -34l2 -23l4 -14
l8 -11l23 -6l65 -4l66 4h194l230 13l63 -4l23 -5l12 -10l6 -12l2 -23l4 -34l2 -35v-68l4 -47l-4 -61l-4 -25l-8 -14l-14 -11l-21 -4h-41l-92 11l-33 2l-164 -11l-131 4h-32l-82 7l-35 -2l-25 -2l-10 -7l-6 -14l-2 -31l-6 -51l-2 -33v-45l2 -20l6 -15l8 -8l22 -2l113 -4h33
l110 8l146 -8h33l145 8h31l31 -2l73 -8l13 -6l8 -12l2 -23zM979 1939l-100 -131l-84 -102l-19 -20l-20 -11l-25 -4l-16 -2l-101 6h-151l-19 2l-6 2l-2 7v6l62 123l16 28l49 109l12 20l11 6h24l17 2h32l48 -2h30l97 2h30l45 5l58 -5l20 -6l4 -14z" />
    <glyph glyph-name="Ecircumflex" unicode="&#xca;" horiz-adv-x="1431" 
d="M1276 193l-10 -144l-2 -20l-9 -15l-10 -8l-268 -8h-33l-108 8l-140 -10l-32 -2h-142l-106 8h-33l-176 -10l-70 4l-24 4l-15 10l-6 15l-4 22l-4 47l-2 33l2 31v30l8 109v33l2 108l-8 142l-2 32l4 111v174l8 109l-8 141l-2 33v49l4 61v31l6 106l2 29l6 17l11 8l16 2l27 4
l133 -8l125 2h33l122 -8h33l123 8h33l278 -4l35 2l70 6h51l29 -6l12 -11l4 -14l4 -27v-55l-4 -51v-35l2 -51l2 -31l-2 -30l-4 -25l-8 -14l-10 -9l-25 -4h-16l-33 -2l-193 4h-32l-105 -4h-33l-106 4l-92 6h-31l-16 -2l-21 -4l-10 -10l-6 -35l-4 -49v-33l2 -34l2 -23l4 -14
l8 -11l23 -6l65 -4l66 4h194l230 13l63 -4l23 -5l12 -10l6 -12l2 -23l4 -34l2 -35v-68l4 -47l-4 -61l-4 -25l-8 -14l-14 -11l-21 -4h-41l-92 11l-33 2l-164 -11l-131 4h-32l-82 7l-35 -2l-25 -2l-10 -7l-6 -14l-2 -31l-6 -51l-2 -33v-45l2 -20l6 -15l8 -8l22 -2l113 -4h33
l110 8l146 -8h33l145 8h31l31 -2l73 -8l13 -6l8 -12l2 -23zM1094 1683l-21 -6l-31 -2h-30l-68 4h-158l-20 4l-96 78l-17 13h-4l-88 -72l-16 -14l-8 -2h-150l-102 -9h-31l-29 2l-18 4l-6 13l2 12l12 14l8 13l90 90l103 98l43 45l55 49l12 8l17 5l26 2l66 4h31l77 -6h23l12 -5
l13 -8l114 -116l84 -74l98 -101l13 -16l2 -12z" />
    <glyph glyph-name="Edieresis" unicode="&#xcb;" horiz-adv-x="1431" 
d="M1276 193l-10 -144l-2 -20l-9 -15l-10 -8l-268 -8h-33l-108 8l-140 -10l-32 -2h-142l-106 8h-33l-176 -10l-70 4l-24 4l-15 10l-6 15l-4 22l-4 47l-2 33l2 31v30l8 109v33l2 108l-8 142l-2 32l4 111v174l8 109l-8 141l-2 33v49l4 61v31l6 106l2 29l6 17l11 8l16 2l27 4
l133 -8l125 2h33l122 -8h33l123 8h33l278 -4l35 2l70 6h51l29 -6l12 -11l4 -14l4 -27v-55l-4 -51v-35l2 -51l2 -31l-2 -30l-4 -25l-8 -14l-10 -9l-25 -4h-16l-33 -2l-193 4h-32l-105 -4h-33l-106 4l-92 6h-31l-16 -2l-21 -4l-10 -10l-6 -35l-4 -49v-33l2 -34l2 -23l4 -14
l8 -11l23 -6l65 -4l66 4h194l230 13l63 -4l23 -5l12 -10l6 -12l2 -23l4 -34l2 -35v-68l4 -47l-4 -61l-4 -25l-8 -14l-14 -11l-21 -4h-41l-92 11l-33 2l-164 -11l-131 4h-32l-82 7l-35 -2l-25 -2l-10 -7l-6 -14l-2 -31l-6 -51l-2 -33v-45l2 -20l6 -15l8 -8l22 -2l113 -4h33
l110 8l146 -8h33l145 8h31l31 -2l73 -8l13 -6l8 -12l2 -23zM1149 1759l-10 -28l-15 -25l-16 -23l-25 -18l-26 -16l-29 -13l-35 -8l-18 -2h-47l-27 6l-27 8l-26 13l-21 14l-41 45l-16 27l-8 26l-4 29v31l4 28l6 23l12 27l23 28l24 25l27 18l45 19l31 6h12l31 2l31 -4l12 -4
l33 -8l41 -25l22 -18l16 -23l15 -33l10 -35l2 -28v-31zM524 1759l-10 -28l-14 -25l-17 -23l-24 -18l-27 -16l-29 -13l-34 -8l-19 -2h-47l-27 6l-26 8l-25 13l-22 14l-21 21l-20 24l-17 27l-8 26l-4 29v31l4 28l6 23l13 27l22 28l25 25l26 18l45 19l31 6h12l31 2l31 -4l12 -4
l33 -8l29 -17l12 -8l22 -18l17 -23l14 -33l10 -35l2 -28v-31z" />
    <glyph glyph-name="Igrave" unicode="&#xcc;" horiz-adv-x="706" 
d="M510 293l-8 -111v-32l-2 -113v-23l-6 -10l-17 -6l-28 -2l-105 2h-127l-102 8l-13 4l-6 6v21l-4 51v33l-2 31v30l-6 111l8 143l2 33l-6 113v32l-2 111v176l-2 113v33l2 110v176l-4 113l6 22l12 9l21 2h16l31 2l49 -2h33l94 4h127l23 -4l4 -13l2 -22l4 -53l2 -33v-201
l2 -110v-33l-2 -113v-33l2 -110v-33l-4 -111v-178l6 -110v-33zM408 1673l-15 -2h-33l-92 6l-61 -4h-33l-16 2l-27 4l-18 9l-176 206l-27 39l-8 27l8 16l27 6l18 3h35l96 -7l137 9l31 -2h16l27 -5l20 -12l15 -24l57 -125l33 -58l14 -32l6 -29l-8 -19z" />
    <glyph glyph-name="Iacute" unicode="&#xcd;" horiz-adv-x="706" 
d="M510 293l-8 -111v-32l-2 -113v-23l-6 -10l-17 -6l-28 -2l-105 2h-127l-102 8l-13 4l-6 6v21l-4 51v33l-2 31v30l-6 111l8 143l2 33l-6 113v32l-2 111v176l-2 113v33l2 110v176l-4 113l6 22l12 9l21 2h16l31 2l49 -2h33l94 4h127l23 -4l4 -13l2 -22l4 -53l2 -33v-201
l2 -110v-33l-2 -113v-33l2 -110v-33l-4 -111v-178l6 -110v-33zM625 1939l-80 -106l-105 -127l-18 -20l-21 -11l-24 -4l-17 -2l-100 6h-151l-19 2l-6 2l-2 7v6l61 123l17 28l49 109l12 20l10 6h25l16 2h33l47 -2h31l96 2h31l45 5l57 -5l21 -6l4 -14z" />
    <glyph glyph-name="Icircumflex" unicode="&#xce;" horiz-adv-x="706" 
d="M510 293l-8 -111v-32l-2 -113v-23l-6 -10l-17 -6l-28 -2l-105 2h-127l-102 8l-13 4l-6 6v21l-4 51v33l-2 31v30l-6 111l8 143l2 33l-6 113v32l-2 111v176l-2 113v33l2 110v176l-4 113l6 22l12 9l21 2h16l31 2l49 -2h33l94 4h127l23 -4l4 -13l2 -22l4 -53l2 -33v-201
l2 -110v-33l-2 -113v-33l2 -110v-33l-4 -111v-178l6 -110v-33zM739 1683l-20 -6l-31 -2h-31l-67 4h-158l-20 4l-113 91h-4l-105 -86l-8 -2h-149l-103 -9h-30l-29 2l-18 4l-7 13l2 12l13 14l8 13l192 188l43 45l56 49l12 8l16 5l27 2l66 4h30l78 -6h23l12 -5l12 -8l115 -116
l84 -74l98 -101l12 -16l3 -12z" />
    <glyph glyph-name="Idieresis" unicode="&#xcf;" horiz-adv-x="706" 
d="M510 293l-8 -111v-32l-2 -113v-23l-6 -10l-17 -6l-28 -2l-105 2h-127l-102 8l-13 4l-6 6v21l-4 51v33l-2 31v30l-6 111l8 143l2 33l-6 113v32l-2 111v176l-2 113v33l2 110v176l-4 113l6 22l12 9l21 2h16l31 2l49 -2h33l94 4h127l23 -4l4 -13l2 -22l4 -53l2 -33v-201
l2 -110v-33l-2 -113v-33l2 -110v-33l-4 -111v-178l6 -110v-33zM795 1759l-11 -28l-14 -25l-16 -23l-25 -18l-27 -16l-28 -13l-35 -8l-18 -2h-48l-26 6l-27 8l-26 13l-21 14l-41 45l-16 27l-8 26l-5 29v31l5 28l6 23l12 27l23 28l24 25l27 18l30 13l15 6l30 6h13l30 2l31 -4
l13 -4l32 -8l29 -17l12 -8l23 -18l16 -23l14 -33l11 -35l2 -28v-31zM170 1759l-10 -28l-15 -25l-16 -23l-25 -18l-26 -16l-29 -13l-35 -8l-18 -2h-47l-27 6l-26 8l-25 13l-23 14l-41 45l-16 27l-8 26l-4 29v31l4 28l6 23l12 27l23 28l24 25l27 18l45 19l31 6h12l31 2l31 -4
l12 -4l33 -8l41 -25l22 -18l17 -23l14 -33l10 -35l2 -28v-31z" />
    <glyph glyph-name="Eth" unicode="&#xd0;" horiz-adv-x="1703" 
d="M1133 553l16 41l6 29l8 45l2 28l2 47v64l-2 33l-6 47l-8 31l-4 14l-17 31l-30 43l-53 55l-25 18l-45 27l-29 12l-28 6l-29 4l-92 7h-94l-62 -5l-20 -2l-17 -6l-10 -12l-6 -25l-2 -18l-2 -31l8 -121l4 -14l84 -2h33l92 -6l24 -2l17 -6l10 -11l4 -22l2 -16v-31l-4 -45v-31
l2 -35v-35l-4 -16l-2 -22l-6 -13l-16 -8l-25 -4l-59 -4l-105 4h-33l-16 -16l-4 -66l-2 -45l2 -33l4 -33l4 -22l6 -16l12 -11l25 -2l238 15l32 6l33 10l33 12l31 17l28 18l37 31l21 24l24 39zM1585 668l-2 -47l-6 -33l-61 -180l-13 -31l-22 -43l-17 -27l-28 -35l-21 -22
l-35 -31l-45 -45l-65 -55l-31 -19l-63 -30l-46 -17l-30 -10l-33 -8l-33 -6l-49 -11l-31 -4l-45 -4l-30 -2l-45 -4h-33l-66 2l-51 4h-35l-63 -4l-54 -4h-98l-53 2h-31l-28 -2l-91 6l-26 4l-17 8l-10 11l-4 22l-2 33l2 16l4 62v31l2 45v32l2 31v174l-6 109l-10 16l-27 -2
l-33 -2h-28l-23 4l-16 8l-10 11l-6 20v45l6 45l2 35l-4 51l2 35l4 22l6 15l12 8l62 -4l51 2l16 16l6 101v32l-2 109v33l-6 108v33l2 45l2 33l4 31l4 24l9 10l10 5l20 4l29 4l92 6h31l119 -2l131 -8l18 -2h35l86 4l31 2h33l51 -2l65 -4l33 -4l117 -23l74 -27l92 -47l65 -47
l27 -22l90 -86l18 -23l37 -70l13 -30l10 -33l12 -33l10 -33l8 -32l21 -113l4 -33l2 -49l4 -70z" />
    <glyph glyph-name="Ntilde" unicode="&#xd1;" horiz-adv-x="1681" 
d="M1473 1124v-303l6 -119v-32l4 -271v-34l-2 -17l-8 -133l2 -119l-2 -28l-9 -25l-16 -23l-21 -14l-18 -6l-29 -2l-104 -4l-33 -2l-51 -2h-33l-26 6l-25 10l-25 19l-18 26l-31 60l-18 26l-180 223l-91 134l-118 147l-76 100l-19 17l-14 -6l-6 -25l-4 -102v-33l2 -103v-32
l2 -115v-33l-6 -114l2 -33l12 -82l2 -33l-6 -27l-14 -14l-15 -4l-24 -4l-17 -2l-34 -2l-95 2h-32l-84 -4h-33l-31 2l-22 4l-17 10l-8 15l-4 20l-2 14v31l6 100l-6 109v33l4 250l8 141l2 33v141l-8 109v32l8 109l-10 143l-2 33v47l2 31l4 31l4 22l6 14l13 7l22 4l62 4l61 -4
h154l24 -2l11 -9l12 -18l86 -92l192 -248l21 -25l92 -127l98 -122l74 -103l16 -14l17 -2l14 10v23l-14 86l-2 32l6 88v33l-8 125v33l8 125l-2 33l-6 75v52l6 26l8 17l14 8l25 4h18l35 2l92 -6h33l70 4l30 -2l48 -2l22 -4l14 -7l13 -14l4 -29l2 -18l2 -35l-4 -63l-4 -33
l-6 -121zM1231 1831l-25 -45l-18 -29l-21 -22l-22 -19l-10 -8l-27 -16l-31 -15l-30 -10l-29 -6l-17 -2h-30l-31 2l-33 4l-49 12l-33 15l-18 6l-66 31l-49 12l-16 2h-29l-26 -8l-31 -19l-25 -24l-10 -15l-16 -14l-15 2l-186 117l-8 10l2 16l26 52l11 12l18 26l8 13l25 24
l26 21l52 29l16 8l29 10l12 2l29 6l14 2l31 2h30l29 -2l12 -2l33 -8l49 -18l15 -9l32 -14l50 -18l28 -7h13l28 2l17 3l30 14l27 20l8 13l19 14h12l174 -119l8 -10l-2 -16z" />
    <glyph glyph-name="Ograve" unicode="&#xd2;" horiz-adv-x="1787" 
d="M1186 518l33 76l10 47l4 31l4 49v35l-4 67l-12 62l-9 28l-22 45l-16 27l-29 37l-51 55l-23 19l-53 30l-29 13l-33 10l-32 6l-66 4l-31 -2l-45 -2l-30 -6l-54 -14l-32 -13l-48 -24l-28 -19l-33 -28l-22 -25l-23 -31l-16 -26l-7 -13l-18 -43l-10 -30l-6 -15l-6 -28l-5 -29
l-4 -59v-31l2 -33l7 -33l2 -18l8 -31l4 -14l10 -29l35 -61l22 -29l37 -39l41 -35l29 -18l33 -16l30 -13l43 -14l31 -6l51 -6l35 -2l51 4l33 4l45 10l29 12l45 29l24 18l33 33l47 55zM1665 723l-4 -47l-4 -31l-12 -61l-5 -47l-4 -31l-6 -33l-8 -31l-20 -43l-70 -120l-39 -54
l-53 -57l-23 -21l-51 -38l-37 -25l-26 -16l-31 -17l-70 -28l-131 -39l-33 -9l-34 -8l-35 -6l-35 -2h-111l-69 4l-68 8l-29 6l-141 46l-33 10l-100 43l-31 16l-30 19l-27 20l-27 23l-47 53l-55 55l-41 51l-16 27l-17 41l-31 92l-12 43l-18 94l-6 45l-2 31l-3 35v35l3 35l2 36
l4 35l6 35l8 35l10 35l10 30l13 33l14 47l14 33l25 49l59 90l25 25l61 49l115 76l57 31l43 18l60 20l31 9l108 20l103 12l65 4l62 -4l49 -2l34 -4l35 -6l35 -8l35 -6l33 -8l61 -19l43 -16l29 -13l67 -38l54 -39l80 -76l47 -64l16 -26l14 -27l17 -27l22 -40l17 -27l14 -31
l10 -28l23 -109l4 -35l6 -35l4 -69zM950 1673l-14 -2h-33l-92 6l-61 -4h-33l-17 2l-26 4l-19 9l-120 143l-56 63l-26 39l-9 27l9 16l26 6l19 3h34l97 -7l137 9l31 -2h16l27 -5l20 -12l14 -24l58 -125l33 -58l14 -32l6 -29l-8 -19z" />
    <glyph glyph-name="Oacute" unicode="&#xd3;" horiz-adv-x="1787" 
d="M1186 518l33 76l10 47l4 31l4 49v35l-4 67l-12 62l-9 28l-22 45l-16 27l-29 37l-51 55l-23 19l-53 30l-29 13l-33 10l-32 6l-66 4l-31 -2l-45 -2l-30 -6l-54 -14l-32 -13l-48 -24l-28 -19l-33 -28l-22 -25l-23 -31l-16 -26l-7 -13l-18 -43l-10 -30l-6 -15l-6 -28l-5 -29
l-4 -59v-31l2 -33l7 -33l2 -18l8 -31l4 -14l10 -29l35 -61l22 -29l37 -39l41 -35l29 -18l33 -16l30 -13l43 -14l31 -6l51 -6l35 -2l51 4l33 4l45 10l29 12l45 29l24 18l33 33l47 55zM1665 723l-4 -47l-4 -31l-12 -61l-5 -47l-4 -31l-6 -33l-8 -31l-20 -43l-70 -120l-39 -54
l-53 -57l-23 -21l-51 -38l-37 -25l-26 -16l-31 -17l-70 -28l-131 -39l-33 -9l-34 -8l-35 -6l-35 -2h-111l-69 4l-68 8l-29 6l-141 46l-33 10l-100 43l-31 16l-30 19l-27 20l-27 23l-47 53l-55 55l-41 51l-16 27l-17 41l-31 92l-12 43l-18 94l-6 45l-2 31l-3 35v35l3 35l2 36
l4 35l6 35l8 35l10 35l10 30l13 33l14 47l14 33l25 49l59 90l25 25l61 49l115 76l57 31l43 18l60 20l31 9l108 20l103 12l65 4l62 -4l49 -2l34 -4l35 -6l35 -8l35 -6l33 -8l61 -19l43 -16l29 -13l67 -38l54 -39l80 -76l47 -64l16 -26l14 -27l17 -27l22 -40l17 -27l14 -31
l10 -28l23 -109l4 -35l6 -35l4 -69zM1167 1939l-100 -131l-84 -102l-18 -20l-21 -11l-24 -4l-17 -2l-100 6h-152l-18 2l-6 2l-2 7v6l61 123l16 28l50 109l12 20l10 6h25l16 2h33l47 -2h31l96 2h31l45 5l57 -5l21 -6l4 -14z" />
    <glyph glyph-name="Ocircumflex" unicode="&#xd4;" horiz-adv-x="1787" 
d="M1186 518l33 76l10 47l4 31l4 49v35l-4 67l-12 62l-9 28l-22 45l-16 27l-29 37l-51 55l-23 19l-53 30l-29 13l-33 10l-32 6l-66 4l-31 -2l-45 -2l-30 -6l-54 -14l-32 -13l-48 -24l-28 -19l-33 -28l-22 -25l-23 -31l-16 -26l-7 -13l-18 -43l-10 -30l-6 -15l-6 -28l-5 -29
l-4 -59v-31l2 -33l7 -33l2 -18l8 -31l4 -14l10 -29l35 -61l22 -29l37 -39l41 -35l29 -18l33 -16l30 -13l43 -14l31 -6l51 -6l35 -2l51 4l33 4l45 10l29 12l45 29l24 18l33 33l47 55zM1665 723l-4 -47l-4 -31l-12 -61l-5 -47l-4 -31l-6 -33l-8 -31l-20 -43l-70 -120l-39 -54
l-53 -57l-23 -21l-51 -38l-37 -25l-26 -16l-31 -17l-70 -28l-131 -39l-33 -9l-34 -8l-35 -6l-35 -2h-111l-69 4l-68 8l-29 6l-141 46l-33 10l-100 43l-31 16l-30 19l-27 20l-27 23l-47 53l-55 55l-41 51l-16 27l-17 41l-31 92l-12 43l-18 94l-6 45l-2 31l-3 35v35l3 35l2 36
l4 35l6 35l8 35l10 35l10 30l13 33l14 47l14 33l25 49l59 90l25 25l61 49l115 76l57 31l43 18l60 20l31 9l108 20l103 12l65 4l62 -4l49 -2l34 -4l35 -6l35 -8l35 -6l33 -8l61 -19l43 -16l29 -13l67 -38l54 -39l80 -76l47 -64l16 -26l14 -27l17 -27l22 -40l17 -27l14 -31
l10 -28l23 -109l4 -35l6 -35l4 -69zM1282 1683l-20 -6l-31 -2h-31l-67 4h-158l-21 4l-112 91h-4l-105 -86l-8 -2h-150l-102 -9h-31l-28 2l-19 4l-6 13l2 12l12 14l9 13l67 69l125 119l43 45l55 49l13 8l16 5l27 2l65 4h31l78 -6h22l13 -5l12 -8l115 -116l84 -74l98 -101
l12 -16l2 -12z" />
    <glyph glyph-name="Otilde" unicode="&#xd5;" horiz-adv-x="1787" 
d="M1186 518l33 76l10 47l4 31l4 49v35l-4 67l-12 62l-9 28l-22 45l-16 27l-29 37l-51 55l-23 19l-53 30l-29 13l-33 10l-32 6l-66 4l-31 -2l-45 -2l-30 -6l-54 -14l-32 -13l-48 -24l-28 -19l-33 -28l-22 -25l-23 -31l-16 -26l-7 -13l-18 -43l-10 -30l-6 -15l-6 -28l-5 -29
l-4 -59v-31l2 -33l7 -33l2 -18l8 -31l4 -14l10 -29l35 -61l22 -29l37 -39l41 -35l29 -18l33 -16l30 -13l43 -14l31 -6l51 -6l35 -2l51 4l33 4l45 10l29 12l45 29l24 18l33 33l47 55zM1665 723l-4 -47l-4 -31l-12 -61l-5 -47l-4 -31l-6 -33l-8 -31l-20 -43l-70 -120l-39 -54
l-53 -57l-23 -21l-51 -38l-37 -25l-26 -16l-31 -17l-70 -28l-131 -39l-33 -9l-34 -8l-35 -6l-35 -2h-111l-69 4l-68 8l-29 6l-141 46l-33 10l-100 43l-31 16l-30 19l-27 20l-27 23l-47 53l-55 55l-41 51l-16 27l-17 41l-31 92l-12 43l-18 94l-6 45l-2 31l-3 35v35l3 35l2 36
l4 35l6 35l8 35l10 35l10 30l13 33l14 47l14 33l25 49l59 90l25 25l61 49l115 76l57 31l43 18l60 20l31 9l108 20l103 12l65 4l62 -4l49 -2l34 -4l35 -6l35 -8l35 -6l33 -8l61 -19l43 -16l29 -13l67 -38l54 -39l80 -76l47 -64l16 -26l14 -27l17 -27l22 -40l17 -27l14 -31
l10 -28l23 -109l4 -35l6 -35l4 -69zM1270 1831l-25 -45l-18 -29l-21 -22l-22 -19l-10 -8l-27 -16l-31 -15l-31 -10l-28 -6l-17 -2h-30l-31 2l-33 4l-49 12l-33 15l-18 6l-66 31l-49 12l-16 2h-29l-27 -8l-30 -19l-25 -24l-10 -15l-16 -14l-15 2l-186 117l-8 10l2 16l26 52
l11 12l18 26l8 13l25 24l26 21l52 29l16 8l29 10l12 2l29 6l14 2l31 2h30l29 -2l12 -2l33 -8l49 -18l15 -9l32 -14l50 -18l28 -7h12l29 2l17 3l30 14l27 20l8 13l18 14h13l174 -119l8 -10l-2 -16z" />
    <glyph glyph-name="Odieresis" unicode="&#xd6;" horiz-adv-x="1787" 
d="M1186 518l33 76l10 47l4 31l4 49v35l-4 67l-12 62l-9 28l-22 45l-16 27l-29 37l-51 55l-23 19l-53 30l-29 13l-33 10l-32 6l-66 4l-31 -2l-45 -2l-30 -6l-54 -14l-32 -13l-48 -24l-28 -19l-33 -28l-22 -25l-23 -31l-16 -26l-7 -13l-18 -43l-10 -30l-6 -15l-6 -28l-5 -29
l-4 -59v-31l2 -33l7 -33l2 -18l8 -31l4 -14l10 -29l35 -61l22 -29l37 -39l41 -35l29 -18l33 -16l30 -13l43 -14l31 -6l51 -6l35 -2l51 4l33 4l45 10l29 12l45 29l24 18l33 33l47 55zM1665 723l-4 -47l-4 -31l-12 -61l-5 -47l-4 -31l-6 -33l-8 -31l-20 -43l-70 -120l-39 -54
l-53 -57l-23 -21l-51 -38l-37 -25l-26 -16l-31 -17l-70 -28l-131 -39l-33 -9l-34 -8l-35 -6l-35 -2h-111l-69 4l-68 8l-29 6l-141 46l-33 10l-100 43l-31 16l-30 19l-27 20l-27 23l-47 53l-55 55l-41 51l-16 27l-17 41l-31 92l-12 43l-18 94l-6 45l-2 31l-3 35v35l3 35l2 36
l4 35l6 35l8 35l10 35l10 30l13 33l14 47l14 33l25 49l59 90l25 25l61 49l115 76l57 31l43 18l60 20l31 9l108 20l103 12l65 4l62 -4l49 -2l34 -4l35 -6l35 -8l35 -6l33 -8l61 -19l43 -16l29 -13l67 -38l54 -39l80 -76l47 -64l16 -26l14 -27l17 -27l22 -40l17 -27l14 -31
l10 -28l23 -109l4 -35l6 -35l4 -69zM1337 1759l-10 -28l-14 -25l-17 -23l-24 -18l-27 -16l-28 -13l-35 -8l-19 -2h-47l-26 6l-27 8l-27 13l-20 14l-21 21l-20 24l-17 27l-8 26l-4 29v31l4 28l6 23l13 27l22 28l25 25l26 18l45 19l31 6h12l31 2l31 -4l12 -4l33 -8l29 -17
l12 -8l22 -18l17 -23l14 -33l10 -35l2 -28v-31zM713 1759l-11 -28l-14 -25l-16 -23l-25 -18l-26 -16l-29 -13l-35 -8l-18 -2h-47l-27 6l-27 8l-24 13l-23 14l-41 45l-16 27l-8 26l-4 29v31l4 28l6 23l12 27l23 28l24 25l27 18l45 19l31 6h12l31 2l30 -4l13 -4l32 -8l29 -17
l12 -8l23 -18l16 -23l15 -33l10 -35l2 -28v-31z" />
    <glyph glyph-name="multiply" unicode="&#xd7;" horiz-adv-x="997" 
d="M854 535v-13l-98 -92l-25 -20l-82 -80l-18 -13h-13l-18 15l-127 125l-18 16h-11l-159 -156h-11l-106 93l-111 108l-14 23v14l141 141l17 19l2 12l-15 18l-122 125l-15 19l2 12l123 127l86 80l21 14h12l137 -141l19 -14l12 -2l18 14l123 131l19 16h12l102 -94l105 -104
l14 -19v-12l-16 -20l-135 -138l-15 -20l-2 -14l14 -17l136 -135z" />
    <glyph glyph-name="Oslash" unicode="&#xd8;" horiz-adv-x="1785" 
d="M866 324l35 2l47 8l31 8l59 23l27 16l51 37l23 22l35 41l45 86l10 31l12 53l6 35l2 35v35l-2 35l-18 94l-10 28l-23 48h-14l-402 -619l6 -16l48 -2h32zM676 739l78 135l18 29l74 94l86 133l-8 17l-50 2l-12 4h-31l-49 -6l-30 -6l-76 -27l-39 -20l-27 -17l-41 -33l-49 -57
l-16 -29l-21 -47l-12 -32l-10 -35l-6 -37l-6 -51v-35l2 -35l16 -78l10 -28l12 -27l11 -31l10 -20l16 10l64 100zM1673 719l-2 -17l-2 -36l-6 -52l-6 -34l-8 -33l-25 -72l-12 -31l-10 -34l-13 -33l-14 -31l-16 -29l-62 -90l-45 -45l-141 -100l-39 -23l-64 -28l-168 -54
l-67 -12l-35 -2h-37l-35 -2h-35l-30 2h-35l-35 2l-35 4l-98 19h-27l-20 -15l-19 -22l-8 -14l-20 -27l-31 -35l-20 -25l-27 -14l-64 -4l-30 2h-33l-78 -6l-35 2l-16 2l-27 10l-10 13l-4 12l2 14l6 25l19 41l100 149l16 27v20l-18 21l-35 35l-20 24l-80 121l-17 29l-28 61
l-17 45l-10 33l-10 45l-6 33l-6 53l-5 78l3 33l8 49l6 31l6 28l10 74l6 31l7 32l20 64l12 31l19 39l16 28l31 45l22 29l66 72l47 43l61 43l27 16l62 31l34 14l99 33l108 22l29 4l61 5h86l72 -5l70 -8l34 -6l33 -8l35 -10l25 -2l12 6l82 108l22 19l27 8l53 4l64 4h32l78 -6
l31 -4l25 -12l16 -21l4 -20l-14 -25l-123 -180l-10 -23l4 -14l63 -74l33 -43l45 -71l35 -70l10 -31l8 -35l6 -34l7 -52l18 -106l8 -53z" />
    <glyph glyph-name="Ugrave" unicode="&#xd9;" horiz-adv-x="1646" 
d="M1464 655l-2 -30l-2 -47l-4 -31l-22 -129l-9 -31l-26 -72l-19 -43l-14 -28l-27 -41l-20 -27l-25 -26l-67 -56l-68 -43l-69 -35l-76 -26l-31 -8l-78 -15l-63 -4h-94l-48 4l-30 2l-113 13l-33 6l-18 2l-33 10l-49 20l-45 21l-31 18l-31 21l-53 45l-22 22l-45 60l-52 82
l-16 30l-27 64l-16 59l-14 80l-4 35l-5 70l-2 32l7 125v33l-5 125v33l7 125v190l-4 66v35l2 34l6 33l14 19l27 6l67 4l78 -6h33l67 2l31 -2l47 -2l27 -6l16 -17l6 -26l2 -29v-31l-4 -80v-33l7 -124v-33l-3 -125v-33l-6 -125v-33l-2 -125l2 -32l4 -52l7 -32l12 -45l12 -31
l21 -47l20 -25l33 -35l26 -16l46 -16l30 -9l54 -4h32l54 11l30 8l39 18l27 17l33 28l20 25l23 43l14 31l10 32l6 33l8 62l3 32l-9 125v33l6 127v33l5 125v32l-5 127l-8 119v51l8 29l19 17l27 6h43l104 -9h33l82 7h32l31 -2l27 -7l16 -14l2 -24l2 -62v-31l-2 -47v-33l6 -127
v-32l-4 -125v-33l-8 -127zM877 1673l-15 -2h-33l-92 6l-61 -4h-33l-16 2l-27 4l-18 9l-176 206l-27 39l-8 27l8 16l27 6l18 3h35l96 -7l137 9l31 -2h16l27 -5l20 -12l15 -24l57 -125l33 -58l14 -32l6 -29l-8 -19z" />
    <glyph glyph-name="Uacute" unicode="&#xda;" horiz-adv-x="1646" 
d="M1464 655l-2 -30l-2 -47l-4 -31l-22 -129l-9 -31l-26 -72l-19 -43l-14 -28l-27 -41l-20 -27l-25 -26l-67 -56l-68 -43l-69 -35l-76 -26l-31 -8l-78 -15l-63 -4h-94l-48 4l-30 2l-113 13l-33 6l-18 2l-33 10l-49 20l-45 21l-31 18l-31 21l-53 45l-22 22l-45 60l-52 82
l-16 30l-27 64l-16 59l-14 80l-4 35l-5 70l-2 32l7 125v33l-5 125v33l7 125v190l-4 66v35l2 34l6 33l14 19l27 6l67 4l78 -6h33l67 2l31 -2l47 -2l27 -6l16 -17l6 -26l2 -29v-31l-4 -80v-33l7 -124v-33l-3 -125v-33l-6 -125v-33l-2 -125l2 -32l4 -52l7 -32l12 -45l12 -31
l21 -47l20 -25l33 -35l26 -16l46 -16l30 -9l54 -4h32l54 11l30 8l39 18l27 17l33 28l20 25l23 43l14 31l10 32l6 33l8 62l3 32l-9 125v33l6 127v33l5 125v32l-5 127l-8 119v51l8 29l19 17l27 6h43l104 -9h33l82 7h32l31 -2l27 -7l16 -14l2 -24l2 -62v-31l-2 -47v-33l6 -127
v-32l-4 -125v-33l-8 -127zM1094 1939l-80 -106l-105 -127l-18 -20l-21 -11l-24 -4l-17 -2l-100 6h-151l-19 2l-6 2l-2 7v6l61 123l17 28l49 109l12 20l10 6h25l16 2h33l47 -2h31l96 2h31l45 5l57 -5l21 -6l4 -14z" />
    <glyph glyph-name="Ucircumflex" unicode="&#xdb;" horiz-adv-x="1646" 
d="M1464 655l-2 -30l-2 -47l-4 -31l-22 -129l-9 -31l-26 -72l-19 -43l-14 -28l-27 -41l-20 -27l-25 -26l-67 -56l-68 -43l-69 -35l-76 -26l-31 -8l-78 -15l-63 -4h-94l-48 4l-30 2l-113 13l-33 6l-18 2l-33 10l-49 20l-45 21l-31 18l-31 21l-53 45l-22 22l-45 60l-52 82
l-16 30l-27 64l-16 59l-14 80l-4 35l-5 70l-2 32l7 125v33l-5 125v33l7 125v190l-4 66v35l2 34l6 33l14 19l27 6l67 4l78 -6h33l67 2l31 -2l47 -2l27 -6l16 -17l6 -26l2 -29v-31l-4 -80v-33l7 -124v-33l-3 -125v-33l-6 -125v-33l-2 -125l2 -32l4 -52l7 -32l12 -45l12 -31
l21 -47l20 -25l33 -35l26 -16l46 -16l30 -9l54 -4h32l54 11l30 8l39 18l27 17l33 28l20 25l23 43l14 31l10 32l6 33l8 62l3 32l-9 125v33l6 127v33l5 125v32l-5 127l-8 119v51l8 29l19 17l27 6h43l104 -9h33l82 7h32l31 -2l27 -7l16 -14l2 -24l2 -62v-31l-2 -47v-33l6 -127
v-32l-4 -125v-33l-8 -127zM1208 1683l-20 -6l-31 -2h-31l-67 4h-158l-20 4l-113 91h-4l-105 -86l-8 -2h-149l-103 -9h-30l-29 2l-18 4l-7 13l2 12l13 14l8 13l192 188l43 45l56 49l12 8l16 5l27 2l66 4h30l78 -6h23l12 -5l12 -8l115 -116l84 -74l98 -101l12 -16l3 -12z" />
    <glyph glyph-name="Udieresis" unicode="&#xdc;" horiz-adv-x="1646" 
d="M1464 655l-2 -30l-2 -47l-4 -31l-22 -129l-9 -31l-26 -72l-19 -43l-14 -28l-27 -41l-20 -27l-25 -26l-67 -56l-68 -43l-69 -35l-76 -26l-31 -8l-78 -15l-63 -4h-94l-48 4l-30 2l-113 13l-33 6l-18 2l-33 10l-49 20l-45 21l-31 18l-31 21l-53 45l-22 22l-45 60l-52 82
l-16 30l-27 64l-16 59l-14 80l-4 35l-5 70l-2 32l7 125v33l-5 125v33l7 125v190l-4 66v35l2 34l6 33l14 19l27 6l67 4l78 -6h33l67 2l31 -2l47 -2l27 -6l16 -17l6 -26l2 -29v-31l-4 -80v-33l7 -124v-33l-3 -125v-33l-6 -125v-33l-2 -125l2 -32l4 -52l7 -32l12 -45l12 -31
l21 -47l20 -25l33 -35l26 -16l46 -16l30 -9l54 -4h32l54 11l30 8l39 18l27 17l33 28l20 25l23 43l14 31l10 32l6 33l8 62l3 32l-9 125v33l6 127v33l5 125v32l-5 127l-8 119v51l8 29l19 17l27 6h43l104 -9h33l82 7h32l31 -2l27 -7l16 -14l2 -24l2 -62v-31l-2 -47v-33l6 -127
v-32l-4 -125v-33l-8 -127zM1264 1759l-11 -28l-14 -25l-16 -23l-25 -18l-27 -16l-28 -13l-35 -8l-18 -2h-48l-26 6l-27 8l-26 13l-21 14l-41 45l-16 27l-8 26l-5 29v31l5 28l6 23l12 27l23 28l24 25l27 18l30 13l15 6l30 6h13l30 2l31 -4l12 -4l33 -8l29 -17l12 -8l23 -18
l16 -23l14 -33l11 -35l2 -28v-31zM639 1759l-10 -28l-15 -25l-16 -23l-25 -18l-26 -16l-29 -13l-35 -8l-18 -2h-47l-27 6l-26 8l-25 13l-23 14l-41 45l-16 27l-8 26l-4 29v31l4 28l6 23l12 27l23 28l24 25l27 18l45 19l31 6h12l31 2l31 -4l12 -4l33 -8l41 -25l22 -18l16 -23
l15 -33l10 -35l2 -28v-31z" />
    <glyph glyph-name="Yacute" unicode="&#xdd;" horiz-adv-x="1638" 
d="M1563 1456l-160 -235l-109 -148l-57 -100l-168 -246l-88 -121l-8 -16v-166l8 -111l-10 -143v-33l8 -86l2 -28l-6 -17l-8 -8l-19 -4h-135l-240 8l-8 6l-4 21v252l-10 143l-2 33l8 110l-4 19l-14 14l-56 98l-18 29l-66 92l-94 156l-143 217l-154 252l-6 18l2 11l12 8h275
l151 -8l23 -3l8 -6l59 -102l95 -145l53 -95l74 -116l14 -19l12 -4l15 14l51 99l100 143l51 96l74 123l16 21l17 4l22 -2l103 -6h33l118 6h33l117 -8l24 -5l11 -4zM1098 1939l-80 -106l-105 -127l-18 -20l-21 -11l-24 -4l-16 -2l-101 6h-151l-19 2l-6 2l-2 7v6l61 123l17 28
l49 109l12 20l11 6h24l16 2h33l47 -2h31l96 2h31l45 5l57 -5l21 -6l4 -14z" />
    <glyph glyph-name="Thorn" unicode="&#xde;" horiz-adv-x="1501" 
d="M958 686l7 31v31l-7 30l-14 31l-22 27l-37 32l-31 15l-45 12l-33 4l-16 -2l-33 -2l-49 -2h-33l-51 2h-33l-41 -6l-14 -12l-4 -27l2 -37l8 -63l2 -33v-99l2 -26l6 -19l23 -6h30l70 11l33 2l98 -5l33 3l31 4l28 10l31 16l25 23l20 26zM1378 797l2 -45v-29l-2 -45l-2 -31
l-6 -35l-27 -80l-14 -28l-18 -29l-45 -61l-23 -25l-55 -45l-39 -27l-29 -18l-55 -29l-64 -20l-81 -17l-35 -4l-35 -2l-168 -6l-33 2l-61 8h-33l-27 -6l-14 -16l-4 -29l6 -94l-2 -31v-14l-8 -25l-17 -12l-28 -4l-47 -4l-33 -2l-64 4h-32l-62 -2l-33 2l-49 4l-28 4l-19 12
l-10 25v51l4 62v172l6 108v33l-8 109v32l8 109v33l-6 108v141l2 33l10 109v33l-8 108l-4 33l-2 53v31l2 29l10 28l19 17l26 2l144 4h32l173 -13l18 -14l8 -27v-34l-10 -101l-4 -26l2 -19l14 -8h29l86 10h33l108 -8l33 -2l47 4h33l33 -2l32 -6l45 -14l62 -23l88 -45l27 -18
l10 -11l24 -18l43 -45l29 -41l21 -27l18 -26l37 -70l10 -33l6 -35z" />
    <glyph glyph-name="agrave" unicode="&#xe0;" 
d="M1008 637l-105 317l-10 27l-21 14l-26 6l-23 -6l-20 -20l-121 -307l-6 -31l6 -25l23 -10l28 -4h129l96 -6l27 8l16 16zM1698 31l-15 -23l-22 -10l-27 -4h-28l-47 4l-31 2h-92l-127 -8l-27 10l-12 14l-74 195l-14 20l-19 5l-147 10h-33l-154 4l-122 2h-31l-31 -2h-94
l-27 -4l-16 -10l-12 -25l-47 -139l-13 -33l-22 -27l-31 -10h-33l-119 6h-32l-127 -8l-27 -2l-25 12l-16 23l2 26l4 17l230 526l12 31l55 115l86 196l117 248l102 242l11 22l20 12l31 7l94 4h160l94 -2l35 -7l22 -16l51 -137l52 -96l57 -129l49 -134l127 -284l41 -103
l139 -280l56 -129l41 -103zM963 1673l-15 -2h-33l-92 6l-61 -4h-33l-16 2l-27 4l-18 9l-176 206l-27 39l-8 27l8 16l27 6l18 3h35l96 -7l137 9l31 -2h16l27 -5l20 -12l15 -24l57 -125l33 -58l14 -32l6 -29l-8 -19z" />
    <glyph glyph-name="aacute" unicode="&#xe1;" 
d="M1008 637l-105 317l-10 27l-21 14l-26 6l-23 -6l-20 -20l-121 -307l-6 -31l6 -25l23 -10l28 -4h129l96 -6l27 8l16 16zM1698 31l-15 -23l-22 -10l-27 -4h-28l-47 4l-31 2h-92l-127 -8l-27 10l-12 14l-74 195l-14 20l-19 5l-147 10h-33l-154 4l-122 2h-31l-31 -2h-94
l-27 -4l-16 -10l-12 -25l-47 -139l-13 -33l-22 -27l-31 -10h-33l-119 6h-32l-127 -8l-27 -2l-25 12l-16 23l2 26l4 17l230 526l12 31l55 115l86 196l117 248l102 242l11 22l20 12l31 7l94 4h160l94 -2l35 -7l22 -16l51 -137l52 -96l57 -129l49 -134l127 -284l41 -103
l139 -280l56 -129l41 -103zM1180 1939l-80 -106l-105 -127l-18 -20l-21 -11l-24 -4l-17 -2l-100 6h-151l-19 2l-6 2l-2 7v6l61 123l17 28l49 109l12 20l10 6h25l16 2h33l47 -2h31l96 2h31l45 5l57 -5l21 -6l4 -14z" />
    <glyph glyph-name="acircumflex" unicode="&#xe2;" 
d="M1008 637l-105 317l-10 27l-21 14l-26 6l-23 -6l-20 -20l-121 -307l-6 -31l6 -25l23 -10l28 -4h129l96 -6l27 8l16 16zM1698 31l-15 -23l-22 -10l-27 -4h-28l-47 4l-31 2h-92l-127 -8l-27 10l-12 14l-74 195l-14 20l-19 5l-147 10h-33l-154 4l-122 2h-31l-31 -2h-94
l-27 -4l-16 -10l-12 -25l-47 -139l-13 -33l-22 -27l-31 -10h-33l-119 6h-32l-127 -8l-27 -2l-25 12l-16 23l2 26l4 17l230 526l12 31l55 115l86 196l117 248l102 242l11 22l20 12l31 7l94 4h160l94 -2l35 -7l22 -16l51 -137l52 -96l57 -129l49 -134l127 -284l41 -103
l139 -280l56 -129l41 -103zM1294 1683l-20 -6l-31 -2h-31l-67 4h-158l-20 4l-113 91h-4l-105 -86l-8 -2h-149l-103 -9h-30l-29 2l-18 4l-7 13l2 12l13 14l8 13l192 188l43 45l56 49l12 8l16 5l27 2l66 4h30l78 -6h23l12 -5l12 -8l115 -116l84 -74l98 -101l12 -16l3 -12z" />
    <glyph glyph-name="atilde" unicode="&#xe3;" 
d="M1008 637l-105 317l-10 27l-21 14l-26 6l-23 -6l-20 -20l-121 -307l-6 -31l6 -25l23 -10l28 -4h129l96 -6l27 8l16 16zM1698 31l-15 -23l-22 -10l-27 -4h-28l-47 4l-31 2h-92l-127 -8l-27 10l-12 14l-74 195l-14 20l-19 5l-147 10h-33l-154 4l-122 2h-31l-31 -2h-94
l-27 -4l-16 -10l-12 -25l-47 -139l-13 -33l-22 -27l-31 -10h-33l-119 6h-32l-127 -8l-27 -2l-25 12l-16 23l2 26l4 17l230 526l12 31l55 115l86 196l117 248l102 242l11 22l20 12l31 7l94 4h160l94 -2l35 -7l22 -16l51 -137l52 -96l57 -129l49 -134l127 -284l41 -103
l139 -280l56 -129l41 -103zM1282 1831l-25 -45l-18 -29l-20 -22l-33 -27l-27 -16l-31 -15l-30 -10l-29 -6l-16 -2h-31l-31 2l-33 4l-49 12l-32 15l-19 6l-65 31l-50 12l-16 2h-29l-26 -8l-31 -19l-25 -24l-10 -15l-16 -14l-15 2l-186 117l-8 10l2 16l12 25l15 27l10 12
l18 26l8 13l25 24l27 21l51 29l16 8l29 10l12 2l29 6l14 2l31 2h31l28 -2l13 -2l32 -8l50 -18l14 -9l33 -14l49 -18l28 -7h13l28 2l17 3l31 14l26 20l8 13l19 14h12l21 -12l153 -107l8 -10l-2 -16z" />
    <glyph glyph-name="adieresis" unicode="&#xe4;" 
d="M1008 637l-105 317l-10 27l-21 14l-26 6l-23 -6l-20 -20l-121 -307l-6 -31l6 -25l23 -10l28 -4h129l96 -6l27 8l16 16zM1698 31l-15 -23l-22 -10l-27 -4h-28l-47 4l-31 2h-92l-127 -8l-27 10l-12 14l-74 195l-14 20l-19 5l-147 10h-33l-154 4l-122 2h-31l-31 -2h-94
l-27 -4l-16 -10l-12 -25l-47 -139l-13 -33l-22 -27l-31 -10h-33l-119 6h-32l-127 -8l-27 -2l-25 12l-16 23l2 26l4 17l230 526l12 31l55 115l86 196l117 248l102 242l11 22l20 12l31 7l94 4h160l94 -2l35 -7l22 -16l51 -137l52 -96l57 -129l49 -134l127 -284l41 -103
l139 -280l56 -129l41 -103zM1350 1759l-11 -28l-14 -25l-16 -23l-25 -18l-27 -16l-28 -13l-35 -8l-18 -2h-48l-26 6l-27 8l-26 13l-21 14l-41 45l-16 27l-8 26l-5 29v31l5 28l6 23l12 27l23 28l24 25l27 18l30 13l15 6l30 6h13l31 2l30 -4l13 -4l32 -8l29 -17l12 -8l23 -18
l16 -23l14 -33l11 -35l2 -28v-31zM725 1759l-10 -28l-15 -25l-16 -23l-25 -18l-26 -16l-29 -13l-35 -8l-18 -2h-47l-27 6l-26 8l-25 13l-23 14l-41 45l-16 27l-8 26l-4 29v31l4 28l6 23l12 27l23 28l24 25l27 18l45 19l31 6h12l31 2l31 -4l12 -4l33 -8l41 -25l22 -18l17 -23
l14 -33l10 -35l2 -28v-31z" />
    <glyph glyph-name="aring" unicode="&#xe5;" 
d="M1008 635l-105 317l-10 27l-21 14l-26 6l-23 -6l-20 -20l-121 -307l-6 -31l6 -25l23 -10l28 -4h129l96 -6l27 8l16 16zM770 1532l14 -21l19 -16l22 -10l21 -2l26 2l27 6l12 8l15 14l12 19l6 22v29l-6 25l-12 20l-17 14l-18 11l-23 4h-26l-23 -4l-24 -15l-21 -22l-10 -31
l-2 -29zM1698 29l-15 -23l-22 -10l-27 -4h-28l-47 4l-31 2h-92l-127 -8l-27 8l-12 16l-74 195l-14 20l-19 4l-24 3l-123 8h-33l-154 4l-122 2h-31l-31 -2h-94l-27 -4l-16 -11l-12 -24l-47 -139l-13 -33l-22 -27l-31 -12l-152 8h-32l-127 -8l-27 -2l-25 12l-16 23l2 26l4 17
l230 526l12 31l55 114l86 197l117 248l53 127l12 31l13 26l-4 27l-19 29l-14 32l-12 33l-11 45v55l7 31l10 31l4 16l16 33l51 70l21 18l41 27l31 16l30 10l45 11l29 6l29 2h32l35 -6l15 -2l73 -23l31 -14l68 -49l22 -23l27 -41l24 -66l7 -36v-19l2 -35l-2 -14l-2 -33l-5 -14
l-8 -33l-14 -31l-17 -28l-16 -19v-20l4 -17l12 -28l52 -96l57 -129l49 -134l127 -284l41 -103l139 -280l56 -129l41 -103z" />
    <glyph glyph-name="ae" unicode="&#xe6;" horiz-adv-x="2070" 
d="M999 1016l-20 4l-21 -19l-61 -118l-113 -238l-8 -20l-8 -17l2 -18l21 -6h167l21 6l4 16v27l2 51v35l8 186l4 35l9 51zM1919 66l2 -15l2 -24l-6 -17l-12 -6l-23 -2l-88 -6h-33l-162 -4h-32l-158 4l-152 8h-32l-97 -8h-32l-76 6l-25 4l-12 4l-4 19v59l4 98l2 25l-14 6h-154
l-106 4h-33l-133 -6l-15 -14l-63 -101l-43 -75l-12 -19l-23 -6l-33 -4l-30 -2l-220 2l-53 2h-28l-19 8l-6 12l8 21l66 100l71 135l154 263l86 125l18 28l54 107l98 159l68 97l18 28l55 105l80 131l96 149l11 9l20 2l12 2h31l96 -6l140 4l137 2h137l105 2h32l107 -8l33 2
l61 6h29l16 -2l23 -4l10 -13l4 -14l10 -123l4 -35l2 -51v-35l-2 -16l-6 -25l-10 -14l-12 -6l-25 -2l-119 8h-32l-117 -4h-176l-13 -8l-4 -17l-2 -24l-2 -140l2 -24l4 -12l15 -7l26 -2l105 7h32l107 -5h33l49 2l35 -2l18 -2l27 -4l16 -4l12 -12l7 -25l2 -16v-33l-4 -51
l-3 -35l3 -35l-3 -32l-4 -31l-6 -23l-10 -12l-35 -6l-18 -2l-33 -2l-53 4h-33l-107 -4h-34l-35 2l-68 -4l-24 -4l-17 -9l-8 -10l-4 -22l-6 -76v-33l4 -67l2 -21l4 -8l12 -6l23 -2h133l98 -4h156l51 4l33 -2h16l21 -7l6 -12v-24l4 -84v-33l-4 -70v-30z" />
    <glyph glyph-name="ccedilla" unicode="&#xe7;" horiz-adv-x="1505" 
d="M1411 186l-53 -49l-64 -47l-24 -16l-68 -37l-47 -23l-65 -20l-35 -6l-51 -11l-72 -8l-29 -2l-2 -4l-4 -14l6 -19l17 -2l20 -4l33 -10l33 -14l28 -17l29 -22l49 -49l16 -31l7 -27v-41l-2 -16l-7 -31l-6 -16l-10 -33l-14 -31l-19 -28l-59 -62l-27 -22l-28 -19l-48 -20
l-28 -10l-45 -9l-31 -2h-49l-33 2l-45 6l-31 7l-47 14l-28 12l-29 17l-25 18l-22 18l-37 37l-8 17v12l14 18l82 84l16 15l15 6l16 2l49 -23l15 -8l45 -12l30 -2l17 2l26 2l21 10l16 13l10 14l2 26l-8 25l-16 14l-27 15l-30 10l-27 6h-29l-24 -6l-23 -4l-16 4l-25 12l-20 17
l-11 14l-2 16l7 19l14 26l12 25l23 41l8 20h-4l-35 9l-31 10l-92 24l-45 17l-27 12l-38 23l-80 55l-54 45l-47 51l-41 60l-51 100l-45 127l-20 61l-4 31l-3 47l3 31l2 33v34l6 103l14 76l8 30l35 101l45 90l37 59l43 56l49 49l51 43l66 45l55 33l62 28l67 23l70 16l35 6
l34 4l64 4l45 5l31 -3l45 -2l76 -10l28 -6l47 -8l72 -21l29 -12l73 -43l140 -98l12 -10l14 -15l4 -16l-2 -17l-30 -38l-23 -23l-45 -39l-80 -88l-28 -27l-15 -6l-14 -2l-15 4l-22 13l-39 28l-27 15l-45 20l-28 10l-45 13l-31 6l-51 4h-33l-45 -4l-33 -8l-45 -15l-57 -22
l-41 -21l-29 -20l-39 -39l-33 -55l-14 -29l-12 -31l-10 -33l-7 -34l-4 -31l-4 -62v-32l2 -52l2 -30l11 -47l10 -31l14 -35l17 -31l30 -45l23 -24l39 -33l26 -19l41 -20l31 -12l45 -13l33 -6l49 -2h47l29 6l98 33l33 14l31 15l26 14l39 25l47 35l12 4l19 -4l22 -15l23 -20
l8 -13l21 -22l53 -66l55 -63l19 -25l10 -10l10 -18v-13z" />
    <glyph glyph-name="egrave" unicode="&#xe8;" horiz-adv-x="1431" 
d="M1276 193l-10 -144l-2 -20l-9 -15l-10 -8l-268 -8h-33l-108 8l-140 -10l-32 -2h-142l-106 8h-33l-176 -10l-70 4l-24 4l-15 10l-6 15l-4 22l-4 47l-2 33l2 31v30l8 109v33l2 108l-8 142l-2 32l4 111v174l8 109l-8 141l-2 33v49l4 61v31l6 106l2 29l6 17l11 8l16 2l27 4
l133 -8l125 2h33l122 -8h33l123 8h33l278 -4l35 2l70 6h51l29 -6l12 -11l4 -14l4 -27v-55l-4 -51v-35l2 -51l2 -31l-2 -30l-4 -25l-8 -14l-10 -9l-25 -4h-16l-33 -2l-193 4h-32l-105 -4h-33l-106 4l-92 6h-31l-16 -2l-21 -4l-10 -10l-6 -35l-4 -49v-33l2 -34l2 -23l4 -14
l8 -11l23 -6l65 -4l66 4h194l230 13l63 -4l23 -5l12 -10l6 -12l2 -23l4 -34l2 -35v-68l4 -47l-4 -61l-4 -25l-8 -14l-14 -11l-21 -4h-41l-92 11l-33 2l-164 -11l-131 4h-32l-82 7l-35 -2l-25 -2l-10 -7l-6 -14l-2 -31l-6 -51l-2 -33v-45l2 -20l6 -15l8 -8l22 -2l113 -4h33
l110 8l146 -8h33l145 8h31l31 -2l73 -8l13 -6l8 -12l2 -23zM766 1673l-14 -2h-33l-92 6l-62 -4h-33l-16 2l-27 4l-18 9l-176 206l-27 39l-8 27l8 16l27 6l18 3h35l96 -7l138 9l30 -2h17l26 -5l21 -12l14 -24l23 -48l20 -47l47 -88l15 -32l6 -29l-8 -19z" />
    <glyph glyph-name="eacute" unicode="&#xe9;" horiz-adv-x="1431" 
d="M1276 193l-10 -144l-2 -20l-9 -15l-10 -8l-268 -8h-33l-108 8l-140 -10l-32 -2h-142l-106 8h-33l-176 -10l-70 4l-24 4l-15 10l-6 15l-4 22l-4 47l-2 33l2 31v30l8 109v33l2 108l-8 142l-2 32l4 111v174l8 109l-8 141l-2 33v49l4 61v31l6 106l2 29l6 17l11 8l16 2l27 4
l133 -8l125 2h33l122 -8h33l123 8h33l278 -4l35 2l70 6h51l29 -6l12 -11l4 -14l4 -27v-55l-4 -51v-35l2 -51l2 -31l-2 -30l-4 -25l-8 -14l-10 -9l-25 -4h-16l-33 -2l-193 4h-32l-105 -4h-33l-106 4l-92 6h-31l-16 -2l-21 -4l-10 -10l-6 -35l-4 -49v-33l2 -34l2 -23l4 -14
l8 -11l23 -6l65 -4l66 4h194l230 13l63 -4l23 -5l12 -10l6 -12l2 -23l4 -34l2 -35v-68l4 -47l-4 -61l-4 -25l-8 -14l-14 -11l-21 -4h-41l-92 11l-33 2l-164 -11l-131 4h-32l-82 7l-35 -2l-25 -2l-10 -7l-6 -14l-2 -31l-6 -51l-2 -33v-45l2 -20l6 -15l8 -8l22 -2l113 -4h33
l110 8l146 -8h33l145 8h31l31 -2l73 -8l13 -6l8 -12l2 -23zM983 1939l-100 -131l-84 -102l-19 -20l-20 -11l-25 -4l-16 -2l-101 6h-151l-18 2l-7 2l-2 7v6l62 123l16 28l49 109l13 20l10 6h24l17 2h33l47 -2h30l97 2h30l45 5l58 -5l20 -6l4 -14z" />
    <glyph glyph-name="ecircumflex" unicode="&#xea;" horiz-adv-x="1431" 
d="M1276 193l-10 -144l-2 -20l-9 -15l-10 -8l-268 -8h-33l-108 8l-140 -10l-32 -2h-142l-106 8h-33l-176 -10l-70 4l-24 4l-15 10l-6 15l-4 22l-4 47l-2 33l2 31v30l8 109v33l2 108l-8 142l-2 32l4 111v174l8 109l-8 141l-2 33v49l4 61v31l6 106l2 29l6 17l11 8l16 2l27 4
l133 -8l125 2h33l122 -8h33l123 8h33l278 -4l35 2l70 6h51l29 -6l12 -11l4 -14l4 -27v-55l-4 -51v-35l2 -51l2 -31l-2 -30l-4 -25l-8 -14l-10 -9l-25 -4h-16l-33 -2l-193 4h-32l-105 -4h-33l-106 4l-92 6h-31l-16 -2l-21 -4l-10 -10l-6 -35l-4 -49v-33l2 -34l2 -23l4 -14
l8 -11l23 -6l65 -4l66 4h194l230 13l63 -4l23 -5l12 -10l6 -12l2 -23l4 -34l2 -35v-68l4 -47l-4 -61l-4 -25l-8 -14l-14 -11l-21 -4h-41l-92 11l-33 2l-164 -11l-131 4h-32l-82 7l-35 -2l-25 -2l-10 -7l-6 -14l-2 -31l-6 -51l-2 -33v-45l2 -20l6 -15l8 -8l22 -2l113 -4h33
l110 8l146 -8h33l145 8h31l31 -2l73 -8l13 -6l8 -12l2 -23zM1098 1683l-21 -6l-30 -2h-31l-68 4h-157l-21 4l-96 78l-17 13h-4l-88 -72l-16 -14l-8 -2h-150l-102 -9h-31l-29 2l-18 4l-6 13l2 12l12 14l8 13l90 90l103 98l43 45l55 49l12 8l17 5l26 2l66 4h31l78 -6h22l12 -5
l13 -8l114 -116l84 -74l99 -101l12 -16l2 -12z" />
    <glyph glyph-name="edieresis" unicode="&#xeb;" horiz-adv-x="1431" 
d="M1276 193l-10 -144l-2 -20l-9 -15l-10 -8l-268 -8h-33l-108 8l-140 -10l-32 -2h-142l-106 8h-33l-176 -10l-70 4l-24 4l-15 10l-6 15l-4 22l-4 47l-2 33l2 31v30l8 109v33l2 108l-8 142l-2 32l4 111v174l8 109l-8 141l-2 33v49l4 61v31l6 106l2 29l6 17l11 8l16 2l27 4
l133 -8l125 2h33l122 -8h33l123 8h33l278 -4l35 2l70 6h51l29 -6l12 -11l4 -14l4 -27v-55l-4 -51v-35l2 -51l2 -31l-2 -30l-4 -25l-8 -14l-10 -9l-25 -4h-16l-33 -2l-193 4h-32l-105 -4h-33l-106 4l-92 6h-31l-16 -2l-21 -4l-10 -10l-6 -35l-4 -49v-33l2 -34l2 -23l4 -14
l8 -11l23 -6l65 -4l66 4h194l230 13l63 -4l23 -5l12 -10l6 -12l2 -23l4 -34l2 -35v-68l4 -47l-4 -61l-4 -25l-8 -14l-14 -11l-21 -4h-41l-92 11l-33 2l-164 -11l-131 4h-32l-82 7l-35 -2l-25 -2l-10 -7l-6 -14l-2 -31l-6 -51l-2 -33v-45l2 -20l6 -15l8 -8l22 -2l113 -4h33
l110 8l146 -8h33l145 8h31l31 -2l73 -8l13 -6l8 -12l2 -23zM1153 1759l-10 -28l-15 -25l-16 -23l-25 -18l-26 -16l-29 -13l-35 -8l-18 -2h-47l-27 6l-26 8l-27 13l-21 14l-20 21l-20 24l-17 27l-8 26l-4 29v31l4 28l6 23l12 27l23 28l24 25l27 18l45 19l31 6h12l31 2l31 -4
l12 -4l33 -8l41 -25l22 -18l17 -23l14 -33l10 -35l2 -28v-31zM528 1759l-10 -28l-14 -25l-17 -23l-24 -18l-27 -16l-28 -13l-35 -8l-19 -2h-47l-26 6l-27 8l-25 13l-22 14l-21 21l-20 24l-16 27l-9 26l-4 29v31l4 28l6 23l13 27l22 28l25 25l26 18l46 19l30 6h13l30 2l31 -4
l12 -4l33 -8l29 -17l12 -8l23 -18l16 -23l14 -33l10 -35l3 -28v-31z" />
    <glyph glyph-name="igrave" unicode="&#xec;" horiz-adv-x="706" 
d="M510 289l-8 -111v-33l-2 -112v-23l-6 -12l-17 -4l-28 -2l-105 2h-127l-102 8l-13 4l-6 6v21l-4 51v33l-2 30v31l-6 111l8 143l2 33l-6 113v32l-2 111v176l-2 113v32l2 111v176l-4 113l6 22l12 9l21 2h16l31 2l49 -2h33l94 4h127l23 -4l4 -13l2 -22l4 -54l2 -32v-201
l2 -111v-32l-2 -113v-33l2 -110v-33l-4 -111v-178l6 -110v-33zM389 1673l-14 -2h-33l-92 6l-62 -4h-32l-17 2l-26 4l-19 9l-176 206l-18 27l-9 12l-8 27l8 16l27 6l19 3h34l97 -7l137 9l31 -2h16l27 -5l20 -12l14 -24l43 -95l47 -88l15 -32l6 -29l-8 -19z" />
    <glyph glyph-name="iacute" unicode="&#xed;" horiz-adv-x="706" 
d="M510 289l-8 -111v-33l-2 -112v-23l-6 -12l-17 -4l-28 -2l-105 2h-127l-102 8l-13 4l-6 6v21l-4 51v33l-2 30v31l-6 111l8 143l2 33l-6 113v32l-2 111v176l-2 113v32l2 111v176l-4 113l6 22l12 9l21 2h16l31 2l49 -2h33l94 4h127l23 -4l4 -13l2 -22l4 -54l2 -32v-201
l2 -111v-32l-2 -113v-33l2 -110v-33l-4 -111v-178l6 -110v-33zM606 1939l-100 -131l-84 -102l-19 -20l-20 -11l-25 -4l-16 -2l-100 6h-152l-18 2l-6 2l-3 7v6l62 123l16 28l49 109l13 20l10 6h25l16 2h33l47 -2h31l96 2h31l45 5l57 -5l20 -6l4 -14z" />
    <glyph glyph-name="icircumflex" unicode="&#xee;" horiz-adv-x="706" 
d="M510 289l-8 -111v-33l-2 -112v-23l-6 -12l-17 -4l-28 -2l-105 2h-127l-102 8l-13 4l-6 6v21l-4 51v33l-2 30v31l-6 111l8 143l2 33l-6 113v32l-2 111v176l-2 113v32l2 111v176l-4 113l6 22l12 9l21 2h16l31 2l49 -2h33l94 4h127l23 -4l4 -13l2 -22l4 -54l2 -32v-201
l2 -111v-32l-2 -113v-33l2 -110v-33l-4 -111v-178l6 -110v-33zM721 1683l-21 -6l-30 -2h-31l-68 4h-157l-21 4l-112 91h-5l-88 -72l-16 -14l-8 -2h-150l-102 -9h-31l-28 2l-19 4l-6 13l2 12l12 14l8 13l68 69l125 119l43 45l55 49l13 8l16 5l27 2l65 4h31l78 -6h22l13 -5
l12 -8l114 -116l84 -74l99 -101l12 -16l2 -12z" />
    <glyph glyph-name="idieresis" unicode="&#xef;" horiz-adv-x="706" 
d="M510 289l-8 -111v-33l-2 -112v-23l-6 -12l-17 -4l-28 -2l-105 2h-127l-102 8l-13 4l-6 6v21l-4 51v33l-2 30v31l-6 111l8 143l2 33l-6 113v32l-2 111v176l-2 113v32l2 111v176l-4 113l6 22l12 9l21 2h16l31 2l49 -2h33l94 4h127l23 -4l4 -13l2 -22l4 -54l2 -32v-201
l2 -111v-32l-2 -113v-33l2 -110v-33l-4 -111v-178l6 -110v-33zM776 1759l-10 -28l-14 -25l-17 -23l-24 -18l-27 -16l-29 -13l-34 -8l-19 -2h-47l-27 6l-26 8l-27 13l-20 14l-21 21l-20 24l-17 27l-8 26l-4 29v31l4 28l6 23l13 27l22 28l25 25l26 18l45 19l31 6h12l31 2
l31 -4l12 -4l33 -8l29 -17l12 -8l22 -18l17 -23l14 -33l10 -35l2 -28v-31zM152 1759l-11 -28l-14 -25l-16 -23l-25 -18l-27 -16l-28 -13l-35 -8l-19 -2h-47l-26 6l-27 8l-24 13l-23 14l-41 45l-16 27l-9 26l-4 29v31l4 28l7 23l12 27l22 28l25 25l27 18l30 13l15 6l30 6h13
l30 2l31 -4l12 -4l33 -8l29 -17l12 -8l23 -18l16 -23l14 -33l11 -35l2 -28v-31z" />
    <glyph glyph-name="eth" unicode="&#xf0;" horiz-adv-x="1703" 
d="M1133 551l16 41l6 29l8 45l2 28l2 47v64l-2 33l-6 47l-12 45l-17 31l-30 43l-53 55l-25 18l-45 27l-29 12l-28 6l-29 4l-92 7h-94l-62 -5l-20 -2l-17 -6l-10 -12l-6 -25l-2 -18l-2 -31l8 -121l4 -14l84 -2h33l92 -6l24 -2l17 -6l10 -11l4 -22l2 -16v-31l-4 -45v-31l2 -35
v-35l-4 -16l-2 -23l-6 -12l-16 -8l-25 -4l-59 -4l-105 4h-33l-16 -16l-4 -66l-2 -45l2 -33l4 -33l4 -22l6 -17l12 -10l25 -2l238 15l32 6l33 10l33 12l31 17l28 18l37 31l21 24l24 39zM1585 666l-2 -48l-6 -32l-61 -180l-13 -31l-22 -43l-17 -27l-28 -35l-21 -22l-35 -31
l-45 -45l-65 -55l-31 -19l-63 -30l-46 -17l-30 -10l-33 -8l-33 -6l-49 -11l-31 -4l-45 -4l-30 -2l-45 -4h-33l-66 2l-51 4h-35l-63 -4l-54 -4h-98l-53 2h-31l-28 -2l-91 6l-26 4l-17 8l-10 11l-4 22l-2 33l2 16l4 62v31l2 45v32l2 31v174l-6 109l-10 16l-27 -2l-33 -2h-28
l-23 4l-16 8l-10 10l-6 21v45l6 45l2 35l-4 51l2 35l4 22l6 15l12 8l62 -4l51 2l16 16l6 101v32l-2 109v33l-6 108v33l2 45l2 33l4 31l4 24l9 10l10 5l20 4l29 4l92 6h31l119 -2l131 -8l18 -2h35l86 4l31 2h33l51 -2l65 -4l150 -27l74 -27l92 -47l65 -47l27 -22l90 -86
l18 -23l37 -70l13 -30l10 -33l12 -33l10 -33l8 -32l21 -113l4 -33l2 -49l4 -70z" />
    <glyph glyph-name="ntilde" unicode="&#xf1;" horiz-adv-x="1681" 
d="M1473 1124v-303l6 -119v-32l4 -271v-34l-2 -17l-8 -133l2 -119l-2 -28l-9 -25l-16 -23l-21 -14l-18 -6l-29 -2l-104 -4l-33 -2l-51 -2h-33l-26 6l-25 10l-25 19l-18 26l-31 60l-18 26l-180 223l-91 134l-118 147l-76 100l-19 17l-14 -6l-6 -25l-4 -102v-33l2 -103v-32
l2 -115v-33l-6 -114l2 -33l12 -82l2 -33l-6 -27l-14 -14l-15 -4l-24 -4l-17 -2l-34 -2l-95 2h-32l-84 -4h-33l-31 2l-22 4l-17 10l-8 15l-4 20l-2 14v31l6 100l-6 109v33l4 250l8 141l2 33v141l-8 109v32l8 109l-10 143l-2 33v47l2 31l4 31l4 22l6 14l13 7l22 4l62 4l61 -4
h154l24 -2l11 -9l12 -18l86 -92l192 -248l21 -25l92 -127l98 -122l74 -103l16 -14l17 -2l14 10v23l-14 86l-2 32l6 88v33l-8 125v33l8 125l-2 33l-6 75v52l6 26l8 17l14 8l25 4h18l35 2l92 -6h33l70 4l30 -2l48 -2l22 -4l14 -7l13 -14l4 -29l2 -18l2 -35l-4 -63l-4 -33
l-6 -121zM1231 1831l-25 -45l-18 -29l-21 -22l-22 -19l-10 -8l-27 -16l-31 -15l-30 -10l-29 -6l-17 -2h-30l-31 2l-33 4l-49 12l-33 15l-18 6l-66 31l-49 12l-16 2h-29l-26 -8l-31 -19l-25 -24l-10 -15l-16 -14l-15 2l-186 117l-8 10l2 16l26 52l11 12l18 26l8 13l25 24
l26 21l52 29l16 8l29 10l12 2l29 6l14 2l31 2h30l29 -2l12 -2l33 -8l49 -18l15 -9l32 -14l50 -18l28 -7h13l28 2l17 3l30 14l27 20l8 13l19 14h12l174 -119l8 -10l-2 -16z" />
    <glyph glyph-name="ograve" unicode="&#xf2;" horiz-adv-x="1787" 
d="M1237 756l-4 67l-12 62l-9 28l-22 45l-16 27l-29 37l-51 55l-23 19l-53 30l-29 13l-33 10l-32 6l-66 4l-31 -2l-45 -2l-30 -6l-54 -14l-32 -13l-48 -24l-28 -19l-33 -28l-22 -25l-23 -31l-16 -26l-7 -13l-18 -43l-10 -30l-6 -15l-6 -28l-5 -29l-4 -59v-31l2 -33l7 -33
l2 -18l8 -31l4 -14l10 -29l35 -61l22 -29l37 -39l41 -35l29 -18l33 -16l30 -13l43 -14l31 -6l51 -6l35 -2l51 4l33 4l45 10l29 12l45 29l24 18l33 33l47 55l19 29l33 76l10 47l4 31l4 49v35zM1665 723l-4 -47l-4 -31l-12 -61l-5 -47l-4 -31l-6 -33l-8 -31l-20 -43l-70 -120
l-39 -54l-53 -57l-23 -21l-51 -38l-37 -25l-26 -16l-31 -17l-70 -28l-131 -39l-33 -9l-34 -8l-35 -6l-35 -2h-111l-69 4l-68 8l-29 6l-141 46l-33 10l-100 43l-31 16l-30 19l-27 20l-27 23l-47 53l-55 55l-41 51l-16 27l-17 41l-31 92l-12 43l-18 94l-6 45l-2 31l-3 35v35
l3 35l2 36l4 35l6 35l8 35l10 35l10 30l13 33l14 47l14 33l25 49l59 90l25 25l61 49l115 76l57 31l43 18l60 20l31 9l108 20l103 12l65 4l62 -4l49 -2l34 -4l35 -6l35 -8l35 -6l33 -8l61 -19l43 -16l29 -13l67 -38l54 -39l80 -76l47 -64l16 -26l14 -27l17 -27l22 -40l17 -27
l14 -31l10 -28l23 -109l4 -35l6 -35l4 -69zM950 1673l-14 -2h-33l-92 6l-61 -4h-33l-17 2l-26 4l-19 9l-120 143l-56 63l-26 39l-9 27l9 16l26 6l19 3h34l97 -7l137 9l31 -2h16l27 -5l20 -12l14 -24l58 -125l33 -58l14 -32l6 -29l-8 -19z" />
    <glyph glyph-name="oacute" unicode="&#xf3;" horiz-adv-x="1787" 
d="M1237 756l-4 67l-12 62l-9 28l-22 45l-16 27l-29 37l-51 55l-23 19l-53 30l-29 13l-33 10l-32 6l-66 4l-31 -2l-45 -2l-30 -6l-54 -14l-32 -13l-48 -24l-28 -19l-33 -28l-22 -25l-23 -31l-16 -26l-7 -13l-18 -43l-10 -30l-6 -15l-6 -28l-5 -29l-4 -59v-31l2 -33l7 -33
l2 -18l8 -31l4 -14l10 -29l35 -61l22 -29l37 -39l41 -35l29 -18l33 -16l30 -13l43 -14l31 -6l51 -6l35 -2l51 4l33 4l45 10l29 12l45 29l24 18l33 33l47 55l19 29l33 76l10 47l4 31l4 49v35zM1665 723l-4 -47l-4 -31l-12 -61l-5 -47l-4 -31l-6 -33l-8 -31l-20 -43l-70 -120
l-39 -54l-53 -57l-23 -21l-51 -38l-37 -25l-26 -16l-31 -17l-70 -28l-131 -39l-33 -9l-34 -8l-35 -6l-35 -2h-111l-69 4l-68 8l-29 6l-141 46l-33 10l-100 43l-31 16l-30 19l-27 20l-27 23l-47 53l-55 55l-41 51l-16 27l-17 41l-31 92l-12 43l-18 94l-6 45l-2 31l-3 35v35
l3 35l2 36l4 35l6 35l8 35l10 35l10 30l13 33l14 47l14 33l25 49l59 90l25 25l61 49l115 76l57 31l43 18l60 20l31 9l108 20l103 12l65 4l62 -4l49 -2l34 -4l35 -6l35 -8l35 -6l33 -8l61 -19l43 -16l29 -13l67 -38l54 -39l80 -76l47 -64l16 -26l14 -27l17 -27l22 -40l17 -27
l14 -31l10 -28l23 -109l4 -35l6 -35l4 -69zM1167 1939l-100 -131l-84 -102l-18 -20l-21 -11l-24 -4l-17 -2l-100 6h-152l-18 2l-6 2l-2 7v6l61 123l16 28l50 109l12 20l10 6h25l16 2h33l47 -2h31l96 2h31l45 5l57 -5l21 -6l4 -14z" />
    <glyph glyph-name="ocircumflex" unicode="&#xf4;" horiz-adv-x="1787" 
d="M1237 756l-4 67l-12 62l-9 28l-22 45l-16 27l-29 37l-51 55l-23 19l-53 30l-29 13l-33 10l-32 6l-66 4l-31 -2l-45 -2l-30 -6l-54 -14l-32 -13l-48 -24l-28 -19l-33 -28l-22 -25l-23 -31l-16 -26l-7 -13l-18 -43l-10 -30l-6 -15l-6 -28l-5 -29l-4 -59v-31l2 -33l7 -33
l2 -18l8 -31l4 -14l10 -29l35 -61l22 -29l37 -39l41 -35l29 -18l33 -16l30 -13l43 -14l31 -6l51 -6l35 -2l51 4l33 4l45 10l29 12l45 29l24 18l33 33l47 55l19 29l33 76l10 47l4 31l4 49v35zM1665 723l-4 -47l-4 -31l-12 -61l-5 -47l-4 -31l-6 -33l-8 -31l-20 -43l-70 -120
l-39 -54l-53 -57l-23 -21l-51 -38l-37 -25l-26 -16l-31 -17l-70 -28l-131 -39l-33 -9l-34 -8l-35 -6l-35 -2h-111l-69 4l-68 8l-29 6l-141 46l-33 10l-100 43l-31 16l-30 19l-27 20l-27 23l-47 53l-55 55l-41 51l-16 27l-17 41l-31 92l-12 43l-18 94l-6 45l-2 31l-3 35v35
l3 35l2 36l4 35l6 35l8 35l10 35l10 30l13 33l14 47l14 33l25 49l59 90l25 25l61 49l115 76l57 31l43 18l60 20l31 9l108 20l103 12l65 4l62 -4l49 -2l34 -4l35 -6l35 -8l35 -6l33 -8l61 -19l43 -16l29 -13l67 -38l54 -39l80 -76l47 -64l16 -26l14 -27l17 -27l22 -40l17 -27
l14 -31l10 -28l23 -109l4 -35l6 -35l4 -69zM1282 1683l-20 -6l-31 -2h-31l-67 4h-158l-21 4l-112 91h-4l-105 -86l-8 -2h-150l-102 -9h-31l-28 2l-19 4l-6 13l2 12l12 14l9 13l67 69l125 119l43 45l55 49l13 8l16 5l27 2l65 4h31l78 -6h22l13 -5l12 -8l115 -116l84 -74
l98 -101l12 -16l2 -12z" />
    <glyph glyph-name="otilde" unicode="&#xf5;" horiz-adv-x="1787" 
d="M1237 756l-4 67l-12 62l-9 28l-22 45l-16 27l-29 37l-51 55l-23 19l-53 30l-29 13l-33 10l-32 6l-66 4l-31 -2l-45 -2l-30 -6l-54 -14l-32 -13l-48 -24l-28 -19l-33 -28l-22 -25l-23 -31l-16 -26l-7 -13l-18 -43l-10 -30l-6 -15l-6 -28l-5 -29l-4 -59v-31l2 -33l7 -33
l2 -18l8 -31l4 -14l10 -29l35 -61l22 -29l37 -39l41 -35l29 -18l33 -16l30 -13l43 -14l31 -6l51 -6l35 -2l51 4l33 4l45 10l29 12l45 29l24 18l33 33l47 55l19 29l33 76l10 47l4 31l4 49v35zM1665 723l-4 -47l-4 -31l-12 -61l-5 -47l-4 -31l-6 -33l-8 -31l-20 -43l-70 -120
l-39 -54l-53 -57l-23 -21l-51 -38l-37 -25l-26 -16l-31 -17l-70 -28l-131 -39l-33 -9l-34 -8l-35 -6l-35 -2h-111l-69 4l-68 8l-29 6l-141 46l-33 10l-100 43l-31 16l-30 19l-27 20l-27 23l-47 53l-55 55l-41 51l-16 27l-17 41l-31 92l-12 43l-18 94l-6 45l-2 31l-3 35v35
l3 35l2 36l4 35l6 35l8 35l10 35l10 30l13 33l14 47l14 33l25 49l59 90l25 25l61 49l115 76l57 31l43 18l60 20l31 9l108 20l103 12l65 4l62 -4l49 -2l34 -4l35 -6l35 -8l35 -6l33 -8l61 -19l43 -16l29 -13l67 -38l54 -39l80 -76l47 -64l16 -26l14 -27l17 -27l22 -40l17 -27
l14 -31l10 -28l23 -109l4 -35l6 -35l4 -69zM1270 1831l-25 -45l-18 -29l-21 -22l-22 -19l-10 -8l-27 -16l-31 -15l-31 -10l-28 -6l-17 -2h-30l-31 2l-33 4l-49 12l-33 15l-18 6l-66 31l-49 12l-16 2h-29l-27 -8l-30 -19l-25 -24l-10 -15l-16 -14l-15 2l-186 117l-8 10l2 16
l26 52l11 12l18 26l8 13l25 24l26 21l52 29l16 8l29 10l12 2l29 6l14 2l31 2h30l29 -2l12 -2l33 -8l49 -18l15 -9l32 -14l50 -18l28 -7h12l29 2l17 3l30 14l27 20l8 13l18 14h13l174 -119l8 -10l-2 -16z" />
    <glyph glyph-name="odieresis" unicode="&#xf6;" horiz-adv-x="1787" 
d="M1237 756l-4 67l-12 62l-9 28l-22 45l-16 27l-29 37l-51 55l-23 19l-53 30l-29 13l-33 10l-32 6l-66 4l-31 -2l-45 -2l-30 -6l-54 -14l-32 -13l-48 -24l-28 -19l-33 -28l-22 -25l-23 -31l-16 -26l-7 -13l-18 -43l-10 -30l-6 -15l-6 -28l-5 -29l-4 -59v-31l2 -33l7 -33
l2 -18l8 -31l4 -14l10 -29l35 -61l22 -29l37 -39l41 -35l29 -18l33 -16l30 -13l43 -14l31 -6l51 -6l35 -2l51 4l33 4l45 10l29 12l45 29l24 18l33 33l47 55l19 29l33 76l10 47l4 31l4 49v35zM1665 723l-4 -47l-4 -31l-12 -61l-5 -47l-4 -31l-6 -33l-8 -31l-20 -43l-70 -120
l-39 -54l-53 -57l-23 -21l-51 -38l-37 -25l-26 -16l-31 -17l-70 -28l-131 -39l-33 -9l-34 -8l-35 -6l-35 -2h-111l-69 4l-68 8l-29 6l-141 46l-33 10l-100 43l-31 16l-30 19l-27 20l-27 23l-47 53l-55 55l-41 51l-16 27l-17 41l-31 92l-12 43l-18 94l-6 45l-2 31l-3 35v35
l3 35l2 36l4 35l6 35l8 35l10 35l10 30l13 33l14 47l14 33l25 49l59 90l25 25l61 49l115 76l57 31l43 18l60 20l31 9l108 20l103 12l65 4l62 -4l49 -2l34 -4l35 -6l35 -8l35 -6l33 -8l61 -19l43 -16l29 -13l67 -38l54 -39l80 -76l47 -64l16 -26l14 -27l17 -27l22 -40l17 -27
l14 -31l10 -28l23 -109l4 -35l6 -35l4 -69zM1337 1759l-10 -28l-14 -25l-17 -23l-24 -18l-27 -16l-28 -13l-35 -8l-19 -2h-47l-26 6l-27 8l-27 13l-20 14l-21 21l-20 24l-17 27l-8 26l-4 29v31l4 28l6 23l13 27l22 28l25 25l26 18l45 19l31 6h12l31 2l31 -4l12 -4l33 -8
l29 -17l12 -8l22 -18l17 -23l14 -33l10 -35l2 -28v-31zM713 1759l-11 -28l-14 -25l-16 -23l-25 -18l-26 -16l-29 -13l-35 -8l-18 -2h-47l-27 6l-27 8l-24 13l-23 14l-41 45l-16 27l-8 26l-4 29v31l4 28l6 23l12 27l23 28l24 25l27 18l45 19l31 6h12l31 2l30 -4l13 -4l32 -8
l29 -17l12 -8l23 -18l16 -23l15 -33l10 -35l2 -28v-31z" />
    <glyph glyph-name="divide" unicode="&#xf7;" horiz-adv-x="1187" 
d="M743 215l-16 -33l-22 -26l-29 -25l-33 -16l-37 -13l-37 -6l-34 -2l-13 2l-33 4l-34 13l-35 16l-29 25l-24 28l-17 33l-10 33v55l10 33l19 33l24 28l29 25l33 20l34 15l33 6l13 2h34l37 -8l37 -15l33 -20l29 -25l22 -26l16 -35l9 -33v-55zM1036 618l-8 -26l-18 -14l-27 -7
l-47 -2l-31 -2l-196 6h-111l-119 -4h-184l-47 2h-107l-47 4l-24 5l-13 14l-6 24l-4 31l-2 31l2 31l-4 61v31l2 31l6 26l17 17l26 6l47 2l31 -2l45 -2l33 -2l119 4h32l121 -9h31l47 5l31 2l45 2h31l47 -2l28 -2l47 -5l31 3l45 2l31 2h47l27 -4l14 -19l6 -27l4 -59l-2 -31
l6 -92zM575 979l-16 -4h-24l-13 2l-33 4l-36 12l-33 17l-29 24l-24 29l-17 33l-10 32v58l10 33l21 32l22 27l29 25l33 18l34 14l33 8h47l37 -6l37 -14l33 -20l29 -25l22 -27l16 -32l9 -33v-58l-9 -32l-16 -33l-22 -27l-29 -24l-33 -19l-37 -12l-22 -4l-2 2h-7z" />
    <glyph glyph-name="oslash" unicode="&#xf8;" horiz-adv-x="1785" 
d="M1249 756l-2 35l-18 94l-10 28l-23 48h-14l-402 -619l6 -16l48 -2h32l35 2l47 8l31 8l59 23l27 16l51 37l23 22l35 41l45 86l10 31l12 53l6 35l2 35v35zM772 903l74 94l86 133l-8 17l-50 2l-12 4h-31l-49 -6l-30 -6l-76 -27l-39 -20l-27 -17l-41 -33l-49 -57l-16 -29
l-21 -47l-12 -32l-10 -35l-6 -37l-6 -51v-35l2 -35l16 -78l10 -28l12 -27l11 -31l10 -20l16 10l64 100l86 127l78 135zM1673 719l-2 -17l-2 -36l-6 -52l-6 -34l-8 -33l-25 -72l-12 -31l-10 -34l-13 -33l-14 -31l-16 -29l-62 -90l-45 -45l-141 -100l-39 -23l-64 -28l-168 -54
l-67 -12l-35 -2h-37l-35 -2h-35l-30 2h-35l-35 2l-35 4l-98 19h-27l-20 -15l-19 -22l-8 -14l-20 -27l-31 -35l-20 -25l-27 -14l-64 -4l-30 2h-33l-78 -6l-35 2l-16 2l-27 10l-10 13l-4 12l2 14l6 25l19 41l100 149l16 27v20l-18 21l-35 35l-20 24l-80 121l-17 29l-28 61
l-17 45l-10 33l-10 45l-6 33l-6 53l-5 78l3 33l8 49l6 31l6 28l10 74l6 31l7 32l20 64l12 31l19 39l16 28l31 45l22 29l66 72l47 43l61 43l27 16l62 31l34 14l99 33l108 22l29 4l61 5h86l72 -5l70 -8l34 -6l33 -8l35 -10l25 -2l12 6l82 108l22 19l27 8l53 4l64 4h32l78 -6
l31 -4l25 -12l16 -21l4 -20l-14 -25l-123 -180l-10 -23l4 -14l63 -74l33 -43l45 -71l35 -70l10 -31l8 -35l6 -34l7 -52l18 -106l8 -53z" />
    <glyph glyph-name="ugrave" unicode="&#xf9;" horiz-adv-x="1646" 
d="M1464 655l-2 -30l-2 -47l-4 -31l-22 -129l-9 -31l-26 -72l-19 -43l-14 -28l-27 -41l-20 -27l-25 -26l-67 -56l-68 -43l-69 -35l-76 -26l-31 -8l-78 -15l-63 -4h-94l-48 4l-30 2l-113 13l-33 6l-18 2l-33 10l-49 20l-45 21l-31 18l-31 21l-53 45l-22 22l-45 60l-52 82
l-16 30l-27 64l-16 59l-14 80l-4 35l-5 70l-2 32l7 125v33l-5 125v33l7 125v190l-4 66v35l2 34l6 33l14 19l27 6l67 4l78 -6h33l67 2l31 -2l47 -2l27 -6l16 -17l6 -26l2 -29v-31l-4 -80v-33l7 -124v-33l-3 -125v-33l-6 -125v-33l-2 -125l2 -32l4 -52l7 -32l12 -45l12 -31
l21 -47l20 -25l33 -35l26 -16l46 -16l30 -9l54 -4h32l54 11l30 8l39 18l27 17l33 28l20 25l23 43l14 31l10 32l6 33l8 62l3 32l-9 125v33l6 127v33l5 125v32l-5 127l-8 119v51l8 29l19 17l27 6h43l104 -9h33l82 7h32l31 -2l27 -7l16 -14l2 -24l2 -62v-31l-2 -47v-33l6 -127
v-32l-4 -125v-33l-8 -127zM897 1673l-14 -2h-33l-92 6l-62 -4h-32l-17 2l-26 4l-19 9l-176 206l-18 27l-9 12l-8 27l8 16l27 6l18 3h35l96 -7l138 9l30 -2h17l26 -5l21 -12l14 -24l23 -48l20 -47l47 -88l15 -32l6 -29l-8 -19z" />
    <glyph glyph-name="uacute" unicode="&#xfa;" horiz-adv-x="1646" 
d="M1464 655l-2 -30l-2 -47l-4 -31l-22 -129l-9 -31l-26 -72l-19 -43l-14 -28l-27 -41l-20 -27l-25 -26l-67 -56l-68 -43l-69 -35l-76 -26l-31 -8l-78 -15l-63 -4h-94l-48 4l-30 2l-113 13l-33 6l-18 2l-33 10l-49 20l-45 21l-31 18l-31 21l-53 45l-22 22l-45 60l-52 82
l-16 30l-27 64l-16 59l-14 80l-4 35l-5 70l-2 32l7 125v33l-5 125v33l7 125v190l-4 66v35l2 34l6 33l14 19l27 6l67 4l78 -6h33l67 2l31 -2l47 -2l27 -6l16 -17l6 -26l2 -29v-31l-4 -80v-33l7 -124v-33l-3 -125v-33l-6 -125v-33l-2 -125l2 -32l4 -52l7 -32l12 -45l12 -31
l21 -47l20 -25l33 -35l26 -16l46 -16l30 -9l54 -4h32l54 11l30 8l39 18l27 17l33 28l20 25l23 43l14 31l10 32l6 33l8 62l3 32l-9 125v33l6 127v33l5 125v32l-5 127l-8 119v51l8 29l19 17l27 6h43l104 -9h33l82 7h32l31 -2l27 -7l16 -14l2 -24l2 -62v-31l-2 -47v-33l6 -127
v-32l-4 -125v-33l-8 -127zM1114 1939l-100 -131l-84 -102l-19 -20l-20 -11l-25 -4l-16 -2l-100 6h-152l-18 2l-7 2l-2 7v6l62 123l16 28l49 109l13 20l10 6h24l17 2h33l47 -2h30l97 2h30l45 5l58 -5l20 -6l4 -14z" />
    <glyph glyph-name="ucircumflex" unicode="&#xfb;" horiz-adv-x="1646" 
d="M1464 655l-2 -30l-2 -47l-4 -31l-22 -129l-9 -31l-26 -72l-19 -43l-14 -28l-27 -41l-20 -27l-25 -26l-67 -56l-68 -43l-69 -35l-76 -26l-31 -8l-78 -15l-63 -4h-94l-48 4l-30 2l-113 13l-33 6l-18 2l-33 10l-49 20l-45 21l-31 18l-31 21l-53 45l-22 22l-45 60l-52 82
l-16 30l-27 64l-16 59l-14 80l-4 35l-5 70l-2 32l7 125v33l-5 125v33l7 125v190l-4 66v35l2 34l6 33l14 19l27 6l67 4l78 -6h33l67 2l31 -2l47 -2l27 -6l16 -17l6 -26l2 -29v-31l-4 -80v-33l7 -124v-33l-3 -125v-33l-6 -125v-33l-2 -125l2 -32l4 -52l7 -32l12 -45l12 -31
l21 -47l20 -25l33 -35l26 -16l46 -16l30 -9l54 -4h32l54 11l30 8l39 18l27 17l33 28l20 25l23 43l14 31l10 32l6 33l8 62l3 32l-9 125v33l6 127v33l5 125v32l-5 127l-8 119v51l8 29l19 17l27 6h43l104 -9h33l82 7h32l31 -2l27 -7l16 -14l2 -24l2 -62v-31l-2 -47v-33l6 -127
v-32l-4 -125v-33l-8 -127zM1229 1683l-21 -6l-30 -2h-31l-68 4h-157l-21 4l-96 78l-17 13h-4l-88 -72l-16 -14l-8 -2h-150l-102 -9h-31l-29 2l-18 4l-6 13l2 12l12 14l8 13l68 69l125 119l43 45l55 49l13 8l16 5l27 2l65 4h31l78 -6h22l12 -5l13 -8l114 -116l84 -74l99 -101
l12 -16l2 -12z" />
    <glyph glyph-name="udieresis" unicode="&#xfc;" horiz-adv-x="1646" 
d="M1464 655l-2 -30l-2 -47l-4 -31l-22 -129l-9 -31l-26 -72l-19 -43l-14 -28l-27 -41l-20 -27l-25 -26l-67 -56l-68 -43l-69 -35l-76 -26l-31 -8l-78 -15l-63 -4h-94l-48 4l-30 2l-113 13l-33 6l-18 2l-33 10l-49 20l-45 21l-31 18l-31 21l-53 45l-22 22l-45 60l-52 82
l-16 30l-27 64l-16 59l-14 80l-4 35l-5 70l-2 32l7 125v33l-5 125v33l7 125v190l-4 66v35l2 34l6 33l14 19l27 6l67 4l78 -6h33l67 2l31 -2l47 -2l27 -6l16 -17l6 -26l2 -29v-31l-4 -80v-33l7 -124v-33l-3 -125v-33l-6 -125v-33l-2 -125l2 -32l4 -52l7 -32l12 -45l12 -31
l21 -47l20 -25l33 -35l26 -16l46 -16l30 -9l54 -4h32l54 11l30 8l39 18l27 17l33 28l20 25l23 43l14 31l10 32l6 33l8 62l3 32l-9 125v33l6 127v33l5 125v32l-5 127l-8 119v51l8 29l19 17l27 6h43l104 -9h33l82 7h32l31 -2l27 -7l16 -14l2 -24l2 -62v-31l-2 -47v-33l6 -127
v-32l-4 -125v-33l-8 -127zM1284 1759l-10 -28l-14 -25l-17 -23l-24 -18l-27 -16l-29 -13l-35 -8l-18 -2h-47l-27 6l-26 8l-27 13l-20 14l-21 21l-20 24l-17 27l-8 26l-4 29v31l4 28l6 23l12 27l23 28l25 25l26 18l45 19l31 6h12l31 2l31 -4l12 -4l33 -8l41 -25l22 -18
l17 -23l14 -33l10 -35l2 -28v-31zM659 1759l-10 -28l-14 -25l-17 -23l-24 -18l-27 -16l-28 -13l-35 -8l-19 -2h-47l-26 6l-27 8l-25 13l-22 14l-21 21l-20 24l-16 27l-9 26l-4 29v31l4 28l7 23l12 27l22 28l25 25l27 18l30 13l15 6l30 6h13l30 2l31 -4l12 -4l33 -8l29 -17
l12 -8l23 -18l16 -23l14 -33l11 -35l2 -28v-31z" />
    <glyph glyph-name="yacute" unicode="&#xfd;" horiz-adv-x="1638" 
d="M1563 1456l-160 -235l-109 -148l-57 -100l-168 -246l-88 -121l-8 -16v-166l8 -111l-10 -143v-33l8 -86l2 -28l-6 -17l-8 -8l-19 -4h-135l-240 8l-8 6l-4 21v252l-10 143l-2 33l8 110l-4 19l-14 14l-56 98l-18 29l-66 92l-94 156l-143 217l-154 252l-6 18l2 11l12 8h275
l151 -8l23 -3l8 -6l59 -102l95 -145l53 -95l74 -116l14 -19l12 -4l15 14l51 99l100 143l51 96l74 123l16 21l17 4l22 -2l103 -6h33l118 6h33l117 -8l24 -5l11 -4zM1118 1939l-100 -131l-84 -102l-19 -20l-20 -11l-25 -4l-16 -2l-100 6h-152l-18 2l-6 2l-3 7v6l62 123l16 28
l49 109l13 20l10 6h25l16 2h33l47 -2h31l96 2h31l45 5l57 -5l20 -6l4 -14z" />
    <glyph glyph-name="thorn" unicode="&#xfe;" horiz-adv-x="1501" 
d="M958 686l7 31v31l-7 30l-14 31l-22 27l-37 32l-31 15l-45 12l-33 4l-16 -2l-33 -2l-49 -2h-33l-51 2h-33l-41 -6l-14 -12l-4 -27l2 -37l8 -63l2 -33v-99l2 -26l6 -19l23 -6h30l70 11l33 2l98 -5l33 3l31 4l28 10l31 16l25 23l20 26zM1380 723l-2 -45l-2 -31l-6 -35
l-27 -80l-14 -28l-18 -29l-45 -61l-23 -25l-55 -45l-39 -27l-29 -18l-55 -29l-64 -20l-81 -17l-35 -4l-35 -2l-168 -6l-33 2l-61 8h-33l-27 -6l-14 -16l-4 -29l6 -94l-2 -31v-14l-8 -25l-17 -12l-28 -4l-47 -4l-33 -2l-64 4h-32l-62 -2l-33 2l-49 4l-28 4l-19 12l-10 25v51
l4 62v172l6 108v33l-8 109v32l8 109v33l-6 108v141l2 33l10 109v33l-8 108l-4 33l-2 53v31l2 29l10 28l19 17l26 2l144 4h32l173 -13l18 -14l8 -27v-34l-10 -101l-4 -26l2 -19l14 -8h29l86 10h33l108 -8l33 -2l47 4h33l33 -2l32 -6l45 -14l62 -23l88 -45l27 -18l10 -11
l24 -18l43 -45l29 -41l21 -27l18 -26l37 -70l10 -33l6 -35l4 -32l2 -45v-29z" />
    <glyph glyph-name="ydieresis" unicode="&#xff;" horiz-adv-x="1638" 
d="M1563 1456l-160 -235l-109 -148l-57 -100l-168 -246l-88 -121l-8 -16v-166l8 -111l-10 -143v-33l8 -86l2 -28l-6 -17l-8 -8l-19 -4h-135l-240 8l-8 6l-4 21v252l-10 143l-2 33l8 110l-4 19l-14 14l-56 98l-18 29l-66 92l-94 156l-143 217l-154 252l-6 18l2 11l12 8h275
l151 -8l23 -3l8 -6l59 -102l95 -145l53 -95l74 -116l14 -19l12 -4l15 14l51 99l100 143l51 96l74 123l16 21l17 4l22 -2l103 -6h33l118 6h33l117 -8l24 -5l11 -4zM1288 1759l-10 -28l-14 -25l-17 -23l-24 -18l-27 -16l-29 -13l-34 -8l-19 -2h-47l-27 6l-26 8l-27 13l-20 14
l-21 21l-20 24l-17 27l-8 26l-4 29v31l4 28l6 23l13 27l22 28l25 25l26 18l45 19l31 6h12l31 2l31 -4l12 -4l33 -8l29 -17l12 -8l22 -18l17 -23l14 -33l10 -35l2 -28v-31zM664 1759l-11 -28l-14 -25l-16 -23l-25 -18l-27 -16l-28 -13l-35 -8l-19 -2h-47l-26 6l-27 8l-24 13
l-23 14l-41 45l-16 27l-9 26l-4 29v31l4 28l7 23l12 27l22 28l25 25l27 18l30 13l15 6l30 6h13l30 2l31 -4l12 -4l33 -8l29 -17l12 -8l23 -18l16 -23l14 -33l11 -35l2 -28v-31z" />
    <glyph glyph-name="Amacron" unicode="&#x100;" 
d="M1008 635l-105 317l-10 27l-21 14l-26 6l-23 -6l-20 -20l-121 -307l-6 -31l6 -25l23 -10l28 -4h129l96 -6l27 8l16 16zM1698 29l-15 -23l-22 -10l-27 -4h-28l-47 4l-31 2h-92l-127 -8l-27 8l-12 16l-74 195l-14 20l-19 4l-24 3l-123 8h-33l-154 4l-122 2h-31l-31 -2h-94
l-27 -4l-16 -11l-12 -24l-47 -139l-13 -33l-22 -27l-31 -12l-152 8h-32l-127 -8l-27 -2l-25 12l-16 23l2 26l4 17l230 526l12 31l55 114l86 197l117 248l102 242l11 22l20 12l31 7l94 4h160l94 -2l35 -7l22 -16l51 -137l52 -96l57 -129l49 -134l127 -284l41 -103l139 -280
l56 -129l41 -103zM1225 1741l-2 -23l-4 -24l-11 -15l-12 -8l-27 -4l-18 -2h-33l-61 4h-33l-260 4h-33l-115 -2l-100 -6h-33l-14 2l-23 4l-12 8l-8 17l-4 26l-2 17v35l2 34v33l-2 35v35l4 18l4 27l6 14l12 8h23l115 -2h32l115 9h33l145 -3l115 -4l98 7h33l16 -3l25 -4l14 -10
l9 -14l2 -19l4 -20l-6 -74v-31z" />
    <glyph glyph-name="amacron" unicode="&#x101;" 
d="M1008 637l-105 317l-10 27l-21 14l-26 6l-23 -6l-20 -20l-121 -307l-6 -31l6 -25l23 -10l28 -4h129l96 -6l27 8l16 16zM1698 31l-15 -23l-22 -10l-27 -4h-28l-47 4l-31 2h-92l-127 -8l-27 10l-12 14l-74 195l-14 20l-19 5l-147 10h-33l-154 4l-122 2h-31l-31 -2h-94
l-27 -4l-16 -10l-12 -25l-47 -139l-13 -33l-22 -27l-31 -10h-33l-119 6h-32l-127 -8l-27 -2l-25 12l-16 23l2 26l4 17l230 526l12 31l55 115l86 196l117 248l102 242l11 22l20 12l31 7l94 4h160l94 -2l35 -7l22 -16l51 -137l52 -96l57 -129l49 -134l127 -284l41 -103
l139 -280l56 -129l41 -103zM1227 1741l-2 -23l-4 -24l-11 -15l-12 -8l-27 -4l-18 -2h-33l-61 4h-33l-260 4h-33l-115 -2l-100 -6h-33l-14 2l-22 4l-13 8l-8 17l-4 26l-2 17v35l2 34v33l-2 35v35l4 18l4 27l6 14l13 8h22l115 -2h32l115 9h33l145 -3l115 -4l98 7h33l41 -7
l14 -10l9 -14l2 -19l4 -20l-6 -74v-31z" />
    <glyph glyph-name="Abreve" unicode="&#x102;" 
d="M1008 635l-105 317l-10 27l-21 14l-26 6l-23 -6l-20 -20l-121 -307l-6 -31l6 -25l23 -10l28 -4h129l96 -6l27 8l16 16zM1698 29l-15 -23l-22 -10l-27 -4h-28l-47 4l-31 2h-92l-127 -8l-27 8l-12 16l-74 195l-14 20l-19 4l-24 3l-123 8h-33l-154 4l-122 2h-31l-31 -2h-94
l-27 -4l-16 -11l-12 -24l-47 -139l-13 -33l-22 -27l-31 -12l-152 8h-32l-127 -8l-27 -2l-25 12l-16 23l2 26l4 17l230 526l12 31l55 114l86 197l117 248l102 242l11 22l20 12l31 7l94 4h160l94 -2l35 -7l22 -16l51 -137l52 -96l57 -129l49 -134l127 -284l41 -103l139 -280
l56 -129l41 -103zM1210 1954l-10 -45l-10 -29l-12 -31l-19 -32l-35 -41l-69 -58l-47 -26l-19 -9l-35 -10l-39 -8h-16l-35 -2l-18 -2h-33l-14 2l-33 2h-18l-33 6l-15 2l-34 13l-33 14l-17 8l-28 18l-49 41l-23 25l-31 43l-20 45l-6 18l-13 50l-2 30l-2 17l2 18l9 4l12 4h20
l13 2h30l45 -4h33l53 4h33l23 -2h12l10 -8l4 -14l4 -19l9 -16l20 -20l14 -7l15 -4l16 -2h27l24 8l17 11l12 14l8 16l4 13l2 10l5 10l10 6l18 2l86 2h31l125 -4h12l10 -6l4 -24z" />
    <glyph glyph-name="abreve" unicode="&#x103;" 
d="M1008 637l-105 317l-10 27l-21 14l-26 6l-23 -6l-20 -20l-121 -307l-6 -31l6 -25l23 -10l28 -4h129l96 -6l27 8l16 16zM1698 31l-15 -23l-22 -10l-27 -4h-28l-47 4l-31 2h-92l-127 -8l-27 10l-12 14l-74 195l-14 20l-19 5l-147 10h-33l-154 4l-122 2h-31l-31 -2h-94
l-27 -4l-16 -10l-12 -25l-47 -139l-13 -33l-22 -27l-31 -10h-33l-119 6h-32l-127 -8l-27 -2l-25 12l-16 23l2 26l4 17l230 526l12 31l55 115l86 196l117 248l102 242l11 22l20 12l31 7l94 4h160l94 -2l35 -7l22 -16l51 -137l52 -96l57 -129l49 -134l127 -284l41 -103
l139 -280l56 -129l41 -103zM1212 1954l-10 -45l-10 -29l-12 -31l-19 -32l-35 -41l-69 -58l-47 -26l-19 -9l-35 -10l-38 -8h-17l-35 -2l-18 -2h-33l-14 2l-33 2h-18l-33 6l-15 2l-34 13l-33 14l-17 8l-28 18l-49 41l-23 25l-31 43l-20 45l-6 18l-12 50l-3 30l-2 17l2 18l9 4
l12 4h20l13 2h30l45 -4h33l54 4h32l23 -2h12l10 -8l9 -33l8 -16l20 -20l15 -7l14 -4l16 -2h27l24 8l17 11l12 14l8 16l4 13l2 10l5 10l10 6l18 2l86 2h31l125 -4h12l10 -6l5 -24z" />
    <glyph glyph-name="Aogonek" unicode="&#x104;" 
d="M1008 635l-105 317l-10 27l-21 14l-26 6l-23 -6l-20 -20l-121 -307l-6 -31l6 -25l23 -10l28 -4h129l96 -6l27 8l16 16zM1741 -408l-15 -10l-18 -10l-22 -10l-29 -11l-12 -6l-29 -8l-12 -2l-29 -8l-31 -6l-31 -4l-47 -2l-30 -2l-35 2l-35 4l-33 6l-35 10l-36 14l-50 31
l-24 25l-19 26l-8 13l-14 30l-4 19l-8 31l-2 30v15l4 28l2 17l12 30l14 29l6 14l46 54l22 22l23 19l12 8l-8 22l-6 25l-64 172l-14 20l-19 4l-24 3l-123 8h-33l-154 4l-122 2h-31l-31 -2h-94l-27 -4l-16 -11l-12 -24l-47 -139l-13 -33l-22 -27l-31 -12l-152 8h-32l-127 -8
l-27 -2l-25 12l-16 23l2 26l4 17l230 526l12 31l55 114l86 197l117 248l102 242l11 22l20 12l31 7l94 4h160l94 -2l35 -7l22 -16l51 -137l52 -96l57 -129l49 -134l127 -284l41 -103l139 -280l56 -129l53 -135l-14 -23l-54 -12l-82 -25l-18 -4l-33 -16l-30 -19l-19 -18
l-10 -23l-4 -14l4 -31l14 -26l29 -23l37 -12l32 -4h29l47 8l25 6l10 -2l8 -6l19 -33l37 -78l6 -30l4 -17l2 -20z" />
    <glyph glyph-name="aogonek" unicode="&#x105;" 
d="M1008 637l-105 317l-10 27l-21 14l-26 6l-23 -6l-20 -20l-121 -307l-6 -31l6 -25l23 -10l28 -4h129l96 -6l27 8l16 16zM1741 -408l-15 -10l-18 -10l-22 -10l-29 -11l-12 -6l-29 -8l-12 -2l-29 -8l-31 -6l-31 -4l-47 -2l-30 -2l-35 2l-35 4l-33 6l-35 10l-36 14l-50 31
l-24 25l-19 26l-8 13l-14 30l-4 19l-8 31l-2 30v15l4 28l2 17l12 30l14 29l6 14l46 54l22 22l23 19l-5 6l9 24l-6 25l-64 172l-14 20l-19 4l-24 3l-123 8h-33l-154 4l-122 2h-31l-31 -2h-94l-27 -4l-16 -11l-12 -24l-47 -139l-13 -33l-22 -27l-31 -12l-152 8h-32l-127 -8
l-27 -2l-25 12l-16 23l2 26l4 17l230 526l12 31l55 114l86 197l117 248l102 242l11 22l20 12l31 7l94 4h160l94 -2l35 -7l22 -16l51 -137l52 -96l57 -129l49 -134l127 -284l41 -103l139 -280l56 -129l53 -135l-14 -23l-54 -12l-82 -25l-18 -4l-33 -16l-30 -19l-19 -18
l-10 -23l-4 -14l4 -31l14 -26l29 -23l37 -12l32 -4h29l47 8l25 6l10 -2l8 -6l19 -33l37 -78l6 -30l4 -17l2 -20z" />
    <glyph glyph-name="Cacute" unicode="&#x106;" horiz-adv-x="1505" 
d="M1411 186l-53 -49l-64 -47l-24 -16l-68 -37l-47 -23l-65 -20l-35 -6l-51 -11l-72 -8l-37 -2l-51 -4h-107l-35 2l-34 4l-35 6l-35 9l-31 10l-92 24l-45 17l-27 12l-38 23l-80 55l-54 45l-47 51l-41 60l-51 100l-45 127l-20 61l-4 31l-3 47l3 31l2 33v34l6 103l14 76l8 30
l35 101l45 90l37 59l43 56l49 49l51 43l66 45l55 33l62 28l67 23l70 16l35 6l34 4l64 4l45 5l31 -3l45 -2l76 -10l28 -6l47 -8l72 -21l29 -12l73 -43l140 -98l12 -10l14 -15l4 -16l-2 -17l-30 -38l-23 -23l-45 -39l-80 -88l-28 -27l-15 -6l-14 -2l-15 4l-22 13l-39 28
l-27 15l-45 20l-28 10l-45 13l-31 6l-51 4h-33l-45 -4l-33 -8l-45 -15l-57 -22l-41 -21l-29 -20l-39 -39l-33 -55l-14 -29l-12 -31l-10 -33l-7 -34l-4 -31l-4 -62v-32l2 -52l2 -30l11 -47l10 -31l14 -35l17 -31l30 -45l23 -24l39 -33l26 -19l41 -20l31 -12l45 -13l33 -6
l49 -2h47l29 6l98 33l33 14l31 15l26 14l39 25l47 35l12 4l19 -4l22 -15l23 -20l8 -13l21 -22l53 -66l55 -63l19 -25l10 -10l10 -18v-13zM1110 1939l-100 -131l-84 -102l-19 -20l-20 -11l-25 -4l-16 -2l-101 6h-151l-19 2l-6 2l-2 7v6l62 123l16 28l49 109l13 20l10 6h24
l17 2h33l47 -2h30l97 2h30l45 5l58 -5l20 -6l4 -14z" />
    <glyph glyph-name="cacute" unicode="&#x107;" horiz-adv-x="1505" 
d="M1411 186l-53 -49l-64 -47l-24 -16l-68 -37l-47 -23l-65 -20l-35 -6l-51 -11l-72 -8l-37 -2l-51 -4h-107l-35 2l-34 4l-35 6l-35 9l-31 10l-92 24l-45 17l-27 12l-38 23l-80 55l-54 45l-47 51l-41 60l-51 100l-45 127l-20 61l-4 31l-3 47l3 31l2 33v34l6 103l14 76l8 30
l35 101l45 90l37 59l43 56l49 49l51 43l66 45l55 33l62 28l67 23l70 16l35 6l34 4l64 4l45 5l31 -3l45 -2l76 -10l28 -6l47 -8l72 -21l29 -12l73 -43l140 -98l12 -10l14 -15l4 -16l-2 -17l-30 -38l-23 -23l-45 -39l-80 -88l-28 -27l-15 -6l-14 -2l-15 4l-22 13l-39 28
l-27 15l-45 20l-28 10l-45 13l-31 6l-51 4h-33l-45 -4l-33 -8l-45 -15l-57 -22l-41 -21l-29 -20l-39 -39l-33 -55l-14 -29l-12 -31l-10 -33l-7 -34l-4 -31l-4 -62v-32l2 -52l2 -30l11 -47l10 -31l14 -35l17 -31l30 -45l23 -24l39 -33l26 -19l41 -20l31 -12l45 -13l33 -6
l49 -2h47l29 6l98 33l33 14l31 15l26 14l39 25l47 35l12 4l19 -4l22 -15l23 -20l8 -13l21 -22l53 -66l55 -63l19 -25l10 -10l10 -18v-13zM1110 1939l-100 -131l-84 -102l-19 -20l-20 -11l-25 -4l-16 -2l-101 6h-151l-19 2l-6 2l-2 7v6l62 123l16 28l49 109l13 20l10 6h24
l17 2h33l47 -2h30l97 2h30l45 5l58 -5l20 -6l4 -14z" />
    <glyph glyph-name="Cdotaccent" unicode="&#x10a;" horiz-adv-x="1505" 
d="M1411 186l-53 -49l-64 -47l-24 -16l-68 -37l-47 -23l-65 -20l-35 -6l-51 -11l-72 -8l-37 -2l-51 -4h-107l-35 2l-34 4l-35 6l-35 9l-31 10l-92 24l-45 17l-27 12l-38 23l-80 55l-54 45l-47 51l-41 60l-51 100l-45 127l-20 61l-4 31l-3 47l3 31l2 33v34l6 103l14 76l8 30
l35 101l45 90l37 59l43 56l49 49l51 43l66 45l55 33l62 28l67 23l70 16l35 6l34 4l64 4l45 5l31 -3l45 -2l76 -10l28 -6l47 -8l72 -21l29 -12l73 -43l140 -98l12 -10l14 -15l4 -16l-2 -17l-30 -38l-23 -23l-45 -39l-80 -88l-28 -27l-15 -6l-14 -2l-15 4l-22 13l-39 28
l-27 15l-45 20l-28 10l-45 13l-31 6l-51 4h-33l-45 -4l-33 -8l-45 -15l-57 -22l-41 -21l-29 -20l-39 -39l-33 -55l-14 -29l-12 -31l-10 -33l-7 -34l-4 -31l-4 -62v-32l2 -52l2 -30l11 -47l10 -31l14 -35l17 -31l30 -45l23 -24l39 -33l26 -19l41 -20l31 -12l45 -13l33 -6
l49 -2h47l29 6l98 33l33 14l31 15l26 14l39 25l47 35l12 4l19 -4l22 -15l23 -20l8 -13l21 -22l53 -66l55 -63l19 -25l10 -10l10 -18v-13zM961 1804l-11 -30l-14 -25l-21 -25l-24 -20l-19 -12l-6 -2l-10 -7l-25 -8l-30 -8l-31 -2h-45l-29 6l-26 8l-25 13l-22 16l-23 21
l-22 24l-17 29l-10 30l-4 31v31l4 29l8 26l14 27l23 31l27 24l28 21l31 14l45 12h14l33 2l31 -6l14 -2l27 -8l14 -6l25 -13l35 -28l18 -25l12 -28l6 -13l7 -28l4 -31v-31z" />
    <glyph glyph-name="cdotaccent" unicode="&#x10b;" horiz-adv-x="1505" 
d="M1411 186l-53 -49l-64 -47l-24 -16l-68 -37l-47 -23l-65 -20l-35 -6l-51 -11l-72 -8l-37 -2l-51 -4h-107l-35 2l-34 4l-35 6l-35 9l-31 10l-92 24l-45 17l-27 12l-38 23l-80 55l-54 45l-47 51l-41 60l-51 100l-45 127l-20 61l-4 31l-3 47l3 31l2 33v34l6 103l14 76l8 30
l35 101l45 90l37 59l43 56l49 49l51 43l66 45l55 33l62 28l67 23l70 16l35 6l34 4l64 4l45 5l31 -3l45 -2l76 -10l28 -6l47 -8l72 -21l29 -12l73 -43l140 -98l12 -10l14 -15l4 -16l-2 -17l-30 -38l-23 -23l-45 -39l-80 -88l-28 -27l-15 -6l-14 -2l-15 4l-22 13l-39 28
l-27 15l-45 20l-28 10l-45 13l-31 6l-51 4h-33l-45 -4l-33 -8l-45 -15l-57 -22l-41 -21l-29 -20l-39 -39l-33 -55l-14 -29l-12 -31l-10 -33l-7 -34l-4 -31l-4 -62v-32l2 -52l2 -30l11 -47l10 -31l14 -35l17 -31l30 -45l23 -24l39 -33l26 -19l41 -20l31 -12l45 -13l33 -6
l49 -2h47l29 6l98 33l33 14l31 15l26 14l39 25l47 35l12 4l19 -4l22 -15l23 -20l8 -13l21 -22l53 -66l55 -63l19 -25l10 -10l10 -18v-13zM961 1804l-11 -30l-14 -25l-21 -25l-24 -20l-19 -12l-6 -2l-10 -7l-25 -8l-30 -8l-31 -2h-45l-29 6l-26 8l-25 13l-22 16l-23 21
l-22 24l-17 29l-10 30l-4 31v31l4 29l8 26l14 27l23 31l27 24l28 21l31 14l45 12h14l33 2l31 -6l14 -2l27 -8l14 -6l25 -13l35 -28l18 -25l12 -28l6 -13l7 -28l4 -31v-31z" />
    <glyph glyph-name="Ccaron" unicode="&#x10c;" horiz-adv-x="1505" 
d="M1411 186l-53 -49l-64 -47l-24 -16l-68 -37l-47 -23l-65 -20l-35 -6l-51 -11l-72 -8l-37 -2l-51 -4h-107l-35 2l-34 4l-35 6l-35 9l-31 10l-92 24l-45 17l-27 12l-38 23l-80 55l-54 45l-47 51l-41 60l-51 100l-45 127l-20 61l-4 31l-3 47l3 31l2 33v34l6 103l14 76l8 30
l35 101l45 90l37 59l43 56l49 49l51 43l66 45l55 33l62 28l67 23l70 16l35 6l34 4l64 4l45 5l31 -3l45 -2l76 -10l28 -6l47 -8l72 -21l29 -12l73 -43l140 -98l12 -10l14 -15l4 -16l-2 -17l-30 -38l-23 -23l-45 -39l-80 -88l-28 -27l-15 -6l-14 -2l-15 4l-22 13l-39 28
l-27 15l-45 20l-28 10l-45 13l-31 6l-51 4h-33l-45 -4l-33 -8l-45 -15l-57 -22l-41 -21l-29 -20l-39 -39l-33 -55l-14 -29l-12 -31l-10 -33l-7 -34l-4 -31l-4 -62v-32l2 -52l2 -30l11 -47l10 -31l14 -35l17 -31l30 -45l23 -24l39 -33l26 -19l41 -20l31 -12l45 -13l33 -6
l49 -2h47l29 6l98 33l33 14l31 15l26 14l39 25l47 35l12 4l19 -4l22 -15l23 -20l8 -13l21 -22l53 -66l55 -63l19 -25l10 -10l10 -18v-13zM1194 1978l-31 -32l-59 -45l-211 -209l-16 -15l-21 -4l-88 4h-143l-17 9l-33 32l-47 54l-104 104l-82 72l-23 26l-14 23l-2 14l8 10
l21 4l18 5l33 2l76 -7h157l21 -4l92 -82l16 -10h9l94 82l16 12l13 2l135 -2h32l76 7l33 -2h18l23 -5l10 -12v-14z" />
    <glyph glyph-name="ccaron" unicode="&#x10d;" horiz-adv-x="1505" 
d="M1411 186l-53 -49l-64 -47l-24 -16l-68 -37l-47 -23l-65 -20l-35 -6l-51 -11l-72 -8l-37 -2l-51 -4h-107l-35 2l-34 4l-35 6l-35 9l-31 10l-92 24l-45 17l-27 12l-38 23l-80 55l-54 45l-47 51l-41 60l-51 100l-45 127l-20 61l-4 31l-3 47l3 31l2 33v34l6 103l14 76l8 30
l35 101l45 90l37 59l43 56l49 49l51 43l66 45l55 33l62 28l67 23l70 16l35 6l34 4l64 4l45 5l31 -3l45 -2l76 -10l28 -6l47 -8l72 -21l29 -12l73 -43l140 -98l12 -10l14 -15l4 -16l-2 -17l-30 -38l-23 -23l-45 -39l-80 -88l-28 -27l-15 -6l-14 -2l-15 4l-22 13l-39 28
l-27 15l-45 20l-28 10l-45 13l-31 6l-51 4h-33l-45 -4l-33 -8l-45 -15l-57 -22l-41 -21l-29 -20l-39 -39l-33 -55l-14 -29l-12 -31l-10 -33l-7 -34l-4 -31l-4 -62v-32l2 -52l2 -30l11 -47l10 -31l14 -35l17 -31l30 -45l23 -24l39 -33l26 -19l41 -20l31 -12l45 -13l33 -6
l49 -2h47l29 6l98 33l33 14l31 15l26 14l39 25l47 35l12 4l19 -4l22 -15l23 -20l8 -13l21 -22l53 -66l55 -63l19 -25l10 -10l10 -18v-13zM1194 1978l-31 -32l-59 -45l-211 -209l-16 -15l-21 -4l-88 4h-143l-17 9l-33 32l-47 54l-104 104l-82 72l-23 26l-14 23l-2 14l8 10
l21 4l18 5l33 2l76 -7h157l21 -4l92 -82l16 -10h9l94 82l16 12l13 2l135 -2h32l76 7l33 -2h18l23 -5l10 -12v-14z" />
    <glyph glyph-name="Dcaron" unicode="&#x10e;" horiz-adv-x="1613" 
d="M1044 555l13 35l8 31l8 45l2 28l2 47v66l-2 33l-6 47l-8 31l-4 12l-17 31l-30 43l-54 55l-24 18l-45 27l-29 12l-61 12l-52 2l-34 3h-52l-45 2l-30 -2l-45 -7l-23 -6l-10 -10l-6 -25l-2 -18l-2 -31l4 -61l2 -33l4 -45l4 -33l2 -33v-32l-2 -45v-99l-4 -67l-4 -45v-29
l-2 -47l2 -31l6 -49l8 -22l12 -11l25 -2l190 13l48 2l32 6l35 10l33 12l31 15l26 18l37 33l21 24l24 39zM1495 666l-2 -50l-6 -32l-14 -47l-60 -162l-22 -45l-17 -27l-28 -33l-101 -100l-26 -23l-39 -30l-27 -17l-41 -22l-27 -12l-45 -17l-30 -10l-33 -8l-158 -25l-31 -2
l-45 -4h-32l-66 2l-53 4h-33l-65 -4l-52 -2l-34 -2l-31 2h-144l-30 2l-88 8l-17 8l-10 11l-4 22l-2 33l2 16l4 62v28l2 48v30l2 33v33l-2 108v33l-4 109l2 30l2 45l4 31l2 35v33l-4 53l-2 35v18l-2 35l8 109v32l-2 109v33l-6 108v80l2 33l10 53l9 12l22 7l35 4l31 4l32 2
l181 -2h32l99 -6l16 -2h37l86 4l31 2h32l52 -4l65 -4l86 -13l33 -6l31 -8l73 -27l31 -14l31 -16l29 -17l67 -47l51 -43l66 -63l18 -23l37 -72l35 -96l10 -33l8 -32l9 -45l12 -68l4 -33l2 -49l4 -68zM1112 1978l-31 -32l-59 -45l-25 -23l-79 -82l-123 -119l-21 -4l-88 4h-143
l-17 9l-32 32l-48 54l-104 104l-82 72l-22 26l-15 23l-2 14l8 10l21 4l18 5l33 2l76 -7h158l20 -4l92 -82l17 -10h8l94 82l16 12l13 2l135 -2h33l75 7l33 -2h19l22 -5l10 -12v-14z" />
    <glyph glyph-name="dcaron" unicode="&#x10f;" horiz-adv-x="1613" 
d="M1044 555l13 35l8 31l8 45l2 28l2 47v66l-2 33l-6 47l-8 31l-4 12l-17 31l-30 43l-54 55l-24 18l-45 27l-29 12l-61 12l-52 2l-34 3h-52l-45 2l-30 -2l-45 -7l-23 -6l-10 -10l-6 -25l-2 -18l-2 -31l4 -61l2 -33l4 -45l4 -33l2 -33v-32l-2 -45v-99l-4 -67l-4 -45v-29
l-2 -47l2 -31l6 -49l8 -22l12 -11l25 -2l190 13l48 2l32 6l35 10l33 12l31 15l26 18l37 33l21 24l24 39zM1495 666l-2 -50l-6 -32l-14 -47l-60 -162l-22 -45l-17 -27l-28 -33l-101 -100l-26 -23l-39 -30l-27 -17l-41 -22l-27 -12l-45 -17l-30 -10l-33 -8l-158 -25l-31 -2
l-45 -4h-32l-66 2l-53 4h-33l-65 -4l-52 -2l-34 -2l-31 2h-144l-30 2l-88 8l-17 8l-10 11l-4 22l-2 33l2 16l4 62v28l2 48v30l2 33v33l-2 108v33l-4 109l2 30l2 45l4 31l2 35v33l-4 53l-2 35v18l-2 35l8 109v32l-2 109v33l-6 108v80l2 33l10 53l9 12l22 7l35 4l31 4l32 2
l181 -2h32l99 -6l16 -2h37l86 4l31 2h32l52 -4l65 -4l86 -13l33 -6l31 -8l73 -27l31 -14l31 -16l29 -17l67 -47l51 -43l66 -63l18 -23l37 -72l35 -96l10 -33l8 -32l9 -45l12 -68l4 -33l2 -49l4 -68zM1110 1978l-31 -32l-59 -45l-211 -209l-16 -15l-21 -4l-88 4h-143l-17 9
l-32 32l-48 54l-104 104l-82 72l-22 26l-15 23l-2 14l8 10l21 4l18 5l33 2l76 -7h157l21 -4l92 -82l17 -10h8l94 82l16 12l13 2l135 -2h33l75 7l33 -2h18l23 -5l10 -12v-14z" />
    <glyph glyph-name="Dcroat" unicode="&#x110;" horiz-adv-x="1703" 
d="M1133 553l16 41l6 29l8 45l2 28l2 47v64l-2 33l-6 47l-8 31l-4 14l-17 31l-30 43l-53 55l-25 18l-45 27l-29 12l-28 6l-29 4l-92 7h-94l-62 -5l-20 -2l-17 -6l-10 -12l-6 -25l-2 -18l-2 -31l8 -121l4 -14l84 -2h33l92 -6l24 -2l17 -6l10 -11l4 -22l2 -16v-31l-4 -45v-31
l2 -35v-35l-4 -16l-2 -22l-6 -13l-16 -8l-25 -4l-59 -4l-105 4h-33l-16 -16l-4 -66l-2 -45l2 -33l4 -33l4 -22l6 -16l12 -11l25 -2l238 15l32 6l33 10l33 12l31 17l28 18l37 31l21 24l24 39zM1585 668l-2 -47l-6 -33l-61 -180l-13 -31l-22 -43l-17 -27l-28 -35l-21 -22
l-35 -31l-45 -45l-65 -55l-31 -19l-63 -30l-46 -17l-30 -10l-33 -8l-33 -6l-49 -11l-31 -4l-45 -4l-30 -2l-45 -4h-33l-66 2l-51 4h-35l-63 -4l-54 -4h-98l-53 2h-31l-28 -2l-91 6l-26 4l-17 8l-10 11l-4 22l-2 33l2 16l4 62v31l2 45v32l2 31v174l-6 109l-10 16l-27 -2
l-33 -2h-28l-23 4l-16 8l-10 11l-6 20v45l6 45l2 35l-4 51l2 35l4 22l6 15l12 8l62 -4l51 2l16 16l6 101v32l-2 109v33l-6 108v33l2 45l2 33l4 31l4 24l9 10l10 5l20 4l29 4l92 6h31l119 -2l131 -8l18 -2h35l86 4l31 2h33l51 -2l65 -4l33 -4l117 -23l74 -27l92 -47l65 -47
l27 -22l90 -86l18 -23l37 -70l13 -30l10 -33l12 -33l10 -33l8 -32l21 -113l4 -33l2 -49l4 -70z" />
    <glyph glyph-name="dcroat" unicode="&#x111;" horiz-adv-x="1703" 
d="M1133 551l16 41l6 29l8 45l2 28l2 47v64l-2 33l-6 47l-12 45l-17 31l-30 43l-53 55l-25 18l-45 27l-29 12l-28 6l-29 4l-92 7h-94l-62 -5l-20 -2l-17 -6l-10 -12l-6 -25l-2 -18l-2 -31l8 -121l4 -14l84 -2h33l92 -6l24 -2l17 -6l10 -11l4 -22l2 -16v-31l-4 -45v-31l2 -35
v-35l-4 -16l-2 -23l-6 -12l-16 -8l-25 -4l-59 -4l-105 4h-33l-16 -16l-4 -66l-2 -45l2 -33l4 -33l4 -22l6 -17l12 -10l25 -2l238 15l32 6l33 10l33 12l31 17l28 18l37 31l21 24l24 39zM1585 666l-2 -48l-6 -32l-61 -180l-13 -31l-22 -43l-17 -27l-28 -35l-21 -22l-35 -31
l-45 -45l-65 -55l-31 -19l-63 -30l-46 -17l-30 -10l-33 -8l-33 -6l-49 -11l-31 -4l-45 -4l-30 -2l-45 -4h-33l-66 2l-51 4h-35l-63 -4l-54 -4h-98l-53 2h-31l-28 -2l-91 6l-26 4l-17 8l-10 11l-4 22l-2 33l2 16l4 62v31l2 45v32l2 31v174l-6 109l-10 16l-27 -2l-33 -2h-28
l-23 4l-16 8l-10 10l-6 21v45l6 45l2 35l-4 51l2 35l4 22l6 15l12 8l62 -4l51 2l16 16l6 101v32l-2 109v33l-6 108v33l2 45l2 33l4 31l4 24l9 10l10 5l20 4l29 4l92 6h31l119 -2l131 -8l18 -2h35l86 4l31 2h33l51 -2l65 -4l150 -27l74 -27l92 -47l65 -47l27 -22l90 -86
l18 -23l37 -70l13 -30l10 -33l12 -33l10 -33l8 -32l21 -113l4 -33l2 -49l4 -70z" />
    <glyph glyph-name="Emacron" unicode="&#x112;" horiz-adv-x="1431" 
d="M1276 193l-10 -144l-2 -20l-9 -15l-10 -8l-268 -8h-33l-108 8l-140 -10l-32 -2h-142l-106 8h-33l-176 -10l-70 4l-24 4l-15 10l-6 15l-4 22l-4 47l-2 33l2 31v30l8 109v33l2 108l-8 142l-2 32l4 111v174l8 109l-8 141l-2 33v49l4 61v31l6 106l2 29l6 17l11 8l16 2l27 4
l133 -8l125 2h33l122 -8h33l123 8h33l278 -4l35 2l70 6h51l29 -6l12 -11l4 -14l4 -27v-55l-4 -51v-35l2 -51l2 -31l-2 -30l-4 -25l-8 -14l-10 -9l-25 -4h-16l-33 -2l-193 4h-32l-105 -4h-33l-106 4l-92 6h-31l-16 -2l-21 -4l-10 -10l-6 -35l-4 -49v-33l2 -34l2 -23l4 -14
l8 -11l23 -6l65 -4l66 4h194l230 13l63 -4l23 -5l12 -10l6 -12l2 -23l4 -34l2 -35v-68l4 -47l-4 -61l-4 -25l-8 -14l-14 -11l-21 -4h-41l-92 11l-33 2l-164 -11l-131 4h-32l-82 7l-35 -2l-25 -2l-10 -7l-6 -14l-2 -31l-6 -51l-2 -33v-45l2 -20l6 -15l8 -8l22 -2l113 -4h33
l110 8l146 -8h33l145 8h31l31 -2l73 -8l13 -6l8 -12l2 -23zM1026 1741l-2 -23l-4 -24l-10 -15l-13 -8l-26 -4l-19 -2h-32l-62 4h-33l-260 4h-33l-114 -2l-101 -6h-32l-15 2l-22 4l-12 8l-9 17l-4 26l-2 17v35l2 34v33l-2 35v35l4 18l4 27l7 14l12 8h22l115 -2h33l114 9h33
l146 -3l114 -4l99 7h32l41 -7l15 -10l8 -14l2 -19l4 -20l-6 -74v-31z" />
    <glyph glyph-name="emacron" unicode="&#x113;" horiz-adv-x="1431" 
d="M1276 193l-10 -144l-2 -20l-9 -15l-10 -8l-268 -8h-33l-108 8l-140 -10l-32 -2h-142l-106 8h-33l-176 -10l-70 4l-24 4l-15 10l-6 15l-4 22l-4 47l-2 33l2 31v30l8 109v33l2 108l-8 142l-2 32l4 111v174l8 109l-8 141l-2 33v49l4 61v31l6 106l2 29l6 17l11 8l16 2l27 4
l133 -8l125 2h33l122 -8h33l123 8h33l278 -4l35 2l70 6h51l29 -6l12 -11l4 -14l4 -27v-55l-4 -51v-35l2 -51l2 -31l-2 -30l-4 -25l-8 -14l-10 -9l-25 -4h-16l-33 -2l-193 4h-32l-105 -4h-33l-106 4l-92 6h-31l-16 -2l-21 -4l-10 -10l-6 -35l-4 -49v-33l2 -34l2 -23l4 -14
l8 -11l23 -6l65 -4l66 4h194l230 13l63 -4l23 -5l12 -10l6 -12l2 -23l4 -34l2 -35v-68l4 -47l-4 -61l-4 -25l-8 -14l-14 -11l-21 -4h-41l-92 11l-33 2l-164 -11l-131 4h-32l-82 7l-35 -2l-25 -2l-10 -7l-6 -14l-2 -31l-6 -51l-2 -33v-45l2 -20l6 -15l8 -8l22 -2l113 -4h33
l110 8l146 -8h33l145 8h31l31 -2l73 -8l13 -6l8 -12l2 -23zM1030 1741l-2 -23l-4 -24l-10 -15l-13 -8l-26 -4l-19 -2h-32l-62 4h-33l-260 4h-32l-115 -2l-100 -6h-33l-15 2l-22 4l-12 8l-9 17l-4 26l-2 17v35l2 34v33l-2 35v35l4 18l4 27l7 14l12 8h22l115 -2h33l115 9h32
l146 -3l114 -4l99 7h33l40 -7l15 -10l8 -14l2 -19l4 -20l-6 -74v-31z" />
    <glyph glyph-name="Edotaccent" unicode="&#x116;" horiz-adv-x="1431" 
d="M1276 193l-10 -144l-2 -20l-9 -15l-10 -8l-268 -8h-33l-108 8l-140 -10l-32 -2h-142l-106 8h-33l-176 -10l-70 4l-24 4l-15 10l-6 15l-4 22l-4 47l-2 33l2 31v30l8 109v33l2 108l-8 142l-2 32l4 111v174l8 109l-8 141l-2 33v49l4 61v31l6 106l2 29l6 17l11 8l16 2l27 4
l133 -8l125 2h33l122 -8h33l123 8h33l278 -4l35 2l70 6h51l29 -6l12 -11l4 -14l4 -27v-55l-4 -51v-35l2 -51l2 -31l-2 -30l-4 -25l-8 -14l-10 -9l-25 -4h-16l-33 -2l-193 4h-32l-105 -4h-33l-106 4l-92 6h-31l-16 -2l-21 -4l-10 -10l-6 -35l-4 -49v-33l2 -34l2 -23l4 -14
l8 -11l23 -6l65 -4l66 4h194l230 13l63 -4l23 -5l12 -10l6 -12l2 -23l4 -34l2 -35v-68l4 -47l-4 -61l-4 -25l-8 -14l-14 -11l-21 -4h-41l-92 11l-33 2l-164 -11l-131 4h-32l-82 7l-35 -2l-25 -2l-10 -7l-6 -14l-2 -31l-6 -51l-2 -33v-45l2 -20l6 -15l8 -8l22 -2l113 -4h33
l110 8l146 -8h33l145 8h31l31 -2l73 -8l13 -6l8 -12l2 -23zM829 1804l-10 -30l-14 -25l-21 -25l-24 -20l-19 -12l-6 -2l-10 -7l-25 -8l-30 -8l-31 -2h-45l-29 6l-26 8l-25 13l-22 16l-23 21l-23 24l-16 29l-10 30l-4 31v31l4 29l8 26l14 27l23 31l27 24l28 21l31 14l45 12
h14l33 2l31 -6l14 -2l27 -8l14 -6l25 -13l34 -28l19 -25l12 -28l6 -13l6 -28l5 -31v-31z" />
    <glyph glyph-name="edotaccent" unicode="&#x117;" horiz-adv-x="1431" 
d="M1276 193l-10 -144l-2 -20l-9 -15l-10 -8l-268 -8h-33l-108 8l-140 -10l-32 -2h-142l-106 8h-33l-176 -10l-70 4l-24 4l-15 10l-6 15l-4 22l-4 47l-2 33l2 31v30l8 109v33l2 108l-8 142l-2 32l4 111v174l8 109l-8 141l-2 33v49l4 61v31l6 106l2 29l6 17l11 8l16 2l27 4
l133 -8l125 2h33l122 -8h33l123 8h33l278 -4l35 2l70 6h51l29 -6l12 -11l4 -14l4 -27v-55l-4 -51v-35l2 -51l2 -31l-2 -30l-4 -25l-8 -14l-10 -9l-25 -4h-16l-33 -2l-193 4h-32l-105 -4h-33l-106 4l-92 6h-31l-16 -2l-21 -4l-10 -10l-6 -35l-4 -49v-33l2 -34l2 -23l4 -14
l8 -11l23 -6l65 -4l66 4h194l230 13l63 -4l23 -5l12 -10l6 -12l2 -23l4 -34l2 -35v-68l4 -47l-4 -61l-4 -25l-8 -14l-14 -11l-21 -4h-41l-92 11l-33 2l-164 -11l-131 4h-32l-82 7l-35 -2l-25 -2l-10 -7l-6 -14l-2 -31l-6 -51l-2 -33v-45l2 -20l6 -15l8 -8l22 -2l113 -4h33
l110 8l146 -8h33l145 8h31l31 -2l73 -8l13 -6l8 -12l2 -23zM834 1804l-11 -30l-14 -25l-21 -25l-24 -20l-19 -12l-6 -2l-10 -7l-24 -8l-31 -8l-31 -2h-45l-29 6l-26 8l-25 13l-22 16l-23 21l-22 24l-17 29l-10 30l-4 31v31l4 29l8 26l14 27l23 31l27 24l28 21l31 14l45 12
h14l33 2l31 -6l14 -2l27 -8l14 -6l25 -13l35 -28l18 -25l12 -28l6 -13l7 -28l4 -31v-31z" />
    <glyph glyph-name="Eogonek" unicode="&#x118;" horiz-adv-x="1431" 
d="M1282 -410l-14 -10l-19 -10l-22 -10l-29 -11l-12 -6l-29 -8l-12 -2l-29 -8l-31 -6l-30 -4l-47 -2l-31 -2l-35 2l-35 4l-33 6l-34 10l-37 14l-49 31l-25 25l-27 39l-14 30l-4 19l-8 30l-2 31v15l4 28l2 17l12 30l15 29l6 14l45 54l22 22l47 37l13 8h-4l-140 -10l-32 -2
h-142l-106 8h-33l-176 -10l-70 4l-24 4l-15 10l-6 15l-4 22l-4 47l-2 33l2 31v30l8 109v33l2 108l-8 142l-2 32l4 111v174l8 109l-8 141l-2 33v49l4 61v31l6 106l2 29l6 17l11 8l16 2l27 4l133 -8l125 2h33l122 -8h33l123 8h33l278 -4l35 2l70 6h51l29 -6l12 -11l4 -14
l4 -27v-55l-4 -51v-35l2 -51l2 -31l-2 -30l-4 -25l-8 -14l-10 -9l-25 -4h-16l-33 -2l-193 4h-32l-105 -4h-33l-106 4l-92 6h-31l-16 -2l-21 -4l-10 -10l-6 -35l-4 -49v-33l2 -34l2 -23l4 -14l8 -11l23 -6l65 -4l66 4h194l230 13l63 -4l23 -5l12 -10l6 -12l2 -23l4 -34l2 -35
v-68l4 -47l-4 -61l-4 -25l-8 -14l-14 -11l-21 -4h-41l-92 11l-33 2l-164 -11l-131 4h-32l-82 7l-35 -2l-25 -2l-10 -7l-6 -14l-2 -31l-6 -51l-2 -33v-45l2 -20l6 -15l8 -8l22 -2l113 -4h33l110 8l146 -8h33l145 8h31l31 -2l73 -8l13 -6l8 -12l2 -23l6 -112l-10 -144l-2 -20
l-9 -15l-16 -10h-6l-2 -4l-53 -12l-82 -25l-19 -4l-33 -16l-30 -19l-19 -18l-10 -23l-4 -14l4 -31l14 -26l29 -23l37 -12l33 -4h28l48 8l24 6l10 -2l9 -6l40 -78l15 -33l6 -30l4 -17l2 -20z" />
    <glyph glyph-name="eogonek" unicode="&#x119;" horiz-adv-x="1431" 
d="M1282 -410l-14 -10l-19 -10l-22 -10l-29 -11l-12 -6l-29 -8l-12 -2l-29 -8l-31 -6l-30 -4l-47 -2l-31 -2l-35 2l-35 4l-33 6l-34 10l-37 14l-49 31l-25 25l-27 39l-14 30l-4 19l-8 30l-2 31v15l4 28l2 17l12 30l15 29l6 14l45 54l22 22l47 37l13 8h-4l-140 -10l-32 -2
h-142l-106 8h-33l-176 -10l-70 4l-24 4l-15 10l-6 15l-4 22l-4 47l-2 33l2 31v30l8 109v33l2 108l-8 142l-2 32l4 111v174l8 109l-8 141l-2 33v49l4 61v31l6 106l2 29l6 17l11 8l16 2l27 4l133 -8l125 2h33l122 -8h33l123 8h33l278 -4l35 2l70 6h51l29 -6l12 -11l4 -14
l4 -27v-55l-4 -51v-35l2 -51l2 -31l-2 -30l-4 -25l-8 -14l-10 -9l-25 -4h-16l-33 -2l-193 4h-32l-105 -4h-33l-106 4l-92 6h-31l-16 -2l-21 -4l-10 -10l-6 -35l-4 -49v-33l2 -34l2 -23l4 -14l8 -11l23 -6l65 -4l66 4h194l230 13l63 -4l23 -5l12 -10l6 -12l2 -23l4 -34l2 -35
v-68l4 -47l-4 -61l-4 -25l-8 -14l-14 -11l-21 -4h-41l-92 11l-33 2l-164 -11l-131 4h-32l-82 7l-35 -2l-25 -2l-10 -7l-6 -14l-2 -31l-6 -51l-2 -33v-45l2 -20l6 -15l8 -8l22 -2l113 -4h33l110 8l146 -8h33l145 8h31l31 -2l73 -8l13 -6l8 -12l2 -23l6 -112l-10 -144l-2 -20
l-9 -15l-16 -10h-6l-2 -4l-53 -12l-82 -25l-19 -4l-33 -16l-30 -19l-19 -18l-10 -23l-4 -14l4 -31l14 -26l29 -23l37 -12l33 -4h28l48 8l24 6l10 -2l9 -6l40 -78l15 -33l6 -30l4 -17l2 -20z" />
    <glyph glyph-name="Ecaron" unicode="&#x11a;" horiz-adv-x="1431" 
d="M1276 193l-10 -144l-2 -20l-9 -15l-10 -8l-268 -8h-33l-108 8l-140 -10l-32 -2h-142l-106 8h-33l-176 -10l-70 4l-24 4l-15 10l-6 15l-4 22l-4 47l-2 33l2 31v30l8 109v33l2 108l-8 142l-2 32l4 111v174l8 109l-8 141l-2 33v49l4 61v31l6 106l2 29l6 17l11 8l16 2l27 4
l133 -8l125 2h33l122 -8h33l123 8h33l278 -4l35 2l70 6h51l29 -6l12 -11l4 -14l4 -27v-55l-4 -51v-35l2 -51l2 -31l-2 -30l-4 -25l-8 -14l-10 -9l-25 -4h-16l-33 -2l-193 4h-32l-105 -4h-33l-106 4l-92 6h-31l-16 -2l-21 -4l-10 -10l-6 -35l-4 -49v-33l2 -34l2 -23l4 -14
l8 -11l23 -6l65 -4l66 4h194l230 13l63 -4l23 -5l12 -10l6 -12l2 -23l4 -34l2 -35v-68l4 -47l-4 -61l-4 -25l-8 -14l-14 -11l-21 -4h-41l-92 11l-33 2l-164 -11l-131 4h-32l-82 7l-35 -2l-25 -2l-10 -7l-6 -14l-2 -31l-6 -51l-2 -33v-45l2 -20l6 -15l8 -8l22 -2l113 -4h33
l110 8l146 -8h33l145 8h31l31 -2l73 -8l13 -6l8 -12l2 -23zM1063 1978l-31 -32l-59 -45l-211 -209l-17 -15l-20 -4l-88 4h-143l-17 9l-33 32l-47 54l-104 104l-82 72l-23 26l-14 23l-2 14l8 10l21 4l18 5l33 2l76 -7h157l21 -4l92 -82l16 -10h9l94 82l16 12l12 2l136 -2h32
l76 7l33 -2h18l23 -5l10 -12v-14z" />
    <glyph glyph-name="ecaron" unicode="&#x11b;" horiz-adv-x="1431" 
d="M1276 193l-10 -144l-2 -20l-9 -15l-10 -8l-268 -8h-33l-108 8l-140 -10l-32 -2h-142l-106 8h-33l-176 -10l-70 4l-24 4l-15 10l-6 15l-4 22l-4 47l-2 33l2 31v30l8 109v33l2 108l-8 142l-2 32l4 111v174l8 109l-8 141l-2 33v49l4 61v31l6 106l2 29l6 17l11 8l16 2l27 4
l133 -8l125 2h33l122 -8h33l123 8h33l278 -4l35 2l70 6h51l29 -6l12 -11l4 -14l4 -27v-55l-4 -51v-35l2 -51l2 -31l-2 -30l-4 -25l-8 -14l-10 -9l-25 -4h-16l-33 -2l-193 4h-32l-105 -4h-33l-106 4l-92 6h-31l-16 -2l-21 -4l-10 -10l-6 -35l-4 -49v-33l2 -34l2 -23l4 -14
l8 -11l23 -6l65 -4l66 4h194l230 13l63 -4l23 -5l12 -10l6 -12l2 -23l4 -34l2 -35v-68l4 -47l-4 -61l-4 -25l-8 -14l-14 -11l-21 -4h-41l-92 11l-33 2l-164 -11l-131 4h-32l-82 7l-35 -2l-25 -2l-10 -7l-6 -14l-2 -31l-6 -51l-2 -33v-45l2 -20l6 -15l8 -8l22 -2l113 -4h33
l110 8l146 -8h33l145 8h31l31 -2l73 -8l13 -6l8 -12l2 -23zM1067 1978l-31 -32l-59 -45l-211 -209l-16 -15l-21 -4l-88 4h-143l-17 9l-32 32l-48 54l-104 104l-82 72l-22 26l-15 23l-2 14l8 10l21 4l18 5l33 2l76 -7h157l21 -4l92 -82l16 -10h9l94 82l16 12l13 2l135 -2h33
l75 7l33 -2h18l23 -5l10 -12v-14z" />
    <glyph glyph-name="Gbreve" unicode="&#x11e;" horiz-adv-x="1638" 
d="M1481 805l-8 -133v-193l-5 -86v-121l-2 -22l-28 -47l-19 -27l-35 -35l-24 -22l-12 -13l-68 -43l-41 -20l-59 -23l-47 -14l-31 -8l-64 -12l-47 -6l-59 -11l-82 -10l-31 -2l-63 4l-47 4l-33 4l-33 6l-102 29l-31 8l-72 25l-67 37l-52 37l-49 39l-55 53l-20 24l-23 31
l-70 121l-28 63l-11 33l-10 35l-12 68l-4 32l-8 45l-4 33l-2 31v31l6 92l4 16l6 35l8 35l41 131l29 67l14 29l45 62l45 51l78 67l51 39l123 74l35 14l35 11l32 8l76 12l60 8l30 6l31 4l47 5l33 2l45 -5l31 -2l47 -6l29 -6l45 -8l30 -8l76 -25l74 -37l31 -18l26 -19l33 -20
l22 -16l11 -11l22 -16l12 -10l13 -15v-14l-6 -14l-31 -45l-78 -80l-61 -53l-39 -29l-13 -8l-16 -2l-76 49l-28 16l-66 27l-35 8l-35 6l-96 6h-14l-33 -2l-53 -4l-33 -8l-61 -29l-27 -18l-27 -21l-22 -22l-21 -27l-18 -26l-16 -29l-13 -31l-10 -33l-8 -30l-12 -62l-7 -33
l-2 -34v-35l4 -49l17 -80l10 -33l21 -49l14 -29l24 -37l21 -24l37 -35l26 -21l41 -22l31 -12l62 -15l34 -4l35 -2h33l33 4l141 33l33 12l31 15l20 14l6 12v23l2 18v31l-4 61v35l-8 13l-23 4h-49l-33 -2l-47 -7l-32 -2h-48l-32 2l-70 13l-12 4l-8 10l-4 25l-3 16l-2 33l2 51
l-4 61l-4 31v43l6 23l11 10l24 4l51 6l35 2h94l134 6l163 -10h33l84 10l33 2l16 -2l31 -6l14 -8l4 -12l7 -29l2 -16zM1147 1954l-10 -45l-23 -60l-18 -32l-35 -41l-70 -58l-16 -10l-49 -25l-35 -10l-39 -8h-16l-35 -2l-19 -2h-32l-15 2l-33 2h-18l-33 6l-14 2l-35 13l-33 14
l-16 8l-29 18l-49 41l-22 25l-31 43l-21 45l-6 18l-12 50l-2 30l-2 17l2 18l8 4l12 4h21l12 2h31l45 -4h33l53 4h33l22 -2h13l10 -8l4 -14l4 -19l8 -16l21 -20l14 -7l14 -4l17 -2h26l25 8l16 11l13 14l8 16l4 13l2 10l4 10l10 6l19 2l86 2h30l125 -4h13l10 -6l4 -24z" />
    <glyph glyph-name="gbreve" unicode="&#x11f;" horiz-adv-x="1638" 
d="M1481 805l-8 -133v-193l-5 -86v-121l-2 -22l-28 -47l-19 -27l-35 -35l-24 -22l-12 -13l-68 -43l-41 -20l-59 -23l-47 -14l-31 -8l-64 -12l-47 -6l-59 -11l-82 -10l-31 -2l-63 4l-47 4l-33 4l-33 6l-102 29l-31 8l-72 25l-67 37l-52 37l-49 39l-55 53l-20 24l-23 31
l-70 121l-28 63l-11 33l-10 35l-12 68l-4 32l-8 45l-4 33l-2 31v31l6 92l4 16l6 35l8 35l41 131l29 67l14 29l45 62l45 51l78 67l51 39l123 74l35 14l35 11l32 8l76 12l60 8l30 6l31 4l47 5l33 2l45 -5l31 -2l47 -6l29 -6l45 -8l30 -8l76 -25l74 -37l31 -18l26 -19l33 -20
l22 -16l11 -11l22 -16l12 -10l13 -15v-14l-6 -14l-31 -45l-78 -80l-61 -53l-39 -29l-13 -8l-16 -2l-76 49l-28 16l-66 27l-35 8l-35 6l-96 6h-14l-33 -2l-53 -4l-33 -8l-61 -29l-27 -18l-27 -21l-22 -22l-21 -27l-18 -26l-16 -29l-13 -31l-10 -33l-8 -30l-12 -62l-7 -33
l-2 -34v-35l4 -49l17 -80l10 -33l21 -49l14 -29l24 -37l21 -24l37 -35l26 -21l41 -22l31 -12l62 -15l34 -4l35 -2h33l33 4l141 33l33 12l31 15l20 14l6 12v23l2 18v31l-4 61v35l-8 13l-23 4h-49l-33 -2l-47 -7l-32 -2h-48l-32 2l-70 13l-12 4l-8 10l-4 25l-3 16l-2 33l2 51
l-4 61l-4 31v43l6 23l11 10l24 4l51 6l35 2h94l134 6l163 -10h33l84 10l33 2l16 -2l31 -6l14 -8l4 -12l7 -29l2 -16zM1147 1954l-10 -45l-23 -60l-18 -32l-35 -41l-70 -58l-16 -10l-49 -25l-35 -10l-39 -8h-16l-35 -2l-19 -2h-32l-15 2l-33 2h-18l-33 6l-14 2l-35 13l-33 14
l-16 8l-29 18l-49 41l-22 25l-31 43l-21 45l-6 18l-12 50l-2 30l-2 17l2 18l8 4l12 4h21l12 2h31l45 -4h33l53 4h33l22 -2h13l10 -8l4 -14l4 -19l8 -16l21 -20l14 -7l14 -4l17 -2h26l25 8l16 11l13 14l8 16l4 13l2 10l4 10l10 6l19 2l86 2h30l125 -4h13l10 -6l4 -24z" />
    <glyph glyph-name="Gdotaccent" unicode="&#x120;" horiz-adv-x="1638" 
d="M1481 805l-8 -133v-193l-5 -86v-121l-2 -22l-28 -47l-19 -27l-35 -35l-24 -22l-12 -13l-68 -43l-41 -20l-59 -23l-47 -14l-31 -8l-64 -12l-47 -6l-59 -11l-82 -10l-31 -2l-63 4l-47 4l-33 4l-33 6l-102 29l-31 8l-72 25l-67 37l-52 37l-49 39l-55 53l-20 24l-23 31
l-70 121l-28 63l-11 33l-10 35l-12 68l-4 32l-8 45l-4 33l-2 31v31l6 92l4 16l6 35l8 35l41 131l29 67l14 29l45 62l45 51l78 67l51 39l123 74l35 14l35 11l32 8l76 12l60 8l30 6l31 4l47 5l33 2l45 -5l31 -2l47 -6l29 -6l45 -8l30 -8l76 -25l74 -37l31 -18l26 -19l33 -20
l22 -16l11 -11l22 -16l12 -10l13 -15v-14l-6 -14l-31 -45l-78 -80l-61 -53l-39 -29l-13 -8l-16 -2l-76 49l-28 16l-66 27l-35 8l-35 6l-96 6h-14l-33 -2l-53 -4l-33 -8l-61 -29l-27 -18l-27 -21l-22 -22l-21 -27l-18 -26l-16 -29l-13 -31l-10 -33l-8 -30l-12 -62l-7 -33
l-2 -34v-35l4 -49l17 -80l10 -33l21 -49l14 -29l24 -37l21 -24l37 -35l26 -21l41 -22l31 -12l62 -15l34 -4l35 -2h33l33 4l141 33l33 12l31 15l20 14l6 12v23l2 18v31l-4 61v35l-8 13l-23 4h-49l-33 -2l-47 -7l-32 -2h-48l-32 2l-70 13l-12 4l-8 10l-4 25l-3 16l-2 33l2 51
l-4 61l-4 31v43l6 23l11 10l24 4l51 6l35 2h94l134 6l163 -10h33l84 10l33 2l16 -2l31 -6l14 -8l4 -12l7 -29l2 -16zM965 1804l-11 -30l-14 -25l-20 -25l-25 -20l-18 -12l-7 -2l-10 -7l-24 -8l-31 -8l-31 -2h-45l-29 6l-26 8l-25 13l-22 16l-23 21l-22 24l-17 29l-10 30
l-4 31v31l4 29l8 26l15 27l22 31l27 24l28 21l31 14l45 12h14l33 2l31 -6l14 -2l27 -8l14 -6l25 -13l35 -28l18 -25l12 -28l7 -13l6 -28l4 -31v-31z" />
    <glyph glyph-name="gdotaccent" unicode="&#x121;" horiz-adv-x="1638" 
d="M1481 805l-8 -133v-193l-5 -86v-121l-2 -22l-28 -47l-19 -27l-35 -35l-24 -22l-12 -13l-68 -43l-41 -20l-59 -23l-47 -14l-31 -8l-64 -12l-47 -6l-59 -11l-82 -10l-31 -2l-63 4l-47 4l-33 4l-33 6l-102 29l-31 8l-72 25l-67 37l-52 37l-49 39l-55 53l-20 24l-23 31
l-70 121l-28 63l-11 33l-10 35l-12 68l-4 32l-8 45l-4 33l-2 31v31l6 92l4 16l6 35l8 35l41 131l29 67l14 29l45 62l45 51l78 67l51 39l123 74l35 14l35 11l32 8l76 12l60 8l30 6l31 4l47 5l33 2l45 -5l31 -2l47 -6l29 -6l45 -8l30 -8l76 -25l74 -37l31 -18l26 -19l33 -20
l22 -16l11 -11l22 -16l12 -10l13 -15v-14l-6 -14l-31 -45l-78 -80l-61 -53l-39 -29l-13 -8l-16 -2l-76 49l-28 16l-66 27l-35 8l-35 6l-96 6h-14l-33 -2l-53 -4l-33 -8l-61 -29l-27 -18l-27 -21l-22 -22l-21 -27l-18 -26l-16 -29l-13 -31l-10 -33l-8 -30l-12 -62l-7 -33
l-2 -34v-35l4 -49l17 -80l10 -33l21 -49l14 -29l24 -37l21 -24l37 -35l26 -21l41 -22l31 -12l62 -15l34 -4l35 -2h33l33 4l141 33l33 12l31 15l20 14l6 12v23l2 18v31l-4 61v35l-8 13l-23 4h-49l-33 -2l-47 -7l-32 -2h-48l-32 2l-70 13l-12 4l-8 10l-4 25l-3 16l-2 33l2 51
l-4 61l-4 31v43l6 23l11 10l24 4l51 6l35 2h94l134 6l163 -10h33l84 10l33 2l16 -2l31 -6l14 -8l4 -12l7 -29l2 -16zM965 1804l-11 -30l-14 -25l-20 -25l-25 -20l-18 -12l-7 -2l-10 -7l-24 -8l-31 -8l-31 -2h-45l-29 6l-26 8l-25 13l-22 16l-23 21l-22 24l-17 29l-10 30
l-4 31v31l4 29l8 26l15 27l22 31l27 24l28 21l31 14l45 12h14l33 2l31 -6l14 -2l27 -8l14 -6l25 -13l35 -28l18 -25l12 -28l7 -13l6 -28l4 -31v-31z" />
    <glyph glyph-name="Gcommaaccent" unicode="&#x122;" horiz-adv-x="1638" 
d="M1481 805l-8 -133v-193l-5 -86v-121l-2 -22l-28 -47l-19 -27l-35 -35l-24 -22l-12 -13l-68 -43l-41 -20l-59 -23l-47 -14l-31 -8l-64 -12l-47 -6l-59 -11l-82 -10l-31 -2l-63 4l-47 4l-33 4l-33 6l-102 29l-31 8l-72 25l-67 37l-52 37l-49 39l-55 53l-20 24l-23 31
l-70 121l-28 63l-11 33l-10 35l-12 68l-4 32l-8 45l-4 33l-2 31v31l6 92l4 16l6 35l8 35l41 131l29 67l14 29l45 62l45 51l78 67l51 39l123 74l35 14l35 11l32 8l76 12l60 8l30 6l31 4l47 5l33 2l45 -5l31 -2l47 -6l29 -6l45 -8l30 -8l76 -25l74 -37l31 -18l26 -19l33 -20
l22 -16l11 -11l22 -16l12 -10l13 -15v-14l-6 -14l-31 -45l-78 -80l-61 -53l-39 -29l-13 -8l-16 -2l-76 49l-28 16l-66 27l-35 8l-35 6l-96 6h-14l-33 -2l-53 -4l-33 -8l-61 -29l-27 -18l-27 -21l-22 -22l-21 -27l-18 -26l-16 -29l-13 -31l-10 -33l-8 -30l-12 -62l-7 -33
l-2 -34v-35l4 -49l17 -80l10 -33l21 -49l14 -29l24 -37l21 -24l37 -35l26 -21l41 -22l31 -12l62 -15l34 -4l35 -2h33l33 4l141 33l33 12l31 15l20 14l6 12v23l2 18v31l-4 61v35l-8 13l-23 4h-49l-33 -2l-47 -7l-32 -2h-48l-32 2l-70 13l-12 4l-8 10l-4 25l-3 16l-2 33l2 51
l-4 61l-4 31v43l6 23l11 10l24 4l51 6l35 2h94l134 6l163 -10h33l84 10l33 2l16 -2l31 -6l14 -8l4 -12l7 -29l2 -16zM1083 -381l-8 -25l-4 -16l-80 -192l-12 -27l-14 -27l-11 -14l-6 -2l-162 -2l-20 4l-6 8l6 23l22 47l29 53l6 19l-6 8l-12 6l-23 8l-28 16l-25 23l-20 25
l-7 14l-10 24l-4 27v33l6 35l13 32l18 25l10 12l21 17l26 14l35 14l33 9l24 2l27 -2l29 -5l20 -6l27 -10l31 -18l24 -17l21 -22l16 -27l6 -12l8 -25l2 -24z" />
    <glyph glyph-name="gcommaaccent" unicode="&#x123;" horiz-adv-x="1638" 
d="M1481 805l-8 -133v-193l-5 -86v-121l-2 -22l-28 -47l-19 -27l-35 -35l-24 -22l-12 -13l-68 -43l-41 -20l-59 -23l-47 -14l-31 -8l-64 -12l-47 -6l-59 -11l-82 -10l-31 -2l-63 4l-47 4l-33 4l-33 6l-102 29l-31 8l-72 25l-67 37l-52 37l-49 39l-55 53l-20 24l-23 31
l-70 121l-28 63l-11 33l-10 35l-12 68l-4 32l-8 45l-4 33l-2 31v31l6 92l4 16l6 35l8 35l41 131l29 67l14 29l45 62l45 51l78 67l51 39l123 74l35 14l35 11l32 8l76 12l60 8l30 6l31 4l47 5l33 2l45 -5l31 -2l47 -6l29 -6l45 -8l30 -8l76 -25l74 -37l31 -18l26 -19l33 -20
l22 -16l11 -11l22 -16l12 -10l13 -15v-14l-6 -14l-31 -45l-78 -80l-61 -53l-39 -29l-13 -8l-16 -2l-76 49l-28 16l-66 27l-35 8l-35 6l-96 6h-14l-33 -2l-53 -4l-33 -8l-61 -29l-27 -18l-27 -21l-22 -22l-21 -27l-18 -26l-16 -29l-13 -31l-10 -33l-8 -30l-12 -62l-7 -33
l-2 -34v-35l4 -49l17 -80l10 -33l21 -49l14 -29l24 -37l21 -24l37 -35l26 -21l41 -22l31 -12l62 -15l34 -4l35 -2h33l33 4l141 33l33 12l31 15l20 14l6 12v23l2 18v31l-4 61v35l-8 13l-23 4h-49l-33 -2l-47 -7l-32 -2h-48l-32 2l-70 13l-12 4l-8 10l-4 25l-3 16l-2 33l2 51
l-4 61l-4 31v43l6 23l11 10l24 4l51 6l35 2h94l134 6l163 -10h33l84 10l33 2l16 -2l31 -6l14 -8l4 -12l7 -29l2 -16zM1083 -381l-8 -25l-4 -16l-80 -192l-12 -27l-14 -27l-11 -14l-6 -2l-162 -2l-20 4l-6 8l6 23l22 47l29 53l6 19l-6 8l-12 6l-23 8l-28 16l-25 23l-20 25
l-7 14l-10 24l-4 27v33l6 35l13 32l18 25l10 12l21 17l26 14l35 14l33 9l24 2l27 -2l29 -5l20 -6l27 -10l31 -18l24 -17l21 -22l16 -27l6 -12l8 -25l2 -24z" />
    <glyph glyph-name="Hbar" unicode="&#x126;" horiz-adv-x="1785" 
d="M1100 930v133l-17 16l-104 6l-33 -2l-100 -12h-33l-100 8l-33 2l-94 -4l-17 -16l-6 -129l10 -17l27 -2l96 -4h33l98 6l125 -8h33l98 6zM1638 1114l-2 -22l-6 -9l-22 -4h-17l-32 -2h-15l-26 2l-11 -16l9 -119v-33l-9 -118v-33l6 -119v-33l-6 -119v-32l-4 -271l2 -32l8 -76
l3 -31l-3 -16l-4 -19l-10 -6l-20 -4h-45l-52 4l-32 2l-125 -8l-95 2l-24 2l-12 8l-7 19v12l-2 29l5 61v31l4 98v33l2 98v33l-2 98l2 29l-15 12l-102 -4h-33l-100 2h-33l-133 -4l-100 -2l-17 -8v-25l-4 -98v-33l6 -98v-33l2 -98v-33l4 -47l-2 -33v-18l-6 -25l-10 -14l-25 -2
l-32 2l-62 10h-31l-96 -10l-31 -2l-61 -2l-33 2l-24 10l-6 14v29l2 131v33l-13 295v33l9 125v32l-9 127v33l11 92v31l-7 92l-16 12l-12 -2h-31l-31 4l-20 9l-8 20l-4 62v28l4 62l8 22l22 10h29l47 -4l12 13l-2 26l7 111l2 22l8 6h18l27 3l162 10l32 -2l99 -11l26 -2l19 -4
l16 -10l4 -24v-117l17 -15h16l33 2l129 -2h33l129 -8h32l127 2l19 17l4 80l-2 34l-6 31l10 14l26 7l127 8l125 -8h95l22 -2l6 -9v-22l4 -129l11 -19l24 -4l19 2h30l15 -2h22l10 -6l2 -22z" />
    <glyph glyph-name="hbar" unicode="&#x127;" horiz-adv-x="1785" 
d="M729 909l98 6l125 -8h33l98 6l17 17v133l-17 16l-104 6l-33 -2l-100 -12h-33l-100 8l-33 2l-94 -4l-17 -16l-6 -129l10 -17l27 -2l96 -4h33zM1638 1114l-2 -22l-6 -9l-22 -4h-17l-32 -2h-15l-26 2l-11 -16l9 -119v-33l-9 -118v-33l6 -119v-33l-6 -119v-32l-4 -271l2 -32
l8 -76l3 -31l-3 -16l-4 -19l-10 -6l-20 -4h-45l-52 4l-32 2l-125 -8l-95 2l-24 2l-12 8l-7 19v12l-2 29l5 61v31l4 98v33l2 98v33l-2 98l2 29l-15 12l-102 -4h-33l-100 2h-33l-133 -4l-100 -2l-17 -8v-25l-4 -98v-33l6 -98v-33l2 -98v-33l4 -47l-2 -33v-18l-6 -25l-10 -14
l-25 -2l-32 2l-62 10h-31l-96 -10l-31 -2l-61 -2l-33 2l-24 10l-6 14v29l2 131v33l-13 295v33l9 125v32l-9 127v33l11 92v31l-7 92l-16 12l-12 -2h-31l-31 4l-20 9l-8 20l-4 62v28l4 62l8 22l22 10h29l47 -4l12 13l-2 26l7 111l2 22l8 6h18l27 3l162 10l32 -2l99 -11l26 -2
l19 -4l16 -10l4 -24v-117l17 -15h16l33 2l129 -2h33l129 -8h32l127 2l19 17l4 80l-2 34l-6 31l10 14l26 7l127 8l125 -8h95l22 -2l6 -9v-22l4 -129l11 -19l24 -4l19 2h30l15 -2h22l10 -6l2 -22z" />
    <glyph glyph-name="Imacron" unicode="&#x12a;" horiz-adv-x="706" 
d="M510 293l-8 -111v-32l-2 -113v-23l-6 -10l-17 -6l-28 -2l-105 2h-127l-102 8l-13 4l-6 6v21l-4 51v33l-2 31v30l-6 111l8 143l2 33l-6 113v32l-2 111v176l-2 113v33l2 110v176l-4 113l6 22l12 9l21 2h16l31 2l49 -2h33l94 4h127l23 -4l4 -13l2 -22l4 -53l2 -33v-201
l2 -110v-33l-2 -113v-33l2 -110v-33l-4 -111v-178l6 -110v-33zM672 1741l-2 -23l-4 -24l-11 -15l-12 -8l-27 -4l-18 -2h-33l-61 4h-33l-260 4h-33l-115 -2l-100 -6h-33l-14 2l-22 4l-13 8l-8 17l-4 26l-2 17v35l2 34v33l-2 35v35l4 18l4 27l6 14l13 8h22l115 -2h32l115 9h33
l145 -3l115 -4l98 7h33l16 -3l25 -4l14 -10l9 -14l2 -19l4 -20l-6 -74v-31z" />
    </font>
</defs>
</svg>
